<?xml version="1.0" encoding="utf-8"?>
<!-- Generator: Adobe Illustrator 23.0.3, SVG Export Plug-In . SVG Version: 6.00 Build 0)  -->
<svg version="1.1"
	 id="svg23" sodipodi:docname="logo.svg" xmlns:inkscape="http://www.inkscape.org/namespaces/inkscape" xmlns:sodipodi="http://sodipodi.sourceforge.net/DTD/sodipodi-0.dtd" xmlns:svg="http://www.w3.org/2000/svg"
	 xmlns="http://www.w3.org/2000/svg" xmlns:xlink="http://www.w3.org/1999/xlink" x="0px" y="0px" viewBox="0 0 308.8 304.9"
	 style="enable-background:new 0 0 308.8 304.9;" xml:space="preserve">
<style type="text/css">
	.st0{fill:url(#SVGID_1_);}
	.st1{fill:#FFFFFF;stroke:#666565;stroke-miterlimit:10;}
	.st2{fill:#FFFFFF;}
	.st3{opacity:0.53;enable-background:new    ;}
	.st4{fill:#FB9242;}
	.st5{fill:#4FD9B9;}
	.st6{fill:#313022;}
	.st7{fill:#1CC791;}
	.st8{fill:#FB891A;}
	.st9{fill:#EA6316;}
	.st10{fill:#F37619;}
	.st11{fill:#F48330;}
	.st12{fill:#22CD98;}
	.st13{fill:#1BA968;}
	.st14{fill:#ECA260;}
	.st15{fill:#28D6A3;}
	.st16{fill:#EF6B17;}
	.st17{opacity:0.6;enable-background:new    ;}
	.st18{fill:#29DCAC;}
	.st19{fill:#3CD8B3;}
	.st20{fill:#23CF97;}
	.st21{fill:#F87919;}
	.st22{fill:#FB8819;}
	.st23{fill:#F27218;}
	.st24{fill:#F47618;}
	.st25{fill:#A0220E;}
	.st26{fill:#ED5A15;}
	.st27{fill:#635E55;}
	.st28{fill:#2DE5B4;}
	.st29{fill:#33362F;}
	.st30{fill:#D17252;}
	.st31{fill:#2BE3A4;}
	.st32{fill:#F0622C;}
	.st33{fill:#EF4613;}
	.st34{opacity:0.27;enable-background:new    ;}
	.st35{opacity:0.38;enable-background:new    ;}
</style>
<linearGradient id="SVGID_1_" gradientUnits="userSpaceOnUse" x1="21.6327" y1="151.6084" x2="285.4872" y2="151.6084">
	<stop  offset="0" style="stop-color:#343C47"/>
	<stop  offset="0.9621" style="stop-color:#1B2129"/>
</linearGradient>
<circle class="st0" cx="153.6" cy="151.6" r="131.9"/>
<sodipodi:namedview  bordercolor="#000000" borderopacity="0.25" id="namedview25" inkscape:deskcolor="#d1d1d1" inkscape:pagecheckerboard="0" inkscape:pageopacity="0.0" inkscape:showpageshadow="2" pagecolor="#ffffff">
	</sodipodi:namedview>
<g>
	<path class="st1" d="M134.5,12c16.6-1.9,33.6-1.8,49.9,1.8c32.2,6.6,61.6,25.1,82,50.9c17.2,21.7,27.7,48.4,30,75.9
		c1.7,23.1-1.8,46.8-11.2,68c-7.5,17.1-18.3,32.7-31.7,45.6c-15.8,15.2-35.2,26.8-56.2,33.3c-10.8,3.3-22.1,5.7-33.5,5.8
		c-12.2,0.3-24.6,0.6-36.7-1.9c-28.3-5.4-54.7-19.6-74.8-40.2c-11.8-11.9-21.2-26-28.1-41.2c-6.2-13.9-10.2-28.7-11.6-43.9
		c-0.3-8.4-0.3-16.8-0.1-25.2c0-2.9,0.4-5.8,0.8-8.7c4.2-30.3,18.8-59.1,40.6-80.5C75.5,30.3,104.2,15.7,134.5,12 M128.4,23.5
		c-1,0.3-2.2,0-3,0.7c-5.8,1-11.3,3-16.8,4.8c-2.1,0.9-4.3,1.7-6.4,2.6c-4,1.7-7.8,3.7-11.6,5.7C70.8,48.2,54,64.3,42,83.4
		c-1.4,2.3-2.7,4.6-4,6.9c-1.2,2.5-2.5,4.9-3.7,7.4c-0.8,1.7-1.5,3.5-2.3,5.2c-3.4,8.3-6,17-7.6,25.9c-2,10.9-2.4,22-1.8,33l0.1,0
		c0.6,10.8,3.1,21.4,6.1,31.8l0.4-0.2c0,1.6,0.9,2.9,1.3,4.4c0.9,2.2,1.7,4.3,2.6,6.4c0.8,1.9,1.7,3.7,2.6,5.6
		c0.4,0.8,0.8,1.5,1.2,2.3c0.9,1.6,1.7,3.1,2.6,4.7c2.7,4.8,5.8,9.2,8.9,13.8l0.3,0.1c0.5,0.7,1,1.5,1.4,2.3l0.3,0
		c0.5,1.1,1.4,1.8,2,2.9l0.2,0c0.6,1.3,1.8,2.1,2.6,3.2c0.1,0.2,0.4,0.5,0.5,0.7c2.3,2.9,5.4,5.2,7.6,8.1c0.3,0,0.9,0.1,1.1,0.1
		c-0.5,0.8-0.2,1.2,0.9,1.1l-0.2,0.7l0.8-0.2l-0.2,0.7l0.7-0.1v0.8l0.6-0.3l0,0.6c1.3,0.6,2,2.2,3.4,2.5v0.4c1,0.2,1.3,1.3,2.3,1.4
		l-0.1,0.4c1,0.1,1.5,1,2.4,1.3l0,0.4c2.7,1.3,4.8,3.5,7.5,4.8l0,0.4c0.6,0.2,1.3,0.4,1.9,0.7l-0.2,0.7c0.3-0.1,0.8-0.2,1-0.3
		l0.1,0.6c0.6,0.2,1.3,0.5,1.9,0.7l-0.1,0.7c0.2-0.1,0.7-0.3,1-0.4l0.1,0.6c0.7,0.3,1.3,0.6,2,0.9c0.5,0.7,1.1,1.1,2,1l0,0.7
		c0.3-0.1,0.8-0.2,1.1-0.3l0.1,0.8c0.3-0.1,0.8-0.2,1-0.3l0.1,0.8c0.3-0.1,0.8-0.2,1-0.3l0.1,0.8c0.3-0.1,0.8-0.2,1.1-0.3l0.1,0.8
		c0.3-0.1,0.8-0.2,1.1-0.3l0,0.7c1.8,0.1,3.2,1.4,4.9,1.9c1.1,0.6,2.4,0.7,3.4,1.5c0.9,0.2,1.7,0.4,2.5,0.7
		c3.8,1.5,7.8,2.6,11.7,3.7c20.9,5.3,43,5.8,64,0.9c0.8-0.2,1.6-0.3,2.3-0.6c1.2-0.3,2.4-0.6,3.6-0.9c0.8-0.3,1.7-0.6,2.6-0.9
		c2.9-0.8,5.8-1.7,8.5-3c0.2,0,0.5,0.1,0.7,0.1c0.9-0.6,1.9-1,2.9-1.3c0.5-0.4,1.1-0.6,1.7-0.6l0.1-0.6c0.3,0.1,0.8,0.2,1,0.2
		l0.2-0.6c1.4-0.2,2.5-1.1,3.9-1.3l0-0.6c0.3,0.1,0.8,0.2,1.1,0.3l0-0.8c0.3,0,0.8,0.1,1.1,0.2l0.1-0.8c0.3,0.1,0.8,0.2,1.1,0.2
		l0-0.6c0.6-0.2,1.2-0.4,1.7-0.7c0.5-0.2,1-0.5,1.4-0.7c0.6-0.7,1.4-1,2.2-1.4c1.2-0.7,2.2-1.6,3.5-2c0.6-0.5,1.3-1.1,1.9-1.6
		c0.2,0.1,0.6,0.2,0.9,0.3l-0.2-0.9l0.6,0.1c1-0.6,2-1.3,2.9-2.2c1-0.3,1.4-1.4,2.5-1.4l-0.3-0.5c1-0.1,1.5-1.2,2.5-1.3l-0.3-0.7
		l0.6,0.3c0.8-0.7,1.4-1.8,2.5-1.8l-0.3-0.4c1.3-0.2,1.8-1.9,3.2-1.9l-0.5-0.8l0.9,0.5l-0.2-0.9l0.6,0.2c3.2-3.2,6.5-6.3,9.6-9.5
		c0.8-0.8,1.8-1.5,2.1-2.6l0.7,0.2l-0.4-0.8l0.6,0c0.6-1.4,2.1-2.1,2.6-3.5l0.4,0.1c0.1-1.1,1.2-1.7,1.9-2.5l-0.3-0.7l0.8,0.4
		c-0.2-1.1,1.1-1.6,1.3-2.5c0.4-0.5,0.7-1,1.1-1.5c0.7-0.4,0.8-1.3,1.1-1.9l0.4,0.1c1.4-3.2,3.7-5.9,5.4-9l-0.5-0.1
		c0.2,0,0.6,0,0.9-0.1c0.1-0.4,0.3-1.1,0.5-1.5c1-2.1,2.6-4.1,3.1-6.5l0.2,0.3c0.7-1.6,1.6-3.2,2.1-4.9c0.1-0.1,0.3-0.2,0.4-0.3
		c0.1-1.1,0.6-2,1.1-3c0.8-2.4,2-4.7,2.5-7.2c0.1,0,0.3-0.1,0.4-0.2c0-1.1,0.4-2.1,0.7-3.1c7.1-22.6,7.6-47.1,2-70.2
		c-1.2-4.4-2.5-8.8-4-13.2c-0.4-0.9-0.8-1.9-1.1-2.9c-0.9-2.3-2-4.5-2.9-6.8c-0.2-0.4-0.5-1.1-0.7-1.4c-0.5-1.1-1.1-2.1-1.6-3.2
		c-0.4-0.8-0.8-1.5-1.2-2.2c-0.7-1.2-1.4-2.4-2-3.6c-0.6-1-1.1-1.9-1.7-2.9c-5.7-9.4-12.5-18-20.4-25.6c-5.7-5.7-12-10.7-18.6-15.3
		l-0.1,0.5l0.2-0.8c-2-0.6-3.5-2.1-5.4-3.1c-3.2-2-6.5-3.7-9.9-5.5c-0.3-0.1-0.9-0.4-1.2-0.6c-2.3-1.1-4.6-2.1-6.9-3.1
		c-0.7-0.3-1.5-0.6-2.2-0.9c-2.1-0.8-4.2-1.6-6.3-2.3c-2.5-0.8-4.9-1.6-7.5-2.3c-6.9-1.8-13.9-3.2-21.1-3.9l0.1-0.2
		c-4.9-0.1-9.8-0.8-14.8-0.7C145,21.1,136.6,21.8,128.4,23.5z"/>
	<path class="st2" d="M169.1,135.6c0.3,0.7,0.7,1.4,1,2.1c0.9,3.7-1,7.4-3.8,9.8c-2.1,1.8-5,2.2-7.7,2.2c-6.4,0.1-12.8-0.1-19.3,0.1
		c-0.8,0-1.7,0-2.5,0c0.9-0.2,1.8-0.3,2.7-0.3c6.9,0,13.8,0.1,20.7,0c4.9-0.1,9.3-4.4,9.7-9.2C170.1,138.6,169.7,137,169.1,135.6z"
		/>
	<path class="st2" d="M113.4,169.3c2.8-10.4,12.7-17.5,23-19.5c-3.4,1.1-6.8,2-9.9,3.8c-6.4,3.4-11.4,9.4-13.1,16.4
		c-2.1,7.8-0.5,15.9-1.3,23.9c0-6.4-0.1-12.8,0-19.2C112.6,173,112.9,171.1,113.4,169.3z"/>
</g>
<g>
	<path class="st3" d="M266.4,64.6c0.5,0.4,1.1,0.9,1.5,1.4c9.2,11.9,17,25.1,22,39.4c4.6,12.6,7.6,26,8.3,39.4
		c-0.1,1.7-0.3,3.3-0.6,5c-1.1-3,0.4-6.4-1.3-9.3C294.2,113,283.6,86.2,266.4,64.6z"/>
</g>
<g>
	<path class="st4" d="M58.1,116.7c1.5-0.5,3.1-0.1,4.7,0c34.3,0.1,68.6-0.1,102.8,0.1c3,0.9,6.2,1.5,8.7,3.4
		c-3.3-0.7-6.4-2.5-9.8-2.7c-2.2-0.2-4.3-0.3-6.5-0.3c-32.9,0.1-65.9-0.1-98.8,0.1c-0.5,4.3,0,8.7-0.4,13l-0.7,0.2
		C58.1,125.9,58.2,121.3,58.1,116.7z"/>
</g>
<g>
	<path class="st5" d="M203.5,120.5c5.5-3.1,11.9-4.3,18.2-4.2c9.4,0.1,18.8,0,28.1,0.1l-0.1,0.6c-7.2,0.6-14.5,0.1-21.8,0.3
		c-5.4,0.1-10.8-0.4-16.1,0.8c-3.8,1-7.4,2.6-10.6,4.8c-4.8,3.2-8.7,7.8-11,13.1c-1.5,2.9-2.3,6.1-2.7,9.3c-0.5,3.1-0.5,6.2-0.6,9.2
		c-0.7-3.1-0.4-6.2-0.2-9.3c0.4-3.4,1.3-6.8,2.8-9.8C192.5,129,197.4,123.8,203.5,120.5z"/>
</g>
<g>
	<path class="st6" d="M249.8,116.3l0.4,0.2c0.1,0.3,0.3,0.9,0.3,1.2c-0.1,2.6-0.3,5.3-0.1,7.9c0,1.9,0,3.7,0,5.6
		c-5.4-0.3-10.8,0-16.1-0.1c-5.4-0.1-10.9,0.8-16.3-0.1c2.4-0.3,4.8-0.3,7.2-0.3c8.2-0.1,16.5-0.2,24.7,0l0-0.7
		c-0.1-4.3-0.1-8.7,0-13L249.8,116.3z"/>
</g>
<g>
	<path class="st7" d="M228,117.2c7.3-0.2,14.6,0.3,21.8-0.3c-0.1,4.3-0.1,8.7,0,13l-0.3-0.1c-5.7-1.1-11.6,0-17.4-0.6
		c-0.8-0.3-1.3-0.9-2-1.4c-3.7,0.4-7.8-0.2-10.8-2.5c-0.9,0.5-1.7,1-2.6,1.5c-0.9-0.9-1.6-2.1-2.7-2.7c-1.4-0.2-2.9,0-4.3-0.5
		c-1.3-0.4-2.6-1.2-4-1.4c-1.5,0.1-2.9,0.5-4.4,0.7c3.2-2.2,6.8-3.9,10.6-4.8C217.1,116.8,222.6,117.3,228,117.2z"/>
</g>
<g>
	<path class="st8" d="M59.2,117.3c32.9-0.1,65.9,0,98.8-0.1c2.2,0,4.3,0.1,6.5,0.3c-8.2,0.2-16.4,0-24.5,0.2
		c-11.2,0-22.4,0-33.6,0.2c-3.2-0.5-4.8,5.2-1.6,6.3c2.9,1.4,5,4.6,8.5,4.6c5.5,0,11.1,0.1,16.6,0.1c1.3,0,2.5,0.3,3.8,0.6
		c-8.2,0.5-16.3,0-24.5,0.5c-0.2,12.3,0.1,24.6-0.2,36.8c0,1.1,0.2,2.3,0.4,3.4c-0.1,1-0.1,1.9-0.2,2.9c0-0.9-0.1-1.9-0.1-2.8
		c-0.4,1.3-0.7,2.5-1,3.8c-0.6-2.1-0.5-4.6-2-6.4c-1-1.3-2.1-2.6-3.5-3.4c-2.3-1.3-4.3-3.1-5.6-5.3c-0.5-1.9-0.5-4-0.7-6
		c-0.3,4.6,0.1,9.3-0.7,13.9c-0.1-10,0-20,0-30c0-1.5-0.2-2.9-0.4-4.4c0.1-0.8,0.1-1.5,0.2-2.3c-12.2,0.2-24.5,0-36.7,0.1
		C59.2,126,58.7,121.6,59.2,117.3z"/>
</g>
<g>
	<path class="st9" d="M164.5,117.5c3.5,0.2,6.5,2,9.8,2.7l0.1,0.1c0.8,1,1.7,1.9,2.6,2.7c1.6,1.3,2.8,3.1,4.7,3.9h0
		c3.4,4.8,2.8,11.1,2,16.7c-0.2-2.2-0.3-4.4-0.2-6.6c-0.7,2.2-2.8,3.2-4.6,4.4c-2.8-1.1-5-3.2-6.8-5.6c-0.7,0.6-1.5,1.2-2.2,1.8
		c-0.3-0.7-0.6-1.4-1-2.1c-1.4-2.9-4.2-5.2-7.6-5.2c-17.3-0.1-34.6,0-51.8,0c0.7,6,0.2,12,0.3,18c0.1,7.2-0.1,14.5-0.6,21.7
		c-0.2-1.1-0.4-2.2-0.4-3.4c0.3-12.3,0-24.6,0.2-36.8c8.2-0.4,16.3,0,24.5-0.5c3.9,0.4,7.8,0.1,11.7,0.1c4.4-0.1,8.9,0.1,13.3-0.3
		c-3.8-0.6-7.7-0.7-11.4-1.8c-3.9-1.9-5.2-6.3-7.3-9.7C148.1,117.5,156.3,117.7,164.5,117.5z"/>
</g>
<g>
	<path class="st10" d="M104.7,124.1c-3.1-1.1-1.5-6.8,1.6-6.3c11.2-0.2,22.4-0.2,33.6-0.2c2.1,3.4,3.5,7.8,7.3,9.7
		c3.7,1.1,7.6,1.2,11.4,1.8c-4.4,0.5-8.9,0.3-13.3,0.3c-3.9,0-7.8,0.3-11.7-0.1c-1.2-0.3-2.5-0.6-3.8-0.6c-5.5,0-11.1,0-16.6-0.1
		C109.7,128.8,107.7,125.5,104.7,124.1z"/>
</g>
<g>
	<path class="st11" d="M174.5,120.3c3.1,1.4,5.3,4,7.3,6.6c-1.9-0.9-3.1-2.7-4.7-3.9C176.1,122.3,175.2,121.4,174.5,120.3z"/>
</g>
<g>
	<path class="st12" d="M201.3,122.9c1.5-0.2,2.9-0.6,4.4-0.7c1.4,0.2,2.6,1,4,1.4c1.4,0.5,2.9,0.3,4.3,0.5c1.1,0.6,1.8,1.8,2.7,2.7
		c0.8-0.5,1.7-1,2.6-1.5c3,2.4,7.1,2.9,10.8,2.5c0.6,0.5,1.2,1.1,2,1.4c5.8,0.7,11.6-0.5,17.4,0.6c-10.7,0.8-21.5-0.1-32.3,0.4
		c-4.5,0.3-8.6,2.6-11.8,5.7c-0.8,0.3-1.5,0.7-2.3,1c-1.3-2-3.8-2-5.9-2.1c-1.7,0-3.1-1-4.4-1.8c-0.6,1.1-1.1,2.5-2.4,2.9
		C192.6,130.7,196.5,126.1,201.3,122.9z"/>
</g>
<g>
	<path class="st13" d="M205.3,136c3.2-3.1,7.3-5.4,11.8-5.7c10.8-0.5,21.6,0.4,32.3-0.4l0.3,0.1l0,0.7c-8.2-0.2-16.5-0.1-24.7,0
		c-2.4-0.1-4.8,0-7.2,0.3c-9.4,0.3-17.3,9.5-16.6,18.8c-0.2,0.2-0.6,0.5-0.7,0.7C200.1,145.2,201.9,139.9,205.3,136z"/>
</g>
<g>
	<path class="st14" d="M94.8,135.6c0.1-1,0.3-2,0.5-3c0.2,1.5,0.4,2.9,0.4,4.4c-0.1,10-0.1,20,0,30c-0.3,2.9-1.1,5.9-2.9,8.3
		c-0.9,1.3-2,2.3-3.3,3.1c0.2-0.3,0.7-0.9,1-1.2c2.8-2.9,4.5-6.9,4.4-10.9C94.8,156,95,145.8,94.8,135.6z"/>
</g>
<g>
	<path class="st15" d="M190.3,136c1.3-0.4,1.7-1.8,2.4-2.9c1.3,0.8,2.7,1.8,4.4,1.8c2.1,0.1,4.6,0.1,5.9,2.1c0.8-0.4,1.5-0.7,2.3-1
		c-3.4,3.9-5.2,9.2-4.7,14.5c1.9-0.3,3.8-0.5,5.8-0.3c3.9,1.5,8.5-0.1,12.2,1.9c1.3,1.6,2.2,3.5,4,4.6c2.2,2,5.4,2.4,7.9,3.9
		c-0.1,0.3-0.2,0.8-0.2,1.1c-7.3,0-14.6-0.1-21.9-0.1c-3.3,0.1-6.5-0.8-9.7-1.6c-1.7-0.3-2.8-1.9-4.3-2.6c-1-0.6-2.5-0.9-2.9-2.3
		c-0.9-2.2-1.8-4.5-3-6.6c-0.1,1.1-0.3,2.3-0.4,3.5c0-2.2-0.2-4.4-0.5-6.6C188,142.1,188.8,138.9,190.3,136z"/>
</g>
<g>
	<path class="st16" d="M170,137.6c0.7-0.6,1.5-1.2,2.2-1.8c1.8,2.4,4,4.5,6.8,5.6c1.8-1.2,3.9-2.2,4.6-4.4c-0.1,2.2,0,4.4,0.2,6.6
		c-0.7,4-2.4,7.8-5.3,10.7c-0.8,0.7-1.6,1.4-2.5,2.1c-1.3-0.6-2.3,0.4-3.4,0.9c-1.2,0.7-2.5,1.3-3.8,1.7c-1-1.6-2.8-2-4.2-3
		c-1.6-1.5-2.9-3.3-4.9-4.4c-1.6-1-3.5-1-5.2-1.1c-4,0-8-0.1-12-0.1c-1.1,0-2.2-0.4-3.2-0.8c6.4-0.2,12.8-0.1,19.3-0.1
		c2.7,0,5.5-0.5,7.7-2.2C169,145.1,170.9,141.3,170,137.6z"/>
</g>
<g>
	<path class="st17" d="M296.4,140.5c1.7,2.8,0.1,6.2,1.3,9.3c0.3-1.7,0.5-3.3,0.6-5c0,1.6,0,3.2,0,4.8c0,2.3,0.8,4.5,0.4,6.8
		c-0.8,3.8,0,7.7-0.8,11.5c-0.8,8.8-2.3,17.6-4.9,26c-1.8,4.8-3.7,9.6-5.5,14.4c-0.7,1.4-1.4,2.9-1.9,4.4
		c-4.8,10.2-10.4,20-17.4,28.8c-5.6,7.6-12.8,13.8-19.3,20.6c-4.1,4-8.9,7.3-13.7,10.6c-7.2,4.8-14.8,8.9-22.7,12.4
		c-1.7,0.7-3.3,1.6-5.1,1.9c-1.9,0.2-3.7,0.8-5.4,1.6l0.7,0.4c-10.4,3.5-21.2,6-32.1,7c-8.4,0.1-16.8,0.2-25.2,0.1
		c-8.2,0.1-16.2-1.5-24.1-3.3C89.4,285,60.3,266,40.8,239.6c-6.7-8.4-11.8-17.9-16.3-27.5c-0.4-0.6-0.3-1.3-0.3-2
		c6.9,15.2,16.4,29.3,28.1,41.2c20.1,20.6,46.6,34.9,74.8,40.2c12.1,2.4,24.4,2.1,36.7,1.9c11.4-0.1,22.6-2.5,33.5-5.8
		c21-6.6,40.4-18.1,56.2-33.3c13.4-12.9,24.3-28.5,31.7-45.6C294.6,187.3,298.1,163.7,296.4,140.5z"/>
</g>
<g>
	<path class="st18" d="M187,154.5c0.1-3.1,0.1-6.2,0.6-9.2c0.2,2.2,0.4,4.4,0.5,6.6c0.1-1.2,0.3-2.3,0.4-3.5c1.2,2.1,2.1,4.3,3,6.6
		c0.4,1.3,1.8,1.6,2.9,2.3c1.6,0.7,2.6,2.2,4.3,2.6c3.2,0.8,6.4,1.7,9.7,1.6c7.3,0,14.6,0.1,21.9,0.1c4.4,0,8.8-0.2,13.2,0.3
		c-17.3,0.7-34.6,0.3-51.9,0.3C189.5,160.1,187.3,157.7,187,154.5z"/>
</g>
<g>
	<path class="st19" d="M201.4,149.8c1.1-0.4,2.3-0.6,3.5-0.9c15,0.1,30,0,45,0l-0.1,0.7c-4,0.6-8.1,0.2-12.1,0.3
		c-10.4,0.1-20.9-0.1-31.3,0.2c-1.9-0.2-3.9,0-5.8,0.3C200.8,150.3,201.2,149.9,201.4,149.8z"/>
</g>
<g>
	<path class="st20" d="M237.7,149.9c4-0.1,8.1,0.2,12.1-0.3c-0.1,4.4-0.1,8.8,0,13.1c-7.5,0.2-15,0.1-22.4,0.1
		c-5.3-0.5-10.7,0.3-16,0.1c-6.4-0.2-12.9,0.5-19.2-0.4l-0.4-0.3c17.3,0,34.6,0.3,51.9-0.3c-4.4-0.5-8.8-0.3-13.2-0.3
		c0.1-0.3,0.2-0.8,0.2-1.1c-2.6-1.5-5.7-1.8-7.9-3.9c-1.8-1.1-2.7-3-4-4.6c-3.8-2-8.3-0.4-12.2-1.9
		C216.8,149.8,227.3,150,237.7,149.9z"/>
</g>
<g>
	<path class="st21" d="M136.4,149.8c0.1,0,0.3-0.1,0.4-0.1c0.8,0,1.7,0,2.5,0c1,0.4,2.1,0.8,3.2,0.8c4,0,8,0.1,12,0.1
		c1.8,0,3.7,0.1,5.2,1.1c2,1,3.3,2.9,4.9,4.4c1.4,1,3.2,1.4,4.2,3c1.3-0.4,2.6-0.9,3.8-1.7c1-0.5,2.1-1.6,3.4-0.9
		c0.8-0.7,1.6-1.4,2.5-2.1c0,0.2-0.1,0.7-0.1,1c-0.7,0.7-1.5,1.6-2.6,1.7c-2.4,1.8-5.1,3.4-8.2,3.9c2.8,1.5,5.2,3.8,7.4,6
		c2.9,3,6.3,5.6,9.3,8.6c1.1,0.9,2.2,1.7,3.4,2.5c0,5,0,10,0,15c-6-1.3-11.4-4.6-15.6-9.1c-2.9-2.2-5.2-5.1-8.1-7.3
		c-2-1.6-3.7-3.7-5.8-5.2c-2-1.5-3.7-3.4-5.5-5.1c0.5-1.1-0.6-1.8-1.4-2.3c-2.8-1.7-6.1-2.1-9-3.6c-2.3-1.2-4.5-2.7-6.5-4.5
		c-1.2-1.1-1.8-2.8-3.4-3.4c-2.1,0-4,1.7-6.2,1.2C129.6,151.8,133,150.9,136.4,149.8z"/>
</g>
<g>
	<path class="st22" d="M126.5,153.7c2.2,0.5,4-1.2,6.2-1.2c1.6,0.6,2.2,2.4,3.4,3.4c1.9,1.8,4.2,3.3,6.5,4.5c2.9,1.5,6.2,1.9,9,3.6
		c0.8,0.5,1.9,1.1,1.4,2.3c-3.2-2.3-7.1-3.6-11-3.4c-5-0.2-10.4,1.7-13,6.2c-3.3,5.1-1.6,11.4-2.2,17.1c-0.2-3.5,0.7-7.2-0.6-10.6
		c-0.8,5.8,0,11.8-0.6,17.6c-0.5-4.4,0.1-8.8-0.6-13.1c-1.6-2.2-3.4-4.5-5.8-6c-1.9-1.4-4.1-2.3-5.8-3.9
		C115.2,163.1,120.1,157,126.5,153.7z"/>
</g>
<g>
	<path class="st23" d="M96.3,152.9c0.2,2,0.1,4,0.7,6c1.3,2.3,3.3,4.1,5.6,5.3c1.5,0.8,2.5,2.1,3.5,3.4c1.5,1.8,1.3,4.2,2,6.4
		c-0.9,3.8-3.1,7.2-5.6,10.1c-2.6-0.8-5-2.3-6.8-4.3c-1.1-1.4-2.6-2.7-2.8-4.7c1.8-2.4,2.5-5.4,2.9-8.3
		C96.4,162.3,96,157.6,96.3,152.9z"/>
</g>
<g>
	<path class="st24" d="M113.4,170.1c1.7,1.7,3.9,2.5,5.8,3.9c2.3,1.5,4.1,3.8,5.8,6c0.7,4.3,0.1,8.7,0.6,13.1
		c0.6-5.9-0.3-11.8,0.6-17.6c1.3,3.4,0.4,7.1,0.6,10.6c-0.2,2.6-0.1,5.2-0.1,7.8c-4.7,0.2-9.5-0.2-14.2,0.1l-0.4,0.2l0-0.3
		C112.9,186,111.2,177.9,113.4,170.1z"/>
</g>
<g>
	<path class="st25" d="M108.1,174c0.3-1.3,0.6-2.5,1-3.8c0.1,0.9,0.1,1.9,0.1,2.8c-1.7,7.5-7,13.7-13.5,17.5
		c-4.6,2.7-9.9,3.6-15.1,3.8c-7.4-0.1-14.8-0.1-22.3,0l-0.4-0.3l0.6-0.2l0.7-0.2c5.2,0.1,10.4,0,15.7,0.1c5.4,0,10.9,0,16.1-1.9
		c4.4-1.6,8.4-4.2,11.5-7.7C105,181.2,107.1,177.8,108.1,174z"/>
</g>
<g>
	<path class="st26" d="M89.5,178.3c1.3-0.8,2.4-1.8,3.3-3.1c0.2,1.9,1.7,3.2,2.8,4.7c1.8,2,4.2,3.5,6.8,4.3
		c-3.1,3.5-7.2,6.1-11.5,7.7c0-0.7,0.2-1.4-0.1-2c-2-2.3-4.8-3.6-6.9-5.7c-0.7-1.1,0.1-2.2,0.5-3.3l0.1-0.3
		C86.3,180.1,88,179.3,89.5,178.3z"/>
</g>
<g>
	<path class="st27" d="M81.7,180.1c3.2,0.1,6-1.7,8.8-3.1c-0.2,0.3-0.7,0.9-1,1.2c-1.5,1-3.2,1.8-5,2.2c-0.8-0.3-1.7-0.1-2.3,0.5
		c-7.7,0.1-15.3,0.1-23,0l-0.7,0c0.1,4.3,0,8.6-0.1,12.8l-0.6,0.2c0.1-4.6,0-9.3,0.1-13.9C65.9,180.2,73.8,180.2,81.7,180.1z"/>
</g>
<g>
	<path class="st28" d="M187.8,178c2.1,1.2,4.5,1.9,6.9,2.2c0.9,0.1,1.9,0.3,2.8,0.3c16.3,0.1,32.6,0,48.9,0.1
		c-3.8,0.8-7.8,0.4-11.6,0.5c-6.5,0.1-13.1-0.2-19.4,1.3c-0.4,0.7-0.9,1.5-1.4,2.1c1.7,1.3,2.9,3,4.4,4.4c1.4,1.3,3.3,1.7,5,2.6
		c3.3,2.1,7.3,0.6,11,1.4c-6.3,0.8-12.7,0.1-19.1,0.5c-0.7,0.2-1.4,0.4-2.1,0.7c-5.4,0.2-10.8,0-16.3,0.1c-3.1,0.1-6.1-0.4-9.1-1
		C187.8,188,187.8,183,187.8,178z"/>
</g>
<g>
	<path class="st29" d="M194.8,180.2c0.4-0.1,1.1-0.3,1.5-0.3c5.4,0.3,10.9,0.1,16.3,0.2c12.8,0.1,25.5,0.1,38.3,0c0,0.4,0,1.1,0,1.5
		c-0.3,4.3,0.3,8.5-0.3,12.8c-0.4-4.6-0.1-9.2-0.2-13.8c-1.3,0-2.5,0-3.7,0.1c-16.3-0.1-32.6,0-48.9-0.1
		C196.6,180.4,195.7,180.3,194.8,180.2z"/>
</g>
<g>
	<path class="st30" d="M82.2,181c0.6-0.6,1.5-0.8,2.3-0.5l-0.1,0.3C83.7,181.3,83,181.3,82.2,181z"/>
</g>
<g>
	<path class="st31" d="M246.5,180.6c1.2-0.1,2.5-0.1,3.7-0.1c0.1,4.6-0.2,9.2,0.2,13.8c-3.3-0.5-6.6-0.3-9.8-0.3
		c-9.1,0.1-18.2,0.2-27.4,0c0.7-0.3,1.4-0.5,2.1-0.7c6.3-0.4,12.8,0.3,19.1-0.5c-3.6-0.8-7.7,0.7-11-1.4c-1.7-0.8-3.6-1.2-5-2.6
		c-1.5-1.4-2.8-3.1-4.4-4.4c0.5-0.7,1-1.4,1.4-2.1c6.4-1.5,13-1.2,19.4-1.3C238.7,180.9,242.7,181.4,246.5,180.6z"/>
</g>
<g>
	<path class="st32" d="M58.6,181l0.7,0c0,4.2,0,8.4-0.1,12.7l-0.7,0.2C58.6,189.6,58.6,185.3,58.6,181z"/>
</g>
<g>
	<path class="st33" d="M59.2,181c7.7,0,15.3,0.1,23,0c0.8,0.3,1.5,0.3,2.2-0.2c-0.4,1-1.2,2.2-0.5,3.3c2.1,2.1,4.9,3.4,6.9,5.7
		c0.3,0.6,0.1,1.3,0.1,2c-5.1,1.9-10.7,1.9-16.1,1.9c-5.2,0-10.4,0.1-15.7-0.1C59.3,189.5,59.2,185.2,59.2,181z"/>
</g>
<g>
	<path class="st34" d="M287.5,208.4c1.8-4.8,3.7-9.6,5.5-14.4c0.5,2.2-0.6,4.2-1.3,6.2c-1.7,4.7-3.3,9.4-5.6,13.9
		c-2.4,4.5-4.5,9.1-7.2,13.5c-4.4,7.2-9.3,14.2-15,20.5c-2.7,3.8-6.2,6.8-9.4,10.1c-1.7,1.6-3.3,3.5-5.6,3.9
		c6.4-6.9,13.7-13,19.3-20.6c7-8.8,12.6-18.6,17.4-28.8C286.9,211.6,287.4,210,287.5,208.4z"/>
</g>
<g>
	<path class="st35" d="M285.7,212.7c0.5-1.5,1.1-3,1.9-4.4C287.4,210,286.9,211.6,285.7,212.7z"/>
</g>
<g>
	<path class="st35" d="M202,288.7c1.7-0.8,3.5-1.4,5.4-1.6c-1.1,1.4-3,1.7-4.7,2L202,288.7z"/>
</g>
</svg>
