<?xml version="1.0" encoding="UTF-8" ?>
<!DOCTYPE svg PUBLIC "-//W3C//DTD SVG 1.1//EN" "http://www.w3.org/Graphics/SVG/1.1/DTD/svg11.dtd">
<svg width="966pt" height="966pt" viewBox="0 0 966 966" version="1.1" xmlns="http://www.w3.org/2000/svg">
<g id="#e1f0eeff">
<path fill="#e1f0ee" opacity="1.00" d=" M 476.25 245.32 C 481.76 245.28 487.26 245.26 492.77 245.37 L 492.18 246.36 C 495.29 246.60 498.41 246.77 501.54 246.68 L 501.69 247.71 C 502.10 247.60 502.93 247.40 503.34 247.30 L 503.34 248.39 C 505.08 248.35 506.82 248.32 508.57 248.31 C 508.54 248.62 508.48 249.25 508.45 249.56 C 509.83 249.53 511.22 249.51 512.62 249.48 L 512.53 250.50 C 514.59 250.58 516.56 251.20 518.05 252.70 L 518.83 252.19 C 521.09 253.87 523.86 254.69 526.13 256.38 C 526.47 256.34 527.16 256.24 527.50 256.20 L 527.48 257.18 C 528.74 257.51 529.93 258.06 531.00 258.84 C 532.36 259.76 533.72 260.71 535.05 261.69 C 536.26 262.40 537.65 263.00 538.13 264.48 C 538.33 264.45 538.74 264.38 538.94 264.35 C 540.24 265.70 541.72 266.88 543.01 268.25 L 543.75 268.41 L 543.59 269.68 C 543.92 269.62 544.59 269.51 544.93 269.45 C 545.38 269.84 546.29 270.63 546.74 271.02 L 546.25 272.64 L 547.99 270.88 L 547.25 272.84 L 548.49 272.21 L 548.35 273.19 C 548.99 273.60 550.29 274.43 550.93 274.84 L 550.14 275.84 L 551.79 275.51 C 551.69 276.00 551.51 276.97 551.41 277.46 C 551.89 277.43 552.85 277.37 553.33 277.34 C 553.36 277.87 553.41 278.91 553.44 279.44 L 554.25 279.35 C 554.48 279.69 554.95 280.38 555.18 280.72 C 556.79 282.56 558.69 284.22 559.81 286.44 L 560.55 286.44 L 560.39 287.58 L 561.50 287.62 C 561.48 288.11 561.42 289.08 561.40 289.57 L 563.05 289.36 L 562.16 290.61 L 563.24 290.58 C 563.64 291.97 564.47 293.11 565.71 293.90 C 565.60 294.28 565.38 295.04 565.27 295.41 L 566.35 295.36 C 567.12 296.76 567.92 298.15 568.68 299.57 L 569.64 299.67 C 569.54 300.14 569.35 301.08 569.25 301.55 L 570.76 301.58 C 570.68 302.04 570.53 302.94 570.45 303.39 L 571.23 303.36 C 571.56 303.76 572.22 304.55 572.54 304.94 C 572.47 305.30 572.33 306.02 572.25 306.38 L 573.84 306.70 C 573.67 307.17 573.32 308.11 573.15 308.58 L 574.22 308.40 C 574.60 309.80 575.40 310.99 576.55 311.90 C 576.48 312.16 576.33 312.67 576.26 312.93 C 577.17 313.85 577.71 314.98 577.89 316.30 L 578.63 316.20 C 578.91 317.28 579.20 318.37 579.48 319.47 L 580.82 319.54 C 580.66 319.93 580.36 320.72 580.21 321.11 C 581.49 321.97 582.00 323.21 581.77 324.85 L 582.72 324.15 L 582.21 325.48 L 583.09 325.38 C 583.22 326.64 583.58 327.82 584.19 328.94 C 585.12 331.37 586.31 333.70 587.48 336.03 C 587.50 336.23 587.53 336.64 587.54 336.84 C 588.27 338.01 588.63 339.31 588.63 340.73 C 589.08 340.66 589.97 340.53 590.42 340.46 C 590.16 340.81 589.64 341.52 589.39 341.88 C 589.73 342.49 590.43 343.71 590.78 344.32 L 591.41 344.42 C 591.41 345.22 591.42 346.82 591.42 347.62 L 592.67 347.40 C 592.62 348.16 592.53 349.66 592.48 350.41 L 593.37 350.22 C 593.58 350.63 594.00 351.44 594.21 351.85 C 594.33 352.73 594.56 354.50 594.67 355.39 C 594.90 357.62 595.62 359.75 596.45 361.83 C 599.40 368.79 601.28 376.14 603.91 383.22 C 604.83 385.58 605.41 388.06 605.56 390.60 C 605.91 391.00 606.59 391.80 606.93 392.20 C 606.93 392.81 606.92 394.02 606.91 394.63 C 608.65 397.91 609.33 401.61 610.72 405.04 C 610.69 406.14 610.66 407.24 610.63 408.35 C 611.02 408.80 611.79 409.69 612.18 410.14 C 613.30 415.65 615.41 420.89 616.81 426.33 C 617.03 426.72 617.46 427.51 617.68 427.90 C 618.58 429.24 618.28 430.96 618.48 432.51 L 619.53 432.40 C 619.55 433.56 619.60 434.73 619.67 435.90 C 620.42 436.98 620.80 438.20 620.81 439.56 L 621.18 439.38 C 621.15 440.73 621.55 441.92 622.39 442.96 C 622.44 444.41 622.46 445.89 622.48 447.36 C 623.04 447.44 624.17 447.60 624.73 447.68 C 623.80 449.17 623.39 450.83 623.50 452.66 C 623.96 452.61 624.87 452.52 625.33 452.48 C 625.66 454.23 624.59 456.75 626.67 457.76 C 626.65 458.38 626.62 459.62 626.60 460.24 C 627.06 461.26 627.50 462.31 627.93 463.36 L 628.33 463.40 C 628.43 464.77 628.53 466.14 628.65 467.52 L 629.28 467.56 C 629.50 470.32 630.94 472.84 630.78 475.67 L 631.77 475.57 C 631.69 475.90 631.52 476.55 631.44 476.87 C 632.64 479.65 633.79 482.52 633.67 485.61 L 634.34 485.38 C 634.57 486.58 634.84 487.77 635.14 488.97 C 635.26 489.61 635.48 490.91 635.59 491.56 L 636.44 491.36 C 636.44 492.56 636.46 493.76 636.50 494.97 C 638.07 496.41 637.59 498.60 637.69 500.49 C 638.08 500.50 638.87 500.51 639.26 500.52 C 639.38 502.39 638.95 504.57 640.41 506.08 C 640.47 507.31 640.52 508.56 640.56 509.81 L 641.70 509.30 C 641.71 510.74 641.71 512.18 641.71 513.63 L 642.62 513.41 L 642.34 514.56 L 643.41 514.51 C 643.40 515.69 643.42 516.89 643.45 518.09 C 644.57 519.47 644.73 521.29 645.31 522.92 C 645.90 524.86 646.48 526.80 647.17 528.72 C 647.46 529.85 647.90 530.93 648.51 531.94 C 648.59 533.15 648.65 534.38 648.71 535.61 L 649.38 535.51 C 649.57 536.09 649.93 537.26 650.12 537.84 C 650.23 539.01 650.65 540.03 651.39 540.92 C 651.57 542.37 651.27 544.17 652.89 544.92 C 652.82 545.59 652.67 546.92 652.60 547.58 L 653.55 547.54 L 653.35 548.63 L 654.38 548.60 C 654.40 549.88 654.44 551.17 654.50 552.47 L 655.67 552.34 C 655.65 553.01 655.62 554.35 655.60 555.03 C 656.15 555.90 656.67 556.80 657.18 557.72 C 657.27 558.92 657.65 560.04 658.30 561.06 C 658.37 561.57 658.50 562.61 658.56 563.12 C 659.60 564.92 660.36 566.86 661.06 568.82 C 661.37 569.93 661.83 570.98 662.42 571.98 C 662.47 572.61 662.56 573.88 662.61 574.51 L 663.67 574.40 C 663.67 575.21 663.68 576.82 663.68 577.63 L 664.61 577.48 L 664.29 578.52 L 665.14 578.61 C 665.15 579.97 665.62 581.10 666.56 582.02 C 666.55 582.68 666.54 584.00 666.54 584.66 L 667.43 584.50 C 667.75 585.58 668.09 586.67 668.44 587.77 C 669.10 589.11 669.70 590.49 670.33 591.86 C 671.02 593.64 671.78 595.40 672.51 597.18 C 673.24 598.46 673.92 599.77 674.66 601.07 C 674.63 601.31 674.57 601.79 674.54 602.03 C 675.68 603.50 676.45 605.20 677.19 606.91 C 678.25 609.44 679.82 611.74 680.68 614.37 L 681.40 614.47 C 681.87 616.56 682.97 618.43 684.01 620.29 C 684.43 621.35 685.06 622.29 685.88 623.11 C 685.76 623.36 685.53 623.86 685.41 624.12 C 686.71 624.67 687.32 625.83 687.60 627.17 C 687.89 627.63 688.48 628.56 688.77 629.02 C 689.58 630.40 690.45 631.75 691.40 633.06 C 691.40 633.28 691.41 633.70 691.41 633.92 C 693.20 635.88 694.45 638.25 695.76 640.55 L 696.20 640.61 C 697.09 642.42 698.19 644.14 699.26 645.86 C 699.79 646.56 700.33 647.27 700.88 647.98 C 701.84 649.47 702.87 650.93 703.82 652.45 L 704.19 652.41 C 705.58 654.78 707.52 656.74 709.08 659.00 C 709.79 659.75 710.40 660.59 710.89 661.53 L 711.69 661.22 L 711.36 662.18 C 712.92 663.83 714.48 665.49 716.12 667.09 C 717.08 668.43 717.86 669.98 719.29 670.93 L 719.26 671.62 L 720.46 671.48 L 720.41 672.62 L 721.10 672.70 C 726.29 679.03 733.14 684.09 736.73 691.64 L 737.22 691.71 C 738.06 693.74 738.89 695.79 739.54 697.91 L 740.64 697.51 C 740.97 701.57 740.84 705.66 740.84 709.73 L 739.59 709.58 C 739.13 711.23 738.51 712.89 736.95 713.82 C 735.70 714.90 734.32 715.79 732.94 716.69 C 732.70 716.63 732.24 716.51 732.00 716.45 C 730.47 718.14 728.02 718.11 725.94 718.48 C 721.32 718.83 716.66 718.77 712.08 718.08 C 710.94 717.75 709.87 717.31 708.87 716.74 C 707.87 716.61 706.88 716.49 705.90 716.39 C 705.05 715.64 704.07 715.18 702.95 714.99 C 701.72 714.42 700.51 713.87 699.28 713.35 L 699.36 712.88 C 694.30 710.99 690.39 706.98 685.76 704.26 C 683.80 702.83 682.14 700.98 679.92 699.95 C 677.32 697.63 674.65 695.41 671.91 693.27 C 670.96 692.44 670.01 691.61 669.09 690.79 C 661.39 683.49 653.89 675.99 646.61 668.29 C 646.43 668.03 646.06 667.52 645.88 667.26 C 643.25 664.53 641.17 661.26 638.24 658.84 C 638.30 658.53 638.42 657.91 638.47 657.59 C 638.14 657.59 637.49 657.60 637.16 657.60 C 634.91 653.37 631.67 649.66 628.51 646.07 L 628.67 645.26 L 627.84 645.38 C 627.44 643.50 626.18 642.12 624.78 640.91 C 624.67 640.46 624.43 639.56 624.32 639.11 C 622.90 638.07 621.85 636.68 621.30 635.03 C 620.48 634.05 619.78 633.02 619.19 631.92 C 618.44 630.84 617.57 629.85 617.24 628.57 L 616.79 628.49 C 615.91 626.95 614.90 625.50 613.90 624.05 C 613.34 622.96 612.75 621.89 612.25 620.79 C 611.44 619.74 610.63 618.70 609.69 617.78 C 609.63 617.36 609.49 616.52 609.43 616.10 C 608.21 614.75 607.31 613.17 606.39 611.62 C 605.94 610.82 605.51 610.03 605.08 609.24 C 603.87 607.43 602.87 605.47 601.40 603.85 C 601.46 603.62 601.56 603.15 601.61 602.92 C 600.55 601.64 599.54 600.34 598.52 599.06 C 598.56 598.71 598.63 598.01 598.67 597.66 L 597.57 597.50 C 596.86 595.47 595.89 593.53 594.47 591.91 C 594.51 591.55 594.60 590.83 594.64 590.47 L 593.80 590.42 C 593.26 589.25 592.58 588.14 591.96 587.05 C 591.58 586.50 590.82 585.42 590.44 584.87 C 590.47 584.63 590.53 584.14 590.56 583.89 C 588.73 582.15 588.18 579.51 586.21 577.89 C 586.30 577.67 586.50 577.23 586.60 577.01 C 585.32 575.97 584.46 574.58 583.79 573.11 C 583.39 572.59 582.59 571.54 582.19 571.01 C 582.23 570.77 582.30 570.29 582.34 570.05 C 581.60 569.19 580.88 568.32 580.19 567.45 L 579.87 567.41 C 578.93 564.64 577.26 562.17 575.36 559.97 C 575.43 559.64 575.56 558.97 575.63 558.64 L 574.67 558.74 C 574.03 557.58 573.41 556.43 572.75 555.30 C 571.02 553.14 569.36 550.90 568.19 548.38 L 567.70 548.71 C 566.48 545.34 563.50 543.16 561.80 540.09 C 560.41 538.36 558.87 536.75 557.33 535.16 L 557.67 534.27 L 556.37 534.51 C 556.36 534.17 556.35 533.47 556.34 533.12 C 552.61 529.98 549.52 526.13 545.92 522.83 C 545.50 522.67 544.67 522.36 544.25 522.20 C 542.77 520.43 540.96 518.98 539.08 517.67 C 537.65 516.78 536.32 515.75 535.05 514.67 C 533.05 514.21 531.64 512.67 530.16 511.38 C 529.89 511.44 529.35 511.56 529.07 511.62 C 527.72 510.68 526.33 509.82 525.03 508.84 C 524.39 508.76 523.10 508.60 522.46 508.52 L 522.68 507.62 C 521.36 507.44 519.83 507.69 518.96 506.45 C 517.52 506.04 516.08 505.65 514.64 505.29 L 514.68 504.77 C 513.26 504.83 512.00 504.44 510.92 503.58 C 509.77 503.50 508.63 503.44 507.49 503.41 C 507.48 503.21 507.45 502.80 507.43 502.60 C 502.97 502.26 498.51 501.68 494.13 500.81 C 487.10 500.56 479.99 500.20 473.00 501.10 C 470.96 501.39 468.93 501.65 466.90 501.98 C 465.07 502.30 463.24 502.51 461.40 502.66 L 461.54 503.38 C 460.18 503.40 458.82 503.43 457.47 503.46 L 457.55 504.36 C 456.00 504.50 454.45 504.67 453.03 505.31 C 452.52 505.47 451.51 505.80 451.00 505.96 C 450.11 506.37 449.24 506.81 448.38 507.26 C 446.95 507.42 445.52 507.70 444.90 509.16 L 443.91 508.26 C 443.47 508.73 442.59 509.68 442.15 510.15 C 440.58 510.68 439.06 511.34 437.49 511.85 L 437.66 512.18 C 436.70 512.89 435.77 513.62 434.86 514.38 C 434.62 514.36 434.14 514.32 433.90 514.31 C 430.97 516.71 427.98 519.22 424.57 520.89 C 424.56 521.28 424.54 522.06 424.53 522.45 C 424.11 522.44 423.27 522.40 422.84 522.38 C 421.97 523.27 421.10 524.17 420.21 525.05 C 418.60 526.62 417.05 528.25 415.48 529.87 L 415.55 530.21 C 415.21 530.54 414.53 531.21 414.19 531.55 L 413.48 531.49 L 413.52 532.19 C 413.20 532.55 412.54 533.26 412.22 533.61 L 411.33 533.66 C 411.35 533.97 411.38 534.60 411.40 534.92 C 410.48 535.84 409.66 536.85 408.80 537.83 C 407.85 538.88 406.90 539.94 405.97 541.01 C 404.88 543.28 403.10 545.09 401.30 546.81 L 401.83 547.58 C 401.57 547.60 401.04 547.65 400.78 547.67 C 400.51 549.14 399.73 550.23 398.42 550.93 L 398.85 551.79 L 397.93 551.58 C 397.36 553.69 395.82 555.28 394.39 556.85 C 394.47 557.16 394.63 557.79 394.71 558.11 L 393.73 558.24 C 393.00 560.09 391.94 561.79 390.43 563.11 C 390.52 563.45 390.71 564.12 390.80 564.45 L 389.72 564.55 C 388.96 566.65 387.64 568.47 386.33 570.26 C 385.51 571.76 384.67 573.27 383.75 574.72 C 382.47 576.91 381.37 579.27 379.45 581.00 C 379.59 581.30 379.86 581.91 380.00 582.22 C 379.65 582.38 378.95 582.70 378.60 582.86 C 377.75 585.15 376.55 587.29 375.30 589.38 C 374.31 590.98 373.34 592.60 372.35 594.20 C 371.28 596.00 370.26 597.83 369.37 599.73 L 368.93 599.61 C 368.58 600.24 367.87 601.51 367.51 602.14 C 367.51 602.40 367.52 602.91 367.52 603.17 C 366.57 604.50 365.54 605.77 364.40 606.94 C 364.52 607.20 364.75 607.71 364.87 607.96 C 364.45 608.55 363.59 609.72 363.16 610.31 C 362.07 611.80 360.93 613.28 360.12 614.95 C 359.02 616.81 358.12 618.88 356.41 620.28 L 356.64 621.04 C 355.59 622.38 354.51 623.68 353.38 624.95 C 353.48 625.17 353.68 625.60 353.78 625.82 C 351.80 627.69 350.46 630.07 349.18 632.45 L 348.81 632.54 C 347.82 634.36 346.71 636.13 345.48 637.81 L 345.49 638.09 C 344.43 639.34 343.42 640.63 342.38 641.91 L 342.73 642.73 L 341.31 642.53 C 341.38 642.97 341.54 643.87 341.61 644.32 L 340.46 644.40 L 340.56 645.50 L 339.85 645.54 C 338.86 648.15 336.09 649.53 335.25 652.24 L 334.48 652.45 L 334.66 653.28 C 333.13 654.36 331.91 655.78 331.28 657.56 L 330.92 657.37 C 329.41 659.77 327.42 661.79 325.40 663.75 L 325.45 664.49 L 324.35 664.47 L 324.53 665.58 L 323.86 665.51 C 317.38 674.39 308.78 681.41 301.15 689.26 C 300.07 690.14 298.99 691.03 297.95 691.96 C 297.27 692.72 296.49 693.37 295.61 693.89 L 295.69 694.69 L 294.80 694.37 C 290.16 699.30 284.29 702.78 278.91 706.83 C 277.50 707.76 276.16 708.79 274.78 709.78 C 273.41 710.54 272.09 711.41 271.02 712.58 C 270.77 712.54 270.28 712.45 270.04 712.41 C 268.70 713.37 267.27 714.21 265.82 714.99 C 264.78 715.25 263.85 715.72 263.02 716.39 C 262.52 716.46 261.50 716.59 260.99 716.66 C 258.73 718.08 256.01 718.30 253.44 718.72 L 253.53 719.34 C 248.36 719.38 243.18 719.79 238.02 719.24 C 235.83 718.16 233.53 717.35 231.30 716.38 C 230.23 715.21 229.14 714.07 228.08 712.91 C 225.30 708.59 226.30 703.23 227.49 698.57 L 228.20 698.60 C 228.20 697.20 228.68 696.03 229.66 695.09 C 229.63 694.86 229.56 694.39 229.53 694.16 C 230.52 692.79 231.44 691.38 232.51 690.09 L 232.37 689.38 L 233.64 689.25 C 233.58 688.83 233.46 688.00 233.40 687.59 L 234.56 687.59 L 234.42 686.81 C 236.56 684.41 238.93 682.22 240.90 679.67 L 241.62 679.66 L 241.51 678.47 L 242.73 678.66 L 242.64 677.89 C 243.64 677.49 244.30 676.80 244.64 675.81 C 248.15 671.24 252.78 667.66 256.32 663.10 C 256.70 662.03 257.43 661.33 258.52 661.00 C 258.41 660.64 258.18 659.93 258.07 659.57 L 259.20 659.69 C 260.16 658.36 261.03 656.97 261.72 655.49 L 262.10 655.66 C 262.76 654.02 264.02 652.75 265.61 652.01 C 265.48 651.65 265.22 650.92 265.09 650.55 L 266.17 650.56 C 266.93 648.75 268.18 647.24 269.71 646.05 C 269.64 645.82 269.48 645.35 269.40 645.12 C 270.48 643.87 271.53 642.60 272.32 641.15 C 273.43 639.59 274.75 638.10 274.98 636.10 C 275.33 636.25 276.04 636.55 276.39 636.70 C 276.39 635.87 276.38 634.21 276.38 633.39 L 277.23 633.77 C 277.79 632.47 278.42 631.21 279.07 629.97 C 279.45 629.52 280.22 628.61 280.61 628.16 C 280.56 627.80 280.45 627.08 280.40 626.73 L 281.28 626.71 C 282.14 625.02 282.95 623.32 283.71 621.60 L 284.72 621.58 C 284.59 621.11 284.34 620.18 284.21 619.72 L 285.37 619.45 C 285.69 617.89 286.42 616.47 287.29 615.17 C 287.94 614.05 288.66 612.94 288.67 611.60 L 289.65 611.50 C 289.58 610.12 289.94 608.91 291.15 608.15 C 291.11 606.79 291.63 605.78 292.71 605.11 C 292.63 604.82 292.48 604.25 292.40 603.96 C 293.84 602.86 294.33 601.20 294.50 599.49 L 295.70 599.58 C 295.62 599.20 295.47 598.46 295.39 598.08 C 296.07 596.94 296.60 595.74 296.99 594.48 L 297.68 594.34 C 297.62 593.93 297.51 593.11 297.46 592.70 L 298.67 592.51 C 298.57 592.34 298.37 592.02 298.27 591.85 C 304.29 582.22 307.06 570.94 311.40 560.50 C 314.27 553.56 315.80 546.09 319.28 539.41 C 319.33 538.84 319.43 537.70 319.48 537.14 C 324.07 523.64 327.92 509.90 331.95 496.24 C 332.23 495.72 332.79 494.67 333.07 494.15 C 333.47 492.85 333.89 491.56 334.34 490.28 C 334.34 489.12 334.35 487.97 334.35 486.83 C 334.78 486.36 335.63 485.43 336.05 484.96 C 335.96 484.18 335.76 482.63 335.67 481.85 C 336.18 481.04 336.70 480.23 337.23 479.43 C 337.81 476.92 338.43 474.42 339.02 471.91 C 341.96 462.42 344.40 452.76 346.96 443.16 C 347.28 442.70 347.93 441.78 348.25 441.32 C 348.87 438.79 349.45 436.24 349.62 433.64 C 350.19 432.82 350.77 432.01 351.35 431.21 C 351.23 430.46 350.98 428.96 350.86 428.21 C 351.22 427.72 351.94 426.74 352.30 426.25 C 352.33 422.89 353.65 419.80 354.69 416.67 C 357.28 407.44 359.56 398.10 363.06 389.16 C 363.61 387.04 364.16 384.93 364.62 382.80 C 364.95 382.33 365.62 381.40 365.95 380.93 C 366.40 378.90 366.95 376.90 367.57 374.92 C 369.69 369.50 371.12 363.85 373.23 358.42 C 373.94 356.62 374.34 354.72 374.56 352.81 C 374.61 352.24 374.73 351.12 374.79 350.56 L 375.69 350.65 L 375.57 349.48 L 376.91 349.42 C 376.58 348.92 375.92 347.92 375.59 347.42 L 377.43 347.63 C 377.77 346.06 376.78 343.73 378.86 343.01 C 378.73 342.65 378.49 341.93 378.37 341.57 L 379.52 341.36 C 379.44 340.89 379.28 339.94 379.20 339.46 L 380.44 339.89 C 380.45 339.04 380.48 337.35 380.49 336.50 L 381.91 336.47 C 381.77 335.99 381.50 335.04 381.36 334.56 L 382.70 334.37 C 382.59 333.91 382.38 332.99 382.28 332.53 L 383.03 332.56 C 383.41 331.32 383.90 330.13 384.50 328.98 C 384.47 328.64 384.41 327.97 384.38 327.64 L 385.81 327.24 C 385.74 326.94 385.61 326.34 385.55 326.05 C 386.05 325.01 386.54 323.97 387.01 322.93 C 387.20 322.53 387.60 321.73 387.79 321.33 L 388.95 321.44 C 388.77 321.07 388.42 320.34 388.25 319.98 C 389.30 319.10 389.85 317.94 389.91 316.51 L 390.70 316.52 L 390.59 315.31 L 391.80 315.72 C 391.60 315.23 391.21 314.27 391.01 313.78 L 392.80 313.30 C 392.69 312.93 392.47 312.18 392.36 311.81 C 393.64 310.46 394.39 308.73 395.45 307.21 C 395.45 306.77 395.44 305.89 395.43 305.45 L 397.78 305.63 L 395.99 304.47 L 397.57 304.32 C 397.53 303.89 397.45 303.02 397.41 302.58 L 398.63 302.55 L 398.29 301.28 L 399.61 301.25 C 399.52 300.75 399.35 299.75 399.26 299.25 L 400.80 299.61 C 400.69 299.11 400.47 298.11 400.36 297.60 L 401.49 297.53 L 401.46 296.38 L 402.60 296.54 C 402.50 296.03 402.28 295.03 402.18 294.52 L 403.86 294.79 L 403.10 293.57 C 403.51 293.46 404.32 293.24 404.73 293.13 L 404.29 291.58 L 405.16 291.46 C 406.02 290.13 406.96 288.85 407.84 287.54 L 408.68 287.58 L 408.36 286.30 L 409.68 286.55 C 409.58 286.10 409.38 285.20 409.28 284.75 L 410.18 284.59 C 410.45 284.30 410.98 283.70 411.25 283.41 C 411.94 282.51 412.55 281.56 413.06 280.56 C 413.42 280.55 414.13 280.53 414.49 280.51 C 414.48 279.96 414.46 278.84 414.45 278.29 L 416.90 278.71 L 414.70 277.13 L 416.85 277.73 L 416.13 276.53 L 416.96 276.43 C 417.54 275.30 418.43 274.51 419.62 274.06 L 419.16 273.32 L 420.00 273.32 C 420.51 272.28 421.32 271.62 422.41 271.35 L 422.53 270.52 L 423.73 270.51 L 423.36 269.44 L 424.67 269.54 L 424.45 268.18 L 425.80 268.92 L 425.04 266.83 L 426.81 268.73 L 426.29 266.92 C 427.79 266.30 429.02 265.25 430.22 264.17 C 430.56 263.92 431.25 263.42 431.59 263.17 L 431.77 262.26 C 432.10 262.34 432.75 262.49 433.08 262.56 C 434.76 260.50 437.26 259.44 439.16 257.64 C 439.53 257.70 440.27 257.83 440.64 257.89 C 440.62 257.56 440.57 256.88 440.54 256.55 C 441.79 256.28 442.99 255.85 444.21 255.45 C 445.12 254.81 446.04 254.17 446.97 253.53 C 447.20 253.53 447.66 253.54 447.89 253.54 C 449.05 252.71 450.34 252.27 451.78 252.21 L 451.46 251.46 C 452.08 251.36 453.33 251.16 453.95 251.07 C 454.85 250.59 455.74 250.10 456.64 249.61 C 457.23 249.56 458.42 249.45 459.01 249.40 C 460.69 248.19 462.75 248.27 464.73 248.32 L 464.71 247.36 C 465.11 247.46 465.91 247.64 466.31 247.73 L 466.47 246.68 C 469.87 246.78 473.28 246.62 476.68 246.36 C 476.57 246.10 476.36 245.58 476.25 245.32 Z" />
</g>
<g id="#7b84838e">
<path fill="#7b8483" opacity="0.56" d=" M 372.88 356.04 C 373.32 354.90 373.93 353.85 374.56 352.81 C 374.34 354.72 373.94 356.62 373.23 358.42 C 371.12 363.85 369.69 369.50 367.57 374.92 C 366.95 376.90 366.40 378.90 365.95 380.93 C 365.62 381.40 364.95 382.33 364.62 382.80 C 364.16 384.93 363.61 387.04 363.06 389.16 C 359.56 398.10 357.28 407.44 354.69 416.67 C 353.65 419.80 352.33 422.89 352.30 426.25 C 351.94 426.74 351.22 427.72 350.86 428.21 C 350.98 428.96 351.23 430.46 351.35 431.21 C 350.77 432.01 350.19 432.82 349.62 433.64 C 349.45 436.24 348.87 438.79 348.25 441.32 C 347.93 441.78 347.28 442.70 346.96 443.16 C 344.40 452.76 341.96 462.42 339.02 471.91 C 338.43 474.42 337.81 476.92 337.23 479.43 C 336.70 480.23 336.18 481.04 335.67 481.85 C 335.76 482.63 335.96 484.18 336.05 484.96 C 335.63 485.43 334.78 486.36 334.35 486.83 C 334.35 487.97 334.34 489.12 334.34 490.28 C 333.89 491.56 333.47 492.85 333.07 494.15 C 332.79 494.67 332.23 495.72 331.95 496.24 C 327.92 509.90 324.07 523.64 319.48 537.14 C 319.43 537.70 319.33 538.84 319.28 539.41 C 315.80 546.09 314.27 553.56 311.40 560.50 C 307.06 570.94 304.29 582.22 298.27 591.85 C 299.88 586.60 302.17 581.57 304.41 576.56 C 304.50 576.10 304.67 575.19 304.75 574.73 C 306.17 571.78 307.15 568.66 308.33 565.62 C 309.22 563.38 310.06 561.12 310.74 558.80 L 311.17 558.08 C 313.89 550.07 316.74 542.11 319.51 534.13 C 319.57 533.52 319.70 532.30 319.77 531.69 C 321.39 528.32 322.24 524.66 323.43 521.14 C 326.77 510.53 329.76 499.80 333.13 489.20 C 333.62 486.41 334.62 483.74 334.92 480.92 C 335.21 480.52 335.77 479.74 336.06 479.34 C 338.45 466.86 343.47 454.99 345.82 442.50 C 346.24 441.74 346.66 440.99 347.09 440.24 C 347.23 438.76 347.14 437.14 348.24 435.99 C 348.56 433.16 349.57 430.48 349.94 427.67 C 350.22 427.17 350.79 426.17 351.07 425.67 C 351.33 423.97 351.71 422.29 352.27 420.67 C 355.11 410.70 358.12 400.77 361.04 390.83 C 364.95 379.22 368.50 367.49 372.88 356.04 Z" />
</g>
<g id="#7981808b">
<path fill="#798180" opacity="0.55" d=" M 594.67 355.39 L 595.44 353.87 C 595.55 354.74 595.77 356.47 595.88 357.33 C 596.71 359.06 597.46 360.83 598.20 362.61 C 600.43 369.33 602.33 376.20 605.08 382.73 C 606.80 389.43 609.26 395.91 610.94 402.63 C 612.45 406.42 613.16 410.47 614.33 414.37 C 615.53 418.86 617.78 423.13 617.68 427.90 C 617.46 427.51 617.03 426.72 616.81 426.33 C 615.41 420.89 613.30 415.65 612.18 410.14 C 611.79 409.69 611.02 408.80 610.63 408.35 C 610.66 407.24 610.69 406.14 610.72 405.04 C 609.33 401.61 608.65 397.91 606.91 394.63 C 606.92 394.02 606.93 392.81 606.93 392.20 C 606.59 391.80 605.91 391.00 605.56 390.60 C 605.41 388.06 604.83 385.58 603.91 383.22 C 601.28 376.14 599.40 368.79 596.45 361.83 C 595.62 359.75 594.90 357.62 594.67 355.39 Z" />
</g>
</svg>
