<?xml version="1.0" encoding="UTF-8" ?>
<!DOCTYPE svg PUBLIC "-//W3C//DTD SVG 1.1//EN" "http://www.w3.org/Graphics/SVG/1.1/DTD/svg11.dtd">
<svg width="966pt" height="966pt" viewBox="0 0 966 966" version="1.1" xmlns="http://www.w3.org/2000/svg">
<g id="#e3f1f4ff">
<path fill="#e3f1f4" opacity="1.00" d=" M 241.93 171.90 C 245.68 171.46 249.96 172.30 253.00 169.52 C 410.35 169.53 567.70 169.54 725.05 169.52 C 727.94 172.37 732.13 171.28 735.72 172.04 C 738.08 173.33 740.50 174.46 743.19 174.89 C 745.15 176.45 747.05 178.11 749.76 178.04 C 752.09 180.60 755.51 181.60 758.11 183.83 C 764.43 189.18 770.47 195.11 774.57 202.38 C 776.70 205.83 780.08 208.78 780.41 213.06 C 781.13 213.75 781.85 214.44 782.60 215.13 C 783.10 217.86 783.06 220.83 784.74 223.18 C 787.91 227.94 784.42 234.54 788.23 239.03 C 787.64 258.01 788.21 277.01 787.94 295.99 C 787.60 299.09 789.17 301.95 789.12 305.02 C 789.17 312.79 788.91 320.56 789.57 328.31 C 790.28 329.41 791.55 330.35 791.32 331.84 C 792.29 337.56 792.13 343.37 792.66 349.13 C 793.10 350.86 794.58 352.13 794.96 353.89 C 795.31 357.32 795.40 360.77 795.71 364.20 C 796.11 365.89 797.42 367.19 797.97 368.85 C 798.42 372.06 797.51 375.68 799.70 378.45 C 801.91 381.32 800.74 385.39 803.09 388.22 C 804.72 390.32 803.89 393.32 805.41 395.42 C 808.24 397.95 806.47 402.45 809.95 404.63 C 809.97 407.17 811.35 409.24 813.09 410.97 C 813.41 413.22 814.41 415.25 816.00 416.87 C 816.55 420.72 820.28 422.75 822.12 425.94 C 823.35 429.61 826.37 432.24 828.98 434.97 C 832.99 440.50 839.43 443.26 844.27 447.86 C 846.45 449.43 849.32 449.81 851.25 451.80 C 852.62 453.28 854.77 452.78 856.59 452.97 C 857.84 454.05 858.89 455.86 860.82 455.69 C 865.03 455.88 869.15 456.75 873.30 457.49 C 871.77 459.46 872.09 461.95 872.65 464.20 C 872.33 466.11 871.31 468.61 873.15 470.08 C 872.08 471.64 872.06 473.51 872.01 475.34 C 872.39 475.46 873.17 475.71 873.55 475.84 C 871.84 477.55 871.36 480.64 873.24 482.42 C 871.53 484.27 871.85 487.06 873.25 489.00 C 874.81 490.88 871.92 492.04 871.02 493.41 C 867.43 493.99 863.42 493.13 860.27 495.31 C 858.24 496.81 855.70 496.95 853.31 497.33 C 848.54 499.14 844.60 502.46 840.44 505.32 C 833.39 508.56 829.12 515.36 823.69 520.57 C 821.72 525.08 818.00 528.51 815.91 532.93 C 814.35 534.62 813.38 536.71 813.02 538.98 C 812.17 539.88 811.35 540.80 810.54 541.73 C 810.35 542.82 810.17 543.92 810.00 545.02 C 807.41 547.25 807.10 550.74 805.50 553.57 C 804.07 556.11 804.72 559.33 802.96 561.76 C 800.73 564.67 801.86 568.76 799.48 571.61 C 797.86 573.79 798.28 576.63 798.10 579.18 C 798.39 582.08 795.55 584.00 795.41 586.82 C 794.87 591.33 796.04 596.28 792.80 600.04 C 791.72 607.25 792.96 614.98 789.71 621.74 C 788.44 631.70 790.24 641.99 787.98 651.88 C 788.11 662.44 787.73 673.01 788.23 683.57 C 787.81 683.94 786.99 684.69 786.58 685.07 C 786.52 686.48 786.48 687.89 786.46 689.32 C 786.92 689.74 787.84 690.59 788.30 691.01 C 787.79 697.60 787.89 704.24 788.24 710.84 C 785.87 712.72 786.46 715.81 786.38 718.47 C 785.76 718.96 784.53 719.95 783.92 720.45 C 783.99 722.21 784.36 723.90 785.29 725.44 C 783.34 728.25 783.01 731.62 782.43 734.90 C 780.06 736.02 779.96 738.72 779.29 740.93 C 776.92 743.73 774.57 746.69 773.09 750.08 C 769.42 753.81 766.74 758.41 762.71 761.79 C 760.13 763.99 757.33 765.92 754.91 768.30 C 753.54 768.83 752.19 769.40 750.88 770.04 C 750.25 770.05 748.98 770.06 748.35 770.06 C 747.63 770.92 746.92 771.80 746.23 772.69 C 744.97 772.81 743.72 772.92 742.48 773.04 C 741.98 773.58 740.98 774.65 740.47 775.19 C 739.14 775.90 737.84 776.70 736.47 777.32 C 734.94 776.37 733.24 775.97 731.47 775.94 C 731.01 776.46 730.09 777.51 729.63 778.03 C 728.78 778.23 727.93 778.46 727.10 778.71 C 725.11 780.53 722.27 780.10 719.84 780.72 C 717.78 780.17 715.65 780.13 713.60 780.66 C 711.59 780.23 709.52 780.13 707.54 780.71 C 705.50 780.16 703.40 780.24 701.35 780.63 C 699.34 780.12 697.28 780.22 695.28 780.64 C 691.83 779.60 688.46 781.28 685.01 781.13 C 678.46 781.10 671.92 781.10 665.38 781.13 C 664.93 780.60 664.03 779.53 663.58 778.99 C 663.09 779.04 662.10 779.14 661.61 779.20 C 659.88 780.53 657.62 780.27 655.61 780.69 C 653.06 779.95 650.45 780.27 648.00 781.16 C 645.53 780.32 642.92 779.90 640.39 780.68 C 638.26 780.29 635.96 779.84 634.03 781.09 C 632.29 779.74 629.84 780.11 628.01 781.04 C 626.15 780.02 623.80 779.86 621.99 781.05 C 620.15 780.08 617.71 779.75 615.98 781.09 C 614.06 779.87 611.78 780.26 609.69 780.66 C 607.68 780.21 605.62 780.11 603.63 780.66 C 601.54 780.17 599.40 780.12 597.35 780.73 C 595.39 780.07 593.35 780.28 591.36 780.65 C 589.35 780.14 587.28 780.23 585.27 780.63 C 583.25 780.18 581.19 780.26 579.17 780.60 C 577.13 780.24 575.07 780.29 573.04 780.59 C 571.02 780.25 568.96 780.27 566.95 780.59 C 562.82 780.47 558.59 780.00 554.52 780.79 C 551.66 779.65 548.51 779.49 545.69 780.85 C 543.57 780.04 541.31 780.09 539.19 780.85 C 536.32 779.37 533.08 779.67 530.20 780.94 C 528.30 779.86 526.18 780.33 524.17 780.62 C 520.10 780.29 515.96 780.30 511.89 780.61 C 507.86 780.34 503.75 780.17 499.75 780.70 C 497.67 780.18 495.53 780.21 493.45 780.71 C 491.44 780.10 489.36 780.20 487.36 780.71 C 485.39 780.11 483.36 780.28 481.38 780.64 C 479.35 780.18 477.28 780.24 475.26 780.65 C 473.24 780.18 471.18 780.26 469.17 780.62 C 467.16 780.25 465.12 780.25 463.12 780.60 C 461.06 780.29 458.97 780.21 456.93 780.61 C 454.88 780.27 452.81 780.23 450.78 780.65 C 448.74 780.26 446.65 780.15 444.63 780.67 C 442.65 780.27 440.62 780.08 438.68 780.73 C 436.55 780.13 434.35 780.06 432.27 780.85 C 429.40 779.44 426.19 779.63 423.31 780.87 C 421.34 779.96 419.22 780.30 417.18 780.64 C 415.11 780.34 412.86 779.83 411.01 781.10 C 409.22 779.86 406.81 779.96 405.00 781.09 C 403.15 779.99 400.79 779.89 398.95 781.05 C 397.09 780.18 394.64 779.68 392.94 781.12 C 391.02 779.91 388.74 780.21 386.65 780.66 C 384.64 780.25 382.57 780.04 380.60 780.74 C 378.52 780.16 376.37 780.18 374.29 780.73 C 372.29 780.03 370.20 780.20 368.21 780.79 C 366.17 780.21 364.09 779.81 361.98 779.71 C 361.03 780.18 360.09 780.65 359.15 781.12 C 356.37 779.38 353.08 779.63 350.14 780.78 C 346.03 780.31 341.69 780.05 337.63 780.85 C 334.69 779.54 331.40 779.47 328.53 780.96 C 325.68 779.47 322.41 779.44 319.55 780.90 C 317.55 780.07 315.40 780.17 313.33 780.67 C 311.31 780.19 309.24 780.24 307.22 780.62 C 305.17 780.24 303.10 780.27 301.06 780.62 C 299.03 780.25 296.96 780.23 294.94 780.63 C 292.82 780.21 290.64 780.21 288.55 780.77 C 285.74 779.82 282.42 779.06 279.91 781.15 C 278.36 780.59 276.82 779.73 275.12 779.90 C 267.79 780.12 260.45 779.83 253.12 780.15 C 249.73 777.02 244.98 778.75 240.96 777.41 C 240.33 776.64 239.70 775.89 239.07 775.14 C 237.66 775.12 236.26 775.11 234.86 775.11 C 233.22 773.27 231.30 771.66 228.64 772.01 C 227.15 770.29 225.40 768.82 223.15 768.28 C 215.35 762.40 208.01 755.53 203.19 746.94 C 201.67 744.93 200.41 742.71 198.60 740.94 C 197.97 738.99 197.82 736.95 197.73 734.94 C 196.83 734.06 195.92 733.19 195.01 732.33 C 194.82 730.32 194.49 728.31 193.31 726.63 C 190.07 721.81 193.63 715.13 189.75 710.62 C 189.96 705.14 189.87 699.65 189.81 694.18 C 192.42 692.12 191.96 688.31 189.73 686.15 C 189.71 684.74 189.70 683.34 189.69 681.95 C 190.14 681.51 191.04 680.62 191.49 680.18 C 191.47 678.78 191.46 677.40 191.45 676.02 C 191.01 675.54 190.13 674.57 189.70 674.09 C 190.16 666.06 189.60 658.02 190.07 649.99 C 190.29 647.27 188.91 644.77 188.90 642.07 C 188.73 635.32 189.00 628.57 188.52 621.83 C 184.75 615.36 186.54 607.35 185.14 600.28 C 183.43 596.02 182.85 591.38 182.57 586.83 C 182.60 584.59 180.96 582.92 179.87 581.15 C 180.03 577.08 180.06 572.79 177.31 569.51 C 176.66 566.10 176.15 562.70 174.06 559.81 C 173.67 555.43 171.43 551.69 170.08 547.58 C 169.48 546.65 168.72 545.85 168.01 545.02 C 167.82 543.91 167.63 542.81 167.44 541.71 C 166.64 540.80 165.83 539.89 165.02 539.00 C 164.76 536.65 163.77 534.50 162.04 532.89 C 161.51 527.85 156.42 525.60 154.63 521.20 C 149.85 514.73 143.43 509.75 137.80 504.07 C 131.72 500.45 125.04 497.81 118.90 494.27 C 114.04 493.68 109.16 493.18 104.32 492.25 C 105.00 490.93 106.23 489.71 106.11 488.12 C 106.17 477.69 105.81 467.24 106.30 456.82 C 111.67 455.95 117.60 456.67 122.36 453.61 C 123.80 452.94 125.47 452.72 126.73 451.71 C 130.16 448.94 134.74 448.07 138.13 445.26 C 141.11 441.88 144.91 439.39 147.89 436.00 C 150.76 432.84 154.38 430.07 155.92 425.96 C 158.61 423.49 161.35 420.74 161.97 416.98 C 163.59 415.32 164.67 413.28 164.97 410.97 C 166.68 409.23 167.98 407.14 168.08 404.63 C 170.59 402.50 170.80 399.14 172.37 396.45 C 173.93 393.83 173.19 390.45 175.07 387.97 C 177.22 385.13 176.07 381.12 178.37 378.36 C 180.43 375.58 179.72 371.93 179.89 368.71 C 183.79 363.92 182.64 357.49 184.02 351.84 C 187.11 347.46 184.92 341.90 186.55 337.10 C 187.30 334.94 186.90 332.65 186.78 330.44 C 187.31 329.77 187.81 329.09 188.28 328.38 C 189.77 319.39 187.70 310.09 190.02 301.20 C 189.77 295.73 190.01 290.26 189.70 284.79 C 190.31 283.95 190.92 283.11 191.54 282.28 C 191.63 277.86 191.40 273.43 191.57 269.01 C 191.51 266.85 192.17 264.27 190.28 262.67 C 192.29 260.61 191.82 257.33 189.85 255.41 C 189.85 249.95 189.94 244.48 189.78 239.02 C 192.78 235.32 191.45 230.23 191.83 225.84 C 193.43 223.21 194.97 220.47 195.07 217.31 C 197.97 215.67 197.87 212.47 198.35 209.59 C 201.43 205.27 204.43 200.90 207.21 196.38 C 211.09 192.23 214.58 187.63 219.63 184.81 C 223.53 180.10 230.00 179.22 234.36 175.10 C 237.26 174.98 240.00 174.23 241.93 171.90 M 370.51 307.61 C 368.56 308.68 367.09 310.73 367.44 313.05 C 367.93 321.35 367.73 329.67 367.76 337.98 C 367.69 438.55 367.98 539.11 367.64 639.68 C 368.09 640.19 368.98 641.23 369.42 641.75 C 372.61 642.20 375.83 642.02 379.04 642.01 C 426.09 642.00 473.14 642.03 520.19 642.01 C 521.98 642.07 523.61 641.32 525.01 640.27 C 527.66 640.34 530.38 640.56 532.95 639.74 C 537.34 638.46 542.49 640.36 546.33 637.31 C 549.72 635.04 554.37 637.27 557.68 634.78 C 559.75 633.09 562.48 632.84 565.05 632.77 C 566.00 631.81 566.95 630.86 567.91 629.91 C 568.68 629.87 570.23 629.79 571.00 629.74 C 572.51 627.48 574.97 626.93 577.42 626.32 C 580.55 623.23 584.75 621.62 588.09 618.82 C 595.88 613.89 601.59 606.42 607.61 599.58 C 611.51 595.39 613.16 589.78 616.01 584.93 C 617.02 583.33 616.70 581.30 616.87 579.52 C 617.73 578.25 618.77 577.11 619.57 575.80 C 619.96 573.89 619.79 571.91 620.29 570.03 C 620.91 568.60 622.08 567.42 622.45 565.89 C 622.83 554.45 623.17 542.96 622.68 531.52 C 620.65 527.19 620.52 522.33 619.12 517.82 C 617.24 514.65 616.81 510.77 614.07 508.13 C 614.05 505.68 612.66 503.75 611.10 502.02 C 607.22 494.57 600.92 488.73 594.81 483.09 C 590.73 480.51 588.01 475.69 582.87 475.14 C 578.84 471.58 573.80 469.44 568.54 468.64 C 564.84 465.86 559.85 466.78 556.18 463.98 C 559.30 462.52 562.90 462.04 565.49 459.61 C 572.95 457.19 578.78 451.61 584.05 446.01 C 587.24 442.54 591.34 439.59 592.97 435.01 C 596.49 430.14 600.74 425.31 601.57 419.14 C 601.79 417.16 602.87 415.47 603.79 413.75 C 605.76 409.73 604.30 404.64 607.25 401.05 C 607.27 395.30 607.12 389.54 607.31 383.78 C 606.72 382.84 606.14 381.90 605.55 380.97 C 605.47 377.26 604.40 373.67 604.39 369.95 C 604.48 368.46 603.47 367.30 602.85 366.07 C 601.44 364.04 601.42 361.50 601.12 359.15 C 598.88 357.56 598.06 355.12 597.36 352.62 C 593.90 348.63 592.11 343.45 588.03 340.01 C 584.92 336.14 580.99 333.10 577.48 329.63 C 574.24 327.98 571.32 325.82 568.68 323.33 C 565.33 322.20 562.74 319.47 559.17 318.92 C 557.37 316.76 554.74 316.30 552.08 316.32 C 551.15 315.39 550.20 314.49 549.24 313.61 C 546.96 313.57 544.68 313.68 542.43 313.34 C 540.11 312.90 538.49 310.63 536.06 310.61 C 532.19 310.62 528.47 309.49 524.62 309.38 C 523.88 308.78 523.14 308.19 522.42 307.60 C 475.61 307.78 428.80 307.62 381.99 307.69 C 378.16 307.83 374.30 306.91 370.51 307.61 Z" />
<path fill="#e3f1f4" opacity="1.00" d=" M 426.99 355.06 C 449.64 355.28 472.29 355.01 494.94 355.19 C 498.04 356.14 501.23 356.94 504.49 356.18 C 505.43 356.77 506.35 357.37 507.30 357.98 C 510.53 357.97 513.76 358.21 517.00 358.21 C 519.17 362.51 524.90 359.87 527.47 363.81 C 528.87 364.23 530.26 364.68 531.67 365.12 C 534.59 368.28 537.79 371.16 540.72 374.32 C 541.66 377.14 544.66 378.90 544.82 382.02 C 544.89 383.73 545.91 385.12 546.94 386.42 C 547.81 395.43 548.00 404.50 546.92 413.52 C 544.55 417.37 542.58 421.48 540.83 425.65 C 539.72 426.60 538.67 427.61 537.68 428.67 C 535.58 430.64 533.81 432.94 531.61 434.79 C 527.41 436.92 523.07 438.77 518.96 441.07 C 517.21 442.05 515.19 442.04 513.25 442.02 C 512.37 442.63 511.50 443.26 510.66 443.90 C 505.82 446.19 499.99 443.42 495.48 446.50 C 492.93 446.45 490.59 447.58 488.09 447.78 C 467.75 447.76 447.40 447.79 427.05 447.88 C 426.97 416.94 427.08 386.00 426.99 355.06 Z" />
<path fill="#e3f1f4" opacity="1.00" d=" M 426.71 492.33 C 452.79 492.53 478.88 492.12 504.96 492.57 C 508.14 492.43 511.20 493.50 514.38 493.56 C 515.20 494.12 516.04 494.68 516.88 495.25 C 520.75 495.25 524.61 495.78 528.49 495.85 C 530.13 497.36 531.89 498.84 534.24 499.02 C 536.91 500.89 540.19 501.30 543.05 502.75 C 543.85 504.28 545.38 504.79 546.98 505.05 C 549.85 508.37 553.20 511.24 556.20 514.43 C 556.65 517.63 559.17 519.87 560.09 522.87 C 560.50 525.04 562.62 526.31 563.06 528.46 C 563.48 537.53 563.51 546.63 563.04 555.70 C 562.55 557.56 561.10 558.98 560.48 560.79 C 560.10 562.83 559.91 564.93 559.29 566.93 C 555.25 572.53 550.27 577.34 545.28 582.10 C 543.73 582.81 542.34 583.80 541.09 584.95 C 538.82 585.46 536.34 586.03 535.00 588.12 C 531.71 588.39 528.49 589.15 525.68 590.95 C 521.52 592.05 517.09 591.74 512.81 591.87 C 511.28 591.66 509.95 592.42 508.87 593.40 C 505.89 593.64 503.00 594.50 500.02 594.64 C 475.58 594.69 451.14 594.52 426.70 594.71 C 426.89 560.59 426.87 526.46 426.71 492.33 Z" />
</g>
</svg>
