<?xml version="1.0" encoding="UTF-8" ?>
<!DOCTYPE svg PUBLIC "-//W3C//DTD SVG 1.1//EN" "http://www.w3.org/Graphics/SVG/1.1/DTD/svg11.dtd">
<svg width="966pt" height="966pt" viewBox="0 0 966 966" version="1.1" xmlns="http://www.w3.org/2000/svg">
<g id="#e3f1f4ff">
<path fill="#e3f1f4" opacity="1.00" d=" M 198.88 163.78 C 339.91 163.56 480.95 163.75 621.98 163.69 C 666.53 163.74 711.08 163.57 755.63 163.77 C 755.21 168.33 754.18 172.87 754.64 177.47 C 753.44 181.20 753.25 185.28 753.94 189.13 C 752.03 192.90 752.39 197.41 752.46 201.53 C 751.39 205.07 751.58 208.82 751.26 212.48 C 751.07 216.39 749.64 220.47 750.84 224.32 C 749.64 226.01 749.83 228.13 749.57 230.08 C 747.68 251.73 745.91 273.38 743.86 294.99 C 743.87 300.05 742.49 304.99 742.68 310.06 C 741.70 315.69 742.06 321.42 740.90 327.02 C 740.91 333.20 739.45 339.25 739.62 345.44 C 738.64 349.19 738.67 353.09 738.77 356.94 C 737.55 361.02 737.55 365.30 737.52 369.52 C 736.48 373.41 736.52 377.49 736.61 381.49 C 735.38 384.96 735.62 388.71 735.60 392.33 C 734.65 396.30 734.22 400.42 734.51 404.50 C 733.06 411.31 733.32 418.40 732.34 425.30 C 732.59 426.21 732.84 427.13 733.09 428.06 C 732.81 428.56 732.25 429.56 731.97 430.06 C 729.85 453.02 728.00 476.02 725.92 498.97 C 725.17 508.06 724.00 517.15 723.64 526.28 C 722.74 529.83 722.86 533.49 722.69 537.12 C 721.78 541.17 721.66 545.32 721.63 549.45 C 720.63 552.95 720.69 556.61 720.89 560.21 C 719.71 564.40 719.47 568.74 719.62 573.08 C 718.62 577.13 718.46 581.32 718.57 585.47 C 717.49 588.90 717.43 592.58 717.94 596.12 C 716.11 600.28 716.55 605.04 716.42 609.50 C 715.11 616.00 715.28 622.73 714.28 629.31 C 714.55 630.18 714.81 631.07 715.07 631.98 C 714.80 632.50 714.25 633.55 713.98 634.07 C 711.40 661.39 709.27 688.76 706.77 716.07 C 705.85 722.37 706.15 728.77 704.86 735.01 C 704.10 735.59 703.36 736.17 702.63 736.78 C 700.69 736.54 698.87 737.29 697.01 737.63 C 695.43 738.93 693.31 738.71 691.53 739.53 C 689.01 739.65 686.51 740.37 684.38 741.74 C 683.85 741.72 682.78 741.69 682.25 741.68 C 675.28 744.50 667.70 745.85 660.51 748.16 C 654.63 749.51 649.01 751.81 643.07 752.95 C 641.80 753.18 640.69 753.85 639.59 754.49 C 637.10 754.39 634.63 755.18 632.56 756.54 C 630.44 756.29 628.72 757.63 626.77 758.17 C 625.04 758.63 623.25 758.81 621.54 759.35 C 620.15 759.59 618.77 759.92 617.53 760.61 C 602.93 764.64 588.33 768.67 573.77 772.85 L 574.18 773.79 C 571.01 773.17 568.05 774.85 565.17 775.90 C 564.88 775.69 564.31 775.28 564.02 775.07 C 563.74 775.44 563.18 776.18 562.90 776.55 C 560.81 776.31 558.85 777.11 556.88 777.59 C 554.90 779.20 552.26 779.23 549.90 779.87 C 537.63 783.28 525.38 786.81 513.07 790.11 C 510.84 790.75 508.52 791.27 506.57 792.59 C 505.06 792.12 503.69 792.79 502.56 793.76 C 500.69 793.96 498.99 794.88 497.09 794.81 C 495.99 795.40 494.86 795.88 493.68 796.24 C 492.01 796.86 490.18 796.77 488.53 797.45 C 487.15 797.64 485.76 797.90 484.53 798.60 C 476.18 802.64 467.73 797.01 459.46 795.70 C 458.28 794.83 456.90 794.54 455.49 794.49 C 453.44 793.70 450.99 794.08 449.58 792.05 C 449.39 792.21 448.99 792.54 448.80 792.70 C 447.42 791.97 445.99 791.37 444.47 791.09 C 430.52 787.00 416.51 783.02 402.45 779.35 C 400.34 779.08 398.48 778.00 396.46 777.46 C 395.15 776.92 393.82 776.49 392.45 776.23 C 390.62 775.51 388.40 775.94 386.93 774.43 C 386.62 774.57 385.99 774.86 385.67 775.01 C 384.58 773.59 383.05 773.30 381.42 773.54 C 380.56 772.77 379.57 772.46 378.46 772.63 C 371.74 769.48 364.25 768.43 357.21 766.17 C 351.56 764.74 346.02 762.94 340.41 761.40 C 335.67 760.47 331.19 758.57 326.44 757.67 C 325.23 756.81 323.87 756.37 322.40 756.40 C 321.16 755.71 319.82 755.28 318.41 755.16 C 305.74 750.95 292.65 748.03 279.94 743.97 C 278.11 743.64 276.31 743.17 274.51 742.71 C 273.28 741.88 271.87 741.57 270.43 741.50 C 269.16 740.89 267.80 740.54 266.43 740.30 C 264.75 739.70 262.93 739.67 261.29 738.95 C 258.26 738.40 255.60 736.17 252.40 736.65 C 251.47 736.07 250.50 735.57 249.51 735.13 C 249.23 732.88 249.51 730.45 248.27 728.45 C 248.58 727.27 248.90 726.08 248.67 724.87 C 248.00 718.64 247.59 712.39 247.04 706.16 C 246.76 705.62 246.21 704.55 245.94 704.01 C 246.13 703.09 246.36 702.19 246.60 701.31 C 246.22 698.35 246.55 695.24 245.33 692.47 C 245.54 688.81 245.49 685.05 244.52 681.51 C 244.51 677.09 244.44 672.63 243.40 668.32 C 243.31 664.32 243.45 660.25 242.31 656.38 C 242.32 652.76 242.38 649.08 241.43 645.56 C 241.35 641.22 241.29 636.85 240.19 632.63 C 240.08 628.87 240.31 625.06 239.34 621.38 C 237.81 599.92 235.47 578.54 233.83 557.07 C 232.82 549.91 233.04 542.58 231.55 535.50 C 232.01 531.80 231.73 527.60 230.05 524.25 C 230.25 523.86 230.67 523.10 230.87 522.71 C 229.97 515.85 229.70 508.92 229.00 502.04 C 228.75 501.56 228.25 500.60 228.01 500.12 C 228.26 499.52 228.51 498.93 228.77 498.35 C 228.17 495.07 228.65 491.56 227.30 488.45 C 227.99 482.93 226.38 477.48 226.38 471.98 C 226.18 469.36 226.49 466.53 225.06 464.18 C 226.19 458.99 223.85 453.99 224.29 448.83 C 224.30 446.34 224.04 443.85 223.40 441.45 C 223.33 438.62 223.27 435.80 223.09 432.99 C 221.24 428.81 222.78 424.23 221.66 419.92 C 220.90 416.30 221.50 412.56 220.80 408.94 C 219.77 404.46 220.57 399.80 219.40 395.34 C 217.76 373.06 215.32 350.82 213.78 328.51 C 213.27 325.81 213.53 322.90 212.26 320.40 C 213.18 316.47 212.03 312.42 211.84 308.47 C 211.03 304.38 212.25 299.75 209.96 296.09 C 210.17 295.64 210.61 294.75 210.82 294.31 C 210.29 291.36 210.52 288.24 209.33 285.44 C 209.72 281.47 209.52 277.34 208.45 273.49 C 208.65 269.25 208.48 264.92 207.20 260.85 C 207.40 257.05 207.64 253.09 206.32 249.46 C 206.68 243.04 205.02 236.75 205.13 230.33 C 203.56 225.00 204.76 219.41 203.33 214.04 C 203.18 206.85 202.25 199.71 201.64 192.55 C 200.46 183.01 200.33 173.32 198.88 163.78 M 304.83 276.47 C 306.92 301.34 308.51 326.25 310.59 351.13 C 396.88 351.25 483.17 351.04 569.46 351.24 C 567.40 376.27 565.67 401.35 563.85 426.40 C 506.31 426.62 448.78 426.42 391.24 426.51 C 392.22 451.43 393.92 476.29 394.91 501.21 C 449.91 501.30 504.90 501.15 559.90 501.29 C 558.45 529.51 556.01 557.68 554.58 585.91 C 528.82 594.88 502.97 603.64 477.10 612.31 C 451.50 603.38 425.75 594.89 400.15 585.93 C 399.65 570.35 398.85 554.79 398.28 539.21 C 373.43 539.01 348.56 539.05 323.71 539.19 C 325.57 573.43 327.23 607.70 329.41 641.93 C 378.63 658.21 427.86 674.49 477.14 690.57 C 484.83 688.51 492.28 685.57 499.92 683.30 C 541.67 669.51 583.43 655.76 625.19 642.03 C 631.30 545.04 637.02 448.00 643.17 351.02 C 644.54 326.11 646.55 301.26 647.62 276.34 C 533.36 276.48 419.09 276.22 304.83 276.47 Z" />
</g>
</svg>
