<?xml version="1.0" encoding="UTF-8" ?>
<!DOCTYPE svg PUBLIC "-//W3C//DTD SVG 1.1//EN" "http://www.w3.org/Graphics/SVG/1.1/DTD/svg11.dtd">
<svg width="966pt" height="966pt" viewBox="0 0 966 966" version="1.1" xmlns="http://www.w3.org/2000/svg">
<g id="#e3f1f4ff">
<path fill="#e3f1f4" opacity="1.00" d=" M 372.10 209.16 C 378.30 207.80 384.69 207.37 391.03 207.56 C 399.69 207.25 408.36 207.17 417.03 207.38 C 423.21 208.13 429.29 209.82 435.56 209.68 L 435.56 210.23 C 439.98 210.21 444.42 210.86 448.42 212.83 L 448.57 213.61 C 448.91 213.62 449.60 213.66 449.94 213.68 C 450.54 213.99 451.75 214.63 452.35 214.95 L 452.55 215.69 C 452.89 215.66 453.58 215.60 453.92 215.58 C 456.32 217.10 459.20 217.25 461.94 217.59 C 462.86 218.16 463.83 218.66 464.83 219.10 C 466.14 220.28 467.88 220.56 469.58 220.74 L 469.49 221.54 C 469.85 221.52 470.58 221.46 470.95 221.44 C 471.44 221.85 472.42 222.68 472.91 223.10 C 473.67 223.77 474.48 224.38 475.35 224.92 L 475.46 225.18 C 477.11 225.66 478.74 226.25 480.39 226.77 L 480.39 227.55 L 481.14 227.50 C 481.63 227.83 482.59 228.49 483.08 228.82 C 484.68 229.71 486.36 230.44 488.06 231.15 C 489.46 231.92 490.81 232.81 492.10 233.77 C 492.46 234.05 493.18 234.61 493.54 234.90 L 493.53 235.64 C 493.96 235.62 494.82 235.56 495.25 235.53 L 495.38 236.61 L 496.13 236.59 C 499.07 238.71 501.25 241.67 504.08 243.91 C 506.83 245.75 509.52 247.69 512.07 249.80 C 515.04 252.98 518.35 255.85 520.92 259.40 L 521.17 259.41 C 522.20 261.10 523.47 262.61 524.82 264.05 C 526.05 265.24 527.21 266.53 528.27 267.88 C 528.52 268.15 529.01 268.68 529.26 268.95 C 530.10 270.36 530.94 271.78 531.70 273.26 C 533.27 275.71 535.60 277.53 537.25 279.94 C 537.47 280.43 537.92 281.40 538.15 281.89 C 539.15 284.64 540.53 287.23 541.59 289.96 C 542.69 293.06 545.43 295.17 546.79 298.14 C 547.00 297.93 547.42 297.50 547.63 297.28 C 547.55 297.91 547.38 299.17 547.30 299.80 C 549.09 302.60 550.24 305.73 551.24 308.89 C 551.45 310.23 551.75 311.56 552.19 312.85 C 553.62 314.54 554.50 316.57 555.24 318.65 C 555.88 321.78 557.37 324.73 557.49 327.96 C 557.52 330.11 558.22 332.16 558.91 334.18 C 559.18 335.16 559.43 336.15 559.65 337.16 C 560.17 338.36 560.77 339.54 561.45 340.68 C 562.21 346.43 561.65 352.24 561.49 358.01 C 561.39 361.73 562.87 365.29 562.62 369.03 C 562.78 372.72 561.18 376.32 561.97 380.01 C 564.01 389.66 560.20 399.42 562.16 409.09 C 563.33 414.69 561.40 420.62 563.55 426.05 C 564.49 427.87 565.33 429.94 567.36 430.81 L 567.50 431.21 C 569.21 431.75 570.91 432.35 572.68 432.75 L 572.64 433.27 C 579.67 433.43 586.85 434.16 593.74 432.48 C 596.85 432.33 599.98 432.37 603.10 432.55 C 612.79 434.27 622.68 433.28 632.47 433.77 L 632.29 434.51 C 640.11 434.59 647.82 435.92 655.58 436.70 L 655.44 437.36 C 658.69 437.50 661.93 438.04 664.92 439.38 C 666.42 439.53 667.95 439.66 669.48 439.76 L 669.37 440.33 C 671.55 440.54 673.39 441.75 675.18 442.91 C 676.26 443.28 677.35 443.62 678.46 443.94 L 678.33 444.29 C 681.36 445.13 684.18 446.82 687.43 446.74 C 687.46 446.87 687.52 447.14 687.55 447.27 C 688.77 447.61 689.96 448.07 691.17 448.52 C 693.01 450.14 694.94 451.67 697.12 452.81 C 698.48 453.76 699.82 454.73 701.22 455.64 C 703.24 456.77 705.25 457.94 707.36 458.92 L 707.37 459.64 L 708.00 459.73 C 708.68 460.40 709.37 461.06 710.08 461.71 C 710.94 462.26 711.82 462.82 712.69 463.38 C 713.87 463.86 715.06 464.32 716.27 464.78 C 716.31 465.01 716.38 465.47 716.41 465.70 L 717.18 465.47 C 722.42 471.05 729.14 475.00 733.85 481.13 C 737.74 484.27 741.24 487.85 744.21 491.88 C 745.72 493.76 747.60 495.36 748.84 497.46 L 749.26 497.52 C 749.68 498.57 750.12 499.62 750.58 500.67 L 751.07 500.58 C 752.62 502.74 754.43 504.69 755.83 506.97 C 756.24 508.30 756.63 509.66 757.05 511.01 C 757.40 511.99 757.79 512.97 758.20 513.95 C 758.88 515.23 759.53 516.54 760.20 517.85 C 762.28 520.81 764.71 523.58 766.08 526.99 C 766.39 528.32 766.77 529.65 767.34 530.91 C 768.48 533.86 769.17 536.97 770.19 539.97 C 770.76 540.96 771.35 541.96 771.94 542.96 C 772.33 544.34 772.73 545.75 773.17 547.14 C 773.51 548.50 773.74 549.96 774.61 551.14 C 774.60 551.45 774.56 552.06 774.54 552.36 L 775.30 552.49 C 775.39 553.85 775.48 555.22 775.59 556.60 L 776.32 556.48 C 776.39 557.14 776.53 558.45 776.59 559.11 C 777.19 560.34 777.76 561.62 778.35 562.88 C 778.43 563.79 778.59 565.59 778.67 566.49 L 779.44 566.50 C 779.41 568.35 779.40 570.21 779.35 572.08 C 777.62 578.94 779.36 586.09 780.29 592.91 C 780.98 599.78 780.72 606.69 780.36 613.58 L 779.72 613.34 C 779.44 615.97 778.71 618.51 778.06 621.06 C 777.33 623.70 777.40 626.46 777.30 629.18 C 776.22 632.52 776.47 636.07 776.42 639.53 L 775.78 639.64 C 775.07 641.53 774.14 643.33 773.09 645.05 C 772.88 645.55 772.48 646.56 772.27 647.07 C 771.64 648.02 771.00 648.96 770.37 649.91 C 770.35 650.14 770.32 650.60 770.30 650.83 C 769.16 653.46 768.71 656.31 767.88 659.04 C 767.19 660.43 766.53 661.85 766.10 663.35 C 764.63 666.38 762.52 669.03 760.66 671.83 C 760.04 674.03 759.12 676.15 757.77 678.01 C 756.06 682.35 753.55 686.23 750.75 689.93 C 749.63 693.16 747.45 695.76 744.99 698.06 C 739.69 703.76 734.79 709.86 728.71 714.80 C 723.55 717.89 719.78 722.58 715.18 726.36 C 714.01 726.85 712.86 727.37 711.70 727.87 L 711.53 728.60 L 710.41 728.38 L 710.41 729.08 C 709.12 729.99 707.89 730.97 706.63 731.91 L 706.40 732.22 C 704.30 733.20 702.18 734.15 700.18 735.31 C 698.11 736.22 696.04 737.13 694.02 738.16 C 693.25 738.68 692.48 739.21 691.71 739.74 C 691.46 740.05 690.96 740.67 690.71 740.98 C 690.14 741.19 689.00 741.62 688.42 741.83 L 688.52 742.29 C 686.27 742.53 684.11 743.18 682.08 744.14 C 680.67 744.70 679.27 745.28 677.86 745.81 C 676.38 746.47 674.88 747.12 673.38 747.74 L 673.40 748.26 C 671.88 748.78 670.39 749.36 668.90 749.92 C 666.92 750.41 664.99 751.01 663.11 751.78 C 660.50 752.97 657.47 752.11 654.88 753.32 C 651.22 753.47 647.69 754.48 644.16 755.36 C 641.43 755.55 638.64 755.39 636.02 756.28 C 634.90 756.19 633.79 756.09 632.69 755.99 L 632.97 756.63 C 630.50 756.54 628.03 756.62 625.57 756.69 L 625.55 757.38 C 613.72 757.62 601.90 757.21 590.07 757.32 C 576.39 757.86 562.68 756.65 549.01 757.78 C 541.68 757.43 534.34 757.16 527.00 757.37 C 514.01 757.80 501.02 757.12 488.03 757.34 C 476.65 757.52 465.27 758.26 453.89 757.59 C 445.25 756.88 436.62 758.38 427.98 757.63 C 411.00 758.25 394.01 756.60 377.04 757.76 C 364.38 757.25 351.71 757.09 339.04 757.46 C 325.03 757.10 311.03 757.61 297.02 757.44 C 293.36 757.40 289.70 757.46 286.05 757.78 C 276.05 758.10 266.06 757.18 256.07 757.61 C 252.96 757.72 249.91 758.43 246.79 758.36 C 244.89 757.50 242.76 756.60 241.96 754.49 C 241.64 754.48 241.00 754.48 240.69 754.47 C 240.69 753.67 240.70 752.08 240.70 751.29 L 239.71 751.46 C 239.04 741.33 239.71 731.17 239.24 721.03 C 238.98 714.55 239.65 708.08 239.65 701.60 L 240.63 701.68 C 240.56 700.60 240.43 698.45 240.37 697.37 L 239.52 697.76 C 239.61 675.16 239.56 652.57 239.43 629.98 C 238.40 618.99 240.23 607.99 239.47 597.00 C 239.65 587.30 238.64 577.62 239.33 567.93 C 239.47 555.65 239.98 543.36 239.25 531.09 C 239.18 522.05 239.97 513.02 239.41 503.99 C 239.53 492.00 239.54 480.00 239.34 468.01 C 239.70 464.73 238.88 461.15 240.33 458.09 C 240.20 454.97 240.18 451.86 240.28 448.75 C 239.19 447.00 239.49 444.91 239.47 442.96 C 239.61 425.48 239.05 407.99 239.62 390.52 L 240.53 390.69 C 240.46 387.25 240.52 383.82 240.47 380.39 L 239.56 380.74 C 239.23 373.64 239.43 366.53 239.63 359.43 L 240.51 359.69 C 240.44 353.67 240.90 347.64 240.61 341.62 C 240.77 342.71 240.92 343.81 241.06 344.92 C 242.56 337.58 243.12 330.07 245.72 322.98 C 246.30 321.65 246.57 320.23 246.86 318.83 C 249.62 314.30 250.44 309.04 252.37 304.19 C 252.47 303.80 252.65 303.02 252.74 302.63 C 253.30 301.46 253.84 300.29 254.39 299.12 C 254.46 298.72 254.61 297.91 254.68 297.51 C 256.43 295.55 257.98 293.42 259.33 291.18 C 259.75 290.04 260.21 288.92 260.67 287.80 C 261.24 286.95 261.81 286.09 262.37 285.23 C 263.78 282.79 265.48 280.54 267.23 278.34 C 268.59 276.64 270.08 274.97 270.75 272.85 C 272.68 268.62 276.61 265.81 278.75 261.72 C 279.99 259.89 281.62 258.39 283.38 257.08 L 283.36 256.41 L 284.46 256.44 L 284.48 255.31 L 285.65 255.63 L 285.47 254.40 C 285.95 254.41 286.92 254.43 287.40 254.44 C 287.44 254.10 287.52 253.40 287.56 253.05 C 290.75 250.83 293.04 247.59 296.11 245.21 C 296.43 244.93 297.08 244.37 297.41 244.10 L 297.52 243.91 C 298.45 243.32 299.20 242.57 299.78 241.64 C 300.90 240.85 302.03 240.07 303.17 239.30 C 304.49 238.61 305.82 237.96 307.19 237.36 C 310.34 235.04 313.11 232.22 316.45 230.15 L 316.50 229.51 L 317.61 229.64 L 317.67 228.90 C 318.25 228.61 319.42 228.02 320.00 227.73 C 322.47 226.74 325.01 225.81 327.14 224.17 C 329.38 222.44 332.07 221.53 334.80 220.90 C 338.11 219.54 341.68 219.07 345.05 217.87 C 345.55 217.53 346.57 216.84 347.07 216.50 L 347.87 216.49 C 349.86 215.45 351.92 214.56 353.93 213.56 L 354.61 213.62 L 354.64 212.51 C 355.35 212.48 356.78 212.41 357.50 212.38 L 357.43 211.54 C 359.14 211.50 360.86 211.45 362.59 211.41 L 362.53 210.70 C 365.69 210.01 368.89 209.53 372.10 209.16 Z" />
</g>
</svg>
