<?xml version="1.0" encoding="UTF-8" ?>
<!DOCTYPE svg PUBLIC "-//W3C//DTD SVG 1.1//EN" "http://www.w3.org/Graphics/SVG/1.1/DTD/svg11.dtd">
<svg width="966pt" height="966pt" viewBox="0 0 966 966" version="1.1" xmlns="http://www.w3.org/2000/svg">
<g id="#e3f1f4ff">
<path fill="#e3f1f4" opacity="1.00" d=" M 483.02 135.17 C 483.54 135.76 484.06 136.35 484.59 136.94 C 484.51 137.17 484.33 137.64 484.25 137.87 C 485.90 139.71 487.45 141.63 488.85 143.68 L 489.03 143.43 C 490.02 145.05 491.17 146.58 492.40 148.03 C 492.38 148.27 492.34 148.76 492.32 149.00 C 492.78 149.45 493.71 150.36 494.17 150.81 C 495.06 152.25 496.08 153.61 497.14 154.95 C 499.98 158.15 502.37 161.71 505.06 165.04 C 507.64 169.29 511.14 172.87 514.06 176.87 C 517.67 181.56 521.55 186.04 525.14 190.76 C 526.68 192.88 528.58 194.73 530.18 196.82 C 530.44 197.09 530.95 197.63 531.21 197.90 C 532.19 199.17 533.16 200.46 534.10 201.76 C 534.39 202.04 534.97 202.60 535.26 202.88 C 535.83 203.90 536.42 204.94 536.98 205.98 C 537.40 206.20 538.22 206.63 538.64 206.85 L 538.34 207.83 L 539.62 207.33 C 539.53 207.73 539.34 208.53 539.25 208.93 C 540.13 209.98 541.03 211.07 542.14 211.92 C 543.05 213.14 543.90 214.40 544.70 215.71 C 545.50 216.74 546.30 217.78 547.08 218.85 C 548.67 221.27 550.68 223.40 552.11 225.94 C 553.08 227.08 554.08 228.21 555.07 229.35 C 555.64 231.30 557.01 232.79 558.57 234.03 C 558.43 234.36 558.15 235.02 558.01 235.36 L 559.04 235.37 C 559.85 236.87 560.80 238.29 561.73 239.73 L 562.59 239.42 C 562.49 239.91 562.28 240.90 562.18 241.40 L 563.65 241.45 C 563.56 241.79 563.38 242.46 563.28 242.80 C 564.81 244.29 566.09 246.02 567.15 247.87 C 567.78 248.91 568.45 249.94 569.13 250.96 C 571.29 254.72 573.83 258.25 576.23 261.87 C 576.92 263.18 577.56 264.53 578.16 265.89 C 579.31 268.10 580.78 270.12 581.90 272.35 L 582.07 272.55 C 583.36 275.08 584.95 277.50 585.75 280.26 C 586.58 281.24 587.45 282.21 588.39 283.10 C 588.27 283.48 588.02 284.23 587.90 284.60 L 589.14 284.15 C 589.04 286.91 590.22 289.37 592.40 291.04 C 592.32 291.36 592.15 292.00 592.06 292.32 L 593.12 292.31 C 593.47 293.98 593.10 296.70 595.57 296.89 C 595.48 297.23 595.29 297.90 595.20 298.24 L 596.01 298.44 C 596.34 299.62 596.70 300.80 597.10 301.97 C 597.63 302.84 598.16 303.72 598.70 304.61 L 599.04 304.39 C 599.34 305.59 599.71 306.77 600.14 307.94 C 600.25 308.62 600.49 309.99 600.61 310.67 L 601.16 310.43 C 601.68 311.84 602.24 313.23 602.76 314.64 L 603.11 314.15 C 603.36 315.37 603.66 316.59 604.01 317.81 C 604.65 320.09 605.45 322.34 606.70 324.37 L 607.22 324.41 C 607.63 326.52 608.15 328.60 608.63 330.71 L 609.67 330.38 C 609.55 330.87 609.33 331.85 609.22 332.34 L 610.29 332.45 C 611.25 335.24 611.74 338.16 612.24 341.07 C 613.03 342.06 613.83 343.03 614.66 344.01 L 613.90 345.21 C 614.23 345.24 614.89 345.32 615.22 345.35 C 614.37 350.96 618.51 355.32 619.11 360.66 C 619.45 364.79 621.43 368.52 622.05 372.60 C 622.61 377.45 623.93 382.17 625.04 386.92 C 626.39 395.89 627.54 404.90 628.18 413.96 C 629.24 418.20 628.80 422.66 630.20 426.83 C 630.18 437.15 631.08 447.59 629.19 457.79 C 628.96 460.88 629.60 464.01 628.79 467.06 C 626.64 475.97 627.05 485.23 625.12 494.18 C 622.77 501.00 623.12 508.47 620.16 515.07 C 618.72 519.01 619.15 523.54 616.78 527.16 C 615.45 529.42 615.20 532.07 615.20 534.64 L 614.77 534.52 C 613.79 536.69 612.65 538.79 611.82 541.03 C 611.62 542.08 611.45 543.13 611.30 544.20 C 610.68 545.18 610.07 546.15 609.45 547.13 C 609.42 547.33 609.36 547.71 609.33 547.91 C 608.28 549.85 607.77 552.02 607.24 554.16 C 606.44 555.55 605.67 556.96 605.12 558.48 L 604.53 558.40 C 604.47 559.24 604.35 560.93 604.30 561.78 L 603.92 561.53 C 601.27 565.60 599.90 570.16 598.21 574.67 L 597.13 574.62 C 597.24 575.12 597.46 576.13 597.58 576.64 L 596.64 576.35 C 596.15 578.28 595.01 579.94 594.08 581.68 L 593.72 581.42 C 593.30 582.98 592.68 584.48 592.02 585.96 C 590.64 587.41 589.71 589.18 588.95 591.01 C 588.71 591.51 588.23 592.52 587.99 593.02 C 587.20 593.91 586.42 594.82 585.66 595.75 C 585.22 596.92 584.73 598.08 584.27 599.26 C 583.49 600.31 582.73 601.38 582.03 602.50 L 581.81 602.54 C 581.28 604.48 579.99 606.02 578.63 607.45 C 578.16 608.41 577.71 609.38 577.26 610.36 C 574.36 613.57 572.35 617.44 569.94 621.01 C 569.33 621.69 568.71 622.38 568.10 623.06 C 566.57 625.61 564.73 627.95 562.75 630.17 C 560.60 633.77 557.78 636.90 555.18 640.17 C 551.65 644.97 546.83 648.79 543.93 654.02 C 542.48 655.25 540.74 656.37 540.12 658.28 C 539.87 658.48 539.38 658.87 539.13 659.07 C 538.46 659.74 537.77 660.39 537.08 661.04 C 534.84 664.16 531.83 666.59 529.08 669.23 L 529.61 670.51 C 529.21 670.42 528.42 670.24 528.02 670.15 C 524.33 674.85 519.52 678.45 515.12 682.43 L 514.89 682.49 C 512.48 684.91 509.70 686.93 507.14 689.19 C 503.64 692.04 499.72 694.39 496.97 698.06 C 495.21 701.85 495.88 706.06 495.60 710.09 C 494.41 718.65 494.33 727.34 493.51 735.95 C 491.36 747.29 491.36 758.91 490.42 770.40 C 485.23 770.59 480.02 770.80 474.84 770.28 C 474.61 766.92 474.29 763.57 473.84 760.25 C 473.56 753.17 473.89 745.92 471.88 739.06 C 471.27 736.76 471.50 734.35 470.83 732.07 C 470.34 722.02 469.84 711.98 469.27 701.95 C 468.48 697.64 464.42 695.28 461.81 692.13 L 460.73 692.83 L 460.58 691.56 L 459.44 691.37 L 459.76 690.48 L 458.54 690.53 L 458.61 689.78 C 455.76 687.56 452.90 685.32 450.38 682.74 C 447.72 680.70 445.71 677.93 442.84 676.17 C 440.14 673.75 437.60 671.15 435.14 668.49 L 434.92 668.39 C 433.06 665.88 430.86 663.65 428.85 661.26 C 426.60 659.45 424.77 657.25 422.96 655.03 C 421.13 653.16 419.35 651.25 417.84 649.13 C 417.20 648.41 416.55 647.71 415.88 647.04 C 415.19 646.08 414.52 645.12 413.88 644.16 C 413.51 643.91 412.77 643.43 412.40 643.18 L 412.72 642.40 L 411.96 642.47 C 411.11 641.08 410.18 639.74 409.27 638.40 L 408.79 638.50 C 408.56 638.17 408.09 637.51 407.86 637.18 C 406.43 635.12 404.80 633.23 403.14 631.37 L 402.34 631.57 C 402.51 631.05 402.86 630.02 403.03 629.51 L 402.05 629.53 C 401.39 628.67 400.72 627.81 400.06 626.96 C 398.89 624.29 396.57 622.41 395.15 619.91 C 394.43 618.75 393.92 617.22 392.33 616.99 L 393.01 615.90 C 392.59 615.78 391.75 615.53 391.33 615.41 C 391.48 614.98 391.77 614.13 391.92 613.70 L 390.58 613.60 L 390.63 612.39 L 389.72 612.54 C 389.51 611.92 389.07 610.68 388.85 610.06 L 387.86 610.98 C 387.73 609.29 387.39 607.65 386.42 606.25 L 385.43 606.52 L 385.60 605.27 L 384.89 605.59 C 384.44 604.00 383.81 602.48 382.96 601.08 C 381.55 599.54 380.48 597.75 379.42 595.98 L 379.83 595.11 C 379.03 594.46 378.24 593.81 377.45 593.17 C 377.53 592.80 377.70 592.08 377.78 591.71 L 376.36 591.55 C 376.47 591.09 376.70 590.16 376.82 589.69 L 375.43 589.47 C 375.48 589.13 375.59 588.44 375.64 588.10 C 373.10 584.46 371.33 580.35 369.12 576.51 L 368.87 576.60 C 368.64 574.87 367.79 573.40 366.69 572.11 C 366.23 570.97 365.80 569.83 365.39 568.69 C 365.22 568.64 364.89 568.53 364.72 568.48 C 364.68 567.69 364.61 566.09 364.58 565.29 L 363.94 565.56 C 363.28 564.39 362.59 563.27 361.88 562.16 C 361.62 561.07 361.37 560.00 361.14 558.92 C 360.44 557.75 359.67 556.62 358.89 555.52 C 358.27 553.51 357.68 551.48 357.30 549.42 L 356.28 549.46 C 356.42 549.02 356.71 548.13 356.86 547.69 L 355.79 547.60 C 355.61 546.99 355.25 545.76 355.07 545.14 C 354.71 543.77 354.40 542.41 354.01 541.07 C 353.59 540.05 353.16 539.05 352.74 538.05 C 352.27 536.53 351.80 535.01 351.38 533.49 L 350.89 533.64 C 350.34 530.21 349.51 526.82 348.32 523.56 L 347.64 523.58 C 347.59 522.80 347.49 521.24 347.44 520.46 L 346.82 520.61 C 346.71 516.63 345.62 512.75 343.82 509.22 C 342.33 503.53 342.70 497.45 339.84 492.13 C 338.41 484.13 339.39 475.77 337.01 467.97 C 336.60 466.21 336.25 464.43 335.84 462.68 C 336.36 458.78 335.70 454.88 335.67 450.97 C 335.49 440.60 335.76 430.23 335.71 419.87 C 336.21 418.58 336.68 417.30 337.15 416.01 C 337.21 414.54 337.28 413.07 337.42 411.62 C 339.32 404.93 338.12 397.77 340.06 391.08 C 341.49 386.14 342.60 381.12 342.94 375.99 C 343.26 374.90 343.56 373.80 343.82 372.69 C 344.30 371.82 344.78 370.95 345.27 370.08 C 346.43 365.53 346.19 360.73 347.81 356.28 L 348.39 356.81 C 349.88 352.93 350.51 348.80 351.76 344.85 C 353.41 341.72 354.35 338.28 354.93 334.81 C 356.08 331.98 357.73 329.28 357.92 326.16 L 358.36 326.64 C 358.78 325.23 359.24 323.83 359.69 322.43 L 360.52 322.59 C 361.09 320.36 361.67 318.12 361.92 315.83 C 362.80 314.45 363.73 313.11 364.73 311.82 C 364.62 311.49 364.39 310.84 364.27 310.51 L 365.41 310.56 C 365.47 309.86 365.60 308.47 365.67 307.78 C 367.10 305.96 368.75 304.08 368.83 301.65 C 371.45 297.06 373.42 292.17 375.93 287.52 L 376.25 287.55 C 376.74 285.98 377.33 284.45 377.87 282.90 C 378.55 281.90 379.26 280.91 379.91 279.89 C 381.29 276.43 383.93 273.64 384.92 269.99 C 386.69 268.62 387.79 266.54 387.90 264.30 L 388.23 264.83 C 389.33 263.18 390.47 261.54 391.40 259.78 C 392.39 257.55 394.22 255.77 394.91 253.40 C 395.19 253.38 395.77 253.34 396.05 253.32 L 395.17 251.36 L 396.53 251.90 L 396.54 251.13 C 397.38 250.10 398.22 249.07 399.01 247.99 C 399.84 246.18 401.05 244.60 402.31 243.07 C 403.36 239.38 406.53 236.89 407.97 233.39 L 408.54 233.78 L 408.67 233.07 C 411.80 228.02 415.60 223.44 419.02 218.60 L 419.25 218.59 C 421.10 215.94 422.86 213.23 424.92 210.74 C 425.55 209.80 426.19 208.86 426.85 207.94 C 427.10 207.55 427.60 206.79 427.85 206.41 L 428.21 206.67 C 429.56 204.65 431.06 202.73 432.69 200.93 C 432.61 200.53 432.45 199.75 432.38 199.36 L 433.23 199.67 C 433.58 199.30 434.29 198.57 434.64 198.20 L 434.38 197.49 L 435.17 197.62 C 440.76 190.71 446.60 183.96 451.94 176.85 C 453.44 174.75 455.24 172.90 456.85 170.89 C 458.68 168.49 460.29 165.92 462.26 163.62 C 463.32 161.94 464.60 160.41 465.87 158.89 C 466.92 157.46 467.99 156.05 468.98 154.58 L 469.26 154.64 C 470.06 153.39 470.89 152.16 471.73 150.93 C 472.01 150.58 472.57 149.87 472.85 149.51 L 473.27 149.60 C 474.25 147.37 475.72 145.42 477.63 143.90 C 477.57 143.54 477.45 142.83 477.39 142.47 L 478.21 142.65 C 479.27 141.01 480.41 139.42 481.60 137.87 C 481.60 137.63 481.61 137.15 481.61 136.91 C 481.96 136.48 482.67 135.61 483.02 135.17 M 477.81 356.12 C 477.08 360.77 478.26 365.49 477.63 370.16 C 476.22 376.68 477.71 383.36 476.83 389.94 C 476.62 401.07 476.67 412.22 476.38 423.36 C 474.95 430.18 476.45 437.20 475.05 444.02 C 474.25 448.81 475.51 453.73 474.44 458.51 C 473.11 464.53 474.48 470.73 473.50 476.79 C 472.64 482.05 473.53 487.41 472.85 492.69 C 471.88 499.42 473.00 506.25 472.03 512.99 C 471.28 518.09 472.17 523.27 471.57 528.39 C 470.84 533.94 471.25 539.55 471.13 545.13 C 468.73 551.16 470.78 557.65 469.64 563.85 C 468.93 568.21 469.18 572.64 469.15 577.04 C 468.35 589.73 468.58 602.46 468.19 615.16 C 465.34 621.43 468.15 628.44 466.15 634.87 C 465.31 638.86 465.99 642.98 465.80 647.03 C 465.01 658.18 465.37 669.37 465.38 680.54 L 466.60 680.45 L 466.37 681.19 C 466.73 681.55 467.44 682.28 467.80 682.65 L 468.50 682.37 L 468.48 683.53 L 469.65 683.52 L 469.29 684.30 C 469.66 684.68 470.40 685.43 470.77 685.81 L 471.66 685.33 L 471.31 686.75 L 472.21 686.25 C 472.56 686.61 473.25 687.33 473.60 687.70 L 473.20 688.55 L 474.46 688.43 L 474.55 689.06 C 476.23 690.70 477.20 693.00 479.04 694.49 C 481.67 695.11 484.41 694.69 487.08 694.50 C 488.06 693.28 489.06 692.08 489.97 690.82 C 490.74 690.34 491.51 689.88 492.29 689.43 C 495.00 686.44 497.87 683.58 500.87 680.87 C 500.67 680.53 500.29 679.84 500.09 679.49 L 501.48 679.63 C 501.33 671.03 501.82 662.37 500.50 653.84 C 500.61 643.87 500.06 633.90 500.05 623.92 C 498.58 616.37 500.48 608.54 498.27 601.10 C 498.17 595.07 498.67 588.93 496.76 583.09 C 497.92 575.73 496.09 568.39 496.58 561.01 C 496.45 553.05 496.10 545.10 495.99 537.15 C 494.37 530.55 496.20 523.67 494.37 517.13 C 493.12 510.97 494.30 504.63 493.47 498.42 L 492.64 498.72 C 492.58 485.85 493.05 472.95 492.07 460.12 C 491.91 455.66 492.76 451.04 491.24 446.73 C 489.25 440.98 492.22 434.74 489.84 429.03 C 489.43 418.04 489.57 407.02 489.30 396.02 C 488.14 389.04 489.26 381.94 488.46 374.93 C 487.89 370.12 488.48 365.27 488.00 360.45 C 486.24 358.11 484.69 355.59 482.45 353.67 C 480.74 353.91 478.16 353.89 477.81 356.12 Z" />
</g>
</svg>
