<?xml version="1.0" encoding="UTF-8" ?>
<!DOCTYPE svg PUBLIC "-//W3C//DTD SVG 1.1//EN" "http://www.w3.org/Graphics/SVG/1.1/DTD/svg11.dtd">
<svg width="966pt" height="966pt" viewBox="0 0 966 966" version="1.1" xmlns="http://www.w3.org/2000/svg">
<g id="#e6f1f4ff">
<path fill="#e6f1f4" opacity="1.00" d=" M 231.63 272.29 C 274.74 271.82 317.88 272.24 361.00 272.16 C 387.96 272.07 415.10 277.07 439.72 288.24 C 449.47 292.65 458.57 298.44 466.96 305.07 C 486.51 320.46 498.87 343.11 506.65 366.37 C 508.80 374.11 510.59 382.01 511.17 390.04 C 513.83 414.71 511.16 440.07 502.35 463.32 C 500.21 468.68 498.45 474.27 495.16 479.07 C 484.97 496.55 470.67 511.79 453.38 522.38 C 445.74 527.06 437.50 530.65 429.41 534.49 C 418.54 538.80 407.08 541.32 395.56 543.20 C 384.16 545.24 372.57 546.08 360.99 545.97 C 344.90 545.97 328.80 545.89 312.71 545.87 C 313.16 572.91 312.80 599.96 312.96 627.00 C 312.87 643.25 313.11 659.50 312.80 675.74 C 285.97 675.44 259.09 675.36 232.26 675.80 C 232.10 599.87 232.54 523.92 231.83 448.00 C 231.66 389.43 231.94 330.86 231.63 272.29 M 347.05 344.21 C 335.73 344.36 324.48 345.83 313.15 345.16 C 313.22 382.11 313.12 419.05 313.15 456.00 C 313.11 461.79 313.35 467.61 312.56 473.37 C 320.04 473.64 327.52 473.32 335.00 473.46 C 347.53 473.54 360.12 474.07 372.57 472.32 C 384.35 470.36 395.93 466.51 406.05 460.08 C 410.42 457.58 413.66 453.64 417.11 450.07 C 426.75 439.21 430.14 424.18 430.31 410.01 C 430.38 393.70 425.70 376.77 414.39 364.64 C 407.91 358.32 399.93 353.84 391.67 350.34 C 377.41 345.37 362.11 343.16 347.05 344.21 Z" />
<path fill="#e6f1f4" opacity="1.00" d=" M 638.05 365.90 C 653.60 364.11 669.35 363.80 684.98 364.78 C 690.39 364.67 695.68 365.99 701.02 366.69 C 709.22 367.31 717.01 370.14 724.94 372.15 C 732.37 374.67 739.99 376.72 747.10 380.09 C 747.40 383.05 747.71 386.02 747.67 389.00 C 747.53 405.33 747.26 421.66 747.17 438.00 C 747.07 443.68 747.39 449.39 746.59 455.04 C 737.68 451.13 729.37 445.82 719.99 443.02 C 711.03 439.54 701.78 436.82 692.39 434.74 C 680.71 432.95 668.81 431.49 657.01 432.99 C 647.50 433.75 636.97 435.80 630.56 443.54 C 626.15 448.43 625.63 456.22 629.26 461.70 C 632.39 466.50 636.76 470.58 642.01 472.96 C 646.53 475.03 650.65 477.90 655.34 479.62 C 664.16 482.90 672.62 487.06 681.34 490.59 C 690.62 494.40 699.88 498.38 708.55 503.47 C 720.77 510.11 732.93 517.30 742.82 527.20 C 753.55 539.36 760.56 554.85 762.23 571.02 C 764.19 588.70 763.08 607.26 755.69 623.67 C 750.00 638.61 738.61 650.75 725.44 659.50 C 717.69 665.38 708.66 669.26 699.60 672.64 C 671.25 682.75 640.32 684.47 610.73 679.60 C 590.44 676.53 570.79 670.15 551.99 662.00 C 550.76 661.30 548.61 660.81 548.84 658.98 C 548.71 635.00 548.81 611.01 548.67 587.03 C 549.10 586.50 549.95 585.43 550.38 584.90 C 559.82 590.31 569.65 594.99 579.61 599.38 C 592.28 604.21 605.49 607.51 618.79 610.05 C 635.55 613.20 653.44 613.77 669.61 607.61 C 674.33 605.49 680.03 603.21 681.81 597.86 C 683.57 592.16 683.32 585.32 679.51 580.47 C 676.48 576.81 672.73 573.77 668.55 571.51 C 658.81 566.13 648.58 561.65 638.10 557.90 C 630.75 555.20 623.87 551.40 616.65 548.36 C 598.44 539.75 580.16 529.67 567.07 513.97 C 561.65 508.03 557.84 500.85 554.54 493.57 C 549.09 479.78 547.81 464.66 548.88 449.96 C 550.79 433.75 556.18 417.52 567.03 405.04 C 576.63 392.02 590.01 382.01 604.94 375.88 C 615.26 370.54 626.65 367.80 638.05 365.90 Z" />
</g>
</svg>
