<?xml version="1.0" encoding="UTF-8" ?>
<!DOCTYPE svg PUBLIC "-//W3C//DTD SVG 1.1//EN" "http://www.w3.org/Graphics/SVG/1.1/DTD/svg11.dtd">
<svg width="966pt" height="966pt" viewBox="0 0 966 966" version="1.1" xmlns="http://www.w3.org/2000/svg">
<g id="#e3f1f4ff">
<path fill="#e3f1f4" opacity="1.00" d=" M 572.97 189.88 C 591.75 181.84 612.45 175.76 633.03 179.06 C 648.39 181.08 662.49 189.99 671.45 202.55 C 681.91 216.94 687.00 234.45 689.67 251.85 C 695.13 290.61 689.90 329.97 681.58 367.94 C 714.61 378.38 747.20 391.44 775.95 411.03 C 790.88 421.43 804.99 433.64 814.79 449.15 C 822.48 461.13 826.90 475.70 824.92 489.98 C 823.14 504.65 815.43 517.89 805.93 528.94 C 793.56 543.23 778.08 554.45 761.92 564.07 C 737.01 578.75 709.92 589.33 682.42 598.05 C 690.79 636.00 696.13 675.36 690.67 714.13 C 688.21 730.15 683.71 746.21 674.81 759.92 C 667.36 771.46 656.09 780.76 642.78 784.59 C 626.57 789.37 609.17 787.40 593.18 782.69 C 562.60 773.55 535.43 755.86 510.50 736.35 C 501.23 728.96 492.24 721.22 483.54 713.17 C 462.21 733.04 439.18 751.30 413.83 765.81 C 395.42 776.11 375.59 784.69 354.48 787.29 C 338.05 789.44 320.23 786.56 306.89 776.22 C 294.23 766.77 286.56 752.26 281.64 737.55 C 275.13 716.75 273.59 694.73 274.20 673.04 C 275.09 647.81 278.93 622.77 284.41 598.15 C 250.87 587.67 217.84 574.25 188.78 554.22 C 174.12 543.84 160.26 531.68 150.76 516.26 C 142.29 502.95 138.28 486.35 141.99 470.81 C 145.81 453.93 156.68 439.66 168.98 427.93 C 185.76 412.30 205.61 400.35 226.19 390.43 C 244.84 381.44 264.33 374.32 284.05 368.06 C 277.38 340.56 273.58 312.28 273.36 283.96 C 273.58 260.16 276.21 235.59 286.98 214.01 C 293.28 201.33 303.28 190.12 316.31 184.19 C 330.56 177.86 346.80 177.62 361.90 180.53 C 386.29 185.46 408.70 197.15 429.43 210.56 C 448.45 222.98 466.03 237.47 482.77 252.79 C 509.70 227.82 539.25 204.93 572.97 189.88 M 333.19 211.37 C 325.77 213.17 320.10 219.03 316.43 225.48 C 308.81 238.95 306.50 254.61 305.28 269.82 C 303.32 300.02 307.68 330.21 314.25 359.63 C 342.49 352.78 371.19 347.80 400.09 344.70 C 401.42 344.47 403.09 344.54 403.77 343.09 C 420.55 319.99 438.65 297.81 458.32 277.10 C 459.01 276.28 459.65 275.42 460.26 274.54 C 457.41 272.50 454.96 269.98 452.34 267.67 C 434.73 252.29 416.00 238.02 395.51 226.69 C 383.70 220.19 371.22 214.71 358.04 211.73 C 349.90 209.92 341.34 209.15 333.19 211.37 M 596.39 214.23 C 577.52 220.89 560.14 231.16 543.92 242.77 C 530.30 252.56 517.39 263.33 505.11 274.75 C 525.44 296.02 544.22 318.74 561.60 342.48 C 563.28 345.46 567.20 344.68 570.05 345.15 C 597.43 348.34 624.65 353.01 651.44 359.53 C 656.82 334.72 660.72 309.45 660.65 284.01 C 660.46 265.13 658.77 245.69 650.77 228.33 C 647.02 220.77 641.19 213.37 632.68 211.08 C 620.66 207.68 607.97 210.44 596.39 214.23 M 444.55 341.18 C 447.42 341.09 450.30 341.06 453.17 340.96 C 475.79 339.66 498.46 340.37 521.07 341.23 C 508.90 325.93 496.22 311.01 482.57 297.01 C 469.13 311.05 456.48 325.83 444.55 341.18 M 421.88 374.52 C 419.70 374.26 418.82 376.45 417.75 377.89 C 395.74 410.17 376.23 444.16 359.46 479.46 C 358.92 480.88 357.82 482.21 357.78 483.77 C 375.37 521.59 396.55 557.69 420.28 591.98 C 452.52 594.44 484.91 595.24 517.22 593.72 C 526.76 593.31 536.27 592.36 545.81 591.99 C 569.71 557.52 590.64 520.97 608.38 482.95 C 590.74 445.06 569.61 408.80 545.67 374.55 C 504.51 371.07 463.04 370.91 421.88 374.52 M 321.93 390.10 C 327.61 408.69 333.76 427.14 341.11 445.15 C 352.70 422.57 365.30 400.51 379.05 379.18 C 359.86 381.99 340.82 385.72 321.93 390.10 M 586.74 379.21 C 600.34 400.43 613.40 422.06 624.55 444.68 C 631.99 426.95 637.94 408.58 643.37 390.14 C 624.69 385.59 605.77 381.94 586.74 379.21 M 243.05 417.10 C 221.18 427.52 199.45 439.85 183.21 458.19 C 176.70 465.90 170.80 475.54 172.01 486.04 C 173.47 495.53 179.21 503.67 185.61 510.55 C 198.58 524.33 214.85 534.44 231.41 543.33 C 250.75 553.38 271.21 561.13 291.97 567.67 C 300.43 538.97 310.67 510.75 323.00 483.48 C 310.79 455.91 300.00 427.65 291.73 398.64 C 275.14 403.74 258.77 409.71 243.05 417.10 M 642.96 482.99 C 655.24 510.44 665.82 538.68 674.25 567.56 C 698.88 559.77 723.15 550.35 745.48 537.26 C 759.75 528.76 773.62 518.99 784.24 506.06 C 790.18 498.59 795.35 489.25 793.89 479.38 C 791.83 468.28 784.35 459.21 776.44 451.58 C 761.82 437.72 744.23 427.41 726.19 418.67 C 709.39 410.40 691.68 404.22 673.91 398.43 C 665.54 427.29 654.87 455.42 642.96 482.99 M 586.86 586.93 C 606.00 584.14 625.03 580.51 643.81 575.87 C 638.41 557.21 631.99 538.84 624.74 520.82 C 613.23 543.47 600.59 565.55 586.86 586.93 M 322.47 575.96 C 341.15 580.61 360.11 584.13 379.15 586.94 C 365.49 565.75 352.69 544.00 341.17 521.58 C 333.98 539.35 327.79 557.54 322.47 575.96 M 314.56 606.58 C 309.79 628.75 306.07 651.25 305.48 673.95 C 304.96 692.44 306.02 711.24 311.64 728.98 C 314.57 737.57 318.86 746.22 326.31 751.76 C 334.49 757.35 345.02 757.25 354.44 755.76 C 375.39 751.98 394.46 741.68 412.13 730.19 C 429.52 718.76 445.65 705.51 460.90 691.38 C 440.01 669.58 420.87 646.16 402.98 621.85 C 373.26 618.44 343.62 613.78 314.56 606.58 M 566.01 621.28 C 564.64 621.49 562.97 621.44 562.26 622.88 C 545.46 645.99 527.36 668.19 507.68 688.90 C 506.98 689.71 506.35 690.57 505.73 691.45 C 511.96 696.46 517.66 702.10 523.94 707.06 C 541.83 721.74 560.92 735.20 581.89 745.13 C 594.54 750.90 608.02 755.64 622.04 756.05 C 630.23 756.24 639.05 754.04 644.53 747.54 C 654.65 736.04 657.75 720.32 659.85 705.59 C 663.58 672.36 659.03 638.83 651.76 606.38 C 623.55 613.23 594.87 618.19 566.01 621.28 M 444.82 624.91 C 457.04 640.26 469.67 655.33 483.54 669.22 C 484.82 667.60 486.13 666.02 487.57 664.55 C 499.52 651.95 510.64 638.60 521.34 624.94 C 495.85 626.22 470.30 626.10 444.82 624.91 Z" />
<path fill="#e3f1f4" opacity="1.00" d=" M 474.48 419.71 C 491.29 417.35 508.98 422.21 522.28 432.76 C 534.56 442.31 543.16 456.52 545.78 471.87 C 551.11 498.98 536.26 528.40 511.31 540.24 C 497.78 547.26 481.62 548.75 466.91 544.97 C 451.06 540.99 437.07 530.49 428.49 516.63 C 419.44 502.24 416.70 484.11 420.83 467.64 C 426.66 442.64 449.04 422.79 474.48 419.71 Z" />
</g>
</svg>
