<?xml version="1.0" encoding="UTF-8" ?>
<!DOCTYPE svg PUBLIC "-//W3C//DTD SVG 1.1//EN" "http://www.w3.org/Graphics/SVG/1.1/DTD/svg11.dtd">
<svg width="512pt" height="512pt" viewBox="0 0 512 512" version="1.1" xmlns="http://www.w3.org/2000/svg">
<g id="#ffffffff">
<path fill="#ffffff" opacity="1.00" d=" M 233.54 11.86 C 261.12 9.76 289.09 11.40 315.96 18.19 C 379.26 33.60 435.20 75.67 468.68 131.42 C 485.85 159.65 496.94 191.49 501.89 224.05 C 502.53 229.35 503.73 234.60 503.53 240.00 C 503.37 242.38 504.69 244.56 504.49 246.96 C 504.48 257.98 504.68 269.01 504.36 280.02 C 503.01 283.57 503.89 287.39 503.16 291.02 C 498.90 326.10 487.39 360.60 468.59 390.67 C 453.33 415.53 433.74 437.76 410.72 455.69 C 377.06 482.22 336.38 499.81 293.96 505.87 C 290.44 507.07 286.63 505.96 283.10 507.04 C 281.13 507.62 279.05 507.44 277.03 507.48 C 261.55 507.47 246.06 507.69 230.59 507.36 C 227.15 506.10 223.46 506.86 219.95 506.11 C 181.12 500.26 143.50 485.37 111.57 462.41 C 104.19 455.05 95.21 449.56 87.85 442.17 C 78.94 434.73 71.34 425.94 63.71 417.25 C 37.99 386.32 19.81 349.11 11.47 309.74 C 9.19 298.30 7.12 286.71 7.13 275.00 C 6.76 261.31 6.86 247.59 7.35 233.90 C 11.52 187.37 29.89 142.38 58.67 105.66 C 100.63 52.13 165.36 16.16 233.54 11.86 M 240.32 29.24 C 186.69 32.49 134.35 55.33 95.64 92.63 C 56.59 129.48 31.29 180.62 25.80 234.03 C 24.38 244.96 24.78 255.99 24.74 266.98 C 26.48 309.22 40.20 350.94 64.05 385.89 C 76.21 404.00 90.67 420.65 107.58 434.48 C 120.04 444.39 133.60 452.86 147.50 460.60 C 187.92 481.84 234.75 490.11 280.03 485.36 C 308.99 482.20 337.41 473.63 363.19 460.03 C 379.79 450.98 395.10 439.72 409.48 427.49 C 415.58 421.59 421.68 415.68 427.48 409.49 C 440.94 393.64 452.50 376.15 461.69 357.49 C 474.53 331.47 482.03 302.90 484.26 274.00 C 484.15 266.03 485.71 258.07 484.52 250.11 C 483.11 194.25 459.53 139.40 420.57 99.43 C 392.47 70.10 356.36 48.52 317.25 37.53 C 292.28 30.57 266.20 27.52 240.32 29.24 Z" />
<path fill="#ffffff" opacity="1.00" d=" M 87.11 196.28 C 88.72 193.64 91.66 196.28 93.97 195.99 C 151.31 196.00 208.65 195.97 265.99 195.99 C 281.96 194.93 298.41 204.16 305.33 218.68 C 308.60 232.10 307.52 247.50 298.97 258.85 C 296.51 261.46 294.04 264.10 291.31 266.44 C 287.41 269.14 283.04 271.12 278.66 272.93 C 286.81 278.82 293.33 286.56 301.20 292.75 C 305.21 296.84 309.43 300.88 314.61 303.46 C 319.00 305.83 324.04 306.52 328.93 307.02 C 359.94 306.95 390.96 307.14 421.97 306.92 C 421.98 314.86 421.57 322.80 421.78 330.73 C 417.57 329.86 413.25 330.31 408.99 330.21 C 382.00 330.47 355.00 330.33 328.00 330.38 C 322.30 330.54 316.75 328.97 311.12 328.26 C 303.18 326.03 295.79 321.82 289.48 316.55 C 285.94 312.37 281.27 309.43 277.58 305.42 C 274.15 301.81 269.90 299.12 266.54 295.44 C 260.92 290.09 255.62 284.25 248.94 280.18 C 243.25 276.73 236.47 275.84 229.93 276.34 C 220.86 276.17 211.86 281.91 208.64 290.48 C 205.74 298.27 206.82 306.74 206.49 314.87 C 205.78 320.01 206.13 325.21 206.05 330.38 C 199.70 330.36 193.35 330.61 187.00 330.34 C 184.99 329.92 182.93 329.99 180.99 330.73 C 181.05 319.84 180.93 308.96 181.04 298.08 C 182.84 291.20 183.74 283.77 187.70 277.66 C 195.49 263.79 210.83 255.62 226.16 253.09 C 239.44 252.66 252.76 253.20 266.05 252.81 C 272.75 252.48 278.01 247.56 280.82 241.79 C 285.75 232.11 277.00 218.50 266.02 219.50 C 236.34 219.48 206.66 219.61 176.99 219.44 C 177.05 239.64 176.98 259.84 177.03 280.04 C 176.90 291.47 173.92 303.41 166.00 312.00 C 161.22 316.54 157.11 322.08 150.82 324.65 C 144.17 328.47 136.47 329.50 128.99 330.46 C 115.11 330.61 101.22 330.22 87.35 330.67 C 87.58 323.00 87.64 315.32 87.49 307.66 C 99.34 308.05 111.19 307.63 123.04 307.84 C 126.63 308.00 130.12 307.06 133.66 306.66 C 143.76 304.20 150.41 294.05 151.01 284.03 C 150.98 266.35 151.03 248.66 150.98 230.97 C 150.86 226.98 151.93 223.10 152.48 219.18 C 130.67 219.95 108.79 219.13 86.98 219.55 C 87.13 211.80 86.80 204.03 87.11 196.28 Z" />
<path fill="#ffffff" opacity="1.00" d=" M 334.36 206.38 C 344.52 198.65 357.32 195.19 369.95 195.12 C 386.98 195.11 404.02 195.21 421.05 195.02 C 420.97 203.19 421.01 211.35 421.03 219.52 C 412.68 219.34 404.34 219.48 396.00 219.46 C 390.98 219.51 385.95 219.18 380.98 219.96 C 374.06 220.07 367.14 219.95 360.24 220.48 C 350.97 222.45 342.61 228.96 339.04 237.84 C 337.11 242.90 335.67 248.32 336.25 253.79 C 339.11 253.06 341.98 252.15 344.96 252.15 C 370.31 252.11 395.66 252.38 421.01 252.09 C 420.96 260.07 421.01 268.05 421.03 276.03 C 397.36 276.10 373.68 276.00 350.01 276.15 C 340.08 275.78 329.99 277.21 320.19 275.13 C 315.39 271.80 312.16 266.40 311.39 260.61 C 308.78 240.27 317.27 218.24 334.36 206.38 Z" />
</g>
</svg>
