<?xml version="1.0" encoding="UTF-8" ?>
<!DOCTYPE svg PUBLIC "-//W3C//DTD SVG 1.1//EN" "http://www.w3.org/Graphics/SVG/1.1/DTD/svg11.dtd">
<svg width="966pt" height="966pt" viewBox="0 0 966 966" version="1.1" xmlns="http://www.w3.org/2000/svg">
<g id="#e3f1f4ff">
<path fill="#e3f1f4" opacity="1.00" d=" M 640.34 191.26 C 643.17 188.33 646.49 185.21 650.85 185.27 C 653.87 185.40 657.43 184.82 659.86 187.06 C 662.17 188.95 664.72 190.95 665.57 193.96 C 667.55 199.94 665.11 206.00 664.51 211.97 C 662.63 217.16 661.56 222.60 660.91 228.08 C 659.05 233.21 658.14 238.64 657.65 244.06 C 657.60 247.17 658.11 250.56 660.20 253.00 C 662.15 256.24 664.90 258.86 667.51 261.57 C 673.44 268.59 679.61 275.39 685.62 282.34 C 687.88 284.46 689.45 287.21 690.55 290.08 C 691.06 292.75 690.52 295.49 690.33 298.17 C 689.19 301.04 686.74 303.00 685.09 305.52 C 678.65 309.78 670.80 306.67 663.87 305.68 C 656.06 303.27 647.86 302.40 640.12 299.84 C 637.17 298.78 633.98 298.87 630.90 298.99 C 627.85 298.75 625.88 301.55 623.10 302.24 C 624.40 302.84 625.73 303.39 627.10 303.87 C 625.44 303.40 623.75 303.47 622.07 303.56 C 621.02 305.04 619.66 306.25 618.15 307.25 C 615.52 310.59 612.02 313.11 608.96 316.03 C 607.13 317.64 606.15 320.24 603.63 320.95 C 602.98 321.82 602.35 322.70 601.74 323.60 C 600.71 324.20 599.70 324.81 598.70 325.44 C 597.37 328.41 594.55 330.42 591.45 331.19 C 587.41 334.15 582.07 333.51 577.83 331.39 C 576.37 329.77 574.92 328.15 573.43 326.56 C 571.79 321.92 571.57 316.74 572.97 312.01 C 574.17 307.60 573.20 302.51 575.90 298.58 C 577.18 293.29 576.97 287.73 578.77 282.56 C 580.69 277.67 580.66 272.11 579.14 267.12 C 576.92 265.68 577.00 262.67 574.95 261.10 C 572.90 258.47 570.07 256.52 568.42 253.59 C 565.54 251.18 563.22 248.11 560.57 245.42 C 557.29 241.25 553.06 237.82 550.22 233.35 C 547.87 232.13 547.76 229.42 547.38 227.12 C 546.73 222.85 547.46 218.06 550.66 214.90 C 546.64 214.25 542.87 212.59 538.98 211.47 C 543.18 212.41 547.23 213.96 551.49 214.65 C 554.26 210.03 560.33 209.72 565.06 210.76 C 571.38 211.15 577.13 214.27 583.43 214.88 C 584.62 215.13 585.78 214.76 586.88 214.30 C 586.55 214.72 585.87 215.57 585.54 215.99 C 592.02 217.04 598.41 218.65 604.97 219.18 C 607.71 219.10 610.30 218.01 612.89 217.18 C 620.85 210.16 628.45 202.54 636.02 195.01 C 637.79 194.18 638.91 192.52 640.34 191.26 Z" />
<path fill="#e3f1f4" opacity="1.00" d=" M 280.01 271.49 C 281.86 270.45 283.89 269.81 286.04 269.95 C 352.03 269.90 418.02 269.89 484.00 269.95 C 497.13 270.18 510.28 269.71 523.40 270.21 C 523.87 271.16 524.26 272.14 524.56 273.16 C 525.88 281.04 525.83 289.07 526.84 297.00 C 528.61 304.23 528.38 311.73 529.06 319.11 C 529.62 326.76 531.08 334.32 531.54 341.98 C 531.74 343.49 530.46 344.51 529.69 345.62 C 474.04 346.10 418.39 345.81 362.74 345.90 C 362.07 346.58 361.38 347.24 360.67 347.89 C 360.67 378.28 360.52 408.68 360.60 439.08 C 361.32 439.91 362.04 440.75 362.76 441.59 C 377.84 442.03 392.92 441.69 408.02 441.76 C 438.02 441.75 468.03 441.75 498.03 441.80 C 503.49 441.87 508.99 441.53 514.42 442.38 C 516.19 447.78 514.67 453.49 514.90 459.03 C 515.06 477.06 514.59 495.10 515.20 513.11 C 515.48 515.58 513.38 517.24 511.02 516.83 C 463.35 516.66 415.67 516.77 367.99 516.73 C 365.88 516.66 363.79 516.98 361.77 517.56 C 361.47 518.07 360.86 519.09 360.56 519.60 C 360.57 569.41 360.55 619.24 360.55 669.06 C 360.60 670.67 359.97 672.17 359.50 673.70 C 353.34 674.39 347.14 673.95 340.96 674.07 C 320.69 673.97 300.42 674.32 280.15 673.92 C 279.99 673.19 279.66 671.73 279.50 671.00 C 279.45 619.00 279.66 566.99 279.35 514.99 C 279.37 436.00 279.31 357.02 279.38 278.03 C 279.31 275.83 279.48 273.63 280.01 271.49 Z" />
<path fill="#e3f1f4" opacity="1.00" d=" M 578.66 368.75 C 580.76 368.40 582.88 368.13 585.03 368.15 C 608.03 368.07 631.03 368.32 654.03 368.20 C 655.52 368.22 657.05 368.10 658.54 368.45 C 659.86 372.47 659.13 376.82 659.44 380.98 C 659.43 476.65 659.32 572.33 659.34 668.00 C 659.30 669.93 658.91 671.84 658.58 673.76 C 635.09 674.32 611.57 673.83 588.07 674.01 C 584.67 673.81 580.71 674.62 577.96 672.12 C 577.36 668.12 577.40 664.07 577.34 660.04 C 577.24 564.35 577.59 468.66 577.36 372.97 C 577.27 371.44 578.08 370.10 578.66 368.75 Z" />
</g>
</svg>
