<?xml version="1.0" encoding="UTF-8" ?>
<!DOCTYPE svg PUBLIC "-//W3C//DTD SVG 1.1//EN" "http://www.w3.org/Graphics/SVG/1.1/DTD/svg11.dtd">
<svg width="966pt" height="966pt" viewBox="0 0 966 966" version="1.1" xmlns="http://www.w3.org/2000/svg">
<g id="#c2cacbff">
<path fill="#c2cacb" opacity="1.00" d=" M 552.14 148.46 C 552.10 146.48 555.95 144.44 555.84 147.72 C 556.51 147.61 557.84 147.40 558.50 147.29 L 558.41 148.48 C 559.98 148.63 561.55 148.92 563.06 149.43 C 555.49 154.65 547.03 158.41 539.35 163.47 C 523.61 171.41 508.42 180.35 493.09 189.06 C 473.18 199.73 453.56 210.94 433.78 221.85 C 429.42 224.51 424.78 226.74 420.72 229.89 C 418.19 229.34 415.67 228.72 413.17 228.06 C 413.89 226.97 414.60 225.88 415.36 224.82 C 419.22 222.07 423.65 220.18 427.29 217.11 C 427.86 216.64 429.00 215.68 429.57 215.20 L 429.20 214.55 C 431.03 214.70 432.83 214.42 434.46 213.53 C 434.01 210.34 438.29 211.76 440.26 211.21 C 440.23 209.51 441.20 208.39 442.75 207.85 C 444.05 207.89 445.14 207.45 446.02 206.53 C 446.45 206.60 447.31 206.73 447.74 206.80 L 447.20 205.55 C 448.98 204.37 452.18 204.47 452.70 201.99 C 453.17 202.32 454.11 202.97 454.58 203.30 L 454.21 201.39 L 455.04 201.35 C 456.10 200.70 457.25 200.28 458.48 200.09 C 458.55 199.59 458.69 198.60 458.76 198.11 C 459.40 198.31 460.67 198.70 461.31 198.90 L 461.69 197.15 C 462.19 197.30 463.20 197.60 463.70 197.76 C 463.62 197.25 463.47 196.24 463.40 195.73 C 464.18 195.68 465.75 195.57 466.54 195.52 L 466.28 194.34 C 467.06 194.42 468.61 194.58 469.39 194.66 L 469.36 193.71 C 469.80 193.25 470.67 192.33 471.10 191.86 C 473.51 191.81 475.49 190.41 477.47 189.21 L 477.57 188.67 C 478.14 188.51 479.29 188.17 479.86 188.01 C 482.02 187.38 483.13 184.73 485.70 185.31 C 485.66 184.87 485.60 183.99 485.56 183.55 C 486.35 183.60 487.92 183.70 488.71 183.76 L 488.33 181.99 C 488.89 182.21 490.02 182.67 490.59 182.90 C 490.63 182.41 490.70 181.45 490.74 180.96 L 492.68 181.69 C 492.61 181.16 492.48 180.11 492.42 179.58 C 493.22 179.61 494.83 179.66 495.64 179.68 L 495.11 177.66 C 495.73 178.02 496.98 178.75 497.60 179.11 C 497.63 178.57 497.68 177.49 497.70 176.95 C 498.99 176.84 500.08 176.33 500.97 175.43 C 501.38 175.55 502.21 175.78 502.62 175.90 L 502.49 174.26 C 503.05 174.42 504.15 174.72 504.71 174.88 C 504.59 174.38 504.36 173.39 504.25 172.90 C 506.32 172.55 508.32 171.87 510.37 171.43 C 510.23 169.07 512.67 169.26 514.33 169.22 C 514.66 168.85 515.33 168.10 515.66 167.72 C 517.14 167.74 518.13 166.74 519.06 165.71 C 519.61 165.58 520.71 165.33 521.26 165.20 C 521.59 163.58 522.95 163.41 524.39 163.49 C 524.53 163.07 524.81 162.24 524.95 161.83 L 526.14 162.74 C 527.76 161.26 529.23 158.78 531.83 159.59 L 531.27 158.32 C 533.63 159.23 534.26 155.95 536.59 156.54 L 536.48 155.60 C 538.04 155.90 539.18 155.40 539.89 154.11 C 540.42 154.34 541.49 154.81 542.03 155.04 C 541.53 154.50 540.52 153.41 540.01 152.87 C 542.66 152.91 545.33 152.24 546.90 149.94 C 547.87 149.56 548.85 149.18 549.84 148.80 C 550.41 148.71 551.56 148.54 552.14 148.46 Z" />
<path fill="#c2cacb" opacity="1.00" d=" M 414.39 253.32 C 415.00 251.88 415.85 250.55 416.66 249.20 C 417.09 250.23 417.48 251.28 417.85 252.34 C 418.08 253.51 418.33 254.67 418.62 255.83 C 418.97 257.33 419.41 258.81 419.81 260.30 C 420.26 262.06 420.75 263.80 421.23 265.56 C 421.47 266.44 421.70 267.32 421.93 268.22 C 422.21 269.37 422.53 270.53 422.87 271.68 C 423.20 272.83 423.57 273.99 423.87 275.16 C 424.65 278.32 425.34 281.50 426.22 284.63 C 426.70 286.50 427.31 288.33 427.83 290.19 C 428.39 292.59 428.93 295.00 429.48 297.41 C 429.85 299.05 430.30 300.68 430.84 302.28 C 432.00 305.56 432.87 308.94 433.38 312.38 C 433.69 315.11 434.59 317.70 435.61 320.23 C 436.31 322.58 436.91 324.97 437.37 327.38 C 437.78 330.08 438.56 332.71 439.51 335.27 C 440.77 339.33 441.92 343.44 442.88 347.59 C 443.34 349.92 443.88 352.23 444.60 354.50 C 445.38 357.15 446.18 359.79 446.92 362.45 C 447.24 363.75 447.55 365.08 447.74 366.42 C 447.82 366.80 447.98 367.57 448.05 367.95 C 448.86 372.45 450.25 376.80 451.66 381.15 C 452.38 383.87 453.20 386.58 454.10 389.26 C 454.24 389.81 454.53 390.91 454.67 391.46 C 454.79 392.04 455.03 393.18 455.15 393.76 C 455.24 394.03 455.43 394.59 455.53 394.87 C 457.09 399.40 458.10 404.08 459.27 408.72 C 459.37 409.09 459.56 409.83 459.66 410.20 C 460.02 411.58 460.42 412.95 460.83 414.33 C 460.85 414.41 460.90 414.57 460.92 414.65 C 461.71 417.65 462.37 420.69 463.21 423.68 C 463.30 424.00 463.46 424.65 463.55 424.97 C 463.99 426.84 464.45 428.72 464.95 430.58 C 465.39 432.85 465.84 435.14 466.58 437.35 C 467.78 441.41 469.02 445.45 470.24 449.51 C 470.34 450.02 470.54 451.05 470.65 451.56 C 471.33 456.01 472.79 460.28 474.07 464.58 C 474.19 465.08 474.43 466.09 474.54 466.59 C 475.41 471.02 476.73 475.35 478.34 479.57 C 478.44 480.07 478.63 481.06 478.72 481.56 C 478.83 482.92 478.85 484.30 479.21 485.63 C 479.67 487.73 480.42 489.76 480.99 491.84 C 481.24 492.93 481.51 494.03 481.80 495.13 C 482.05 496.16 482.34 497.19 482.65 498.21 C 483.11 499.73 483.59 501.26 484.06 502.79 C 484.17 503.58 484.39 505.14 484.50 505.92 C 484.82 506.68 485.13 507.45 485.42 508.25 C 485.56 508.84 485.86 510.02 486.01 510.62 C 486.28 511.75 486.58 512.88 486.92 514.01 C 488.26 518.08 489.38 522.22 490.18 526.44 C 490.54 528.62 491.17 530.73 491.78 532.86 L 492.00 533.78 C 492.01 535.12 491.65 536.39 490.92 537.60 C 489.98 537.07 489.04 536.55 488.10 536.07 C 487.60 535.77 486.61 535.18 486.12 534.88 C 485.79 534.68 485.12 534.29 484.79 534.09 C 483.83 533.57 482.91 533.03 482.01 532.45 C 481.69 532.23 481.05 531.79 480.73 531.56 C 478.48 530.29 476.16 529.16 473.89 527.95 C 473.38 527.65 472.36 527.07 471.85 526.77 C 468.68 524.68 465.40 522.77 461.94 521.22 C 460.98 520.71 460.03 520.21 459.09 519.71 C 456.18 517.60 453.24 515.53 449.93 514.09 L 449.27 513.72 C 446.67 511.92 443.85 510.52 441.05 509.09 L 440.64 508.84 C 438.48 507.39 436.24 506.08 433.87 505.03 L 433.14 504.67 C 432.01 504.11 430.89 503.55 429.79 502.97 C 428.56 502.30 427.31 501.68 426.12 500.97 C 424.45 499.71 422.70 498.56 420.72 497.86 C 420.28 497.67 419.42 497.29 418.98 497.09 C 418.43 496.79 417.33 496.17 416.77 495.86 C 415.24 494.86 413.64 493.95 412.01 493.15 C 411.46 492.84 410.36 492.22 409.81 491.91 C 407.60 490.50 405.36 489.15 403.07 487.89 C 401.39 486.92 399.72 485.94 398.02 485.02 C 396.82 484.33 395.57 483.73 394.34 483.12 C 393.15 482.47 392.02 481.73 390.91 480.98 C 387.18 478.27 383.24 475.85 378.93 474.19 L 378.50 473.99 C 378.07 473.76 377.20 473.30 376.76 473.07 C 376.26 472.77 375.25 472.17 374.74 471.88 C 373.82 471.33 372.90 470.78 372.01 470.22 L 371.61 469.96 C 369.47 468.56 367.25 467.29 364.96 466.16 L 364.55 465.95 C 364.12 465.73 363.27 465.28 362.85 465.06 L 362.12 464.67 C 361.26 464.20 360.42 463.72 359.59 463.22 C 358.40 462.47 357.19 461.76 355.97 461.09 C 354.93 460.49 353.89 459.88 352.85 459.30 C 351.90 458.75 350.92 458.28 349.92 457.87 C 349.41 457.62 348.38 457.13 347.87 456.89 C 346.32 455.89 344.76 454.93 343.17 454.02 C 342.15 453.10 341.37 451.93 340.90 450.66 C 342.00 447.86 343.20 445.09 344.20 442.25 C 344.66 441.00 345.16 439.77 345.64 438.53 C 347.15 434.49 348.46 430.39 350.06 426.38 C 351.95 422.23 353.79 418.04 354.92 413.60 C 355.58 411.76 356.23 409.92 356.89 408.08 C 358.59 404.21 360.17 400.29 361.45 396.26 C 362.18 394.15 362.91 392.04 363.72 389.96 C 364.42 388.24 365.17 386.55 365.80 384.82 C 365.94 384.41 366.21 383.60 366.34 383.19 C 366.54 382.60 366.93 381.42 367.13 380.83 L 367.43 380.08 C 368.33 377.99 369.21 375.89 369.86 373.72 C 369.98 373.34 370.21 372.58 370.32 372.20 C 370.52 371.62 370.91 370.46 371.11 369.88 L 371.44 369.14 C 373.07 366.13 374.10 362.88 375.08 359.63 L 375.37 358.93 C 376.72 356.06 377.79 353.07 378.61 350.01 C 379.09 349.19 379.37 348.32 379.45 347.38 C 380.22 345.71 381.11 344.08 381.60 342.30 C 382.56 338.92 383.74 335.62 385.01 332.35 C 386.98 328.27 388.60 324.06 389.96 319.74 C 390.09 319.38 390.37 318.66 390.51 318.30 C 391.87 315.19 393.05 312.00 393.92 308.72 C 394.35 307.49 394.81 306.27 395.25 305.04 C 395.74 303.67 396.27 302.31 396.79 300.95 C 397.33 299.54 397.75 298.10 398.24 296.68 C 399.04 294.70 400.00 292.79 400.79 290.81 C 400.94 290.41 401.24 289.62 401.39 289.23 C 402.98 285.15 404.72 281.12 405.92 276.89 C 406.03 276.52 406.25 275.78 406.36 275.40 C 406.78 273.91 407.36 272.47 407.89 271.02 C 408.34 269.79 408.77 268.57 409.22 267.35 C 409.39 266.92 409.72 266.07 409.88 265.65 C 410.03 265.28 410.32 264.55 410.47 264.19 C 411.23 262.25 412.09 260.34 412.75 258.36 C 413.32 256.69 413.85 255.00 414.39 253.32 Z" />
<path fill="#c2cacb" opacity="1.00" d=" M 734.14 475.72 C 734.81 475.59 736.15 475.33 736.82 475.20 C 737.19 476.41 737.77 477.61 737.71 478.92 C 737.57 490.27 737.71 501.62 737.63 512.97 C 737.57 515.16 737.78 517.36 738.22 519.52 C 738.76 519.57 739.84 519.66 740.38 519.71 C 739.82 519.75 738.70 519.83 738.14 519.86 L 736.97 519.92 C 737.64 506.94 737.41 493.92 737.17 480.93 C 730.55 484.87 723.63 488.33 717.33 492.76 C 716.31 490.93 715.33 489.08 714.38 487.23 C 720.92 483.31 727.52 479.50 734.14 475.72 Z" />
<path fill="#c2cacb" opacity="1.00" d=" M 259.58 487.13 C 266.15 483.10 272.99 479.52 279.47 475.35 C 280.62 476.02 281.74 476.73 282.87 477.45 C 282.82 478.78 282.80 480.12 282.82 481.47 C 275.19 484.02 268.75 489.00 261.75 492.82 C 261.02 490.92 260.30 489.03 259.58 487.13 Z" />
<path fill="#c2cacb" opacity="1.00" d=" M 461.32 579.42 C 464.90 577.34 466.60 584.16 463.30 585.17 C 456.86 588.48 450.72 592.32 444.31 595.68 C 443.58 593.93 442.49 592.25 442.30 590.34 C 448.58 586.62 454.95 582.98 461.32 579.42 Z" />
</g>
<g id="#e3f1f4ff">
<path fill="#e3f1f4" opacity="1.00" d=" M 563.06 149.43 L 563.97 148.76 C 568.27 149.87 567.84 155.40 567.97 158.90 C 568.43 158.86 569.36 158.77 569.83 158.72 C 569.71 160.17 570.08 161.44 570.93 162.53 C 571.23 164.55 570.29 167.05 571.99 168.63 C 571.95 170.10 571.89 171.57 571.79 173.04 C 575.10 175.61 574.07 180.26 575.91 183.55 C 575.95 184.92 575.97 186.29 576.01 187.67 C 576.49 188.13 577.47 189.05 577.96 189.51 C 577.53 190.95 577.21 192.42 577.00 193.91 C 577.47 193.94 578.41 193.98 578.88 194.00 C 578.98 195.58 578.80 197.28 579.76 198.67 C 579.69 198.95 579.54 199.53 579.47 199.81 C 579.72 200.87 579.96 201.94 580.19 203.01 C 580.65 203.01 581.55 203.00 582.00 203.00 C 581.99 204.95 581.99 206.90 582.04 208.85 C 583.22 210.55 582.85 212.53 582.58 214.45 C 583.77 215.28 583.97 216.68 584.24 218.00 C 584.68 218.00 585.55 218.00 585.98 218.00 C 585.95 220.15 585.97 222.30 586.07 224.46 C 587.70 226.12 586.40 228.74 587.76 230.57 C 588.09 232.13 588.43 233.71 588.40 235.32 C 591.41 235.19 588.96 239.13 590.84 240.49 C 590.92 241.81 591.00 243.13 591.11 244.46 C 592.45 246.01 591.86 248.14 592.05 250.00 C 592.56 250.00 593.56 250.00 594.07 250.01 C 593.99 252.36 593.83 254.71 593.54 257.05 L 594.83 256.83 C 594.74 258.24 595.11 259.48 595.94 260.54 C 595.98 262.02 595.99 263.50 596.02 264.99 C 596.56 265.00 597.64 265.02 598.18 265.03 C 597.69 267.62 596.72 270.32 598.73 272.56 C 598.98 273.58 599.26 274.59 599.56 275.60 C 599.70 277.07 599.87 278.53 600.05 280.00 C 600.54 280.00 601.51 280.00 602.00 280.00 C 601.43 284.32 603.04 288.42 602.94 292.71 C 603.45 292.68 604.46 292.62 604.97 292.59 C 604.99 293.31 605.04 294.75 605.07 295.47 C 607.08 297.37 604.97 300.61 606.91 302.63 C 606.97 304.24 606.99 305.85 607.03 307.47 C 607.56 307.44 608.61 307.38 609.13 307.35 C 608.99 308.40 608.83 309.44 608.66 310.49 C 608.55 311.08 608.31 312.25 608.20 312.83 C 608.97 313.70 609.74 314.58 610.47 315.50 C 611.32 317.64 610.93 319.98 611.01 322.22 C 611.51 322.22 612.50 322.21 613.00 322.21 C 612.99 324.24 612.98 326.28 613.03 328.33 C 613.97 329.49 614.14 330.84 613.54 332.36 C 613.89 332.75 614.60 333.52 614.95 333.90 C 614.97 334.73 615.00 336.40 615.02 337.23 C 615.51 337.22 616.50 337.20 617.00 337.19 C 616.99 339.14 616.98 341.09 617.01 343.05 C 619.17 345.20 616.00 348.59 618.72 350.41 C 619.30 352.02 619.98 353.59 620.77 355.12 C 620.78 356.44 621.19 357.62 622.00 358.65 C 622.01 360.39 621.87 362.13 621.61 363.86 C 623.72 365.22 622.74 367.92 622.97 370.00 C 623.43 370.00 624.36 370.00 624.82 370.00 C 624.74 371.36 625.12 372.54 625.97 373.53 C 625.98 375.29 625.90 377.04 625.65 378.79 C 625.98 379.04 626.66 379.55 627.00 379.80 C 626.99 381.38 626.99 382.96 627.00 384.55 C 629.08 385.69 629.37 387.65 628.08 389.54 C 630.66 389.61 629.96 391.83 629.73 393.64 C 630.03 393.94 630.63 394.54 630.93 394.84 C 630.91 396.12 630.92 397.41 630.96 398.70 C 631.46 399.13 632.47 399.99 632.98 400.42 C 632.99 402.09 633.00 403.78 633.10 405.46 C 633.89 406.70 634.09 408.18 634.48 409.57 C 634.34 409.83 634.07 410.34 633.93 410.60 C 634.46 411.70 634.92 412.83 635.31 414.00 C 635.73 414.00 636.58 414.01 637.00 414.01 C 636.99 416.16 636.98 418.31 637.07 420.46 C 638.70 422.21 636.94 424.90 638.76 426.66 C 638.87 427.12 639.08 428.04 639.19 428.51 C 640.49 430.61 641.18 432.99 641.16 435.49 C 642.55 436.99 641.82 439.15 642.03 440.98 C 642.57 441.00 643.64 441.05 644.17 441.08 C 643.98 442.99 641.39 446.96 644.90 446.89 C 645.03 448.40 644.69 450.11 645.68 451.43 C 645.79 452.96 645.93 454.47 646.05 456.01 C 646.53 456.00 647.49 456.00 647.96 455.99 C 648.13 457.78 647.53 459.83 648.67 461.42 C 648.63 463.53 648.71 465.64 648.62 467.76 C 649.39 468.86 650.54 469.59 651.84 469.95 C 651.86 470.32 651.91 471.07 651.94 471.44 C 653.30 471.96 654.68 472.54 655.92 473.35 C 656.31 473.36 657.10 473.36 657.49 473.37 C 657.46 473.97 657.40 475.16 657.37 475.76 C 657.64 475.78 658.18 475.80 658.45 475.82 C 658.48 475.20 658.55 473.97 658.58 473.36 C 660.16 475.33 661.72 477.60 664.53 477.69 L 664.17 479.19 C 664.96 478.75 665.77 478.31 666.58 477.88 C 667.17 480.35 669.52 481.85 671.99 481.37 L 672.14 482.58 C 672.50 482.41 673.21 482.08 673.57 481.92 C 674.37 482.83 675.18 483.74 675.98 484.67 C 676.44 484.43 677.34 483.94 677.80 483.70 C 677.68 484.22 677.45 485.25 677.34 485.77 C 678.68 486.37 680.09 486.67 681.57 486.68 L 681.31 487.32 C 681.71 487.59 682.51 488.14 682.91 488.41 C 683.13 488.37 683.57 488.30 683.79 488.26 C 684.09 499.85 683.79 511.45 683.91 523.05 C 683.77 527.60 687.63 530.78 691.27 532.77 C 697.01 535.92 702.40 539.74 708.43 542.33 C 707.97 542.98 707.05 544.28 706.58 544.93 C 706.64 546.79 706.71 548.65 706.78 550.52 C 700.01 552.08 693.27 554.84 688.80 560.39 C 688.19 568.15 695.97 572.66 702.38 574.63 C 711.81 576.50 723.65 574.77 729.04 565.87 C 731.06 563.46 729.80 560.14 727.86 558.14 C 724.54 553.95 718.91 553.27 714.68 550.38 C 715.00 547.79 715.01 545.15 714.26 542.64 C 714.52 542.05 715.03 540.88 715.29 540.30 C 716.60 539.69 717.91 539.08 719.21 538.45 C 723.62 536.20 727.84 533.62 732.13 531.16 C 733.97 529.99 736.03 528.94 737.32 527.13 C 738.60 524.93 738.14 522.27 738.14 519.86 C 738.70 519.83 739.82 519.75 740.38 519.71 C 741.45 520.25 742.47 520.90 743.44 521.65 C 744.64 521.36 745.86 521.09 747.09 520.83 L 746.80 522.91 C 747.31 522.73 748.33 522.37 748.83 522.19 C 748.71 522.65 748.47 523.57 748.35 524.03 C 750.80 524.51 752.73 526.68 755.28 526.59 C 756.10 529.17 759.45 529.58 761.60 530.67 L 761.19 531.23 C 763.48 531.73 765.75 532.65 767.28 534.52 C 769.08 535.25 770.90 535.97 772.77 536.56 C 772.81 536.96 772.90 537.77 772.94 538.17 L 774.61 536.99 L 774.56 538.37 C 775.91 538.88 778.16 538.31 778.46 540.29 C 779.54 540.71 780.59 541.18 781.70 541.59 L 781.51 542.42 C 786.13 542.89 789.01 547.15 793.58 547.72 L 793.24 548.41 C 794.39 548.67 795.55 548.96 796.72 549.26 C 797.53 550.85 798.97 551.62 800.78 551.44 C 801.56 552.79 802.41 554.16 804.25 553.84 C 805.53 554.69 806.83 555.48 808.10 556.40 C 811.26 558.76 814.96 560.37 818.71 561.61 C 819.65 562.89 820.62 564.15 821.57 565.45 C 820.89 565.81 819.52 566.54 818.83 566.90 C 817.18 568.00 815.47 568.98 813.79 570.03 C 813.44 569.88 812.75 569.57 812.40 569.41 C 812.54 569.76 812.81 570.45 812.95 570.80 C 810.14 570.74 808.17 572.97 805.85 574.19 C 805.21 574.72 804.69 575.33 804.29 576.03 C 804.13 576.37 803.82 577.06 803.67 577.40 C 802.49 577.31 801.30 577.25 800.16 577.21 L 800.77 578.42 C 799.14 578.91 797.38 579.29 796.16 580.56 L 795.39 580.28 L 795.61 581.21 C 793.18 581.49 791.10 582.79 789.19 584.22 C 786.50 586.16 783.89 588.18 780.50 588.69 L 780.56 589.14 C 780.22 589.50 779.55 590.24 779.21 590.61 L 778.45 590.12 C 776.97 593.37 772.58 592.20 771.06 595.68 C 770.73 595.55 770.07 595.29 769.74 595.16 C 768.54 597.66 764.40 596.59 763.83 599.61 C 763.45 599.50 762.70 599.28 762.32 599.17 C 762.27 599.50 762.18 600.18 762.13 600.52 C 761.43 600.64 760.04 600.90 759.34 601.02 L 759.81 602.47 C 758.08 602.18 757.16 603.60 756.16 604.71 C 753.70 604.32 751.74 605.96 749.48 606.52 C 749.79 606.79 750.42 607.33 750.73 607.60 C 749.95 607.89 748.39 608.47 747.61 608.75 C 746.07 609.10 744.55 609.50 743.01 609.78 C 743.20 610.15 743.57 610.88 743.76 611.25 C 741.86 611.88 740.01 612.65 738.17 613.41 L 738.52 614.26 C 736.20 614.79 734.35 616.37 732.12 617.11 C 728.55 617.92 726.34 620.66 723.49 622.71 C 721.04 623.50 718.57 624.28 716.73 626.17 C 716.35 626.16 715.59 626.14 715.21 626.13 L 716.41 628.38 L 714.37 627.15 C 711.58 629.55 708.29 631.23 705.11 633.03 C 701.64 633.10 699.71 636.35 696.75 637.60 C 694.85 638.26 693.21 639.79 691.15 639.82 C 691.17 640.12 691.21 640.72 691.23 641.02 C 689.03 640.91 687.32 642.01 686.60 644.09 C 686.18 643.85 685.33 643.39 684.91 643.15 C 684.68 643.60 684.23 644.51 684.00 644.97 C 679.37 646.66 675.17 649.15 671.15 651.98 C 669.89 651.98 668.92 652.47 668.24 653.43 C 667.47 653.91 666.72 654.40 665.97 654.91 C 664.50 656.28 661.20 655.84 661.44 658.47 C 659.42 658.28 657.67 659.30 656.08 660.39 L 655.44 660.24 C 654.97 660.66 654.03 661.49 653.56 661.90 L 653.56 662.80 L 652.36 662.38 C 652.33 662.78 652.27 663.59 652.24 664.00 C 650.53 663.30 647.77 662.92 648.11 665.69 C 647.67 665.56 646.80 665.31 646.36 665.19 C 646.01 666.88 644.66 667.39 643.09 667.51 L 644.50 668.67 C 643.16 668.49 641.83 668.37 640.50 668.28 L 640.63 669.94 L 639.41 669.08 C 638.80 670.33 637.98 671.42 636.52 671.62 L 636.63 672.75 C 635.97 672.47 634.66 671.91 634.01 671.62 L 634.79 673.93 C 634.34 673.82 633.43 673.59 632.97 673.48 C 632.19 674.42 631.15 674.89 629.87 674.88 C 629.53 675.31 628.84 676.18 628.49 676.62 L 626.86 675.47 L 628.12 678.64 L 626.41 677.13 C 626.39 679.36 624.85 680.80 623.29 682.17 C 623.44 681.68 623.73 680.70 623.88 680.21 C 623.13 680.28 621.63 680.41 620.89 680.48 L 621.23 681.94 C 620.50 681.93 619.03 681.91 618.30 681.90 C 618.40 682.26 618.59 682.98 618.69 683.34 C 616.74 683.85 614.80 684.41 612.78 684.39 C 612.72 684.82 612.60 685.68 612.54 686.11 C 610.42 686.73 608.37 687.57 606.35 688.44 C 606.42 688.69 606.57 689.21 606.64 689.47 C 604.91 690.08 603.16 690.66 601.35 690.97 C 601.51 691.51 601.84 692.59 602.00 693.13 C 601.53 692.86 600.58 692.30 600.11 692.03 C 600.08 692.49 600.03 693.40 600.01 693.86 C 598.63 694.07 597.27 694.33 595.92 694.63 C 594.45 695.98 592.62 696.83 590.91 697.84 C 588.85 698.75 586.39 699.24 585.26 701.42 C 582.47 702.21 580.11 703.95 577.71 705.50 C 576.07 705.93 574.67 706.85 573.40 707.94 C 572.23 708.44 571.10 709.04 570.36 710.12 C 570.23 709.91 569.99 709.50 569.86 709.29 C 568.90 710.34 567.71 711.12 566.50 711.83 L 566.82 712.64 C 562.24 713.06 558.42 715.89 554.99 718.72 C 554.29 718.74 553.60 718.74 552.91 718.73 C 552.54 719.11 551.79 719.88 551.42 720.26 C 549.84 721.06 548.26 721.89 546.61 722.56 C 546.65 722.85 546.71 723.43 546.74 723.72 C 546.03 723.48 544.60 723.01 543.88 722.77 L 544.66 724.23 C 541.75 724.68 539.87 728.21 536.72 727.06 L 538.05 728.38 C 534.82 729.08 531.35 730.53 529.79 733.66 C 529.40 733.57 528.61 733.40 528.22 733.31 C 526.94 733.82 525.67 734.35 524.39 734.82 L 524.69 735.53 L 523.55 735.55 L 523.56 736.35 C 522.53 736.75 521.51 737.17 520.51 737.60 C 520.40 738.03 520.17 738.90 520.06 739.33 C 519.62 739.08 518.74 738.58 518.30 738.32 C 517.61 739.07 516.94 739.83 516.27 740.60 L 515.82 740.47 C 514.97 741.90 513.35 742.26 511.83 742.52 C 511.82 745.39 508.31 744.60 506.45 745.46 L 506.67 746.26 C 505.04 746.03 504.42 747.67 503.43 748.55 C 500.88 747.21 499.73 752.00 497.87 749.67 C 497.56 750.13 496.94 751.05 496.63 751.50 C 496.27 752.25 495.67 752.70 494.81 752.85 C 493.21 754.44 491.13 755.36 488.93 755.76 C 488.36 757.12 487.50 758.28 486.34 759.24 C 486.40 758.36 486.52 756.61 486.58 755.73 C 485.78 758.05 484.44 759.82 481.71 760.08 L 483.12 758.11 C 479.41 758.67 476.49 755.85 473.38 754.33 L 473.47 753.71 C 471.99 753.17 470.51 752.66 469.06 752.08 C 468.70 751.59 467.98 750.60 467.62 750.10 L 466.88 750.37 C 464.95 748.94 462.66 748.21 460.40 747.50 C 459.35 746.24 458.03 745.28 456.80 744.25 C 456.40 744.47 455.62 744.92 455.23 745.15 C 454.98 744.53 454.48 743.29 454.23 742.67 C 453.65 742.65 452.49 742.62 451.92 742.60 C 451.26 741.82 450.64 741.09 450.02 740.33 C 449.56 740.86 448.64 741.92 448.18 742.45 C 448.08 741.75 447.87 740.34 447.77 739.64 C 445.99 739.00 444.35 738.05 443.03 736.70 C 441.91 736.08 440.81 735.48 439.71 734.87 C 438.01 735.50 437.69 732.44 436.37 733.83 C 434.79 733.12 433.59 731.93 432.68 730.50 C 429.49 730.33 427.23 727.62 423.95 727.69 L 424.59 726.67 C 422.22 724.91 419.65 723.48 416.81 722.69 C 416.67 722.28 416.39 721.48 416.25 721.07 C 414.34 721.05 413.09 718.99 411.15 719.48 C 411.24 719.07 411.42 718.24 411.52 717.82 C 410.54 718.54 409.48 718.95 408.33 719.05 C 407.99 718.45 407.32 717.25 406.98 716.65 C 405.55 716.61 404.99 715.54 404.66 714.32 C 402.40 713.92 400.44 712.75 398.42 711.76 C 395.59 709.82 392.46 707.88 389.04 707.37 C 389.29 706.84 389.55 706.31 389.81 705.80 C 386.99 705.26 384.47 704.00 382.45 701.97 C 381.74 701.89 380.32 701.73 379.61 701.65 C 379.59 700.98 379.56 699.65 379.54 698.98 C 379.04 699.26 378.03 699.83 377.53 700.12 C 374.97 698.80 372.62 697.14 370.14 695.70 C 368.81 694.40 367.11 693.78 365.28 693.69 C 364.15 691.28 361.72 689.94 359.24 689.34 C 359.28 688.94 359.37 688.15 359.41 687.75 C 358.80 688.11 357.56 688.82 356.94 689.17 C 357.13 688.75 357.52 687.92 357.71 687.50 C 356.13 687.36 354.82 686.72 353.76 685.57 C 353.40 685.63 352.69 685.74 352.34 685.80 C 352.39 685.28 352.49 684.24 352.55 683.72 L 350.93 684.51 C 349.91 683.16 348.43 682.46 346.78 682.31 L 346.71 681.72 C 346.18 681.33 345.14 680.57 344.61 680.18 L 343.88 680.67 C 342.66 678.60 340.27 678.18 338.18 677.53 C 338.17 677.29 338.15 676.81 338.14 676.57 C 336.48 675.77 334.83 674.87 333.00 674.56 C 332.90 674.24 332.69 673.59 332.59 673.27 L 330.63 674.00 L 332.24 671.63 C 331.66 671.84 330.49 672.24 329.91 672.45 C 328.76 671.74 327.74 669.84 326.15 670.98 C 325.53 668.49 322.59 666.89 320.17 667.62 L 320.53 666.49 C 320.20 666.49 319.54 666.49 319.20 666.49 C 317.89 664.05 315.11 663.25 312.67 662.44 C 309.72 659.89 305.87 658.82 302.74 656.61 C 300.70 655.21 298.54 653.99 296.16 653.28 L 297.03 652.07 C 294.99 652.54 293.38 651.19 291.69 650.31 C 288.93 648.68 285.70 647.69 283.30 645.56 C 282.08 644.77 280.95 643.78 279.52 643.44 C 277.97 642.57 276.22 641.98 274.98 640.68 C 274.11 640.12 273.24 639.59 272.37 639.06 C 272.01 639.37 271.31 640.01 270.95 640.32 L 270.88 638.54 C 270.42 638.47 269.49 638.34 269.03 638.28 C 268.11 636.42 266.60 635.35 264.48 635.76 C 264.48 634.31 263.20 633.61 262.26 632.78 C 261.68 633.15 260.53 633.90 259.95 634.28 C 259.88 633.65 259.73 632.39 259.65 631.75 C 257.69 630.96 255.77 630.02 254.08 628.74 C 252.16 628.24 250.37 625.88 248.33 626.97 C 249.44 624.11 245.01 623.74 243.09 623.85 C 242.96 623.34 242.69 622.32 242.56 621.82 C 241.28 621.53 240.00 621.28 238.71 621.08 C 238.70 620.79 238.67 620.21 238.65 619.92 C 236.19 619.10 233.88 617.84 231.34 617.26 C 231.46 616.95 231.68 616.33 231.80 616.02 C 230.27 615.52 228.82 614.85 227.32 614.33 C 227.40 614.11 227.57 613.67 227.65 613.45 C 224.80 612.24 222.00 610.93 219.19 609.63 C 218.20 608.22 216.64 607.56 214.95 607.53 C 215.33 607.16 216.11 606.43 216.49 606.07 C 215.55 606.15 213.67 606.32 212.73 606.40 C 212.65 605.81 212.50 604.62 212.42 604.03 C 211.81 604.30 211.19 604.59 210.58 604.89 C 209.92 604.59 208.62 603.98 207.96 603.68 L 208.20 602.15 C 207.53 602.36 206.20 602.79 205.53 603.01 C 205.92 602.44 206.69 601.31 207.08 600.75 C 205.23 600.96 203.58 600.12 201.94 599.45 C 201.46 597.62 199.32 596.80 197.61 597.27 C 197.55 596.02 196.91 595.33 195.71 595.20 C 193.11 593.02 189.40 592.96 186.97 590.57 C 184.42 590.64 182.87 589.15 181.37 587.35 C 181.36 587.15 181.33 586.75 181.32 586.55 C 179.73 586.39 178.30 585.84 177.27 584.59 C 176.58 584.47 175.18 584.24 174.48 584.12 C 174.43 583.58 174.33 582.50 174.28 581.96 L 172.89 582.38 C 172.01 581.83 171.12 581.30 170.23 580.80 C 167.19 579.50 165.07 576.63 161.52 576.38 L 161.48 575.84 C 160.66 575.21 159.85 574.58 159.05 573.95 C 156.78 573.00 154.18 572.43 152.60 570.38 C 152.02 570.29 150.85 570.11 150.27 570.01 C 149.23 568.32 146.97 568.13 145.95 566.43 C 145.43 566.35 144.38 566.19 143.85 566.11 C 143.38 565.82 142.44 565.24 141.96 564.94 C 143.39 563.75 144.53 561.32 146.94 562.63 L 144.98 561.34 C 146.59 561.96 147.70 561.57 148.31 560.19 C 149.41 559.89 150.51 559.62 151.62 559.38 C 152.31 558.80 153.01 558.22 153.71 557.66 C 154.96 558.00 155.85 557.50 156.38 556.15 C 158.68 555.36 160.91 554.38 163.17 553.48 C 163.20 553.26 163.26 552.84 163.29 552.63 C 163.78 552.34 164.77 551.74 165.27 551.45 C 166.85 550.84 168.41 550.16 169.98 549.52 L 169.56 548.29 C 170.10 548.42 171.17 548.67 171.71 548.79 L 171.16 547.52 C 172.95 547.86 174.79 547.18 175.68 545.57 L 176.74 545.58 C 177.02 545.32 177.58 544.82 177.86 544.57 L 178.86 544.89 L 178.74 543.67 C 180.16 543.32 181.57 542.92 182.99 542.56 L 181.16 540.93 C 181.79 541.16 183.05 541.63 183.68 541.87 C 184.83 541.11 186.04 540.40 186.89 539.29 C 187.27 539.35 188.05 539.45 188.43 539.51 C 188.54 538.22 188.66 536.93 188.78 535.65 C 189.46 535.97 190.81 536.62 191.48 536.94 C 194.18 534.87 197.45 534.03 200.58 532.99 C 200.33 532.45 199.85 531.38 199.60 530.85 C 201.68 532.49 203.94 530.99 205.54 529.60 C 207.34 527.83 210.17 527.68 211.86 525.80 C 213.29 525.19 214.58 524.35 215.80 523.40 C 216.04 523.86 216.52 524.76 216.76 525.22 C 216.62 524.49 216.33 523.05 216.19 522.32 L 218.13 523.01 C 218.21 522.65 218.36 521.93 218.44 521.57 C 220.32 522.23 221.35 521.45 221.62 519.63 C 222.21 519.50 223.38 519.24 223.97 519.11 C 225.31 518.17 226.60 517.16 227.96 516.27 C 228.35 516.56 229.12 517.15 229.50 517.44 C 230.00 521.73 228.55 527.36 232.57 530.32 C 238.98 534.92 246.29 538.07 252.69 542.70 C 252.68 545.31 252.69 547.93 252.72 550.55 C 246.93 552.29 240.21 553.25 236.13 558.18 C 234.45 560.08 232.95 562.92 234.48 565.37 C 238.32 572.11 246.43 575.48 253.98 575.24 C 261.83 575.63 270.56 572.70 274.46 565.41 C 276.08 562.70 274.29 559.62 272.37 557.63 C 269.28 554.03 264.46 553.00 260.16 551.62 C 260.40 548.32 260.69 544.57 258.25 541.95 C 260.23 540.74 262.26 539.58 264.35 538.55 C 269.70 535.98 274.55 532.51 279.77 529.70 C 282.54 528.25 283.42 524.96 283.33 522.06 C 283.30 510.10 283.25 498.14 283.36 486.19 C 285.89 484.78 288.64 483.83 291.23 482.57 C 291.35 482.22 291.58 481.53 291.70 481.19 C 292.39 480.94 293.77 480.45 294.46 480.20 L 294.57 479.83 C 296.10 479.27 297.38 478.34 297.80 476.69 C 300.09 475.76 304.03 476.72 304.29 473.37 C 307.59 472.72 310.56 470.83 313.49 469.21 C 314.64 469.17 316.33 469.31 315.90 467.33 C 316.29 467.38 317.08 467.50 317.47 467.56 L 317.84 465.83 L 318.14 466.49 C 319.01 468.41 319.93 470.31 320.83 472.22 C 318.17 474.03 316.76 476.86 316.68 480.05 C 316.43 485.22 310.90 489.05 312.69 494.45 C 312.33 494.48 311.61 494.55 311.25 494.58 C 310.41 499.47 308.17 503.94 306.63 508.62 C 304.68 512.43 301.97 515.84 300.74 520.00 C 301.00 520.51 301.53 521.54 301.79 522.05 C 300.29 525.17 299.17 528.46 297.57 531.54 C 296.70 532.55 295.84 533.56 294.97 534.58 C 295.33 534.86 296.03 535.42 296.39 535.69 C 296.61 537.01 296.83 538.32 297.06 539.65 C 298.89 540.61 300.75 541.55 302.45 542.74 C 303.56 543.93 304.63 545.16 305.76 546.34 C 305.89 546.40 306.14 546.52 306.27 546.58 C 306.70 546.64 307.56 546.75 307.99 546.81 L 308.77 546.91 C 310.95 547.67 313.03 548.69 315.03 549.86 C 322.13 554.19 329.64 557.81 336.62 562.34 C 353.66 571.58 370.45 581.27 387.31 590.85 C 395.35 595.80 403.92 599.95 411.81 605.07 C 413.84 613.48 411.60 622.39 412.84 630.95 C 413.17 632.77 415.01 633.66 416.37 634.65 C 422.20 638.21 428.15 641.56 433.95 645.17 C 433.91 648.34 433.92 651.50 433.98 654.67 C 426.22 654.90 418.04 659.22 415.75 667.06 C 418.45 671.01 421.43 675.45 426.42 676.59 C 431.04 677.63 435.77 680.24 440.58 678.59 C 445.80 676.92 451.73 675.79 455.35 671.26 C 457.62 668.83 457.82 664.90 455.75 662.30 C 452.42 658.00 447.19 655.69 441.98 654.62 C 442.21 651.41 442.21 648.19 441.80 645.00 C 443.61 643.73 445.49 642.55 447.48 641.57 C 452.26 639.64 456.24 636.33 460.59 633.66 C 461.90 632.68 463.24 634.09 464.43 634.60 C 475.08 641.11 486.24 646.75 496.92 653.21 C 508.14 659.92 519.92 665.70 530.73 673.11 C 531.18 674.39 532.04 674.98 533.33 674.89 C 533.85 674.86 534.89 674.81 535.41 674.79 C 535.57 676.05 536.62 677.86 538.10 677.61 C 538.14 676.58 537.82 675.65 537.14 674.80 C 535.25 663.10 531.33 651.84 528.61 640.32 C 513.39 582.77 498.43 525.17 483.28 467.59 C 467.15 405.79 450.71 344.08 434.59 282.28 C 430.14 264.77 425.34 247.36 420.72 229.89 C 424.78 226.74 429.42 224.51 433.78 221.85 C 453.56 210.94 473.18 199.73 493.09 189.06 C 508.42 180.35 523.61 171.41 539.35 163.47 C 547.03 158.41 555.49 154.65 563.06 149.43 Z" />
<path fill="#e3f1f4" opacity="1.00" d=" M 330.15 386.30 C 331.31 386.36 332.46 386.43 333.62 386.52 C 333.48 387.15 333.19 388.41 333.05 389.05 C 330.56 390.77 330.06 388.23 330.15 386.30 Z" />
</g>
<g id="#82898b3c">
<path fill="#82898b" opacity="0.24" d=" M 422.56 218.57 C 424.11 218.02 425.68 217.50 427.29 217.11 C 423.65 220.18 419.22 222.07 415.36 224.82 C 413.64 225.77 411.89 226.67 410.16 227.60 C 410.16 228.71 410.17 229.83 410.18 230.95 C 406.40 235.08 406.94 241.07 403.74 245.48 C 403.67 247.75 402.48 249.70 401.62 251.72 C 399.76 255.72 398.98 260.14 396.82 264.00 C 396.08 266.14 395.57 268.36 395.36 270.61 L 395.23 270.57 C 394.44 270.16 393.66 269.74 392.89 269.31 L 394.46 269.42 C 393.56 265.66 397.07 263.29 397.74 259.89 C 398.31 257.15 399.13 254.48 399.89 251.79 C 401.46 248.45 403.10 245.12 403.67 241.43 C 404.14 241.40 405.07 241.36 405.53 241.33 C 404.71 238.30 405.76 235.39 407.81 233.14 C 407.18 231.34 407.17 229.84 409.64 230.16 C 409.40 229.32 408.93 227.64 408.69 226.80 C 409.79 226.19 410.89 225.58 411.99 224.95 C 412.94 224.35 413.93 223.82 414.95 223.37 C 417.49 221.77 420.24 220.50 422.56 218.57 Z" />
<path fill="#82898b" opacity="0.24" d=" M 371.08 328.31 L 372.26 329.39 C 372.31 330.14 372.36 330.89 372.43 331.64 C 371.36 334.59 370.40 337.60 368.78 340.30 C 367.69 342.86 366.72 345.47 365.59 348.01 C 365.62 348.67 365.69 349.99 365.72 350.65 C 364.28 352.27 362.78 353.99 362.42 356.22 C 361.23 362.09 358.29 367.36 356.46 373.03 C 356.40 373.48 356.28 374.39 356.22 374.84 C 355.55 376.40 354.99 378.00 354.40 379.60 C 350.70 386.80 349.99 395.21 345.62 402.12 C 345.57 402.67 345.46 403.79 345.41 404.34 C 344.93 405.68 344.48 407.03 344.04 408.39 C 343.28 409.89 342.51 411.40 341.72 412.90 C 341.16 415.06 340.60 417.22 340.13 419.41 C 339.32 420.29 338.52 421.18 337.74 422.09 C 337.70 420.45 337.37 418.44 339.49 417.98 C 339.33 417.21 339.00 415.68 338.84 414.92 C 339.24 414.82 340.04 414.62 340.45 414.52 C 340.96 412.43 341.45 410.32 341.73 408.19 C 342.27 407.97 343.34 407.55 343.87 407.33 C 343.57 406.52 342.96 404.90 342.66 404.09 C 343.18 403.94 344.23 403.65 344.75 403.50 C 344.67 402.81 344.50 401.43 344.42 400.73 C 346.95 398.51 345.96 394.35 348.70 392.30 C 347.87 390.42 348.31 388.94 350.19 387.96 C 350.13 387.27 350.01 385.89 349.95 385.19 C 350.32 385.33 351.06 385.60 351.42 385.74 C 351.56 383.65 352.17 381.65 352.84 379.68 L 353.95 379.83 C 353.95 378.63 353.93 377.43 353.88 376.23 C 352.98 374.50 355.19 373.48 355.61 371.97 C 357.05 369.44 357.20 366.18 359.46 364.15 C 359.43 361.74 359.28 359.06 361.17 357.25 C 362.04 355.06 362.98 352.90 363.76 350.67 C 364.98 345.50 367.87 340.89 368.62 335.57 C 369.11 335.52 370.07 335.42 370.55 335.37 C 370.64 333.87 369.11 331.26 371.86 331.32 C 371.67 330.57 371.27 329.06 371.08 328.31 Z" />
<path fill="#82898b" opacity="0.24" d=" M 245.41 467.60 C 249.27 465.59 253.02 463.35 256.99 461.55 C 258.36 463.69 261.44 463.02 263.23 464.66 C 264.83 466.07 266.76 466.97 268.84 467.42 C 269.10 468.00 269.62 469.16 269.88 469.74 C 270.55 469.70 271.89 469.63 272.56 469.60 C 273.30 470.61 274.05 471.64 274.81 472.66 C 275.48 472.65 276.82 472.63 277.49 472.61 C 279.64 474.08 281.87 475.44 284.04 476.90 C 283.93 479.67 283.33 482.62 284.70 485.20 C 287.17 483.44 289.65 481.69 292.08 479.88 L 291.70 481.19 C 291.58 481.53 291.35 482.22 291.23 482.57 C 288.64 483.83 285.89 484.78 283.36 486.19 C 283.22 484.62 282.98 483.03 282.82 481.47 C 282.80 480.12 282.82 478.78 282.87 477.45 C 281.74 476.73 280.62 476.02 279.47 475.35 C 277.20 474.06 274.82 473.01 272.43 472.00 C 267.68 468.09 261.57 466.41 256.85 462.47 C 255.70 463.25 254.56 464.03 253.42 464.82 C 250.50 466.80 247.28 468.25 244.21 469.94 C 242.32 472.24 239.21 472.81 237.09 474.84 C 235.78 475.81 234.41 476.71 233.01 477.54 C 232.77 477.66 232.31 477.90 232.08 478.02 C 231.61 478.27 230.69 478.76 230.22 479.00 C 230.25 489.34 230.16 499.68 230.27 510.01 C 230.31 512.50 230.10 515.01 229.50 517.44 C 229.12 517.15 228.35 516.56 227.96 516.27 C 227.74 516.11 227.30 515.79 227.08 515.62 C 227.56 515.43 228.50 515.05 228.98 514.86 C 229.18 514.43 229.59 513.58 229.80 513.15 C 229.69 501.79 229.89 490.42 229.68 479.05 C 230.99 478.10 232.13 476.95 233.06 475.64 C 234.94 474.22 238.32 474.07 238.54 471.25 C 241.61 472.17 243.09 468.83 245.41 467.60 Z" />
<path fill="#82898b" opacity="0.24" d=" M 808.10 556.40 C 810.67 556.46 813.33 557.40 815.11 559.31 C 816.96 560.25 820.05 560.20 820.57 562.65 C 821.99 563.23 823.43 563.79 824.88 564.36 C 823.63 565.31 822.31 566.17 820.80 566.63 C 818.89 568.80 816.24 569.98 813.45 570.55 L 813.39 571.16 C 812.31 571.73 811.27 572.35 810.25 573.00 C 808.32 574.14 806.70 576.08 804.29 576.03 C 804.69 575.33 805.21 574.72 805.85 574.19 C 808.17 572.97 810.14 570.74 812.95 570.80 C 812.81 570.45 812.54 569.76 812.40 569.41 C 812.75 569.57 813.44 569.88 813.79 570.03 C 815.47 568.98 817.18 568.00 818.83 566.90 C 819.52 566.54 820.89 565.81 821.57 565.45 C 820.62 564.15 819.65 562.89 818.71 561.61 C 814.96 560.37 811.26 558.76 808.10 556.40 Z" />
</g>
<g id="#aeb9baff">
<path fill="#aeb9ba" opacity="1.00" d=" M 410.16 227.60 C 411.89 226.67 413.64 225.77 415.36 224.82 C 414.60 225.88 413.89 226.97 413.17 228.06 C 415.67 228.72 418.19 229.34 420.72 229.89 C 425.34 247.36 430.14 264.77 434.59 282.28 C 450.71 344.08 467.15 405.79 483.28 467.59 C 498.43 525.17 513.39 582.77 528.61 640.32 C 531.33 651.84 535.25 663.10 537.14 674.80 C 536.71 674.80 535.84 674.79 535.41 674.79 C 534.89 674.81 533.85 674.86 533.33 674.89 C 533.15 673.46 532.28 672.87 530.73 673.11 C 519.92 665.70 508.14 659.92 496.92 653.21 C 486.24 646.75 475.08 641.11 464.43 634.60 C 463.24 634.09 461.90 632.68 460.59 633.66 C 456.24 636.33 452.26 639.64 447.48 641.57 C 446.19 641.62 444.91 641.65 443.64 641.68 C 443.34 626.84 443.53 611.98 443.57 597.13 C 442.15 597.42 440.73 597.73 439.31 598.05 C 439.39 611.35 439.37 624.66 439.08 637.97 C 439.22 640.59 438.35 644.34 441.80 645.00 C 442.21 648.19 442.21 651.41 441.98 654.62 C 441.06 659.08 443.22 664.53 439.89 668.21 C 438.61 660.75 439.61 653.15 439.26 645.63 C 437.48 645.51 435.71 645.42 433.95 645.17 C 428.15 641.56 422.20 638.21 416.37 634.65 C 415.01 633.66 413.17 632.77 412.84 630.95 C 411.60 622.39 413.84 613.48 411.81 605.07 C 403.92 599.95 395.35 595.80 387.31 590.85 C 370.45 581.27 353.66 571.58 336.62 562.34 C 329.64 557.81 322.13 554.19 315.03 549.86 C 313.03 548.69 310.95 547.67 308.77 546.91 C 308.79 546.41 308.82 545.42 308.84 544.92 C 312.41 542.38 316.30 540.34 320.15 538.26 C 344.19 524.84 368.27 511.45 392.33 498.07 C 393.36 497.48 393.83 496.34 394.43 495.38 C 394.55 495.11 394.79 494.58 394.91 494.31 C 393.91 493.12 392.12 492.77 390.93 493.87 C 389.60 493.10 388.27 492.35 386.92 491.64 C 388.84 489.61 385.22 488.38 383.89 489.90 C 382.50 489.04 381.11 488.20 379.68 487.43 C 380.15 485.18 377.52 484.06 375.89 485.39 C 372.27 483.57 368.72 481.62 365.26 479.51 C 365.97 478.10 365.51 477.73 363.89 478.42 C 361.98 477.70 360.04 476.87 358.79 475.19 C 358.26 473.60 357.69 473.51 357.10 474.92 C 355.05 473.79 353.04 472.61 351.00 471.48 C 352.35 469.94 350.35 468.55 348.96 468.22 C 348.75 468.57 348.34 469.27 348.13 469.62 C 347.96 469.48 347.64 469.22 347.47 469.08 C 345.69 467.31 343.85 465.60 341.90 464.02 C 341.64 464.44 341.14 465.28 340.88 465.70 C 339.37 465.12 337.81 464.67 336.27 464.20 C 336.02 464.11 335.52 463.95 335.27 463.87 C 334.65 465.32 334.03 466.78 333.41 468.25 C 333.67 468.80 334.19 469.89 334.45 470.44 C 333.85 472.09 333.19 473.71 332.57 475.36 C 332.27 474.93 331.67 474.07 331.37 473.64 C 330.75 475.49 329.99 477.33 329.72 479.28 C 329.94 479.66 330.39 480.40 330.62 480.77 C 329.99 482.62 329.26 484.43 328.60 486.27 C 327.13 483.89 325.70 487.60 328.06 487.83 C 325.62 494.49 323.71 501.40 320.43 507.72 C 318.64 509.66 316.77 511.85 318.06 514.65 C 317.55 516.02 316.99 517.39 316.42 518.75 C 315.32 520.17 314.16 521.55 313.02 522.94 C 313.41 523.26 314.21 523.89 314.61 524.20 C 313.63 527.28 312.52 530.32 311.39 533.34 C 309.90 530.34 307.93 535.03 311.11 534.08 C 309.85 537.25 308.86 540.51 307.52 543.65 C 305.83 543.33 304.13 543.02 302.45 542.74 C 300.75 541.55 298.89 540.61 297.06 539.65 C 296.83 538.32 296.61 537.01 296.39 535.69 C 296.03 535.42 295.33 534.86 294.97 534.58 C 295.84 533.56 296.70 532.55 297.57 531.54 C 299.17 528.46 300.29 525.17 301.79 522.05 C 301.53 521.54 301.00 520.51 300.74 520.00 C 301.97 515.84 304.68 512.43 306.63 508.62 C 308.17 503.94 310.41 499.47 311.25 494.58 C 311.61 494.55 312.33 494.48 312.69 494.45 C 310.90 489.05 316.43 485.22 316.68 480.05 C 316.76 476.86 318.17 474.03 320.83 472.22 C 319.93 470.31 319.01 468.41 318.14 466.49 C 318.99 466.60 320.70 466.81 321.55 466.92 C 321.45 466.46 321.25 465.56 321.15 465.11 L 322.51 465.77 C 322.63 464.26 321.56 462.02 323.47 461.23 C 323.70 458.72 325.10 456.54 326.05 454.25 C 326.36 452.91 326.88 451.64 327.56 450.45 C 327.43 449.71 327.30 448.97 327.18 448.23 L 329.60 449.02 C 329.13 447.47 328.67 445.93 328.23 444.39 L 329.49 444.60 L 329.50 443.34 L 331.06 443.58 C 330.66 443.02 329.86 441.90 329.46 441.34 L 331.75 441.52 C 331.63 440.41 331.51 439.31 331.40 438.21 C 332.57 436.84 332.83 435.17 332.48 433.45 C 333.02 433.55 334.12 433.74 334.67 433.84 C 334.52 432.78 334.22 430.65 334.07 429.58 C 334.42 429.56 335.12 429.51 335.47 429.49 C 336.13 427.48 336.82 425.44 336.67 423.29 C 336.94 422.99 337.47 422.39 337.74 422.09 C 338.52 421.18 339.32 420.29 340.13 419.41 C 340.60 417.22 341.16 415.06 341.72 412.90 C 342.51 411.40 343.28 409.89 344.04 408.39 C 344.48 407.03 344.93 405.68 345.41 404.34 C 345.46 403.79 345.57 402.67 345.62 402.12 C 349.99 395.21 350.70 386.80 354.40 379.60 C 354.99 378.00 355.55 376.40 356.22 374.84 C 356.28 374.39 356.40 373.48 356.46 373.03 C 358.29 367.36 361.23 362.09 362.42 356.22 C 362.78 353.99 364.28 352.27 365.72 350.65 C 365.69 349.99 365.62 348.67 365.59 348.01 C 366.72 345.47 367.69 342.86 368.78 340.30 C 370.40 337.60 371.36 334.59 372.43 331.64 C 372.36 330.89 372.31 330.14 372.26 329.39 C 372.54 327.83 373.78 326.29 372.58 324.75 C 373.16 324.67 374.32 324.50 374.90 324.42 C 374.69 323.39 374.26 321.33 374.05 320.30 C 374.64 320.73 375.83 321.60 376.42 322.03 C 376.33 320.47 376.24 318.91 376.16 317.35 L 377.82 317.62 C 377.58 316.56 377.35 315.51 377.14 314.46 C 378.06 313.03 379.08 311.41 378.28 309.60 C 378.87 309.96 380.05 310.69 380.64 311.06 C 381.13 309.11 376.58 302.97 381.81 306.89 C 382.03 305.51 379.67 300.60 383.41 302.80 C 382.91 301.75 382.44 300.71 381.98 299.66 C 384.68 299.47 383.44 296.65 383.58 295.04 C 384.10 295.28 385.16 295.76 385.68 296.00 C 385.58 294.54 385.50 293.08 385.44 291.62 C 386.60 290.51 387.37 289.11 387.79 287.57 C 388.11 287.49 388.73 287.34 389.04 287.26 C 387.10 286.35 386.62 283.60 389.56 284.01 C 389.47 283.09 389.27 281.25 389.18 280.33 C 389.77 280.48 390.96 280.77 391.55 280.91 C 391.27 280.47 390.70 279.59 390.42 279.15 C 391.15 278.17 391.62 277.07 391.82 275.86 C 392.11 275.38 392.70 274.44 392.99 273.97 C 393.65 272.76 393.65 271.47 392.99 270.09 L 395.23 270.57 L 395.36 270.61 C 395.57 268.36 396.08 266.14 396.82 264.00 C 398.98 260.14 399.76 255.72 401.62 251.72 C 402.48 249.70 403.67 247.75 403.74 245.48 C 406.94 241.07 406.40 235.08 410.18 230.95 C 410.17 229.83 410.16 228.71 410.16 227.60 M 414.39 253.32 C 414.18 252.87 413.76 251.96 413.56 251.51 C 413.09 253.72 410.28 256.42 412.75 258.36 C 412.09 260.34 411.23 262.25 410.47 264.19 C 409.40 261.66 407.34 266.11 409.88 265.65 C 409.72 266.07 409.39 266.92 409.22 267.35 C 408.86 267.30 408.14 267.20 407.78 267.15 C 407.24 268.72 406.68 270.29 406.13 271.86 C 406.57 271.65 407.45 271.23 407.89 271.02 C 407.36 272.47 406.78 273.91 406.36 275.40 C 404.63 275.47 404.49 275.96 405.92 276.89 C 404.72 281.12 402.98 285.15 401.39 289.23 C 400.51 286.27 397.26 290.63 400.13 291.09 L 400.79 290.81 C 400.00 292.79 399.04 294.70 398.24 296.68 C 396.09 295.83 394.01 301.54 396.79 300.95 C 396.27 302.31 395.74 303.67 395.25 305.04 C 393.87 302.84 391.39 308.51 393.92 308.72 C 393.05 312.00 391.87 315.19 390.51 318.30 C 389.38 315.76 387.40 320.20 389.96 319.74 C 388.60 324.06 386.98 328.27 385.01 332.35 L 385.15 330.69 C 382.99 333.02 382.23 336.22 380.86 339.01 C 380.02 340.15 381.22 341.24 381.60 342.30 C 381.11 344.08 380.22 345.71 379.45 347.38 C 377.58 347.62 377.30 348.49 378.61 350.01 C 377.79 353.07 376.72 356.06 375.37 358.93 C 375.40 355.22 371.85 359.79 375.08 359.63 C 374.10 362.88 373.07 366.13 371.44 369.14 C 370.61 366.68 368.64 370.58 371.11 369.88 C 370.91 370.46 370.52 371.62 370.32 372.20 C 369.34 369.71 366.81 374.01 369.31 374.10 L 369.86 373.72 C 369.21 375.89 368.33 377.99 367.43 380.08 C 366.54 377.63 364.67 381.57 367.13 380.83 C 366.93 381.42 366.54 382.60 366.34 383.19 C 364.81 379.69 362.51 386.31 365.80 384.82 C 365.17 386.55 364.42 388.24 363.72 389.96 C 361.19 390.44 359.56 394.24 361.45 396.26 C 360.17 400.29 358.59 404.21 356.89 408.08 L 357.34 406.73 C 354.55 408.29 354.15 411.67 353.64 414.51 L 354.92 413.60 C 353.79 418.04 351.95 422.23 350.06 426.38 L 350.29 424.63 C 347.58 427.64 346.16 431.73 345.41 435.67 C 344.95 436.78 344.49 437.90 344.05 439.04 C 344.45 438.91 345.24 438.66 345.64 438.53 C 345.16 439.77 344.66 441.00 344.20 442.25 L 344.33 440.41 C 342.44 441.93 341.88 444.28 341.47 446.55 C 340.71 447.81 340.25 449.21 340.90 450.66 C 341.37 451.93 342.15 453.10 343.17 454.02 L 341.43 453.70 C 343.10 456.10 345.82 457.26 348.47 458.25 L 347.87 456.89 C 348.38 457.13 349.41 457.62 349.92 457.87 C 347.57 459.20 353.83 462.43 352.85 459.30 C 353.89 459.88 354.93 460.49 355.97 461.09 C 355.38 461.05 354.19 460.98 353.59 460.95 C 355.64 462.63 357.91 464.04 360.33 465.14 C 360.14 464.66 359.77 463.70 359.59 463.22 C 360.42 463.72 361.26 464.20 362.12 464.67 C 359.60 465.25 363.39 467.54 362.85 465.06 C 363.27 465.28 364.12 465.73 364.55 465.95 C 364.65 466.00 364.86 466.11 364.96 466.16 C 367.25 467.29 369.47 468.56 371.61 469.96 C 371.71 470.03 371.91 470.15 372.01 470.22 C 372.90 470.78 373.82 471.33 374.74 471.88 C 370.99 471.59 376.20 476.02 376.76 473.07 C 377.20 473.30 378.07 473.76 378.50 473.99 C 378.61 474.04 378.82 474.14 378.93 474.19 C 383.24 475.85 387.18 478.27 390.91 480.98 C 392.02 481.73 393.15 482.47 394.34 483.12 C 393.08 485.10 397.48 487.32 398.02 485.02 C 399.72 485.94 401.39 486.92 403.07 487.89 C 402.52 487.96 401.43 488.09 400.88 488.15 C 403.98 489.94 407.08 491.74 410.29 493.33 L 409.81 491.91 C 410.36 492.22 411.46 492.84 412.01 493.15 L 410.51 492.67 C 412.20 495.04 414.83 496.36 417.52 497.28 L 416.77 495.86 C 417.33 496.17 418.43 496.79 418.98 497.09 L 417.49 496.62 C 419.14 498.97 421.58 500.51 424.31 501.33 C 423.11 500.16 421.95 498.98 420.72 497.86 C 422.70 498.56 424.45 499.71 426.12 500.97 C 425.23 501.52 425.16 502.21 425.91 503.05 C 426.88 503.70 429.24 504.29 429.79 502.97 C 430.89 503.55 432.01 504.11 433.14 504.67 C 430.66 505.42 434.51 507.50 433.87 505.03 C 436.24 506.08 438.48 507.39 440.64 508.84 C 440.74 508.90 440.95 509.03 441.05 509.09 C 443.85 510.52 446.67 511.92 449.27 513.72 C 446.09 514.73 451.18 517.32 449.93 514.09 C 453.24 515.53 456.18 517.60 459.09 519.71 C 456.52 521.05 462.87 524.33 461.94 521.22 C 465.40 522.77 468.68 524.68 471.85 526.77 C 468.03 526.61 473.35 530.83 473.89 527.95 C 476.16 529.16 478.48 530.29 480.73 531.56 C 480.12 533.10 480.55 533.40 482.01 532.45 C 482.91 533.03 483.83 533.57 484.79 534.09 C 482.13 534.68 486.10 537.48 486.12 534.88 C 486.61 535.18 487.60 535.77 488.10 536.07 L 486.47 535.72 C 488.25 538.19 491.05 539.58 494.05 539.86 C 493.04 539.06 492.02 538.26 490.92 537.60 C 491.65 536.39 492.01 535.12 492.00 533.78 C 492.13 534.37 493.48 536.54 493.93 535.06 C 494.65 533.52 491.94 529.47 491.78 532.86 C 491.17 530.73 490.54 528.62 490.18 526.44 L 490.90 527.50 C 491.07 522.69 489.63 518.07 488.25 513.53 L 486.92 514.01 C 486.58 512.88 486.28 511.75 486.01 510.62 C 488.32 510.83 486.82 505.67 485.42 508.25 C 485.13 507.45 484.82 506.68 484.50 505.92 C 484.39 505.14 484.17 503.58 484.06 502.79 C 484.60 504.10 485.34 505.30 486.06 506.53 C 485.88 503.51 485.02 500.61 483.97 497.80 L 482.65 498.21 C 482.34 497.19 482.05 496.16 481.80 495.13 L 483.12 495.10 C 482.72 492.27 482.11 489.47 481.13 486.78 C 481.00 488.45 480.78 490.15 480.99 491.84 C 480.42 489.76 479.67 487.73 479.21 485.63 C 481.13 485.56 480.69 481.23 478.72 481.56 C 478.63 481.06 478.44 480.07 478.34 479.57 L 479.03 480.71 C 479.11 475.42 476.47 470.68 475.66 465.55 L 474.54 466.59 C 474.43 466.09 474.19 465.08 474.07 464.58 L 475.03 465.59 C 475.01 460.34 472.57 455.58 471.66 450.49 L 470.65 451.56 C 470.54 451.05 470.34 450.02 470.24 449.51 L 470.99 450.65 C 470.74 445.33 469.55 439.72 466.66 435.23 L 466.58 437.35 C 465.84 435.14 465.39 432.85 464.95 430.58 C 465.56 431.88 466.27 433.14 466.98 434.40 C 466.14 431.33 467.14 426.36 463.55 424.97 C 463.46 424.65 463.30 424.00 463.21 423.68 L 464.01 424.81 C 463.92 421.43 464.32 416.57 460.92 414.65 C 460.90 414.57 460.85 414.41 460.83 414.33 C 461.98 412.88 462.58 409.46 459.66 410.20 C 459.56 409.83 459.37 409.09 459.27 408.72 L 459.96 409.89 C 460.37 405.05 458.60 400.35 457.24 395.79 C 456.81 395.56 455.96 395.10 455.53 394.87 C 455.43 394.59 455.24 394.03 455.15 393.76 C 457.07 394.19 456.35 390.49 454.67 391.46 C 454.53 390.91 454.24 389.81 454.10 389.26 C 455.10 386.52 454.01 383.75 453.33 381.08 C 452.91 381.10 452.08 381.13 451.66 381.15 C 450.25 376.80 448.86 372.45 448.05 367.95 C 449.53 367.09 449.43 366.58 447.74 366.42 C 447.55 365.08 447.24 363.75 446.92 362.45 C 448.25 359.83 446.60 357.02 446.39 354.32 C 445.94 354.37 445.04 354.46 444.60 354.50 C 443.88 352.23 443.34 349.92 442.88 347.59 L 443.61 346.43 C 443.35 341.97 441.26 337.88 440.72 333.47 C 440.42 333.92 439.81 334.82 439.51 335.27 C 438.56 332.71 437.78 330.08 437.37 327.38 C 440.04 324.48 436.54 320.82 436.69 317.50 C 436.42 318.18 435.88 319.55 435.61 320.23 C 434.59 317.70 433.69 315.11 433.38 312.38 C 433.66 311.98 434.20 311.17 434.48 310.77 C 433.92 307.83 433.00 304.95 432.94 301.93 C 432.41 302.02 431.37 302.19 430.84 302.28 C 430.30 300.68 429.85 299.05 429.48 297.41 C 430.86 293.96 428.92 290.39 428.85 286.87 L 427.53 286.89 C 427.60 287.71 427.75 289.37 427.83 290.19 C 427.31 288.33 426.70 286.50 426.22 284.63 C 426.63 284.79 427.46 285.11 427.88 285.27 C 426.31 280.71 426.12 275.65 423.91 271.36 C 423.90 272.31 423.88 274.21 423.87 275.16 C 423.57 273.99 423.20 272.83 422.87 271.68 C 424.26 269.58 423.50 267.19 421.89 265.49 C 421.90 266.17 421.92 267.54 421.93 268.22 C 421.70 267.32 421.47 266.44 421.23 265.56 C 423.19 262.63 421.21 259.14 420.05 256.31 C 419.99 257.31 419.87 259.30 419.81 260.30 C 419.41 258.81 418.97 257.33 418.62 255.83 L 419.37 256.15 C 420.03 254.15 419.74 251.81 417.79 250.63 L 417.85 252.34 C 417.48 251.28 417.09 250.23 416.66 249.20 C 415.85 250.55 415.00 251.88 414.39 253.32 M 390.29 315.28 C 390.78 315.77 390.78 315.77 390.29 315.28 M 339.30 451.32 C 339.80 451.81 339.80 451.81 339.30 451.32 M 382.32 477.09 C 382.51 480.42 385.27 475.50 382.32 477.09 M 390.91 480.98 C 390.44 481.52 390.44 481.52 390.91 480.98 M 437.18 508.11 C 437.40 511.44 440.10 506.48 437.18 508.11 M 442.23 511.16 C 442.73 511.64 442.73 511.64 442.23 511.16 M 444.35 512.10 C 444.49 515.43 447.32 510.55 444.35 512.10 M 451.30 516.09 C 451.48 519.42 454.26 514.51 451.30 516.09 M 456.31 519.26 C 456.82 519.74 456.82 519.74 456.31 519.26 M 415.27 580.74 C 418.00 581.66 420.35 583.31 422.29 585.42 C 423.67 585.71 425.17 585.81 426.32 586.74 C 429.90 589.16 433.72 591.23 437.54 593.26 C 438.78 593.22 439.90 592.14 441.07 591.70 C 434.52 586.08 425.33 584.04 419.43 577.62 C 418.05 578.67 416.67 579.71 415.27 580.74 M 461.32 579.42 C 454.95 582.98 448.58 586.62 442.30 590.34 C 442.49 592.25 443.58 593.93 444.31 595.68 C 450.72 592.32 456.86 588.48 463.30 585.17 C 466.60 584.16 464.90 577.34 461.32 579.42 Z" />
<path fill="#aeb9ba" opacity="1.00" d=" M 706.41 465.28 C 707.15 462.08 713.02 460.96 714.76 463.60 L 715.13 463.46 C 715.95 465.14 718.51 464.47 718.84 466.67 C 719.34 466.39 720.36 465.82 720.87 465.54 L 720.26 467.96 C 720.87 467.76 722.08 467.35 722.68 467.15 L 722.35 468.31 C 724.42 468.37 725.35 471.05 727.52 470.23 L 727.24 472.17 C 729.78 469.90 730.29 473.38 732.55 473.68 L 732.33 474.96 L 734.77 473.84 L 734.14 475.72 C 727.52 479.50 720.92 483.31 714.38 487.23 C 715.33 489.08 716.31 490.93 717.33 492.76 C 723.63 488.33 730.55 484.87 737.17 480.93 C 737.41 493.92 737.64 506.94 736.97 519.92 L 738.14 519.86 C 738.14 522.27 738.60 524.93 737.32 527.13 C 736.03 528.94 733.97 529.99 732.13 531.16 C 727.84 533.62 723.62 536.20 719.21 538.45 C 718.34 538.30 716.60 538.00 715.73 537.85 C 715.05 522.81 716.20 507.72 715.10 492.72 C 712.84 494.96 710.21 497.48 710.61 500.99 C 710.66 513.00 710.60 525.03 710.66 537.04 C 710.33 539.63 712.54 541.15 714.26 542.64 C 715.01 545.15 715.00 547.79 714.68 550.38 C 714.12 554.82 714.90 559.37 713.89 563.76 C 713.47 563.80 712.63 563.88 712.21 563.91 C 711.18 557.15 712.10 550.28 711.77 543.48 C 710.64 543.10 709.53 542.72 708.43 542.33 C 702.40 539.74 697.01 535.92 691.27 532.77 C 687.63 530.78 683.77 527.60 683.91 523.05 C 683.79 511.45 684.09 499.85 683.79 488.26 C 684.25 488.35 685.18 488.52 685.64 488.60 C 685.46 485.65 685.44 482.70 685.50 479.76 C 685.86 479.09 686.56 477.76 686.91 477.10 L 688.52 477.94 C 695.40 481.47 701.75 486.01 708.81 489.18 C 710.42 490.13 711.96 488.56 713.47 488.10 C 708.26 484.17 702.20 481.66 696.52 478.53 C 694.53 477.56 693.17 475.80 691.85 474.11 C 691.32 474.39 690.26 474.93 689.73 475.21 C 691.02 473.68 692.93 473.05 694.73 472.34 L 694.15 471.03 C 694.75 471.24 695.96 471.65 696.56 471.85 L 696.33 470.22 C 696.98 470.29 698.29 470.41 698.95 470.47 C 699.70 468.85 700.97 467.64 702.79 467.35 L 701.53 465.74 C 703.20 466.39 704.86 466.07 706.41 465.28 Z" />
<path fill="#aeb9ba" opacity="1.00" d=" M 253.42 464.82 C 254.56 464.03 255.70 463.25 256.85 462.47 C 261.57 466.41 267.68 468.09 272.43 472.00 C 274.82 473.01 277.20 474.06 279.47 475.35 C 272.99 479.52 266.15 483.10 259.58 487.13 C 260.30 489.03 261.02 490.92 261.75 492.82 C 268.75 489.00 275.19 484.02 282.82 481.47 C 282.98 483.03 283.22 484.62 283.36 486.19 C 283.25 498.14 283.30 510.10 283.33 522.06 C 283.42 524.96 282.54 528.25 279.77 529.70 C 274.55 532.51 269.70 535.98 264.35 538.55 C 263.45 538.46 261.65 538.27 260.75 538.18 C 260.35 523.53 260.63 508.86 260.62 494.21 C 259.53 494.26 258.45 494.31 257.37 494.37 C 257.26 507.23 257.40 520.09 257.26 532.95 C 257.24 535.64 257.23 538.35 257.63 541.03 C 257.79 541.26 258.09 541.72 258.25 541.95 C 260.69 544.57 260.40 548.32 260.16 551.62 C 259.61 555.52 259.83 559.48 259.37 563.38 C 258.45 564.00 257.47 564.52 256.50 565.06 C 256.32 557.79 256.84 550.50 256.24 543.24 C 255.35 543.11 253.57 542.84 252.69 542.70 C 246.29 538.07 238.98 534.92 232.57 530.32 C 228.55 527.36 230.00 521.73 229.50 517.44 C 230.10 515.01 230.31 512.50 230.27 510.01 C 230.16 499.68 230.25 489.34 230.22 479.00 C 230.69 478.76 231.61 478.27 232.08 478.02 C 232.31 477.90 232.77 477.66 233.01 477.54 C 239.78 481.11 246.49 484.85 252.79 489.21 C 254.24 490.11 258.40 489.73 257.58 487.43 C 251.12 482.65 242.92 480.54 237.09 474.84 C 239.21 472.81 242.32 472.24 244.21 469.94 C 247.28 468.25 250.50 466.80 253.42 464.82 Z" />
</g>
<g id="#859698ff">
<path fill="#859698" opacity="1.00" d=" M 417.79 250.63 C 419.74 251.81 420.03 254.15 419.37 256.15 L 418.62 255.83 C 418.33 254.67 418.08 253.51 417.85 252.34 L 417.79 250.63 Z" />
<path fill="#859698" opacity="1.00" d=" M 413.56 251.51 C 413.76 251.96 414.18 252.87 414.39 253.32 C 413.85 255.00 413.32 256.69 412.75 258.36 C 410.28 256.42 413.09 253.72 413.56 251.51 Z" />
<path fill="#859698" opacity="1.00" d=" M 420.05 256.31 C 421.21 259.14 423.19 262.63 421.23 265.56 C 420.75 263.80 420.26 262.06 419.81 260.30 C 419.87 259.30 419.99 257.31 420.05 256.31 Z" />
<path fill="#859698" opacity="1.00" d=" M 409.88 265.65 C 407.34 266.11 409.40 261.66 410.47 264.19 C 410.32 264.55 410.03 265.28 409.88 265.65 Z" />
<path fill="#859698" opacity="1.00" d=" M 421.89 265.49 C 423.50 267.19 424.26 269.58 422.87 271.68 C 422.53 270.53 422.21 269.37 421.93 268.22 C 421.92 267.54 421.90 266.17 421.89 265.49 Z" />
<path fill="#859698" opacity="1.00" d=" M 407.78 267.15 C 408.14 267.20 408.86 267.30 409.22 267.35 C 408.77 268.57 408.34 269.79 407.89 271.02 C 407.45 271.23 406.57 271.65 406.13 271.86 C 406.68 270.29 407.24 268.72 407.78 267.15 Z" />
<path fill="#859698" opacity="1.00" d=" M 423.91 271.36 C 426.12 275.65 426.31 280.71 427.88 285.27 C 427.46 285.11 426.63 284.79 426.22 284.63 C 425.34 281.50 424.65 278.32 423.87 275.16 C 423.88 274.21 423.90 272.31 423.91 271.36 Z" />
<path fill="#859698" opacity="1.00" d=" M 405.92 276.89 C 404.49 275.96 404.63 275.47 406.36 275.40 C 406.25 275.78 406.03 276.52 405.92 276.89 Z" />
<path fill="#859698" opacity="1.00" d=" M 427.53 286.89 L 428.85 286.87 C 428.92 290.39 430.86 293.96 429.48 297.41 C 428.93 295.00 428.39 292.59 427.83 290.19 C 427.75 289.37 427.60 287.71 427.53 286.89 Z" />
<path fill="#859698" opacity="1.00" d=" M 400.13 291.09 C 397.26 290.63 400.51 286.27 401.39 289.23 C 401.24 289.62 400.94 290.41 400.79 290.81 L 400.13 291.09 Z" />
<path fill="#859698" opacity="1.00" d=" M 396.79 300.95 C 394.01 301.54 396.09 295.83 398.24 296.68 C 397.75 298.10 397.33 299.54 396.79 300.95 Z" />
<path fill="#859698" opacity="1.00" d=" M 430.84 302.28 C 431.37 302.19 432.41 302.02 432.94 301.93 C 433.00 304.95 433.92 307.83 434.48 310.77 C 434.20 311.17 433.66 311.98 433.38 312.38 C 432.87 308.94 432.00 305.56 430.84 302.28 Z" />
<path fill="#859698" opacity="1.00" d=" M 393.92 308.72 C 391.39 308.51 393.87 302.84 395.25 305.04 C 394.81 306.27 394.35 307.49 393.92 308.72 Z" />
<path fill="#859698" opacity="1.00" d=" M 390.29 315.28 C 390.78 315.77 390.78 315.77 390.29 315.28 Z" />
<path fill="#859698" opacity="1.00" d=" M 389.96 319.74 C 387.40 320.20 389.38 315.76 390.51 318.30 C 390.37 318.66 390.09 319.38 389.96 319.74 Z" />
<path fill="#859698" opacity="1.00" d=" M 435.61 320.23 C 435.88 319.55 436.42 318.18 436.69 317.50 C 436.54 320.82 440.04 324.48 437.37 327.38 C 436.91 324.97 436.31 322.58 435.61 320.23 Z" />
<path fill="#859698" opacity="1.00" d=" M 380.86 339.01 C 382.23 336.22 382.99 333.02 385.15 330.69 L 385.01 332.35 C 383.74 335.62 382.56 338.92 381.60 342.30 C 381.22 341.24 380.02 340.15 380.86 339.01 Z" />
<path fill="#859698" opacity="1.00" d=" M 439.51 335.27 C 439.81 334.82 440.42 333.92 440.72 333.47 C 441.26 337.88 443.35 341.97 443.61 346.43 L 442.88 347.59 C 441.92 343.44 440.77 339.33 439.51 335.27 Z" />
<path fill="#859698" opacity="1.00" d=" M 378.61 350.01 C 377.30 348.49 377.58 347.62 379.45 347.38 C 379.37 348.32 379.09 349.19 378.61 350.01 Z" />
<path fill="#859698" opacity="1.00" d=" M 444.60 354.50 C 445.04 354.46 445.94 354.37 446.39 354.32 C 446.60 357.02 448.25 359.83 446.92 362.45 C 446.18 359.79 445.38 357.15 444.60 354.50 Z" />
<path fill="#859698" opacity="1.00" d=" M 375.08 359.63 C 371.85 359.79 375.40 355.22 375.37 358.93 L 375.08 359.63 Z" />
<path fill="#859698" opacity="1.00" d=" M 447.74 366.42 C 449.43 366.58 449.53 367.09 448.05 367.95 C 447.98 367.57 447.82 366.80 447.74 366.42 Z" />
<path fill="#859698" opacity="1.00" d=" M 371.11 369.88 C 368.64 370.58 370.61 366.68 371.44 369.14 L 371.11 369.88 Z" />
<path fill="#859698" opacity="1.00" d=" M 369.31 374.10 C 366.81 374.01 369.34 369.71 370.32 372.20 C 370.21 372.58 369.98 373.34 369.86 373.72 L 369.31 374.10 Z" />
<path fill="#859698" opacity="1.00" d=" M 367.13 380.83 C 364.67 381.57 366.54 377.63 367.43 380.08 L 367.13 380.83 Z" />
<path fill="#859698" opacity="1.00" d=" M 451.66 381.15 C 452.08 381.13 452.91 381.10 453.33 381.08 C 454.01 383.75 455.10 386.52 454.10 389.26 C 453.20 386.58 452.38 383.87 451.66 381.15 Z" />
<path fill="#859698" opacity="1.00" d=" M 365.80 384.82 C 362.51 386.31 364.81 379.69 366.34 383.19 C 366.21 383.60 365.94 384.41 365.80 384.82 Z" />
<path fill="#859698" opacity="1.00" d=" M 361.45 396.26 C 359.56 394.24 361.19 390.44 363.72 389.96 C 362.91 392.04 362.18 394.15 361.45 396.26 Z" />
<path fill="#859698" opacity="1.00" d=" M 454.67 391.46 C 456.35 390.49 457.07 394.19 455.15 393.76 C 455.03 393.18 454.79 392.04 454.67 391.46 Z" />
<path fill="#859698" opacity="1.00" d=" M 455.53 394.87 C 455.96 395.10 456.81 395.56 457.24 395.79 C 458.60 400.35 460.37 405.05 459.96 409.89 L 459.27 408.72 C 458.10 404.08 457.09 399.40 455.53 394.87 Z" />
<path fill="#859698" opacity="1.00" d=" M 353.64 414.51 C 354.15 411.67 354.55 408.29 357.34 406.73 L 356.89 408.08 C 356.23 409.92 355.58 411.76 354.92 413.60 L 353.64 414.51 Z" />
<path fill="#859698" opacity="1.00" d=" M 459.66 410.20 C 462.58 409.46 461.98 412.88 460.83 414.33 C 460.42 412.95 460.02 411.58 459.66 410.20 Z" />
<path fill="#859698" opacity="1.00" d=" M 460.92 414.65 C 464.32 416.57 463.92 421.43 464.01 424.81 L 463.21 423.68 C 462.37 420.69 461.71 417.65 460.92 414.65 Z" />
<path fill="#859698" opacity="1.00" d=" M 345.41 435.67 C 346.16 431.73 347.58 427.64 350.29 424.63 L 350.06 426.38 C 348.46 430.39 347.15 434.49 345.64 438.53 C 345.24 438.66 344.45 438.91 344.05 439.04 C 344.49 437.90 344.95 436.78 345.41 435.67 Z" />
<path fill="#859698" opacity="1.00" d=" M 463.55 424.97 C 467.14 426.36 466.14 431.33 466.98 434.40 C 466.27 433.14 465.56 431.88 464.95 430.58 C 464.45 428.72 463.99 426.84 463.55 424.97 Z" />
<path fill="#859698" opacity="1.00" d=" M 466.66 435.23 C 469.55 439.72 470.74 445.33 470.99 450.65 L 470.24 449.51 C 469.02 445.45 467.78 441.41 466.58 437.35 L 466.66 435.23 Z" />
<path fill="#859698" opacity="1.00" d=" M 341.47 446.55 C 341.88 444.28 342.44 441.93 344.33 440.41 L 344.20 442.25 C 343.20 445.09 342.00 447.86 340.90 450.66 C 340.25 449.21 340.71 447.81 341.47 446.55 Z" />
<path fill="#859698" opacity="1.00" d=" M 339.30 451.32 C 339.80 451.81 339.80 451.81 339.30 451.32 Z" />
<path fill="#859698" opacity="1.00" d=" M 470.65 451.56 L 471.66 450.49 C 472.57 455.58 475.01 460.34 475.03 465.59 L 474.07 464.58 C 472.79 460.28 471.33 456.01 470.65 451.56 Z" />
<path fill="#859698" opacity="1.00" d=" M 341.43 453.70 L 343.17 454.02 C 344.76 454.93 346.32 455.89 347.87 456.89 L 348.47 458.25 C 345.82 457.26 343.10 456.10 341.43 453.70 Z" />
<path fill="#859698" opacity="1.00" d=" M 352.85 459.30 C 353.83 462.43 347.57 459.20 349.92 457.87 C 350.92 458.28 351.90 458.75 352.85 459.30 Z" />
<path fill="#859698" opacity="1.00" d=" M 353.59 460.95 C 354.19 460.98 355.38 461.05 355.97 461.09 C 357.19 461.76 358.40 462.47 359.59 463.22 C 359.77 463.70 360.14 464.66 360.33 465.14 C 357.91 464.04 355.64 462.63 353.59 460.95 Z" />
<path fill="#859698" opacity="1.00" d=" M 335.27 463.87 C 335.52 463.95 336.02 464.11 336.27 464.20 C 335.75 466.30 335.16 468.39 334.45 470.44 C 334.19 469.89 333.67 468.80 333.41 468.25 C 334.03 466.78 334.65 465.32 335.27 463.87 Z" />
<path fill="#859698" opacity="1.00" d=" M 340.88 465.70 C 341.14 465.28 341.64 464.44 341.90 464.02 C 343.85 465.60 345.69 467.31 347.47 469.08 C 345.30 467.90 343.12 466.74 340.88 465.70 Z" />
<path fill="#859698" opacity="1.00" d=" M 362.85 465.06 C 363.39 467.54 359.60 465.25 362.12 464.67 L 362.85 465.06 Z" />
<path fill="#859698" opacity="1.00" d=" M 364.55 465.95 L 364.96 466.16 C 364.86 466.11 364.65 466.00 364.55 465.95 Z" />
<path fill="#859698" opacity="1.00" d=" M 474.54 466.59 L 475.66 465.55 C 476.47 470.68 479.11 475.42 479.03 480.71 L 478.34 479.57 C 476.73 475.35 475.41 471.02 474.54 466.59 Z" />
<path fill="#859698" opacity="1.00" d=" M 348.96 468.22 C 350.35 468.55 352.35 469.94 351.00 471.48 C 349.96 470.96 349.01 470.34 348.13 469.62 C 348.34 469.27 348.75 468.57 348.96 468.22 Z" />
<path fill="#859698" opacity="1.00" d=" M 371.61 469.96 L 372.01 470.22 C 371.91 470.15 371.71 470.03 371.61 469.96 Z" />
<path fill="#859698" opacity="1.00" d=" M 376.76 473.07 C 376.20 476.02 370.99 471.59 374.74 471.88 C 375.25 472.17 376.26 472.77 376.76 473.07 Z" />
<path fill="#859698" opacity="1.00" d=" M 331.37 473.64 C 331.67 474.07 332.27 474.93 332.57 475.36 C 331.93 477.17 331.26 478.96 330.62 480.77 C 330.39 480.40 329.94 479.66 329.72 479.28 C 329.99 477.33 330.75 475.49 331.37 473.64 Z" />
<path fill="#859698" opacity="1.00" d=" M 357.10 474.92 C 357.69 473.51 358.26 473.60 358.79 475.19 C 358.37 475.12 357.52 474.99 357.10 474.92 Z" />
<path fill="#859698" opacity="1.00" d=" M 378.50 473.99 L 378.93 474.19 C 378.82 474.14 378.61 474.04 378.50 473.99 Z" />
<path fill="#859698" opacity="1.00" d=" M 233.01 477.54 C 234.41 476.71 235.78 475.81 237.09 474.84 C 242.92 480.54 251.12 482.65 257.58 487.43 C 258.40 489.73 254.24 490.11 252.79 489.21 C 246.49 484.85 239.78 481.11 233.01 477.54 Z" />
<path fill="#859698" opacity="1.00" d=" M 689.73 475.21 C 690.26 474.93 691.32 474.39 691.85 474.11 C 693.17 475.80 694.53 477.56 696.52 478.53 C 702.20 481.66 708.26 484.17 713.47 488.10 C 711.96 488.56 710.42 490.13 708.81 489.18 C 701.75 486.01 695.40 481.47 688.52 477.94 C 688.09 477.35 687.23 476.17 686.80 475.58 C 687.53 475.49 688.99 475.30 689.73 475.21 Z" />
<path fill="#859698" opacity="1.00" d=" M 382.32 477.09 C 385.27 475.50 382.51 480.42 382.32 477.09 Z" />
<path fill="#859698" opacity="1.00" d=" M 363.89 478.42 C 365.51 477.73 365.97 478.10 365.26 479.51 C 364.92 479.24 364.24 478.69 363.89 478.42 Z" />
<path fill="#859698" opacity="1.00" d=" M 390.91 480.98 C 390.44 481.52 390.44 481.52 390.91 480.98 Z" />
<path fill="#859698" opacity="1.00" d=" M 478.72 481.56 C 480.69 481.23 481.13 485.56 479.21 485.63 C 478.85 484.30 478.83 482.92 478.72 481.56 Z" />
<path fill="#859698" opacity="1.00" d=" M 394.34 483.12 C 395.57 483.73 396.82 484.33 398.02 485.02 C 397.48 487.32 393.08 485.10 394.34 483.12 Z" />
<path fill="#859698" opacity="1.00" d=" M 328.06 487.83 C 325.70 487.60 327.13 483.89 328.60 486.27 C 328.47 486.66 328.19 487.44 328.06 487.83 Z" />
<path fill="#859698" opacity="1.00" d=" M 375.89 485.39 C 377.52 484.06 380.15 485.18 379.68 487.43 C 378.35 486.86 377.09 486.17 375.89 485.39 Z" />
<path fill="#859698" opacity="1.00" d=" M 481.13 486.78 C 482.11 489.47 482.72 492.27 483.12 495.10 L 481.80 495.13 C 481.51 494.03 481.24 492.93 480.99 491.84 C 480.78 490.15 481.00 488.45 481.13 486.78 Z" />
<path fill="#859698" opacity="1.00" d=" M 400.88 488.15 C 401.43 488.09 402.52 487.96 403.07 487.89 C 405.36 489.15 407.60 490.50 409.81 491.91 L 410.29 493.33 C 407.08 491.74 403.98 489.94 400.88 488.15 Z" />
<path fill="#859698" opacity="1.00" d=" M 383.89 489.90 C 385.22 488.38 388.84 489.61 386.92 491.64 C 385.86 491.12 384.86 490.54 383.89 489.90 Z" />
<path fill="#859698" opacity="1.00" d=" M 390.93 493.87 C 392.12 492.77 393.91 493.12 394.91 494.31 C 394.79 494.58 394.55 495.11 394.43 495.38 C 393.17 495.09 392.00 494.59 390.93 493.87 Z" />
<path fill="#859698" opacity="1.00" d=" M 410.51 492.67 L 412.01 493.15 C 413.64 493.95 415.24 494.86 416.77 495.86 L 417.52 497.28 C 414.83 496.36 412.20 495.04 410.51 492.67 Z" />
<path fill="#859698" opacity="1.00" d=" M 710.61 500.99 C 710.21 497.48 712.84 494.96 715.10 492.72 C 716.20 507.72 715.05 522.81 715.73 537.85 C 716.60 538.00 718.34 538.30 719.21 538.45 C 717.91 539.08 716.60 539.69 715.29 540.30 C 715.03 540.88 714.52 542.05 714.26 542.64 C 712.54 541.15 710.33 539.63 710.66 537.04 C 710.60 525.03 710.66 513.00 710.61 500.99 Z" />
<path fill="#859698" opacity="1.00" d=" M 257.37 494.37 C 258.45 494.31 259.53 494.26 260.62 494.21 C 260.63 508.86 260.35 523.53 260.75 538.18 C 261.65 538.27 263.45 538.46 264.35 538.55 C 262.26 539.58 260.23 540.74 258.25 541.95 C 258.09 541.72 257.79 541.26 257.63 541.03 C 257.23 538.35 257.24 535.64 257.26 532.95 C 257.40 520.09 257.26 507.23 257.37 494.37 Z" />
<path fill="#859698" opacity="1.00" d=" M 417.49 496.62 L 418.98 497.09 C 419.42 497.29 420.28 497.67 420.72 497.86 C 421.95 498.98 423.11 500.16 424.31 501.33 C 421.58 500.51 419.14 498.97 417.49 496.62 Z" />
<path fill="#859698" opacity="1.00" d=" M 482.65 498.21 L 483.97 497.80 C 485.02 500.61 485.88 503.51 486.06 506.53 C 485.34 505.30 484.60 504.10 484.06 502.79 C 483.59 501.26 483.11 499.73 482.65 498.21 Z" />
<path fill="#859698" opacity="1.00" d=" M 433.87 505.03 C 434.51 507.50 430.66 505.42 433.14 504.67 L 433.87 505.03 Z" />
<path fill="#859698" opacity="1.00" d=" M 485.42 508.25 C 486.82 505.67 488.32 510.83 486.01 510.62 C 485.86 510.02 485.56 508.84 485.42 508.25 Z" />
<path fill="#859698" opacity="1.00" d=" M 318.06 514.65 C 316.77 511.85 318.64 509.66 320.43 507.72 C 319.63 510.02 318.91 512.36 318.06 514.65 Z" />
<path fill="#859698" opacity="1.00" d=" M 437.18 508.11 C 440.10 506.48 437.40 511.44 437.18 508.11 Z" />
<path fill="#859698" opacity="1.00" d=" M 440.64 508.84 L 441.05 509.09 C 440.95 509.03 440.74 508.90 440.64 508.84 Z" />
<path fill="#859698" opacity="1.00" d=" M 442.23 511.16 C 442.73 511.64 442.73 511.64 442.23 511.16 Z" />
<path fill="#859698" opacity="1.00" d=" M 444.35 512.10 C 447.32 510.55 444.49 515.43 444.35 512.10 Z" />
<path fill="#859698" opacity="1.00" d=" M 449.93 514.09 C 451.18 517.32 446.09 514.73 449.27 513.72 L 449.93 514.09 Z" />
<path fill="#859698" opacity="1.00" d=" M 486.92 514.01 L 488.25 513.53 C 489.63 518.07 491.07 522.69 490.90 527.50 L 490.18 526.44 C 489.38 522.22 488.26 518.08 486.92 514.01 Z" />
<path fill="#859698" opacity="1.00" d=" M 451.30 516.09 C 454.26 514.51 451.48 519.42 451.30 516.09 Z" />
<path fill="#859698" opacity="1.00" d=" M 313.02 522.94 C 314.16 521.55 315.32 520.17 316.42 518.75 C 315.76 520.54 315.18 522.37 314.61 524.20 C 314.21 523.89 313.41 523.26 313.02 522.94 Z" />
<path fill="#859698" opacity="1.00" d=" M 456.31 519.26 C 456.82 519.74 456.82 519.74 456.31 519.26 Z" />
<path fill="#859698" opacity="1.00" d=" M 461.94 521.22 C 462.87 524.33 456.52 521.05 459.09 519.71 C 460.03 520.21 460.98 520.71 461.94 521.22 Z" />
<path fill="#859698" opacity="1.00" d=" M 473.89 527.95 C 473.35 530.83 468.03 526.61 471.85 526.77 C 472.36 527.07 473.38 527.65 473.89 527.95 Z" />
<path fill="#859698" opacity="1.00" d=" M 491.78 532.86 C 491.94 529.47 494.65 533.52 493.93 535.06 C 493.48 536.54 492.13 534.37 492.00 533.78 L 491.78 532.86 Z" />
<path fill="#859698" opacity="1.00" d=" M 311.11 534.08 C 307.93 535.03 309.90 530.34 311.39 533.34 L 311.11 534.08 Z" />
<path fill="#859698" opacity="1.00" d=" M 482.01 532.45 C 480.55 533.40 480.12 533.10 480.73 531.56 C 481.05 531.79 481.69 532.23 482.01 532.45 Z" />
<path fill="#859698" opacity="1.00" d=" M 486.12 534.88 C 486.10 537.48 482.13 534.68 484.79 534.09 C 485.12 534.29 485.79 534.68 486.12 534.88 Z" />
<path fill="#859698" opacity="1.00" d=" M 486.47 535.72 L 488.10 536.07 C 489.04 536.55 489.98 537.07 490.92 537.60 C 492.02 538.26 493.04 539.06 494.05 539.86 C 491.05 539.58 488.25 538.19 486.47 535.72 Z" />
<path fill="#859698" opacity="1.00" d=" M 252.69 542.70 C 253.57 542.84 255.35 543.11 256.24 543.24 C 256.84 550.50 256.32 557.79 256.50 565.06 C 257.47 564.52 258.45 564.00 259.37 563.38 C 259.83 559.48 259.61 555.52 260.16 551.62 C 264.46 553.00 269.28 554.03 272.37 557.63 C 274.29 559.62 276.08 562.70 274.46 565.41 C 270.56 572.70 261.83 575.63 253.98 575.24 C 246.43 575.48 238.32 572.11 234.48 565.37 C 232.95 562.92 234.45 560.08 236.13 558.18 C 240.21 553.25 246.93 552.29 252.72 550.55 C 252.69 547.93 252.68 545.31 252.69 542.70 Z" />
<path fill="#859698" opacity="1.00" d=" M 302.45 542.74 C 304.13 543.02 305.83 543.33 307.52 543.65 C 306.94 544.55 306.35 545.44 305.76 546.34 C 304.63 545.16 303.56 543.93 302.45 542.74 Z" />
<path fill="#859698" opacity="1.00" d=" M 708.43 542.33 C 709.53 542.72 710.64 543.10 711.77 543.48 C 712.10 550.28 711.18 557.15 712.21 563.91 C 712.63 563.88 713.47 563.80 713.89 563.76 C 714.90 559.37 714.12 554.82 714.68 550.38 C 718.91 553.27 724.54 553.95 727.86 558.14 C 729.80 560.14 731.06 563.46 729.04 565.87 C 723.65 574.77 711.81 576.50 702.38 574.63 C 695.97 572.66 688.19 568.15 688.80 560.39 C 693.27 554.84 700.01 552.08 706.78 550.52 C 706.71 548.65 706.64 546.79 706.58 544.93 C 707.05 544.28 707.97 542.98 708.43 542.33 Z" />
<path fill="#859698" opacity="1.00" d=" M 307.99 546.81 C 308.20 546.34 308.63 545.39 308.84 544.92 C 308.82 545.42 308.79 546.41 308.77 546.91 L 307.99 546.81 Z" />
<path fill="#859698" opacity="1.00" d=" M 415.27 580.74 C 416.67 579.71 418.05 578.67 419.43 577.62 C 425.33 584.04 434.52 586.08 441.07 591.70 C 439.90 592.14 438.78 593.22 437.54 593.26 C 433.72 591.23 429.90 589.16 426.32 586.74 C 425.17 585.81 423.67 585.71 422.29 585.42 C 420.35 583.31 418.00 581.66 415.27 580.74 Z" />
<path fill="#859698" opacity="1.00" d=" M 439.31 598.05 C 440.73 597.73 442.15 597.42 443.57 597.13 C 443.53 611.98 443.34 626.84 443.64 641.68 C 444.91 641.65 446.19 641.62 447.48 641.57 C 445.49 642.55 443.61 643.73 441.80 645.00 C 438.35 644.34 439.22 640.59 439.08 637.97 C 439.37 624.66 439.39 611.35 439.31 598.05 Z" />
<path fill="#859698" opacity="1.00" d=" M 433.95 645.17 C 435.71 645.42 437.48 645.51 439.26 645.63 C 439.61 653.15 438.61 660.75 439.89 668.21 C 443.22 664.53 441.06 659.08 441.98 654.62 C 447.19 655.69 452.42 658.00 455.75 662.30 C 457.82 664.90 457.62 668.83 455.35 671.26 C 451.73 675.79 445.80 676.92 440.58 678.59 C 435.77 680.24 431.04 677.63 426.42 676.59 C 421.43 675.45 418.45 671.01 415.75 667.06 C 418.04 659.22 426.22 654.90 433.98 654.67 C 433.92 651.50 433.91 648.34 433.95 645.17 Z" />
<path fill="#859698" opacity="1.00" d=" M 530.73 673.11 C 532.28 672.87 533.15 673.46 533.33 674.89 C 532.04 674.98 531.18 674.39 530.73 673.11 Z" />
<path fill="#859698" opacity="1.00" d=" M 535.41 674.79 C 535.84 674.79 536.71 674.80 537.14 674.80 C 537.82 675.65 538.14 676.58 538.10 677.61 C 536.62 677.86 535.57 676.05 535.41 674.79 Z" />
</g>
<g id="#d6dbdcff">
<path fill="#d6dbdc" opacity="1.00" d=" M 336.27 464.20 C 337.81 464.67 339.37 465.12 340.88 465.70 C 343.12 466.74 345.30 467.90 347.47 469.08 C 347.64 469.22 347.96 469.48 348.13 469.62 C 349.01 470.34 349.96 470.96 351.00 471.48 C 353.04 472.61 355.05 473.79 357.10 474.92 C 357.52 474.99 358.37 475.12 358.79 475.19 C 360.04 476.87 361.98 477.70 363.89 478.42 C 364.24 478.69 364.92 479.24 365.26 479.51 C 368.72 481.62 372.27 483.57 375.89 485.39 C 377.09 486.17 378.35 486.86 379.68 487.43 C 381.11 488.20 382.50 489.04 383.89 489.90 C 384.86 490.54 385.86 491.12 386.92 491.64 C 388.27 492.35 389.60 493.10 390.93 493.87 C 392.00 494.59 393.17 495.09 394.43 495.38 C 393.83 496.34 393.36 497.48 392.33 498.07 C 368.27 511.45 344.19 524.84 320.15 538.26 C 316.30 540.34 312.41 542.38 308.84 544.92 C 308.63 545.39 308.20 546.34 307.99 546.81 C 307.56 546.75 306.70 546.64 306.27 546.58 C 306.14 546.52 305.89 546.40 305.76 546.34 C 306.35 545.44 306.94 544.55 307.52 543.65 C 308.86 540.51 309.85 537.25 311.11 534.08 L 311.39 533.34 C 312.52 530.32 313.63 527.28 314.61 524.20 C 315.18 522.37 315.76 520.54 316.42 518.75 C 316.99 517.39 317.55 516.02 318.06 514.65 C 318.91 512.36 319.63 510.02 320.43 507.72 C 323.71 501.40 325.62 494.49 328.06 487.83 C 328.19 487.44 328.47 486.66 328.60 486.27 C 329.26 484.43 329.99 482.62 330.62 480.77 C 331.26 478.96 331.93 477.17 332.57 475.36 C 333.19 473.71 333.85 472.09 334.45 470.44 C 335.16 468.39 335.75 466.30 336.27 464.20 Z" />
</g>
</svg>
