<?xml version="1.0" encoding="UTF-8" ?>
<!DOCTYPE svg PUBLIC "-//W3C//DTD SVG 1.1//EN" "http://www.w3.org/Graphics/SVG/1.1/DTD/svg11.dtd">
<svg width="966pt" height="966pt" viewBox="0 0 966 966" version="1.1" xmlns="http://www.w3.org/2000/svg">
<g id="#e3f1f4ff">
<path fill="#e3f1f4" opacity="1.00" d=" M 491.46 233.52 C 503.97 233.34 516.48 233.51 528.99 233.44 C 532.69 233.37 536.66 233.98 539.55 236.49 C 543.05 239.17 544.65 243.65 544.52 247.96 C 544.48 260.83 544.61 273.71 544.46 286.58 C 544.34 293.20 538.62 299.08 532.00 299.29 C 520.02 299.52 508.02 299.30 496.04 299.39 C 492.18 299.42 487.99 299.48 484.68 297.18 C 480.57 294.64 478.39 289.76 478.62 285.00 C 478.68 272.02 478.50 259.04 478.71 246.06 C 478.85 239.37 484.82 233.66 491.46 233.52 Z" />
<path fill="#e3f1f4" opacity="1.00" d=" M 332.37 312.43 C 345.92 312.00 359.51 312.37 373.08 312.25 C 380.16 311.81 386.86 317.83 386.92 324.97 C 386.99 338.32 386.97 351.69 386.93 365.04 C 387.06 371.89 380.91 378.21 374.01 377.99 C 360.64 378.01 347.27 378.01 333.90 377.98 C 327.06 378.10 321.08 371.80 321.15 365.03 C 321.08 352.00 321.13 338.97 321.13 325.94 C 320.85 319.46 325.93 313.31 332.37 312.43 Z" />
<path fill="#e3f1f4" opacity="1.00" d=" M 410.51 312.54 C 424.33 311.87 438.23 312.43 452.09 312.25 C 459.11 311.95 465.56 317.91 465.72 324.96 C 465.82 338.34 465.80 351.72 465.73 365.09 C 465.72 371.80 459.86 378.04 453.06 377.98 C 439.70 378.02 426.34 377.99 412.97 378.00 C 406.07 378.27 399.73 371.93 400.00 365.03 C 400.00 351.68 399.98 338.32 400.01 324.97 C 399.94 319.02 404.76 313.66 410.51 312.54 Z" />
<path fill="#e3f1f4" opacity="1.00" d=" M 488.56 312.72 C 490.64 312.14 492.82 312.26 494.96 312.23 C 507.34 312.31 519.73 312.15 532.11 312.31 C 538.70 312.58 544.31 318.42 544.46 324.99 C 544.58 338.27 544.54 351.57 544.48 364.85 C 544.60 371.59 538.85 377.86 532.06 377.97 C 518.68 378.04 505.30 377.98 491.92 378.00 C 484.86 378.36 478.52 371.97 478.67 364.95 C 478.56 351.96 478.63 338.97 478.64 325.98 C 478.39 319.95 482.68 314.13 488.56 312.72 Z" />
<path fill="#e3f1f4" opacity="1.00" d=" M 682.56 346.84 C 684.29 347.02 685.84 347.85 687.30 348.77 C 712.80 362.53 732.04 388.31 736.15 417.19 C 756.56 414.07 777.94 413.68 797.75 420.29 C 806.07 422.90 813.60 427.46 820.18 433.12 C 815.27 451.86 802.32 467.74 786.29 478.26 C 767.81 490.63 745.02 495.06 723.06 493.99 C 708.28 530.59 690.37 566.38 665.25 597.06 C 644.47 622.84 619.02 644.83 590.51 661.65 C 557.18 680.84 520.35 693.89 482.43 700.22 C 445.33 706.81 407.37 707.69 369.86 704.57 C 349.26 702.46 328.71 699.06 308.87 692.99 C 289.60 687.23 270.91 678.60 255.44 665.58 C 228.91 643.43 211.89 611.74 202.38 578.91 C 193.61 548.80 190.11 517.28 191.09 485.97 C 192.55 476.60 201.55 469.32 211.01 469.66 C 348.03 469.58 485.05 469.66 622.08 469.62 C 638.37 468.93 655.29 467.58 670.14 460.22 C 655.07 437.29 653.26 407.29 662.62 381.84 C 667.33 369.18 674.89 357.87 682.56 346.84 Z" />
<path fill="#e3f1f4" opacity="1.00" d=" M 253.21 391.25 C 267.13 390.79 281.09 391.15 295.03 391.06 C 302.01 390.84 308.29 397.09 308.18 404.06 C 308.26 417.37 308.28 430.69 308.17 444.01 C 308.19 450.92 301.93 456.99 295.03 456.84 C 281.99 456.88 268.95 456.85 255.91 456.85 C 248.93 457.16 242.54 451.12 242.41 444.14 C 242.29 430.75 242.32 417.35 242.40 403.95 C 242.49 397.86 247.20 392.28 253.21 391.25 Z" />
<path fill="#e3f1f4" opacity="1.00" d=" M 332.19 391.22 C 344.10 390.81 356.03 391.16 367.95 391.04 C 371.60 391.15 375.46 390.56 378.91 392.07 C 383.58 394.01 386.96 398.84 386.92 403.94 C 386.98 417.33 386.98 430.71 386.92 444.09 C 386.89 450.86 380.85 456.79 374.11 456.83 C 360.68 456.87 347.26 456.89 333.84 456.82 C 326.75 456.72 320.75 450.10 321.13 443.06 C 321.14 430.01 321.07 416.96 321.16 403.91 C 321.24 397.78 326.11 392.12 332.19 391.22 Z" />
<path fill="#e3f1f4" opacity="1.00" d=" M 409.39 391.56 C 411.18 390.98 413.10 391.07 414.96 391.03 C 427.66 391.08 440.36 390.99 453.05 391.07 C 459.80 391.16 465.70 397.19 465.72 403.93 C 465.81 417.31 465.81 430.69 465.72 444.06 C 465.63 450.73 459.78 456.68 453.10 456.81 C 439.71 456.90 426.31 456.86 412.92 456.83 C 406.15 456.90 399.87 450.89 400.01 444.06 C 399.99 430.69 399.99 417.32 400.01 403.96 C 399.84 398.31 404.06 393.12 409.39 391.56 Z" />
<path fill="#e3f1f4" opacity="1.00" d=" M 487.48 391.80 C 489.85 390.86 492.45 391.06 494.96 391.03 C 507.34 391.10 519.71 390.95 532.08 391.10 C 538.84 391.30 544.53 397.45 544.49 404.17 C 544.53 417.45 544.58 430.74 544.46 444.02 C 544.40 450.63 538.73 456.53 532.12 456.80 C 519.07 456.94 506.02 456.81 492.96 456.86 C 488.06 457.15 483.03 454.72 480.56 450.42 C 478.56 447.33 478.58 443.51 478.61 439.98 C 478.68 428.00 478.53 416.02 478.67 404.04 C 478.68 398.62 482.34 393.52 487.48 391.80 Z" />
<path fill="#e3f1f4" opacity="1.00" d=" M 568.20 391.25 C 581.78 390.77 595.40 391.18 608.99 391.04 C 614.18 390.65 619.45 393.55 621.76 398.24 C 623.38 401.23 623.23 404.73 623.24 408.02 C 623.17 420.00 623.33 431.99 623.17 443.97 C 623.21 450.88 616.97 456.97 610.07 456.83 C 596.69 456.85 583.31 456.91 569.93 456.81 C 563.27 456.65 557.51 450.70 557.41 444.06 C 557.29 430.68 557.31 417.29 557.40 403.92 C 557.50 397.84 562.20 392.29 568.20 391.25 Z" />
</g>
</svg>
