<?xml version="1.0" encoding="UTF-8" ?>
<!DOCTYPE svg PUBLIC "-//W3C//DTD SVG 1.1//EN" "http://www.w3.org/Graphics/SVG/1.1/DTD/svg11.dtd">
<svg width="966pt" height="966pt" viewBox="0 0 966 966" version="1.1" xmlns="http://www.w3.org/2000/svg">
<g id="#b5c1c3ff">
<path fill="#b5c1c3" opacity="1.00" d=" M 339.50 160.94 C 340.58 159.48 342.52 160.14 344.04 159.97 C 383.98 160.04 423.92 159.98 463.86 160.00 C 463.91 234.62 463.89 309.23 463.87 383.85 C 427.58 383.87 391.28 383.78 354.99 383.88 C 352.79 383.96 350.69 383.27 348.72 382.36 C 345.28 383.36 341.72 383.87 338.15 383.92 L 337.98 383.08 C 339.65 383.04 341.32 383.02 343.00 383.00 L 343.00 381.99 C 340.22 381.63 336.86 382.94 334.50 381.10 C 332.83 380.86 330.84 381.47 329.50 380.16 C 328.15 379.90 326.55 380.27 325.51 379.16 C 324.16 378.93 322.64 379.19 321.51 378.25 C 320.45 378.07 319.45 377.74 318.50 377.27 C 317.45 377.08 316.46 376.75 315.51 376.28 C 314.07 375.94 312.70 375.41 311.36 374.80 C 309.30 373.20 306.62 372.95 304.34 371.80 C 302.63 370.86 301.11 369.65 299.45 368.65 C 298.93 368.43 297.90 367.99 297.38 367.77 C 287.52 361.87 278.64 354.64 270.75 346.30 C 266.09 340.22 260.95 334.41 257.30 327.59 C 256.40 325.85 255.10 324.38 254.21 322.65 C 253.67 321.21 253.06 319.77 252.07 318.57 C 252.03 318.05 251.96 316.99 251.92 316.46 C 251.29 315.54 250.74 314.58 250.27 313.58 C 249.98 313.07 249.40 312.05 249.12 311.54 C 249.06 311.03 248.94 310.00 248.88 309.49 C 248.24 308.60 247.86 307.60 247.75 306.49 C 247.25 305.54 246.91 304.54 246.75 303.49 C 245.80 302.36 246.06 300.83 245.84 299.49 C 244.71 298.45 245.09 296.83 244.85 295.49 C 243.50 294.16 244.14 292.15 243.90 290.49 C 242.06 288.31 243.38 285.11 242.95 282.51 C 241.51 281.43 242.12 279.53 241.97 278.03 C 242.16 272.51 241.71 266.94 242.17 261.45 L 242.95 260.50 C 243.37 257.89 242.07 254.70 243.90 252.51 C 244.16 250.84 243.47 248.78 244.90 247.50 C 245.09 245.83 244.61 243.93 245.75 242.51 C 245.91 241.45 246.25 240.45 246.74 239.51 C 246.91 238.45 247.25 237.45 247.74 236.51 C 247.85 235.39 248.23 234.39 248.89 233.51 C 248.94 232.99 249.03 231.95 249.07 231.43 C 250.31 230.04 250.92 228.24 251.22 226.44 C 251.48 225.93 252.00 224.92 252.27 224.41 C 253.03 223.12 253.64 221.75 254.24 220.38 C 255.38 217.92 256.86 215.69 258.29 213.41 C 260.93 208.23 265.05 204.04 268.25 199.23 C 273.91 193.95 278.82 187.74 285.19 183.33 C 288.84 179.91 293.42 177.54 297.55 174.69 C 298.51 174.24 299.47 173.76 300.41 173.27 C 300.90 173.02 301.89 172.52 302.38 172.27 C 303.75 171.65 305.11 171.01 306.41 170.26 C 306.90 170.01 307.89 169.52 308.39 169.28 C 309.46 168.76 310.53 168.23 311.59 167.68 C 312.52 167.23 313.49 166.92 314.51 166.74 C 315.45 166.24 316.45 165.91 317.51 165.74 C 318.45 165.24 319.45 164.91 320.51 164.75 C 321.64 163.80 323.16 164.05 324.51 163.84 C 325.55 162.71 327.17 163.10 328.52 162.85 C 329.54 161.70 331.17 162.10 332.52 161.85 C 334.44 160.22 337.20 161.28 339.50 160.94 Z" />
<path fill="#b5c1c3" opacity="1.00" d=" M 557.69 382.74 C 567.24 381.25 576.90 382.89 586.49 382.03 C 587.97 383.99 590.98 382.01 592.49 383.93 C 594.47 384.20 596.85 383.36 598.50 384.84 C 599.83 385.08 601.44 384.72 602.49 385.84 C 603.83 386.05 605.35 385.82 606.50 386.74 C 607.54 386.91 608.54 387.24 609.49 387.74 C 610.59 387.86 611.60 388.24 612.50 388.88 C 613.01 388.93 614.04 389.04 614.55 389.09 C 615.05 389.41 616.04 390.05 616.54 390.37 C 617.51 390.74 618.52 391.02 619.55 391.22 C 620.06 391.48 621.08 392.00 621.58 392.26 C 622.87 393.02 624.24 393.63 625.62 394.24 C 628.07 395.37 630.30 396.86 632.59 398.29 C 638.38 401.66 644.04 405.47 648.79 410.22 C 652.19 412.00 654.46 415.19 657.27 417.72 C 661.36 423.30 666.55 428.13 669.70 434.41 C 671.10 436.71 672.70 438.88 673.68 441.42 C 675.69 443.77 676.22 446.79 677.73 449.41 C 677.99 449.90 678.50 450.88 678.76 451.37 C 679.41 452.69 679.95 454.07 680.27 455.52 C 680.75 456.46 681.08 457.45 681.26 458.51 C 681.75 459.45 682.08 460.45 682.25 461.52 C 683.19 462.63 682.93 464.16 683.16 465.51 C 684.28 466.55 683.90 468.16 684.16 469.51 C 685.50 470.83 684.84 472.84 685.10 474.51 C 686.92 476.69 685.62 479.88 686.05 482.50 C 687.51 483.57 686.85 485.50 687.03 487.01 C 686.83 493.18 687.28 499.40 686.83 505.55 L 686.06 506.49 C 685.69 508.78 686.82 511.61 685.10 513.49 C 684.84 515.15 685.50 517.16 684.15 518.49 C 683.89 519.82 684.28 521.44 683.15 522.49 C 682.93 523.82 683.20 525.36 682.24 526.49 C 682.14 527.60 681.76 528.60 681.11 529.49 C 681.06 530.00 680.96 531.03 680.91 531.55 C 680.59 532.05 679.95 533.05 679.63 533.55 C 679.23 534.51 678.95 535.52 678.78 536.56 C 678.51 537.06 677.98 538.07 677.71 538.57 C 677.46 539.08 676.97 540.08 676.72 540.58 C 676.47 541.08 675.97 542.08 675.71 542.58 C 675.47 543.08 674.99 544.09 674.74 544.59 C 673.97 545.88 673.31 547.24 672.78 548.64 C 668.49 555.28 664.40 562.21 658.78 567.79 C 655.59 573.52 649.66 576.68 645.22 581.22 C 639.69 584.97 634.46 589.37 628.39 592.23 C 627.46 592.74 626.54 593.25 625.62 593.77 C 624.23 594.34 622.87 594.98 621.58 595.73 C 621.07 595.99 620.06 596.52 619.55 596.78 C 618.51 596.95 617.51 597.23 616.55 597.63 C 616.05 597.95 615.05 598.59 614.55 598.91 C 614.04 598.96 613.01 599.07 612.49 599.12 C 611.60 599.75 610.60 600.13 609.49 600.26 C 608.54 600.74 607.54 601.07 606.49 601.25 C 605.35 602.19 603.83 601.94 602.49 602.16 C 601.16 603.48 599.15 602.85 597.50 603.10 C 596.22 604.53 594.15 603.83 592.50 604.10 C 589.33 606.12 585.09 604.45 581.50 605.06 C 579.82 606.81 577.13 605.71 575.01 606.03 C 572.88 605.70 570.16 606.82 568.51 605.05 C 565.24 604.48 561.30 606.09 558.50 604.07 C 556.52 603.78 554.13 604.65 552.51 603.15 C 551.16 602.90 549.55 603.27 548.51 602.16 C 547.15 601.94 545.64 602.18 544.51 601.26 C 543.44 601.09 542.44 600.76 541.52 600.25 C 540.39 600.13 539.39 599.76 538.51 599.11 C 538.00 599.06 536.97 598.96 536.45 598.91 C 535.95 598.59 534.96 597.95 534.46 597.63 C 533.47 597.24 532.47 596.96 531.44 596.78 C 530.94 596.51 529.93 595.97 529.43 595.70 C 528.92 595.46 527.91 594.98 527.41 594.74 C 525.43 593.67 523.42 592.65 521.36 591.77 C 510.88 585.47 501.09 578.24 492.74 569.29 C 488.25 563.47 483.42 557.86 479.71 551.43 C 478.85 549.31 477.20 547.68 476.22 545.64 C 475.67 544.24 475.02 542.88 474.27 541.58 C 474.01 541.08 473.48 540.06 473.22 539.55 C 473.03 538.52 472.75 537.51 472.37 536.55 C 472.05 536.05 471.41 535.05 471.10 534.55 C 471.04 534.04 470.94 533.01 470.88 532.49 C 470.23 531.60 469.86 530.60 469.74 529.49 C 469.25 528.54 468.91 527.54 468.74 526.49 C 468.24 525.54 467.90 524.54 467.74 523.49 C 466.81 522.35 467.05 520.82 466.85 519.48 C 465.16 517.86 466.82 515.12 465.21 513.46 C 465.14 500.57 465.05 487.67 465.12 474.77 C 466.01 473.20 466.01 471.37 466.23 469.64 C 466.79 467.92 467.17 466.15 467.69 464.42 C 468.00 463.40 468.34 462.40 468.68 461.40 C 469.03 460.38 469.40 459.38 469.80 458.39 C 469.90 457.95 470.12 457.06 470.23 456.62 C 470.58 455.56 470.91 454.50 471.22 453.43 C 471.78 452.44 472.34 451.45 472.92 450.47 C 472.96 449.99 473.04 449.02 473.09 448.54 C 473.90 447.21 474.60 445.83 475.26 444.42 C 476.46 441.64 478.27 439.21 479.73 436.57 C 480.52 435.12 481.47 433.77 482.38 432.40 C 483.04 431.39 483.69 430.39 484.33 429.38 C 485.45 428.13 486.57 426.86 487.31 425.34 C 488.75 423.76 490.44 422.32 491.30 420.31 C 495.39 416.44 498.83 411.68 503.64 408.70 C 504.89 407.58 506.09 406.41 507.33 405.27 C 508.93 404.62 510.18 403.43 511.42 402.26 C 513.08 401.24 514.72 400.18 516.45 399.27 C 518.70 397.78 521.02 396.39 523.46 395.23 C 523.96 395.00 524.95 394.52 525.45 394.29 C 525.92 394.04 526.87 393.54 527.34 393.29 C 528.73 392.64 530.11 391.97 531.47 391.27 C 531.98 390.98 532.99 390.40 533.50 390.12 C 533.98 390.04 534.94 389.89 535.42 389.81 C 536.40 389.41 537.39 389.03 538.39 388.67 C 539.39 388.33 540.40 388.02 541.42 387.71 C 542.41 387.34 543.41 386.98 544.42 386.63 C 545.72 386.26 547.04 385.96 548.38 385.68 C 549.69 385.30 551.02 384.98 552.36 384.66 C 554.65 383.72 557.17 384.05 559.59 383.88 C 559.12 383.59 558.17 383.02 557.69 382.74 Z" />
<path fill="#b5c1c3" opacity="1.00" d=" M 343.63 605.10 C 384.08 604.94 424.54 604.89 464.98 605.10 C 464.95 634.74 464.98 664.39 464.97 694.03 C 464.77 706.14 465.39 718.28 464.60 730.37 C 463.67 732.64 464.17 735.22 463.21 737.49 C 462.96 739.15 462.81 740.86 462.26 742.47 C 461.94 743.79 461.66 745.14 461.28 746.47 C 460.95 747.46 460.61 748.46 460.26 749.46 C 459.94 750.45 459.62 751.45 459.27 752.44 C 458.95 753.43 458.61 754.43 458.27 755.43 C 457.62 757.56 456.69 759.59 455.67 761.57 C 454.51 765.14 452.67 768.38 450.71 771.56 C 449.81 773.29 448.59 774.84 447.68 776.57 C 444.46 781.58 440.94 786.49 436.78 790.77 C 434.37 794.29 431.31 797.36 427.78 799.76 C 422.16 805.33 415.59 810.01 408.56 813.64 C 405.06 815.86 401.45 818.04 397.44 819.21 C 395.86 820.09 394.16 820.75 392.43 821.28 C 391.44 821.62 390.45 821.95 389.46 822.28 C 388.46 822.61 387.47 822.94 386.47 823.26 C 385.47 823.61 384.47 823.95 383.48 824.29 C 382.15 824.65 380.79 824.93 379.46 825.26 C 377.85 825.82 376.14 825.95 374.47 826.20 C 371.95 827.50 368.89 826.29 366.42 827.70 C 357.81 828.10 349.15 828.19 340.55 827.64 C 335.31 826.33 329.59 826.48 324.56 824.19 C 322.16 823.85 319.83 823.14 317.60 822.22 C 315.85 821.75 314.14 821.13 312.57 820.24 C 309.38 819.41 306.54 817.69 303.61 816.24 C 300.72 815.02 298.10 813.31 295.43 811.69 C 290.13 808.82 285.53 804.91 280.80 801.23 C 274.86 795.20 268.36 789.62 263.71 782.48 C 261.48 779.62 259.27 776.70 257.75 773.39 C 256.02 771.29 254.97 768.77 253.78 766.37 C 252.59 764.14 251.38 761.89 250.78 759.43 C 249.37 756.93 248.60 754.16 247.74 751.45 C 247.38 750.45 247.03 749.46 246.70 748.47 C 246.23 747.17 246.02 745.81 245.77 744.49 C 245.15 743.23 245.02 741.83 244.76 740.50 C 243.97 738.53 244.19 736.32 243.33 734.39 C 243.07 732.09 243.02 729.78 242.88 727.49 C 241.95 725.82 242.17 723.86 242.09 722.04 C 242.11 716.88 241.92 711.72 242.36 706.59 C 243.68 703.74 242.51 700.41 243.79 697.54 C 244.02 695.84 244.18 694.13 244.74 692.51 C 245.03 691.16 245.29 689.82 245.76 688.54 C 246.19 686.14 246.87 683.80 247.78 681.55 C 248.08 680.54 248.40 679.55 248.74 678.57 C 249.49 676.13 250.54 673.80 251.79 671.59 C 252.58 668.21 254.56 665.35 256.34 662.45 C 265.02 646.26 278.14 632.58 293.60 622.72 C 294.81 621.82 296.09 621.03 297.43 620.33 C 301.00 618.21 304.53 615.85 308.60 614.79 C 313.86 611.93 319.71 610.23 325.50 608.76 C 326.81 608.31 328.17 608.02 329.53 607.73 C 333.62 606.75 337.76 605.92 341.98 605.95 C 342.40 605.74 343.22 605.31 343.63 605.10 Z" />
</g>
<g id="#e3f1f4ff">
<path fill="#e3f1f4" opacity="1.00" d=" M 463.86 160.00 C 494.92 160.00 525.98 160.00 557.03 160.00 C 567.83 160.15 578.64 159.64 589.42 160.38 C 594.69 161.63 600.36 161.60 605.44 163.79 C 606.77 164.05 608.14 164.29 609.44 164.75 C 612.11 165.71 614.91 166.37 617.41 167.76 C 619.87 168.38 622.11 169.60 624.37 170.74 C 624.87 170.99 625.86 171.49 626.36 171.74 C 648.11 182.46 665.93 200.74 676.67 222.44 C 677.64 224.43 678.68 226.43 679.22 228.60 C 680.10 230.17 680.76 231.85 681.26 233.58 C 681.61 234.56 681.94 235.54 682.25 236.54 C 682.61 237.53 682.95 238.53 683.29 239.53 C 683.73 240.83 683.96 242.17 684.24 243.52 C 684.78 244.79 684.96 246.17 685.23 247.53 C 685.91 249.10 685.94 250.83 686.19 252.51 C 687.56 255.40 686.25 258.80 687.67 261.65 C 688.00 268.22 688.03 274.82 687.62 281.39 C 686.49 285.98 686.74 290.89 685.25 295.46 C 684.95 296.80 684.69 298.16 684.24 299.46 C 682.92 304.96 681.17 310.43 678.68 315.52 C 677.43 319.06 675.77 322.41 673.66 325.52 C 664.99 341.73 651.85 355.41 636.38 365.28 C 635.16 366.18 633.87 366.97 632.54 367.66 C 628.98 369.79 625.43 372.12 621.39 373.21 C 620.89 373.47 619.88 373.99 619.37 374.24 C 614.61 376.39 609.57 378.02 604.49 379.23 C 603.17 379.69 601.80 379.94 600.46 380.25 C 595.89 381.38 591.22 382.22 586.49 382.03 C 576.90 382.89 567.24 381.25 557.69 382.74 C 526.80 383.13 495.90 382.73 465.00 382.94 C 465.08 413.55 464.84 444.16 465.12 474.77 C 465.05 487.67 465.14 500.57 465.21 513.46 C 464.72 543.99 465.16 574.56 464.98 605.10 C 424.54 604.89 384.08 604.94 343.63 605.10 C 341.61 604.96 339.59 604.85 337.59 604.63 C 335.70 603.73 333.57 603.90 331.56 603.61 C 330.26 603.11 328.90 602.86 327.55 602.57 C 325.23 601.87 322.85 601.38 320.55 600.62 C 319.56 600.24 318.56 599.90 317.55 599.60 C 315.53 598.90 313.45 598.29 311.60 597.20 C 309.12 596.61 306.87 595.41 304.65 594.21 C 304.15 593.97 303.14 593.48 302.64 593.24 C 300.44 592.28 298.49 590.89 296.44 589.68 C 290.24 586.02 284.26 581.87 279.19 576.75 C 274.22 573.75 271.32 568.64 267.27 564.69 C 263.15 559.09 258.83 553.63 255.74 547.36 C 255.49 546.86 255.00 545.87 254.75 545.37 C 254.50 544.87 254.00 543.87 253.75 543.36 C 253.50 542.86 253.00 541.85 252.76 541.34 C 251.55 539.12 250.40 536.85 249.77 534.40 C 248.27 531.61 247.32 528.55 246.78 525.45 C 246.39 524.46 246.04 523.46 245.72 522.47 C 245.33 521.15 245.05 519.79 244.77 518.46 C 244.03 516.55 244.07 514.49 243.85 512.49 C 242.58 510.03 243.22 507.14 242.89 504.49 C 241.90 502.83 242.21 500.84 242.11 499.00 C 242.12 493.87 241.96 488.72 242.36 483.60 C 243.50 481.09 242.93 478.24 243.37 475.59 C 244.10 474.02 244.13 472.26 244.41 470.59 C 244.94 468.92 245.25 467.21 245.73 465.54 C 246.05 464.53 246.40 463.54 246.78 462.57 C 247.32 459.45 248.25 456.37 249.81 453.60 C 250.39 451.12 251.57 448.86 252.76 446.64 C 253.99 443.92 255.47 441.32 256.75 438.62 C 260.86 432.21 264.91 425.66 270.24 420.19 C 272.66 416.70 275.68 413.63 279.19 411.24 C 284.28 406.14 290.25 401.95 296.46 398.31 C 299.12 396.67 301.78 395.02 304.65 393.77 C 306.90 392.63 309.12 391.38 311.59 390.78 C 315.34 388.73 319.64 388.02 323.55 386.35 C 324.54 386.18 325.53 386.00 326.53 385.83 C 328.09 385.08 329.85 385.06 331.53 384.81 C 333.57 383.73 335.93 384.07 338.15 383.92 C 341.72 383.87 345.28 383.36 348.72 382.36 C 350.69 383.27 352.79 383.96 354.99 383.88 C 391.28 383.78 427.58 383.87 463.87 383.85 C 463.89 309.23 463.91 234.62 463.86 160.00 Z" />
</g>
</svg>
