<?xml version="1.0" encoding="UTF-8" ?>
<!DOCTYPE svg PUBLIC "-//W3C//DTD SVG 1.1//EN" "http://www.w3.org/Graphics/SVG/1.1/DTD/svg11.dtd">
<svg width="966pt" height="966pt" viewBox="0 0 966 966" version="1.1" xmlns="http://www.w3.org/2000/svg">
<g id="#e3f1f4ff">
<path fill="#e3f1f4" opacity="1.00" d=" M 336.86 274.02 C 434.57 273.99 532.29 274.03 630.00 274.00 C 630.00 323.06 630.00 372.12 630.00 421.17 C 601.34 421.19 572.68 421.18 544.02 421.18 C 524.01 421.32 503.99 420.89 484.00 421.40 C 485.19 423.36 486.98 424.84 488.58 426.46 C 534.55 472.48 580.51 518.53 626.50 564.54 C 627.51 565.69 629.12 566.60 629.15 568.34 C 580.46 568.42 531.76 568.41 483.06 568.35 C 482.90 617.32 483.07 666.30 482.97 715.27 C 433.78 666.59 385.10 617.38 336.02 568.58 C 335.97 519.39 336.02 470.20 335.99 421.01 C 384.79 420.99 433.60 421.06 482.40 420.97 C 434.30 372.29 385.60 324.17 337.35 275.63 C 337.23 275.23 336.98 274.42 336.86 274.02 Z" />
</g>
</svg>
