<?xml version="1.0" encoding="UTF-8" ?>
<!DOCTYPE svg PUBLIC "-//W3C//DTD SVG 1.1//EN" "http://www.w3.org/Graphics/SVG/1.1/DTD/svg11.dtd">
<svg width="966pt" height="966pt" viewBox="0 0 966 966" version="1.1" xmlns="http://www.w3.org/2000/svg">
<g id="#e3f1f4ff">
<path fill="#e3f1f4" opacity="1.00" d=" M 204.03 165.00 C 390.01 165.00 575.99 165.00 761.97 165.00 C 761.73 168.98 761.51 172.97 761.50 176.96 C 761.55 180.09 759.34 182.72 759.25 185.82 C 759.11 189.84 759.25 193.87 758.76 197.87 C 758.13 203.26 759.12 208.86 757.22 214.06 C 755.93 218.89 757.06 224.05 755.84 228.94 C 755.29 234.11 756.83 239.63 754.55 244.51 C 753.55 247.12 754.42 250.02 753.67 252.69 C 752.07 259.24 754.72 266.39 751.72 272.64 C 751.54 277.78 750.26 282.81 750.60 287.99 C 750.40 292.69 751.06 297.46 750.14 302.11 C 746.59 310.98 748.72 320.64 747.86 329.88 C 747.35 331.63 746.58 333.29 745.90 334.98 C 744.95 342.29 745.69 349.69 745.38 357.04 C 744.76 360.13 743.82 363.16 743.52 366.31 C 741.37 376.18 745.15 386.95 740.50 396.33 C 739.65 406.08 741.53 416.33 737.82 425.68 C 737.89 433.12 737.31 440.53 737.15 447.97 C 736.67 451.65 735.26 455.19 735.16 458.92 C 735.27 466.36 733.91 473.71 734.30 481.15 C 732.28 485.30 732.68 489.84 732.22 494.31 C 730.72 500.67 733.24 507.56 730.34 513.62 C 729.82 516.08 730.24 518.65 729.79 521.13 C 728.10 528.25 730.35 535.76 728.17 542.80 C 725.43 552.20 727.06 562.07 726.50 571.71 C 726.06 572.74 725.46 573.71 724.91 574.70 C 724.87 575.15 724.80 576.05 724.77 576.50 C 723.38 582.54 724.25 588.88 724.03 595.05 C 724.36 598.83 722.23 602.21 722.01 605.94 C 720.81 612.86 721.66 619.98 721.44 626.98 C 721.91 631.54 718.78 635.48 718.86 640.00 C 718.88 646.51 718.89 653.03 718.42 659.53 C 718.17 661.65 717.30 663.61 716.38 665.52 C 716.37 673.02 716.05 680.53 716.03 688.01 C 715.26 691.32 714.02 694.56 713.77 697.97 C 713.74 705.77 713.08 713.54 712.85 721.33 C 712.82 723.22 711.76 724.89 711.27 726.68 C 710.92 729.91 711.28 733.18 711.05 736.42 C 710.60 738.14 708.51 737.58 707.22 737.82 C 706.83 738.22 706.06 739.00 705.67 739.39 C 703.09 739.97 700.47 740.37 697.83 740.34 C 695.10 742.92 691.34 743.02 687.82 742.94 C 685.40 745.25 682.22 745.82 678.99 745.45 C 677.86 746.31 676.73 747.16 675.61 748.03 C 673.65 748.03 671.70 748.03 669.76 748.04 C 667.12 749.90 664.18 751.15 660.88 750.66 C 656.64 753.70 650.86 752.29 646.88 755.66 C 641.15 755.08 636.47 759.04 630.84 759.23 C 627.63 760.91 624.09 761.67 620.48 761.90 C 619.09 762.74 617.67 763.53 616.24 764.30 C 614.35 764.27 612.48 764.28 610.62 764.32 C 608.22 766.52 605.01 767.24 601.84 766.91 C 600.64 767.74 599.45 768.58 598.28 769.44 C 596.37 769.43 594.47 769.44 592.58 769.47 C 588.94 772.91 583.63 771.18 579.68 773.93 C 577.20 775.30 574.03 773.85 571.72 775.75 C 569.25 777.77 565.86 776.71 563.17 778.21 C 560.07 780.07 556.40 780.05 552.96 780.76 C 550.53 783.31 546.81 782.70 543.66 783.28 C 540.99 785.47 537.45 785.73 534.15 785.89 C 532.27 787.89 529.57 788.52 526.91 788.30 C 523.56 787.90 521.40 791.63 517.95 790.91 C 515.68 790.53 514.03 792.13 512.47 793.48 C 510.24 793.45 508.02 793.45 505.81 793.48 C 503.67 796.01 500.54 796.23 497.46 796.20 C 493.94 797.53 490.65 799.45 486.70 798.66 C 485.37 799.51 484.05 800.40 482.68 801.19 C 480.90 799.49 478.50 798.40 476.01 798.64 C 472.32 799.29 469.65 795.84 466.02 796.08 C 463.42 796.40 461.19 795.08 459.29 793.49 C 457.37 793.45 455.45 793.45 453.54 793.50 C 452.26 792.65 451.00 791.81 449.74 790.95 C 446.35 791.38 443.21 790.22 440.42 788.39 C 437.06 788.55 433.68 788.03 431.01 785.85 C 427.73 785.56 424.06 785.93 421.44 783.59 C 418.50 782.54 414.98 782.99 412.47 780.79 C 409.86 780.26 407.22 779.94 404.61 779.50 C 400.69 776.50 395.29 777.76 391.40 774.63 C 389.66 774.60 387.93 774.60 386.21 774.59 C 384.33 773.33 382.44 771.70 380.01 772.06 C 377.17 772.43 374.82 770.78 372.51 769.42 C 370.90 769.43 369.29 769.43 367.69 769.47 C 366.45 768.63 365.22 767.79 364.00 766.94 C 358.75 768.13 354.80 763.36 349.66 764.29 C 348.09 763.65 346.57 762.87 345.19 761.89 C 342.37 761.46 339.31 761.63 336.77 760.20 C 334.19 758.61 331.05 758.68 328.18 758.17 C 327.77 757.81 326.97 757.09 326.57 756.72 C 323.33 755.96 319.74 756.26 316.85 754.43 C 314.70 753.27 312.25 753.06 309.86 753.06 C 308.25 752.25 306.63 751.47 305.03 750.65 C 302.60 750.69 300.06 750.83 298.10 749.15 C 295.24 746.84 291.02 749.32 288.34 746.59 C 286.58 744.86 284.03 745.54 281.84 745.39 C 278.83 742.91 275.04 742.89 271.42 742.36 C 268.23 739.87 264.21 740.18 260.41 739.65 C 259.71 739.04 259.02 738.44 258.33 737.85 C 257.17 737.47 255.11 738.16 254.96 736.42 C 254.68 732.19 255.49 727.79 253.42 723.89 C 252.50 714.94 252.62 705.85 251.99 696.88 C 248.70 687.00 250.11 676.54 249.60 666.33 C 246.23 662.25 247.81 656.86 247.18 652.05 C 246.72 646.50 248.12 640.67 245.96 635.38 C 242.78 625.38 246.20 614.63 243.47 604.53 C 240.24 595.21 243.43 585.14 241.01 575.68 C 240.48 574.32 239.70 573.02 239.48 571.58 C 239.02 562.46 240.40 553.16 237.99 544.23 C 235.54 537.10 237.88 529.42 236.27 522.16 C 235.60 518.99 236.53 515.54 234.95 512.59 C 233.62 509.57 234.48 506.17 234.26 502.99 C 234.62 497.94 233.06 493.04 233.41 487.99 C 233.62 486.15 232.53 484.62 231.78 483.06 C 232.03 474.98 230.74 466.99 230.81 458.93 C 230.29 454.29 228.55 449.79 228.74 445.07 C 228.42 438.59 228.16 432.11 228.19 425.62 C 224.47 417.60 226.17 408.48 225.71 399.95 C 226.09 396.67 223.79 393.98 223.46 390.82 C 222.74 383.87 223.38 376.87 223.05 369.90 C 222.46 365.57 221.60 361.28 220.62 357.02 C 220.32 349.96 221.00 342.85 220.15 335.82 C 219.44 334.22 218.61 332.66 218.10 330.98 C 217.42 322.57 218.89 313.98 217.01 305.69 C 213.51 297.53 216.73 288.38 214.85 279.91 C 214.28 277.52 214.88 274.96 214.02 272.63 C 211.38 265.69 214.02 258.06 212.14 250.96 C 212.08 247.68 211.79 244.46 210.39 241.45 C 209.93 236.35 210.66 231.17 209.74 226.10 C 209.04 222.11 209.98 217.95 208.78 214.06 C 207.02 209.19 207.77 203.97 207.30 198.92 C 206.78 193.79 206.76 188.64 206.69 183.49 C 206.16 182.45 205.60 181.41 205.02 180.39 C 204.05 175.33 204.57 170.12 204.03 165.00 M 306.58 280.61 C 305.89 281.36 305.21 282.11 304.54 282.86 C 307.74 292.24 307.12 302.27 307.23 312.03 C 306.86 316.61 310.41 320.44 309.80 325.04 C 310.14 332.05 308.83 339.29 310.84 346.11 C 311.55 348.01 312.42 349.92 312.31 352.00 C 312.41 362.09 311.52 372.41 314.66 382.17 C 315.39 388.13 314.41 394.21 315.17 400.19 C 315.73 402.38 315.85 404.64 315.83 406.90 C 316.23 407.47 317.04 408.60 317.44 409.17 C 317.74 415.38 316.85 421.70 318.17 427.83 C 318.59 430.71 317.88 433.73 318.72 436.55 C 321.35 442.01 319.33 448.23 320.35 454.02 C 321.34 459.68 319.96 465.71 322.44 471.09 C 323.04 478.67 323.70 486.27 323.48 493.90 C 324.39 494.56 325.31 495.21 326.23 495.88 C 406.60 495.87 486.97 495.86 567.34 495.88 C 565.66 501.79 566.31 507.96 566.19 514.02 C 566.58 519.81 563.85 525.22 563.66 530.98 C 563.43 537.54 563.96 544.16 563.42 550.69 C 559.35 559.19 561.83 568.83 560.91 577.88 C 560.34 580.24 559.29 582.49 559.16 584.95 C 554.27 584.42 550.56 589.00 545.53 587.63 C 544.06 588.44 542.61 589.25 541.19 590.13 C 537.88 589.85 534.52 590.59 531.92 592.72 C 528.47 592.49 525.03 593.17 522.17 595.19 C 519.59 595.32 517.08 595.87 514.55 596.34 C 511.70 598.30 508.17 598.51 504.85 598.91 C 504.44 599.29 503.63 600.05 503.23 600.43 C 500.38 600.83 497.54 601.29 494.67 601.49 C 492.09 604.42 488.06 603.68 484.66 604.59 C 482.05 605.33 479.52 603.87 476.91 603.93 C 474.50 603.94 472.35 602.78 470.42 601.47 C 467.83 601.28 465.29 600.82 462.73 600.44 C 462.33 600.06 461.53 599.29 461.13 598.90 C 455.04 599.19 449.96 595.27 443.95 595.17 C 441.38 594.01 438.84 592.48 435.90 592.77 C 432.72 592.87 430.36 589.78 427.10 590.21 C 424.37 590.63 422.22 588.91 419.94 587.80 C 416.52 587.81 413.02 587.49 410.34 585.11 C 408.54 585.07 406.74 585.05 404.94 585.05 C 404.90 577.33 405.05 569.61 404.79 561.90 C 404.69 558.73 401.97 556.25 402.35 553.02 C 402.40 546.19 402.31 539.36 402.39 532.53 C 401.59 529.96 399.29 528.70 397.03 527.61 C 374.91 527.66 352.79 527.71 330.68 527.58 C 329.66 528.57 328.61 529.52 327.75 530.65 C 329.69 539.37 327.67 548.42 329.22 557.17 C 329.47 558.35 329.72 559.56 330.10 560.74 C 330.58 562.09 331.29 563.45 331.18 564.95 C 331.22 571.74 331.07 578.53 331.35 585.32 C 336.62 595.46 331.60 607.35 334.97 617.96 C 335.41 619.66 335.66 621.41 336.22 623.10 C 336.41 628.27 336.31 633.44 336.31 638.61 C 337.11 640.01 338.09 641.32 339.23 642.49 C 344.99 642.77 349.99 646.23 355.83 646.11 C 358.21 648.39 361.45 648.65 364.59 648.68 C 367.58 650.25 370.67 651.67 374.18 651.14 C 376.70 653.39 379.88 654.14 383.21 653.74 C 385.88 655.99 389.23 656.32 392.55 656.53 C 395.64 658.19 398.85 659.51 402.46 658.77 C 403.73 659.57 404.99 660.41 406.24 661.28 C 409.74 661.16 412.97 662.43 416.10 663.80 C 421.53 663.99 426.06 667.33 431.50 667.57 C 435.03 670.26 439.87 669.08 443.56 671.31 C 446.06 672.71 448.94 672.60 451.71 672.60 C 453.14 673.93 454.77 675.36 456.91 675.08 C 460.57 674.66 463.28 678.12 466.94 677.70 C 469.42 677.28 471.60 678.40 473.27 680.18 C 476.52 680.13 480.17 680.09 482.57 682.67 C 484.87 680.06 488.26 679.95 491.49 680.27 C 492.88 679.41 494.28 678.56 495.68 677.72 C 499.45 678.35 502.83 676.79 506.14 675.27 C 509.10 675.29 512.07 674.93 514.19 672.63 C 516.28 672.55 518.41 672.56 520.48 672.14 C 524.12 669.34 529.06 670.40 532.78 667.77 C 536.02 666.82 539.69 667.16 542.61 665.22 C 545.28 663.92 548.48 664.46 551.11 663.02 C 553.74 661.68 556.73 661.41 559.64 661.28 C 561.35 659.60 563.60 658.52 566.06 658.82 C 569.30 659.18 571.64 656.01 574.89 656.26 C 576.62 656.30 578.38 656.15 579.77 655.00 C 581.98 652.90 585.14 653.90 587.88 653.65 C 589.08 652.76 590.30 651.91 591.54 651.08 C 594.70 651.55 597.77 650.95 600.05 648.59 C 603.64 648.98 607.05 648.08 610.12 646.22 C 615.01 645.84 619.34 643.34 624.20 642.90 C 627.30 642.24 629.28 639.15 629.55 636.13 C 629.83 630.37 629.52 624.60 629.74 618.84 C 630.36 614.88 631.65 611.05 632.16 607.08 C 632.29 601.02 632.18 594.96 632.21 588.90 C 632.13 585.66 633.67 582.73 634.63 579.73 C 635.05 572.79 634.67 565.83 634.86 558.89 C 635.21 556.54 636.50 554.45 636.76 552.07 C 638.63 542.26 635.58 531.84 639.22 522.30 C 640.63 518.07 639.49 513.53 640.15 509.18 C 640.81 504.39 640.22 499.49 641.00 494.75 C 644.19 488.33 641.40 480.86 643.11 474.06 C 643.27 471.56 643.04 469.01 643.60 466.57 C 645.94 461.40 644.62 455.59 645.61 450.15 C 646.63 444.25 644.81 438.03 647.06 432.35 C 648.05 429.76 647.61 426.94 647.74 424.25 C 646.98 423.52 646.24 422.80 645.50 422.09 C 560.79 422.13 476.08 422.07 391.37 422.12 C 390.86 417.40 391.83 412.55 390.60 407.93 C 388.56 403.41 389.81 398.35 389.10 393.60 C 388.38 389.13 388.94 384.59 388.49 380.12 C 384.69 371.79 386.67 362.38 386.02 353.53 C 474.52 353.49 563.03 353.49 651.53 353.54 C 652.24 352.83 652.95 352.13 653.68 351.43 C 653.05 346.47 654.95 341.85 656.14 337.15 C 656.40 330.44 656.05 323.72 656.30 317.01 C 656.99 314.37 658.75 312.00 658.72 309.18 C 659.08 301.33 658.26 293.40 659.88 285.65 C 661.21 283.65 660.19 281.81 658.51 280.47 C 612.00 280.06 565.47 280.41 518.95 280.29 C 449.63 280.29 380.30 280.29 310.98 280.29 C 309.50 280.30 308.04 280.46 306.58 280.61 Z" />
</g>
</svg>
