<?xml version="1.0" encoding="UTF-8" ?>
<!DOCTYPE svg PUBLIC "-//W3C//DTD SVG 1.1//EN" "http://www.w3.org/Graphics/SVG/1.1/DTD/svg11.dtd">
<svg width="966pt" height="966pt" viewBox="0 0 966 966" version="1.1" xmlns="http://www.w3.org/2000/svg">
<g id="#e3f1f4ff">
<path fill="#e3f1f4" opacity="1.00" d=" M 336.02 275.25 C 336.11 271.70 337.76 266.92 341.99 266.86 C 371.91 266.86 401.82 266.82 431.74 266.88 C 433.90 269.31 436.23 271.79 435.92 275.29 C 437.87 278.06 437.44 281.60 439.52 284.33 C 439.48 286.56 439.83 288.67 441.77 290.07 C 440.73 294.11 445.08 296.48 444.44 300.48 C 445.85 302.18 446.46 304.20 446.61 306.39 C 448.47 309.01 448.03 312.36 449.72 315.05 C 449.94 316.97 449.41 319.09 450.49 320.83 C 452.19 323.47 451.69 326.88 453.86 329.31 C 454.01 331.85 454.99 334.06 456.27 336.20 C 456.05 338.63 456.98 340.61 459.01 342.00 C 458.50 342.81 457.99 343.63 457.48 344.44 C 458.51 345.44 459.53 346.46 460.57 347.46 C 459.62 351.12 462.74 353.77 462.64 357.36 C 464.57 359.77 463.80 363.12 465.80 365.46 C 466.76 367.08 465.80 369.32 467.30 370.74 C 469.28 372.73 468.28 375.67 468.36 378.16 C 468.97 378.63 470.20 379.55 470.81 380.01 C 470.58 381.27 470.34 382.54 470.11 383.80 C 470.98 384.64 471.86 385.48 472.76 386.32 C 471.77 388.65 472.97 390.73 474.34 392.59 C 474.21 396.00 476.94 398.52 476.71 401.95 C 479.26 404.41 477.81 408.29 480.32 410.72 C 480.50 414.42 483.02 417.24 483.27 420.93 C 485.94 423.54 484.36 427.64 487.28 430.04 C 486.56 432.09 486.47 434.32 487.83 436.14 C 489.20 437.91 488.27 440.43 489.78 442.14 C 491.34 443.81 490.53 446.35 491.73 448.19 C 493.81 450.55 492.18 454.45 495.41 456.05 C 495.05 456.98 494.69 457.91 494.34 458.84 C 495.24 459.91 496.16 460.97 497.11 462.01 C 495.82 464.50 497.71 466.50 499.14 468.38 C 499.74 472.82 501.30 477.11 503.09 481.19 C 502.98 483.45 503.69 485.43 505.49 486.88 C 505.17 489.82 505.01 492.89 507.27 495.15 C 507.30 497.45 507.60 499.79 509.79 501.06 C 508.54 503.38 509.76 505.72 511.69 507.19 C 510.65 509.59 512.03 511.62 513.34 513.54 C 513.05 516.99 516.03 519.40 515.58 522.91 C 517.94 525.16 516.87 528.64 518.97 530.99 C 520.04 532.55 519.33 534.75 520.56 536.29 C 522.34 538.17 521.39 541.05 522.97 543.03 C 524.72 545.21 522.89 548.37 524.64 550.63 C 526.00 552.59 525.43 555.20 526.82 557.17 C 528.01 558.98 527.22 561.41 528.66 563.14 C 530.04 564.91 529.20 567.46 530.79 569.14 C 532.26 570.96 531.67 573.59 533.03 575.48 C 534.97 577.93 533.52 581.60 536.64 583.36 C 536.19 584.14 535.74 584.92 535.31 585.71 C 536.27 586.88 537.31 588.02 538.16 589.29 C 538.18 591.35 538.51 593.34 539.74 595.06 C 539.97 597.40 539.45 600.01 541.00 602.03 C 542.33 603.76 541.66 606.22 543.04 607.94 C 544.71 609.90 543.54 612.90 545.45 614.76 C 546.72 616.10 546.20 617.99 546.32 619.65 C 547.22 620.43 548.12 621.23 549.02 622.03 C 548.52 622.88 548.03 623.74 547.54 624.61 C 548.57 625.65 549.57 626.73 550.60 627.80 C 549.29 631.21 552.79 633.38 552.44 636.66 C 552.59 638.56 554.46 639.92 554.29 641.94 C 554.14 644.23 556.63 645.61 556.33 647.94 C 556.08 650.00 558.00 651.27 558.50 653.12 C 558.54 654.92 558.45 656.74 558.38 658.56 C 558.94 658.94 560.06 659.71 560.63 660.10 C 559.89 662.59 560.38 665.05 562.63 666.56 C 562.37 668.21 562.11 670.04 563.46 671.33 C 565.19 672.95 563.95 675.56 565.37 677.36 C 566.92 679.59 566.37 682.49 567.75 684.82 C 541.17 684.57 514.59 684.86 488.01 684.67 C 486.91 682.16 485.19 679.92 485.34 677.04 C 482.44 674.51 484.56 669.93 480.95 668.06 C 481.36 667.08 481.78 666.11 482.19 665.15 C 481.06 664.03 479.95 662.90 478.82 661.80 C 479.16 660.59 479.50 659.39 479.84 658.19 C 479.02 657.61 478.21 657.03 477.40 656.46 C 477.84 653.92 476.87 651.75 475.60 649.65 C 475.60 647.37 474.87 645.34 473.55 643.53 C 474.09 639.87 470.24 637.67 470.86 634.03 C 471.32 630.64 467.61 628.49 468.77 624.94 C 467.96 624.20 467.14 623.46 466.34 622.74 C 466.79 621.90 467.24 621.06 467.68 620.22 C 463.92 616.71 464.19 611.20 462.32 606.73 C 460.42 604.29 461.39 600.89 459.21 598.56 C 459.19 594.86 456.24 592.31 456.46 588.57 C 453.68 586.46 454.93 583.07 454.21 580.24 C 451.56 576.97 452.78 571.11 448.83 568.92 C 406.55 568.70 364.24 568.91 321.95 568.82 C 320.07 568.70 318.27 569.27 316.50 569.81 C 317.25 571.81 318.05 574.15 317.27 576.25 C 316.31 577.30 315.29 578.31 314.29 579.33 C 314.68 580.20 315.08 581.09 315.49 581.98 C 312.33 583.84 313.51 587.84 311.39 590.37 C 309.88 592.61 311.66 595.75 309.94 597.95 C 308.49 599.84 308.94 602.42 307.65 604.40 C 306.37 606.26 307.41 608.93 305.48 610.43 C 302.94 612.27 306.86 615.40 304.55 617.35 C 302.49 619.23 303.43 622.35 301.74 624.43 C 300.17 626.14 301.27 628.77 299.71 630.49 C 297.84 632.45 299.21 635.54 297.19 637.42 C 295.62 639.52 297.43 642.61 295.68 644.69 C 293.88 646.83 295.32 650.02 293.01 651.92 C 291.67 653.00 292.81 654.52 293.02 655.85 C 292.22 656.53 291.43 657.23 290.63 657.93 C 290.72 659.88 290.79 661.85 290.93 663.81 C 287.64 667.08 286.60 671.99 286.27 676.47 C 285.63 677.27 284.97 678.06 284.28 678.83 C 284.32 681.20 284.33 683.57 284.29 685.95 C 282.23 685.43 280.21 684.55 278.05 684.71 C 254.13 684.79 230.22 684.65 206.31 684.78 C 207.39 680.67 208.50 676.57 209.71 672.52 C 211.05 670.72 212.18 668.68 211.23 666.43 C 212.13 665.60 213.01 664.75 213.88 663.90 C 212.72 661.61 213.54 659.52 215.57 658.12 C 215.49 656.20 215.44 654.29 215.35 652.39 C 217.57 651.00 217.69 648.58 217.83 646.22 C 219.05 644.43 219.71 642.45 219.88 640.30 C 221.11 638.54 221.61 636.56 221.61 634.44 C 222.93 632.34 224.37 630.22 223.45 627.63 C 225.79 626.29 226.15 623.80 225.64 621.36 C 229.60 619.52 226.23 614.68 228.93 611.98 C 230.32 610.48 229.49 608.23 230.51 606.59 C 232.20 604.18 231.81 601.03 233.52 598.60 C 232.99 594.95 236.87 592.54 235.65 588.88 C 237.54 587.39 239.27 585.47 237.98 582.99 C 240.48 581.04 239.75 577.94 239.92 575.18 C 241.37 573.16 242.41 570.97 242.45 568.44 C 243.64 566.61 244.34 564.61 244.51 562.44 C 245.71 560.53 246.42 558.43 246.57 556.18 C 248.49 553.13 247.82 549.13 250.85 546.71 C 250.46 545.82 250.06 544.95 249.67 544.07 C 250.60 543.28 251.53 542.49 252.44 541.68 C 252.36 539.72 252.31 537.75 252.25 535.80 C 253.20 534.62 254.68 533.60 254.45 531.90 C 254.03 529.22 256.64 527.56 256.60 524.99 C 256.43 523.02 258.38 521.78 258.43 519.93 C 258.16 516.85 260.76 514.58 260.54 511.48 C 261.87 509.57 263.49 507.61 262.12 505.25 C 266.45 502.85 262.28 496.98 266.54 494.62 C 266.25 492.28 266.84 490.13 268.40 488.36 C 268.64 486.22 269.06 484.12 270.36 482.34 C 271.17 477.65 272.83 473.18 274.82 468.88 C 274.71 468.04 274.57 467.20 274.41 466.37 C 277.54 464.67 276.45 460.97 276.64 458.05 C 279.69 456.61 277.83 453.00 279.72 450.86 C 281.21 449.15 280.66 446.67 281.81 444.80 C 283.27 442.38 282.98 439.36 284.51 436.95 C 284.43 434.40 285.62 432.30 287.40 430.57 C 287.38 429.06 286.80 427.35 288.02 426.15 C 289.58 424.19 288.48 421.53 288.71 419.25 C 291.07 418.07 290.99 415.57 291.19 413.30 C 292.77 411.34 293.65 409.05 293.22 406.51 C 295.65 405.35 295.31 402.84 295.61 400.60 C 298.35 396.02 298.51 390.47 301.04 385.79 C 301.37 384.22 301.09 382.43 302.35 381.22 C 304.11 379.34 303.21 376.61 303.35 374.32 C 305.22 372.75 305.77 370.52 305.71 368.17 C 308.11 365.66 307.16 362.00 309.29 359.35 C 309.10 356.22 311.77 354.01 311.51 350.93 C 311.13 348.95 313.08 348.04 314.21 346.81 C 313.90 346.06 313.28 344.56 312.97 343.81 C 316.66 342.27 315.06 338.25 315.95 335.31 C 317.49 333.60 317.92 331.48 317.95 329.25 C 320.34 326.77 319.44 323.08 321.59 320.48 C 321.15 317.28 323.97 315.12 323.69 312.02 C 323.62 310.17 325.41 309.04 326.46 307.76 C 326.12 307.08 325.43 305.72 325.09 305.04 C 325.97 304.28 326.85 303.52 327.73 302.76 C 327.89 300.42 326.83 297.60 328.62 295.70 C 330.64 293.82 329.52 290.66 331.36 288.70 C 332.61 287.41 332.22 285.56 332.36 283.93 C 335.12 281.67 333.79 277.86 336.02 275.25 M 380.58 338.04 C 380.70 340.66 381.21 343.52 378.51 345.05 C 378.44 348.00 379.42 351.62 376.34 353.41 C 376.11 355.68 377.10 358.40 375.40 360.27 C 373.11 362.45 375.30 365.98 373.42 368.32 C 371.49 370.45 372.41 373.38 372.35 375.97 C 371.52 376.66 370.70 377.35 369.88 378.04 C 370.02 380.12 371.19 382.59 369.60 384.38 C 367.64 386.47 368.51 389.40 368.50 391.97 C 365.08 393.32 366.97 397.09 366.24 399.80 C 363.72 402.39 364.54 406.26 362.26 409.04 C 362.36 411.86 362.17 414.69 360.37 417.01 C 360.29 420.57 357.20 423.06 357.59 426.66 C 356.40 428.62 354.82 430.57 355.92 432.97 C 354.98 433.99 354.07 435.01 353.18 436.07 C 353.59 437.01 354.00 437.96 354.40 438.92 C 353.57 439.60 352.74 440.28 351.91 440.96 C 351.84 443.31 352.90 446.14 351.06 448.06 C 349.29 449.66 350.18 452.27 349.04 454.12 C 347.04 456.51 347.98 459.92 345.75 462.25 C 345.74 464.71 345.34 467.06 343.05 468.42 C 343.28 469.48 343.55 470.54 343.82 471.61 C 339.99 473.94 343.25 478.79 340.34 481.59 C 339.19 483.84 340.22 486.94 337.47 488.38 C 337.81 490.72 337.33 492.92 335.65 494.65 C 335.65 498.27 332.94 500.98 333.07 504.64 C 331.03 506.65 330.97 509.58 331.75 512.19 C 338.10 512.92 344.59 512.27 351.00 512.49 C 379.73 512.53 408.47 512.41 437.20 512.55 C 440.13 511.86 437.63 509.54 436.50 508.46 C 436.42 506.82 436.99 504.91 435.50 503.74 C 433.78 502.41 434.45 500.15 434.29 498.29 C 430.54 496.65 433.53 491.59 429.78 489.85 C 430.15 488.95 430.53 488.06 430.92 487.18 C 427.62 485.06 429.04 480.98 426.79 478.27 C 425.69 476.20 427.25 473.44 425.55 471.54 C 423.69 469.21 424.91 465.85 422.55 463.76 C 422.53 461.14 421.49 458.88 420.02 456.80 C 420.20 453.72 417.39 451.34 418.70 448.30 C 417.80 447.21 416.89 446.15 416.00 445.08 C 416.20 443.70 417.20 442.06 415.72 441.06 C 413.70 439.39 414.39 436.50 413.16 434.40 C 411.85 432.03 412.16 429.07 410.29 426.97 C 409.93 424.06 410.78 420.47 407.78 418.68 C 407.99 416.02 407.54 413.53 405.19 411.97 C 405.65 411.05 406.12 410.14 406.59 409.24 C 405.52 408.33 404.47 407.41 403.40 406.52 C 403.95 404.71 404.08 402.76 402.63 401.31 C 400.51 399.05 402.75 395.50 400.67 393.20 C 399.06 391.50 400.35 388.84 398.68 387.19 C 396.51 384.99 398.82 381.42 396.80 379.21 C 394.80 377.26 395.79 374.33 395.63 371.87 C 393.74 370.41 393.18 368.35 393.34 366.05 C 391.07 363.81 391.01 360.88 391.83 357.97 C 390.89 356.69 389.09 355.68 389.45 353.86 C 389.27 352.11 390.05 350.01 388.73 348.58 C 386.56 346.55 387.76 343.44 387.54 340.86 C 386.99 340.53 385.91 339.86 385.36 339.53 C 385.20 336.57 386.45 333.07 383.90 330.82 C 382.76 333.19 381.24 335.48 380.58 338.04 Z" />
<path fill="#e3f1f4" opacity="1.00" d=" M 645.84 268.64 C 647.57 268.96 648.75 267.57 650.17 266.86 C 655.08 266.64 660.02 266.72 664.95 266.79 C 666.87 266.84 668.09 269.06 670.15 268.63 C 674.81 268.24 678.48 271.69 682.63 273.28 C 686.23 276.05 689.27 279.52 692.51 282.71 C 695.09 287.15 696.60 292.18 699.44 296.50 C 699.74 303.29 699.49 310.11 699.57 316.91 C 699.82 318.74 698.16 319.88 697.49 321.40 C 697.45 322.61 697.45 323.83 697.51 325.05 C 694.52 327.35 693.51 331.12 690.76 333.60 C 687.45 337.14 684.35 341.31 679.64 343.01 C 676.21 344.50 673.00 347.00 669.02 346.19 C 666.31 345.45 664.61 348.38 662.00 348.12 C 658.07 348.10 654.12 348.33 650.21 347.99 C 646.45 345.78 642.10 344.85 637.90 343.85 C 635.71 342.05 633.53 340.26 630.86 339.21 C 627.42 335.63 622.89 332.70 621.18 327.85 C 620.09 325.30 618.39 322.92 618.23 320.07 C 618.12 318.43 616.51 317.32 616.45 315.69 C 616.34 310.49 616.45 305.28 616.40 300.08 C 616.11 298.27 617.54 296.99 618.15 295.44 C 618.37 291.14 621.18 287.63 622.73 283.74 C 625.27 280.92 628.01 278.27 630.80 275.70 C 635.96 273.66 639.78 268.08 645.84 268.64 Z" />
<path fill="#e3f1f4" opacity="1.00" d=" M 620.82 388.25 C 645.65 388.15 670.47 388.26 695.30 388.20 C 695.29 487.05 695.31 585.91 695.29 684.76 C 673.51 684.67 651.73 684.77 629.95 684.71 C 627.11 684.50 624.48 685.95 621.64 685.67 C 621.19 683.83 620.74 681.97 620.81 680.07 C 620.83 582.80 620.80 485.53 620.82 388.25 Z" />
</g>
</svg>
