<?xml version="1.0" encoding="UTF-8" ?>
<!DOCTYPE svg PUBLIC "-//W3C//DTD SVG 1.1//EN" "http://www.w3.org/Graphics/SVG/1.1/DTD/svg11.dtd">
<svg width="966pt" height="966pt" viewBox="0 0 966 966" version="1.1" xmlns="http://www.w3.org/2000/svg">
<g id="#e3f1f4ff">
<path fill="#e3f1f4" opacity="1.00" d=" M 621.85 236.59 C 623.13 235.92 624.61 236.08 626.02 236.02 C 652.05 236.07 678.08 236.00 704.11 236.05 C 706.19 235.89 707.73 238.10 707.66 240.02 C 707.67 350.35 707.66 460.67 707.66 571.00 C 707.74 585.67 707.48 600.34 707.85 615.00 C 707.76 620.82 707.30 626.80 708.49 632.51 C 708.33 639.98 709.67 647.42 709.67 654.89 C 709.19 660.34 703.08 661.07 699.18 663.13 C 695.51 664.26 691.97 665.76 688.45 667.27 C 686.08 667.48 683.91 668.47 681.81 669.49 C 681.23 669.52 680.08 669.56 679.51 669.58 L 679.73 670.47 C 676.80 670.11 674.20 671.74 671.45 672.41 C 669.48 673.09 667.29 673.20 665.53 674.39 C 662.83 674.19 660.37 675.44 657.78 675.94 C 650.40 677.80 642.79 678.70 635.42 680.49 C 633.38 680.26 631.35 680.55 629.50 681.42 C 623.65 681.21 617.88 683.22 611.98 682.96 C 606.27 684.69 599.64 682.32 594.30 685.00 C 593.31 684.85 592.35 684.62 591.42 684.31 C 584.55 684.38 577.57 683.84 570.76 684.68 C 567.01 683.40 562.95 683.52 559.05 683.69 C 556.38 682.47 553.39 682.89 550.59 682.29 C 548.22 681.90 545.87 681.01 543.46 681.51 C 541.60 680.12 539.17 680.26 537.03 679.72 C 533.36 679.30 529.99 677.07 526.23 677.52 L 526.42 676.76 C 519.57 675.40 513.21 672.34 506.57 670.26 C 495.71 665.25 484.89 659.89 475.43 652.47 C 458.53 639.64 444.60 622.85 435.28 603.78 C 428.31 589.83 424.54 574.60 421.65 559.37 C 420.31 543.99 418.32 528.50 419.84 513.04 C 420.12 507.48 421.17 502.02 421.71 496.49 C 428.05 460.65 446.85 427.16 474.47 403.40 C 487.57 391.87 502.73 382.85 518.70 375.90 C 521.39 375.05 523.95 373.83 526.54 372.71 C 530.97 371.81 535.02 369.66 539.47 368.78 C 543.83 367.83 548.07 366.39 552.50 365.74 C 553.85 365.54 555.18 365.24 556.50 364.84 C 559.35 364.66 562.12 363.91 564.94 363.48 C 567.20 363.14 569.62 363.52 571.72 362.40 C 575.30 362.64 579.09 362.65 582.49 361.35 C 584.25 362.08 586.20 361.71 588.06 361.66 C 595.57 361.16 603.15 360.96 610.63 361.92 C 611.05 361.70 611.89 361.26 612.31 361.04 C 614.56 363.07 617.91 362.00 620.66 362.53 C 620.55 322.36 620.67 282.19 620.60 242.02 C 620.63 240.14 620.37 238.04 621.85 236.59 M 579.00 435.61 C 577.25 435.87 575.55 436.47 573.78 436.39 C 573.51 436.67 572.97 437.25 572.70 437.53 C 570.31 436.88 568.12 438.26 565.91 438.89 C 545.44 445.64 527.34 460.02 517.08 479.08 C 512.79 487.91 509.79 497.62 509.41 507.46 C 508.59 509.82 508.52 512.36 508.66 514.84 C 509.11 522.37 507.89 530.05 509.30 537.50 C 511.52 557.92 519.92 578.66 536.04 592.04 C 541.91 596.59 548.37 600.95 555.65 602.72 C 555.67 602.87 555.70 603.16 555.72 603.31 C 560.04 604.16 564.03 606.33 568.48 606.64 C 573.71 607.60 579.15 609.30 584.48 608.56 C 589.06 609.70 593.88 609.02 598.55 608.84 C 605.95 608.17 613.57 608.95 620.71 606.45 C 620.54 549.79 620.59 493.12 620.68 436.46 C 619.47 436.39 618.28 436.31 617.16 435.84 C 604.61 433.35 591.56 433.07 579.00 435.61 Z" />
<path fill="#e3f1f4" opacity="1.00" d=" M 274.41 269.54 C 276.29 269.32 278.18 269.13 280.07 269.15 C 304.38 269.16 328.68 269.18 352.99 269.14 C 354.42 269.10 355.83 269.39 357.23 269.66 C 358.01 271.31 359.33 272.89 359.23 274.83 C 359.23 407.92 359.24 541.01 359.22 674.10 C 359.44 676.32 357.86 678.02 356.52 679.56 C 333.36 679.97 310.19 679.62 287.03 679.74 C 282.89 679.73 278.75 679.84 274.63 679.51 C 271.60 676.46 272.26 671.93 272.21 668.03 C 272.24 537.00 272.20 405.98 272.24 274.96 C 272.06 272.87 273.10 271.06 274.41 269.54 Z" />
</g>
</svg>
