<?xml version="1.0" encoding="UTF-8" ?>
<!DOCTYPE svg PUBLIC "-//W3C//DTD SVG 1.1//EN" "http://www.w3.org/Graphics/SVG/1.1/DTD/svg11.dtd">
<svg width="966pt" height="966pt" viewBox="0 0 966 966" version="1.1" xmlns="http://www.w3.org/2000/svg">
<g id="#e3f1f4ff">
<path fill="#e3f1f4" opacity="1.00" d=" M 711.83 486.92 C 717.19 485.87 722.45 484.21 727.93 483.72 C 738.30 482.79 748.72 483.25 759.10 483.68 C 762.53 483.74 765.78 484.90 769.00 485.96 C 772.81 486.71 776.85 486.65 780.29 488.72 C 789.94 491.69 798.92 496.83 806.53 503.48 C 812.58 509.48 818.91 515.37 823.46 522.65 C 825.05 525.52 828.02 527.65 828.75 530.95 C 828.11 532.17 826.94 533.02 825.93 533.90 C 813.06 542.15 800.24 550.47 787.35 558.67 C 785.77 559.51 784.70 561.35 782.80 561.42 C 780.69 559.82 779.61 557.33 778.32 555.11 C 771.92 545.64 761.86 539.03 751.04 535.83 C 745.69 535.29 740.24 535.18 734.90 535.92 C 729.12 537.97 723.05 540.12 718.92 544.91 C 715.95 547.73 714.63 551.68 712.71 555.20 C 711.71 560.45 712.13 565.88 712.65 571.17 C 712.66 572.56 713.52 573.70 714.16 574.88 C 715.63 579.03 718.74 582.17 721.79 585.22 C 727.52 589.92 733.96 593.84 740.89 596.49 C 743.85 598.63 747.61 599.06 750.57 601.21 C 760.11 604.82 769.20 609.50 778.65 613.39 C 781.55 615.29 785.15 615.81 787.80 618.16 C 803.50 625.71 818.31 635.88 829.84 649.10 C 834.92 655.72 839.61 662.85 841.99 670.90 C 844.22 674.25 844.07 678.35 844.92 682.13 C 848.50 692.33 847.42 703.32 847.38 713.92 C 847.48 719.49 844.85 724.55 844.08 729.98 C 843.78 732.18 842.93 734.25 841.63 736.05 C 840.46 741.08 837.73 745.62 834.86 749.86 C 829.48 758.57 821.67 765.62 813.30 771.43 C 808.87 774.09 804.29 776.47 799.80 779.04 C 797.65 779.74 795.38 780.17 793.47 781.44 C 790.68 783.23 787.18 783.09 784.22 784.49 C 779.36 786.73 773.84 786.17 768.82 787.86 C 761.38 790.03 753.57 789.32 745.93 789.63 C 737.66 789.34 729.20 790.05 721.18 787.59 C 716.52 786.17 711.48 786.70 706.94 784.88 C 702.93 783.07 698.34 783.06 694.54 780.75 C 682.82 776.86 672.02 770.42 662.21 762.94 C 657.54 758.96 653.34 754.45 649.44 749.72 C 644.40 744.20 639.66 738.28 636.23 731.61 C 635.64 730.35 634.03 729.41 634.55 727.85 C 636.54 725.20 639.90 724.36 642.52 722.52 C 654.86 715.60 667.07 708.45 679.23 701.21 C 680.90 700.44 683.23 699.66 684.83 700.96 C 691.92 712.26 701.02 722.82 713.10 728.93 C 725.00 735.15 739.01 737.83 752.38 735.65 C 756.17 734.61 760.06 734.10 763.93 733.43 C 771.10 730.50 778.58 726.77 782.73 719.88 C 786.25 715.38 786.65 709.42 787.17 703.96 C 786.37 698.73 786.18 692.98 782.48 688.85 C 773.20 676.31 758.01 670.77 744.43 664.39 C 735.43 661.06 726.89 656.70 718.00 653.12 C 711.03 649.31 703.58 646.28 696.99 641.80 C 686.09 635.23 675.63 627.38 668.07 616.99 C 664.55 611.57 661.17 606.00 658.99 599.88 C 656.62 596.53 656.99 592.25 655.21 588.68 C 653.57 585.32 653.60 581.53 653.34 577.90 C 653.15 572.12 651.60 566.37 652.65 560.59 C 653.75 554.18 652.60 547.26 655.69 541.30 C 656.96 538.49 656.64 535.15 658.50 532.57 C 666.58 513.02 683.36 497.47 703.04 489.99 C 706.18 489.56 708.75 487.53 711.83 486.92 Z" />
<path fill="#e3f1f4" opacity="1.00" d=" M 539.17 487.01 C 557.42 486.84 575.76 487.06 594.05 486.91 C 595.69 487.09 597.82 486.49 598.94 488.09 C 598.44 512.04 598.85 536.01 598.72 559.96 C 598.71 589.64 598.72 619.31 598.71 648.98 C 598.70 668.25 600.18 687.58 598.36 706.81 C 596.93 713.53 597.36 720.55 595.60 727.20 C 594.02 730.45 593.43 734.00 592.58 737.47 C 590.51 740.47 590.04 744.18 588.04 747.21 C 580.83 762.20 567.62 773.79 552.72 780.82 C 549.04 783.00 544.69 783.56 540.96 785.67 C 536.28 786.27 531.62 786.97 527.13 788.48 C 515.86 789.96 504.41 789.59 493.08 789.13 C 487.18 789.05 481.79 786.22 475.92 785.90 C 458.73 781.11 442.57 771.90 430.80 758.29 C 426.56 752.50 421.69 747.08 418.69 740.49 C 417.85 738.64 415.53 737.26 416.04 735.00 C 417.60 732.81 420.06 731.58 422.38 730.36 C 431.60 724.59 440.92 718.99 450.23 713.38 C 454.46 710.55 459.10 708.30 462.99 704.97 C 464.64 704.75 465.21 706.78 466.14 707.78 C 470.12 714.58 474.43 721.38 480.41 726.63 C 483.24 729.39 486.79 731.21 490.00 733.50 C 497.11 735.13 504.48 737.64 511.83 735.89 C 514.50 735.17 517.16 734.41 519.88 733.85 C 526.07 731.23 531.46 726.58 534.49 720.52 C 535.66 716.40 537.69 712.46 537.82 708.11 C 538.72 687.09 538.00 666.05 538.17 645.02 C 538.02 592.72 538.64 540.41 538.08 488.11 C 538.35 487.84 538.89 487.28 539.17 487.01 Z" />
</g>
</svg>
