<?xml version="1.0" encoding="UTF-8" ?>
<!DOCTYPE svg PUBLIC "-//W3C//DTD SVG 1.1//EN" "http://www.w3.org/Graphics/SVG/1.1/DTD/svg11.dtd">
<svg width="966pt" height="966pt" viewBox="0 0 966 966" version="1.1" xmlns="http://www.w3.org/2000/svg">
<g id="#e3f1f4ff">
<path fill="#e3f1f4" opacity="1.00" d=" M 308.26 261.09 C 309.61 260.94 311.00 261.07 312.25 261.64 C 331.08 269.70 348.97 279.78 366.26 290.72 C 400.07 312.28 431.40 337.92 458.34 367.66 C 483.01 394.54 503.96 424.76 521.17 456.91 C 536.92 487.10 549.67 519.20 555.70 552.83 C 555.99 556.45 557.61 560.29 555.96 563.80 C 554.60 566.16 551.76 567.73 549.12 567.82 C 524.80 557.80 499.25 550.72 473.23 546.85 C 452.64 543.84 431.65 542.92 410.94 545.24 C 375.35 549.57 341.01 562.50 310.66 581.40 C 304.80 584.57 297.60 576.30 302.25 571.20 C 313.95 558.61 323.13 543.84 330.25 528.23 C 346.92 491.35 353.00 450.21 350.94 409.95 C 347.95 372.61 335.38 336.73 319.89 302.87 C 314.75 292.16 309.50 281.50 303.45 271.28 C 301.16 267.24 304.07 262.25 308.26 261.09 M 326.39 283.74 C 327.01 286.99 328.92 289.76 330.35 292.69 C 340.29 313.71 349.01 335.38 355.27 357.79 C 361.36 379.30 365.48 401.56 365.24 423.98 C 365.18 464.55 357.39 505.63 338.98 542.01 C 337.14 545.91 334.52 549.41 332.97 553.45 C 364.03 539.36 397.74 530.40 431.99 530.08 C 469.07 529.84 505.99 537.21 540.80 549.72 C 539.85 542.14 537.37 534.80 535.41 527.42 C 523.64 488.23 504.56 451.47 481.06 418.06 C 441.60 361.44 387.41 315.66 326.39 283.74 Z" />
<path fill="#e3f1f4" opacity="1.00" d=" M 439.18 312.14 C 442.03 311.09 445.13 312.34 448.02 312.76 C 459.58 315.67 470.25 321.32 480.38 327.51 C 512.78 347.87 540.24 374.99 566.34 402.73 C 594.37 433.02 615.41 469.02 633.01 506.15 C 640.81 522.68 647.82 539.59 653.94 556.82 C 655.92 561.84 650.12 567.45 645.21 565.43 C 634.77 561.09 624.31 556.41 613.12 554.40 C 605.04 553.78 596.93 555.07 589.03 556.68 C 585.88 557.53 582.89 555.32 581.52 552.62 C 570.70 514.20 555.82 476.92 537.48 441.47 C 527.99 423.42 517.67 405.78 505.89 389.13 C 488.76 365.84 467.65 345.59 444.19 328.75 C 440.78 326.16 436.03 324.54 434.59 320.12 C 433.79 316.70 436.19 313.51 439.18 312.14 M 496.08 355.71 C 503.25 364.25 510.91 372.39 517.31 381.55 C 529.24 398.44 539.80 416.28 549.37 434.61 C 567.15 468.79 581.64 504.68 592.62 541.61 C 600.73 541.21 608.91 539.72 617.02 541.14 C 623.15 542.16 628.96 544.41 634.81 546.43 C 634.52 542.85 632.69 539.69 631.41 536.41 C 618.47 505.45 603.22 475.35 584.33 447.56 C 574.34 432.54 562.72 418.67 550.19 405.72 C 535.23 389.69 519.22 374.67 502.64 360.34 C 500.55 358.66 498.20 357.35 496.08 355.71 Z" />
<path fill="#e3f1f4" opacity="1.00" d=" M 275.19 600.85 C 415.42 591.77 555.65 582.79 695.89 573.74 C 699.79 573.44 703.37 577.24 703.12 581.06 C 702.88 584.20 700.24 586.20 697.97 588.00 C 681.04 601.25 663.82 614.17 645.63 625.64 C 629.55 635.25 613.17 644.35 596.42 652.73 C 593.97 654.17 590.72 654.47 589.01 656.94 C 597.13 662.38 608.20 663.52 616.96 658.93 C 626.38 654.15 633.49 646.07 642.26 640.31 C 652.22 633.52 665.15 630.05 676.91 633.81 C 688.50 636.76 697.21 645.39 705.95 653.00 C 710.69 656.82 715.70 661.06 721.97 661.88 C 725.03 662.36 728.95 662.13 730.70 665.28 C 732.74 667.59 732.40 671.17 730.38 673.39 C 728.10 676.87 723.37 675.87 719.88 675.56 C 708.86 673.74 699.91 666.39 691.94 659.04 C 684.93 652.80 676.96 645.96 666.99 646.16 C 655.59 645.59 646.82 653.96 638.57 660.61 C 629.25 668.75 617.78 675.74 605.00 675.54 C 592.67 675.84 581.37 669.49 572.33 661.60 C 564.05 654.79 555.49 646.06 543.98 646.18 C 533.17 645.70 524.53 653.23 516.86 659.83 C 508.91 666.77 499.82 673.24 489.09 674.67 C 479.56 676.35 469.67 673.58 461.48 668.68 C 451.50 662.95 444.04 653.67 433.78 648.36 C 426.86 644.81 418.31 645.76 411.80 649.77 C 399.83 656.93 390.14 667.91 376.62 672.38 C 365.95 676.12 353.96 675.08 343.82 670.26 C 333.38 665.67 324.78 658.01 315.96 650.98 C 311.56 647.75 307.43 643.68 301.93 642.47 C 299.09 642.40 296.54 643.89 294.04 645.03 C 282.53 651.09 272.49 659.47 261.46 666.30 C 255.20 670.16 248.47 674.07 240.91 674.22 C 237.24 674.22 233.68 670.74 234.02 667.02 C 233.91 664.35 236.19 662.46 238.08 660.97 C 245.31 660.54 251.50 656.39 257.39 652.56 C 265.53 647.12 273.38 641.24 281.73 636.11 C 281.73 635.62 281.72 634.65 281.71 634.16 C 277.25 626.54 273.26 618.63 269.20 610.79 C 266.58 606.56 270.45 600.79 275.19 600.85 M 663.15 589.61 C 539.07 597.59 414.98 605.60 290.89 613.56 C 289.24 613.64 285.96 613.12 287.26 615.84 C 289.86 620.47 292.22 625.24 294.93 629.83 C 298.12 629.29 301.37 628.06 304.63 628.98 C 313.74 630.99 320.94 637.31 327.99 643.03 C 337.51 650.53 347.38 659.20 359.87 660.75 C 371.80 662.33 382.02 654.71 390.83 647.74 C 399.86 640.33 410.11 633.34 422.10 632.37 C 433.91 631.70 444.96 637.63 453.56 645.27 C 462.46 652.43 471.63 661.83 483.99 661.33 C 495.87 661.24 504.38 651.98 512.99 645.08 C 522.21 636.91 534.37 631.30 546.92 632.52 C 558.01 633.37 567.71 639.49 575.99 646.50 C 582.76 644.13 589.19 640.97 595.58 637.73 C 610.25 630.07 624.76 622.08 638.95 613.55 C 650.07 606.64 660.58 598.81 671.30 591.32 C 672.25 590.68 672.41 589.44 672.93 588.50 C 669.69 589.05 666.45 589.71 663.15 589.61 Z" />
</g>
</svg>
