<?xml version="1.0" encoding="UTF-8" ?>
<!DOCTYPE svg PUBLIC "-//W3C//DTD SVG 1.1//EN" "http://www.w3.org/Graphics/SVG/1.1/DTD/svg11.dtd">
<svg width="966pt" height="966pt" viewBox="0 0 966 966" version="1.1" xmlns="http://www.w3.org/2000/svg">
<g id="#e3f1f4ff">
<path fill="#e3f1f4" opacity="1.00" d=" M 146.63 414.50 C 156.34 414.73 166.18 414.02 175.81 414.85 C 199.63 444.44 223.46 474.02 247.30 503.60 C 258.99 518.30 271.01 532.73 282.50 547.58 L 283.10 547.20 C 283.18 548.22 283.26 549.24 283.35 550.27 C 274.15 549.75 264.92 550.16 255.71 550.04 C 227.75 515.39 199.87 480.67 171.96 445.98 C 171.43 445.54 170.36 444.67 169.83 444.23 C 170.02 473.81 169.87 503.39 169.91 532.97 C 169.85 538.61 170.09 544.26 169.72 549.90 C 162.02 550.11 154.31 550.07 146.61 549.93 C 146.52 504.78 146.49 459.64 146.63 414.50 Z" />
<path fill="#e3f1f4" opacity="1.00" d=" M 284.14 414.62 C 323.06 414.53 361.98 414.53 400.90 414.62 C 401.09 421.73 401.10 428.84 400.89 435.95 C 369.69 436.37 338.46 435.70 307.27 436.29 C 306.85 447.52 307.08 458.78 307.13 470.01 C 307.31 470.26 307.66 470.76 307.84 471.00 C 332.77 471.31 357.72 470.73 382.65 471.29 C 382.63 478.39 382.73 485.49 382.58 492.58 C 357.50 492.67 332.42 492.60 307.33 492.62 C 306.89 504.55 306.87 516.55 307.35 528.47 C 338.51 528.49 369.67 528.47 400.84 528.49 C 401.14 535.68 401.12 542.90 400.85 550.10 C 370.89 549.96 340.92 550.07 310.96 550.04 C 301.86 550.19 292.72 549.70 283.64 550.32 C 284.28 545.23 284.00 540.11 284.04 535.01 C 284.12 494.88 283.91 454.75 284.14 414.62 Z" />
<path fill="#e3f1f4" opacity="1.00" d=" M 429.65 414.68 C 439.49 414.60 449.35 414.57 459.19 414.68 C 472.67 430.40 485.24 446.98 498.48 462.94 C 498.76 462.88 499.33 462.77 499.61 462.71 C 512.57 446.97 525.15 430.89 538.11 415.16 C 547.93 414.51 557.83 415.28 567.67 414.66 C 567.08 415.97 566.57 417.36 565.61 418.45 C 548.40 439.68 531.40 461.07 514.18 482.28 C 531.92 505.12 550.66 527.20 568.32 550.10 C 558.25 550.00 548.06 550.59 538.07 549.80 C 503.85 507.43 469.76 464.93 435.58 422.52 C 433.56 419.93 431.31 417.52 429.65 414.68 Z" />
<path fill="#e3f1f4" opacity="1.00" d=" M 593.96 414.63 C 632.95 414.54 671.95 414.50 710.94 414.65 C 711.02 421.79 711.10 428.93 710.89 436.06 C 695.45 436.26 679.98 435.71 664.55 436.35 C 664.34 474.24 664.58 512.13 664.44 550.03 C 656.72 550.00 649.01 550.14 641.31 549.94 C 641.17 512.07 641.30 474.21 641.24 436.34 C 625.50 435.71 609.72 436.25 593.97 436.07 C 593.90 428.92 593.98 421.77 593.96 414.63 Z" />
<path fill="#e3f1f4" opacity="1.00" d=" M 756.12 492.31 C 759.40 492.02 762.71 492.01 766.00 492.34 C 766.07 505.89 766.07 519.46 766.01 533.01 C 766.03 538.19 763.43 543.30 759.07 546.14 C 753.05 550.15 744.98 550.15 738.47 547.36 C 733.14 545.13 729.82 539.44 730.07 533.72 C 733.35 533.64 736.64 533.62 739.93 533.72 C 740.52 537.02 742.53 540.31 746.12 540.84 C 751.08 542.34 756.12 538.17 755.90 533.09 C 756.19 519.50 755.72 505.90 756.12 492.31 Z" />
<path fill="#e3f1f4" opacity="1.00" d=" M 782.45 496.48 C 789.63 490.77 800.08 490.04 808.41 493.49 C 814.13 495.74 818.45 501.32 818.57 507.55 C 815.35 507.63 812.13 507.63 808.92 507.54 C 807.03 499.18 795.50 497.93 789.54 502.56 C 786.15 505.43 786.93 511.21 791.02 513.01 C 799.41 517.02 810.60 516.30 816.65 524.44 C 822.28 531.43 818.86 542.46 811.19 546.39 C 803.17 550.36 793.30 550.43 785.10 546.91 C 779.33 544.39 775.65 538.40 775.43 532.18 C 778.73 531.91 782.04 531.91 785.35 532.08 C 786.03 535.68 788.54 538.93 792.15 539.94 C 797.17 541.39 803.44 541.26 807.26 537.23 C 809.92 534.54 809.58 529.36 806.05 527.58 C 799.46 523.79 791.37 524.05 784.76 520.30 C 782.11 518.72 779.47 516.76 778.21 513.86 C 775.56 507.98 777.32 500.46 782.45 496.48 Z" />
<path fill="#e3f1f4" opacity="1.00" d=" M 474.91 493.37 C 475.25 493.34 475.92 493.27 476.26 493.23 C 480.95 499.32 485.77 505.32 490.73 511.19 C 481.30 523.56 471.24 535.44 461.60 547.66 C 460.65 548.69 459.84 550.46 458.12 550.18 C 448.58 550.18 439.03 550.29 429.49 550.11 C 444.34 530.98 459.91 512.40 474.91 493.37 Z" />
<path fill="#e3f1f4" opacity="1.00" d=" M 713.64 537.71 C 717.99 535.46 723.79 540.25 722.04 544.90 C 720.81 549.04 714.73 550.57 711.90 547.18 C 708.86 544.52 710.13 539.31 713.64 537.71 Z" />
</g>
</svg>
