<?xml version="1.0" encoding="UTF-8" ?>
<!DOCTYPE svg PUBLIC "-//W3C//DTD SVG 1.1//EN" "http://www.w3.org/Graphics/SVG/1.1/DTD/svg11.dtd">
<svg width="966pt" height="966pt" viewBox="0 0 966 966" version="1.1" xmlns="http://www.w3.org/2000/svg">
<g id="#e3f1f4ff">
<path fill="#e3f1f4" opacity="1.00" d=" M 457.52 143.72 C 473.85 134.52 495.02 135.26 510.86 145.21 C 591.06 191.58 671.32 237.85 751.50 284.25 C 767.54 292.99 777.58 310.92 777.65 329.07 C 777.72 409.39 777.66 489.71 777.68 570.03 C 777.60 578.19 778.17 586.45 776.36 594.48 C 773.41 608.40 764.35 620.87 752.03 627.98 C 674.08 673.04 596.09 718.03 518.14 763.08 C 510.98 767.21 503.87 771.80 495.75 773.78 C 482.74 777.28 468.48 775.15 456.85 768.43 C 430.62 752.85 404.37 737.30 378.12 721.75 C 374.49 719.48 369.82 717.68 368.40 713.25 C 369.51 712.15 370.52 710.81 372.09 710.36 C 381.40 707.15 390.75 703.93 399.43 699.21 C 403.72 697.10 407.68 694.38 412.07 692.48 C 416.16 692.12 419.24 695.60 422.72 697.24 C 441.60 708.44 460.51 719.59 479.38 730.80 C 482.38 732.24 485.86 731.33 488.53 729.58 C 569.62 682.62 650.87 635.94 731.89 588.86 C 733.12 586.80 733.82 584.47 733.66 582.06 C 733.65 497.74 733.69 413.42 733.64 329.09 C 733.88 325.92 731.86 323.22 729.14 321.80 C 648.61 275.33 568.10 228.83 487.55 182.39 C 485.20 180.93 481.99 179.97 479.50 181.67 C 400.31 227.37 321.10 273.06 241.91 318.77 C 239.36 320.25 236.66 321.54 234.41 323.47 C 232.27 325.30 231.89 328.31 231.94 330.96 C 231.97 414.99 231.95 499.02 231.96 583.05 C 231.97 585.81 233.36 588.74 235.93 589.99 C 258.07 602.85 280.30 615.57 302.45 628.41 C 313.42 633.87 326.36 637.41 338.46 633.80 C 349.88 630.88 358.79 620.50 360.45 608.90 C 361.30 604.63 361.00 600.26 361.03 595.94 C 361.04 511.26 361.03 426.57 361.04 341.88 C 360.48 337.88 363.90 333.90 367.99 334.13 C 378.01 334.05 388.03 334.12 398.05 334.09 C 402.29 333.62 406.49 337.60 405.96 341.90 C 405.97 426.28 405.96 510.66 405.96 595.04 C 406.10 606.53 406.11 618.17 403.16 629.37 C 399.67 644.42 391.31 658.71 378.44 667.58 C 364.47 677.46 346.81 680.52 330.00 679.90 C 314.84 680.45 300.30 675.15 286.70 668.99 C 277.43 665.00 268.93 659.52 260.14 654.61 C 244.40 645.39 228.47 636.47 212.75 627.21 C 197.58 618.09 188.30 600.66 188.33 583.05 C 188.32 498.40 188.30 413.75 188.34 329.10 C 188.37 311.47 197.77 294.05 212.94 284.91 C 294.47 237.85 375.98 190.76 457.52 143.72 Z" />
<path fill="#e3f1f4" opacity="1.00" d=" M 483.09 345.44 C 502.48 337.02 523.79 334.05 544.79 333.81 C 556.78 333.75 568.83 334.03 580.74 335.58 C 599.80 338.04 619.18 342.83 635.28 353.79 C 648.74 362.78 659.07 376.31 664.20 391.67 C 667.33 400.46 669.06 409.73 669.81 419.02 C 670.52 423.31 666.26 427.25 662.08 426.87 C 651.70 426.85 641.31 426.92 630.93 426.83 C 627.34 426.95 624.53 423.55 624.02 420.22 C 621.23 407.72 615.41 394.84 604.20 387.78 C 590.89 379.06 574.47 378.02 559.05 376.95 C 541.31 376.61 523.00 376.62 506.12 382.84 C 497.37 386.08 489.01 392.62 486.84 402.12 C 485.08 409.63 484.80 418.64 490.21 424.81 C 496.46 430.03 504.49 432.04 512.19 434.08 C 550.93 443.09 591.37 443.43 629.44 455.56 C 644.63 460.50 660.06 468.11 669.28 481.69 C 675.87 491.11 678.64 502.71 679.19 514.06 C 680.50 531.70 676.35 550.17 665.65 564.49 C 655.73 578.05 640.95 587.30 625.39 593.11 C 610.23 598.72 594.18 601.64 578.09 602.81 C 557.12 604.40 535.96 603.56 515.18 600.38 C 495.88 597.13 476.50 591.25 460.52 579.59 C 448.79 571.04 439.42 559.11 434.51 545.41 C 430.83 535.36 429.16 524.64 429.14 513.96 C 429.01 510.30 431.98 506.78 435.74 506.71 C 446.58 506.60 457.43 506.61 468.27 506.71 C 471.71 506.83 474.51 509.69 474.82 513.08 C 476.32 523.35 479.17 533.94 486.19 541.90 C 494.56 551.43 507.23 555.51 519.31 557.85 C 538.35 561.14 557.80 560.95 577.05 560.11 C 590.46 558.89 604.40 557.16 616.22 550.21 C 623.60 545.91 629.11 538.36 630.42 529.86 C 631.68 522.79 631.84 514.69 627.30 508.69 C 622.46 502.93 615.15 500.16 608.26 497.71 C 577.33 488.30 544.69 488.23 513.05 482.68 C 494.07 479.10 474.47 474.17 458.93 462.12 C 447.34 453.25 439.98 439.50 438.19 425.09 C 435.82 409.05 437.77 391.97 445.76 377.68 C 453.79 362.84 467.82 352.08 483.09 345.44 Z" />
</g>
</svg>
