<?xml version="1.0" encoding="UTF-8" ?>
<!DOCTYPE svg PUBLIC "-//W3C//DTD SVG 1.1//EN" "http://www.w3.org/Graphics/SVG/1.1/DTD/svg11.dtd">
<svg width="966pt" height="966pt" viewBox="0 0 966 966" version="1.1" xmlns="http://www.w3.org/2000/svg">
<g id="#e3f1f4ff">
<path fill="#e3f1f4" opacity="1.00" d=" M 388.77 259.17 C 412.99 248.02 439.56 242.86 466.02 241.10 C 482.85 241.12 499.78 240.17 516.48 242.69 C 537.59 245.20 558.45 250.47 577.88 259.15 C 595.00 266.73 610.91 276.91 625.45 288.67 C 639.35 299.96 652.06 312.61 664.60 325.38 C 679.75 340.64 694.80 356.45 713.26 367.77 C 725.88 375.68 740.34 380.29 755.06 382.17 C 771.68 384.49 788.86 383.27 804.87 378.10 C 833.20 368.90 856.41 348.56 874.62 325.53 C 875.82 323.82 877.41 322.47 878.99 321.11 C 869.98 355.99 855.65 390.35 831.76 417.76 C 818.98 432.76 803.41 445.40 786.09 454.78 C 751.17 474.02 710.44 479.70 671.05 478.55 C 645.71 477.59 620.31 473.57 596.54 464.53 C 577.23 457.24 559.15 446.84 542.89 434.15 C 515.28 413.02 493.63 385.37 466.93 363.22 C 453.58 352.19 438.17 343.11 421.08 339.48 C 404.05 335.47 386.14 334.71 369.04 338.68 C 349.16 343.07 330.84 353.20 315.53 366.48 C 304.24 375.97 294.50 387.19 285.43 398.75 C 286.16 393.16 287.87 387.78 289.55 382.43 C 297.66 355.99 309.49 330.39 326.58 308.51 C 342.88 287.33 364.44 270.22 388.77 259.17 Z" />
<path fill="#e3f1f4" opacity="1.00" d=" M 181.58 501.36 C 219.50 481.15 263.71 476.25 306.05 479.10 C 327.40 480.61 348.65 484.71 368.74 492.20 C 388.79 499.66 407.48 510.54 424.27 523.76 C 453.08 546.04 475.36 575.48 504.11 597.80 C 515.68 606.50 528.63 613.71 542.82 617.02 C 560.79 621.58 579.82 622.49 597.92 618.12 C 617.71 613.69 635.76 603.29 651.01 590.12 C 662.05 580.73 671.56 569.66 680.55 558.36 C 679.19 567.30 676.02 575.83 673.22 584.40 C 660.81 620.77 639.98 655.36 608.98 678.80 C 576.36 704.03 534.66 714.92 493.93 715.99 C 459.96 717.33 425.29 713.17 393.65 700.22 C 375.99 693.09 359.56 683.15 344.53 671.51 C 329.62 659.86 316.09 646.59 302.85 633.11 C 287.40 617.58 272.20 601.36 253.46 589.69 C 240.67 581.54 225.97 576.75 210.97 574.85 C 193.59 572.42 175.59 573.86 158.98 579.65 C 133.66 588.45 112.48 606.19 95.45 626.50 C 92.62 629.62 90.43 633.33 87.02 635.90 C 95.83 601.70 109.79 568.08 132.80 540.89 C 146.30 524.73 162.95 511.18 181.58 501.36 Z" />
</g>
</svg>
