<?xml version="1.0" encoding="UTF-8" ?>
<!DOCTYPE svg PUBLIC "-//W3C//DTD SVG 1.1//EN" "http://www.w3.org/Graphics/SVG/1.1/DTD/svg11.dtd">
<svg width="966pt" height="966pt" viewBox="0 0 966 966" version="1.1" xmlns="http://www.w3.org/2000/svg">
<g id="#e3f1f4ff">
<path fill="#e3f1f4" opacity="1.00" d=" M 358.45 281.72 C 362.85 280.22 367.41 279.16 372.02 278.54 C 384.91 277.87 397.88 282.50 407.58 291.00 C 407.66 291.52 407.81 292.55 407.88 293.07 C 404.91 295.88 402.41 299.24 399.03 301.59 C 396.51 300.35 394.49 298.33 392.05 296.96 C 380.95 290.55 366.18 291.33 355.78 298.82 C 343.04 307.72 337.50 325.75 343.89 340.08 C 347.60 349.77 356.08 357.17 365.92 360.23 C 377.37 363.07 390.77 361.01 399.08 352.07 C 403.48 347.93 405.14 341.95 406.41 336.25 C 395.81 336.05 385.17 336.68 374.61 335.91 C 374.75 334.93 375.04 332.96 375.18 331.98 C 375.51 328.81 375.43 325.60 374.71 322.50 C 389.67 322.15 404.65 322.47 419.62 322.33 C 422.08 335.43 419.27 350.09 410.38 360.31 C 400.84 371.62 385.45 376.55 370.97 375.27 C 352.05 373.51 334.88 360.20 328.77 342.16 C 328.07 339.18 327.25 336.20 327.06 333.12 C 326.93 325.96 326.51 318.65 328.80 311.74 C 333.78 298.13 344.70 286.61 358.45 281.72 Z" />
<path fill="#e3f1f4" opacity="1.00" d=" M 626.72 282.24 C 631.43 282.16 636.14 282.19 640.86 282.24 C 640.85 312.58 640.88 342.91 640.85 373.24 C 636.14 373.24 631.44 373.22 626.74 373.23 C 626.69 342.90 626.75 312.57 626.72 282.24 Z" />
<path fill="#e3f1f4" opacity="1.00" d=" M 452.89 312.76 C 464.10 312.27 475.95 317.28 481.78 327.19 C 486.40 333.86 486.82 342.21 486.21 350.04 C 484.40 357.74 480.28 365.19 473.54 369.60 C 461.64 378.15 443.81 376.99 433.37 366.61 C 420.52 354.73 421.02 331.79 434.41 320.52 C 439.49 315.88 446.19 313.69 452.89 312.76 M 452.64 325.89 C 449.69 326.47 446.89 327.76 444.53 329.64 C 435.80 337.04 436.13 352.72 445.68 359.30 C 451.34 363.55 459.77 363.42 465.25 358.93 C 472.54 353.57 474.47 342.59 470.06 334.82 C 466.92 328.58 459.57 324.71 452.64 325.89 Z" />
<path fill="#e3f1f4" opacity="1.00" d=" M 585.93 312.77 C 592.95 312.43 600.27 314.60 605.11 319.90 C 605.12 318.29 605.13 316.69 605.15 315.09 C 609.58 315.06 614.02 315.05 618.46 315.11 C 618.41 334.07 618.47 353.02 618.44 371.97 C 618.08 380.40 615.75 389.34 609.56 395.41 C 598.20 405.83 578.45 405.49 567.68 394.33 C 564.84 391.42 562.29 388.03 561.26 384.04 C 565.26 382.39 569.24 380.73 573.23 379.07 C 575.56 383.88 579.43 388.37 584.87 389.58 C 588.21 390.81 591.71 389.81 595.08 389.28 C 597.62 387.86 600.34 386.43 601.89 383.85 C 604.80 379.18 605.25 373.45 605.15 368.09 C 600.17 373.54 592.36 376.28 585.07 375.04 C 573.92 373.65 564.10 365.34 560.48 354.77 C 558.50 349.71 558.84 344.14 559.17 338.84 C 561.05 325.46 572.62 314.52 585.93 312.77 M 587.51 325.82 C 583.61 326.41 579.96 328.45 577.40 331.46 C 570.99 338.72 571.19 350.86 578.24 357.65 C 583.70 363.39 593.76 364.20 599.61 358.60 C 607.74 351.65 607.94 337.92 600.49 330.41 C 597.25 326.88 592.24 325.16 587.51 325.82 Z" />
<path fill="#e3f1f4" opacity="1.00" d=" M 654.67 321.71 C 660.51 315.23 669.61 312.13 678.21 312.90 C 690.67 314.09 700.81 324.71 703.23 336.69 C 689.64 342.61 675.81 347.96 662.20 353.80 C 665.38 358.40 670.11 362.49 676.03 362.38 C 682.52 363.05 688.16 358.99 691.92 354.07 C 695.90 355.82 699.30 358.60 702.90 360.98 C 694.91 375.19 674.66 379.44 660.98 371.05 C 644.12 361.34 641.52 335.51 654.67 321.71 M 660.14 342.64 C 669.06 338.70 678.17 335.22 687.08 331.23 C 684.65 328.09 681.06 325.64 676.99 325.58 C 667.82 324.91 659.56 333.55 660.14 342.64 Z" />
<path fill="#e3f1f4" opacity="1.00" d=" M 514.75 313.83 C 523.96 312.27 534.11 313.23 541.63 319.27 C 554.64 328.66 557.45 348.51 548.49 361.60 C 543.24 369.65 533.93 374.53 524.44 375.18 C 514.35 375.69 503.89 371.39 497.73 363.25 C 489.10 352.16 489.21 335.09 498.22 324.26 C 502.35 319.04 508.38 315.56 514.75 313.83 M 519.56 325.85 C 514.25 326.94 509.38 330.47 507.24 335.52 C 502.80 344.22 506.13 356.53 515.23 360.76 C 522.11 364.49 531.32 362.05 535.89 355.81 C 539.70 350.89 540.47 344.10 538.86 338.21 C 536.71 329.99 527.95 324.25 519.56 325.85 Z" />
<path fill="#e3f1f4" opacity="1.00" d=" M 251.54 406.05 C 261.96 406.08 272.38 406.24 282.79 406.02 C 284.77 408.21 284.88 411.24 286.21 413.77 C 287.94 417.46 288.78 421.54 289.09 425.60 C 289.95 427.31 290.81 429.02 291.78 430.68 C 291.83 431.11 291.93 431.97 291.98 432.39 C 295.89 437.82 294.89 444.98 297.80 450.79 C 297.87 451.69 297.94 452.60 298.01 453.51 C 299.39 454.04 300.32 455.11 300.57 456.59 C 301.53 459.95 302.62 463.31 303.05 466.80 C 303.18 469.17 305.00 470.84 306.17 472.74 C 308.75 477.13 308.76 482.35 310.62 487.00 C 311.80 490.21 312.06 493.63 312.06 497.02 C 312.71 497.04 314.00 497.07 314.65 497.09 C 316.24 501.42 316.43 506.08 317.54 510.53 C 318.60 513.25 319.03 516.12 318.93 519.04 C 319.67 519.04 321.15 519.04 321.89 519.04 C 322.92 523.83 324.49 528.47 325.26 533.31 C 325.64 534.59 326.74 535.45 327.53 536.47 C 329.91 542.09 330.70 548.16 332.13 554.06 C 332.81 555.76 334.33 556.95 335.21 558.55 C 336.57 561.67 336.44 565.24 337.85 568.33 C 338.91 570.54 341.34 568.77 342.86 568.09 C 343.91 559.46 346.60 551.05 349.87 543.02 C 351.58 539.95 351.91 536.40 352.79 533.06 C 353.30 529.98 353.70 526.11 356.88 524.59 C 356.83 522.13 357.97 519.96 358.80 517.73 C 359.46 513.86 359.73 509.88 361.07 506.17 C 361.34 504.72 362.80 504.22 363.91 503.59 C 364.03 502.14 364.11 500.68 364.62 499.32 C 366.43 493.41 366.20 486.70 369.94 481.50 C 370.01 481.04 370.15 480.12 370.23 479.66 C 371.14 478.32 372.00 476.95 372.90 475.61 C 372.98 472.68 373.65 469.84 374.07 466.96 C 374.49 464.45 375.25 461.53 377.92 460.57 C 378.15 455.51 380.48 450.85 381.25 445.87 C 381.81 443.45 382.09 440.33 384.95 439.57 C 385.06 433.86 387.78 428.70 388.50 423.11 C 388.78 421.37 389.57 419.78 390.83 418.54 C 391.45 415.66 393.14 413.14 393.54 410.20 C 394.02 408.53 394.69 405.92 396.91 406.12 C 407.55 406.30 418.22 405.91 428.85 406.26 C 428.74 407.69 428.78 409.18 428.36 410.58 C 427.58 413.19 424.97 414.73 424.23 417.37 C 423.26 422.29 421.79 427.09 420.86 432.03 C 420.66 434.33 418.51 435.63 417.07 437.18 C 416.76 443.19 414.25 448.81 412.63 454.55 C 411.42 455.88 409.61 457.00 409.75 459.04 C 409.44 463.56 407.19 467.67 407.03 472.21 C 406.81 475.53 403.68 477.49 402.04 480.12 C 401.97 484.14 401.42 488.22 399.93 491.98 C 399.59 493.38 398.16 493.87 397.01 494.42 C 397.24 496.96 396.64 499.44 395.13 501.51 C 394.68 505.87 393.64 510.17 392.45 514.38 C 391.84 514.62 390.62 515.10 390.01 515.35 C 390.14 517.49 389.67 519.58 388.58 521.44 C 386.80 526.74 387.08 533.00 383.16 537.42 C 383.09 539.34 382.38 541.09 381.04 542.49 C 380.63 546.01 379.70 549.44 378.96 552.91 C 378.57 554.78 377.80 556.73 375.94 557.57 C 375.91 558.21 375.85 559.50 375.81 560.14 C 373.34 563.68 373.23 568.14 372.07 572.17 C 371.79 575.26 369.74 577.69 368.61 580.49 C 365.64 585.51 366.08 591.74 363.80 596.95 C 361.57 598.43 360.28 600.40 360.84 603.19 C 360.52 603.59 359.88 604.39 359.56 604.79 C 348.37 605.23 337.17 604.85 325.97 604.99 C 323.55 605.19 321.24 604.51 319.09 603.50 C 318.02 597.32 315.02 591.55 314.88 585.25 C 313.95 584.21 312.52 583.94 311.38 583.27 C 311.06 579.31 309.34 575.66 308.92 571.73 C 308.78 570.33 307.73 569.27 307.07 568.14 C 307.04 567.25 307.02 566.37 307.01 565.49 C 302.42 563.43 303.69 557.23 301.46 553.38 C 301.26 550.46 299.80 547.93 298.30 545.51 C 296.38 540.06 295.11 534.38 293.11 528.99 C 290.11 524.72 288.78 519.53 287.87 514.46 C 286.32 512.84 285.92 510.70 285.92 508.54 C 284.35 507.26 283.16 505.52 282.62 503.57 C 280.89 494.20 275.52 486.05 273.47 476.76 C 272.74 471.84 269.37 467.91 268.41 463.08 C 267.06 454.86 261.43 448.09 260.29 439.81 C 259.95 436.80 258.19 434.23 257.80 431.24 C 256.53 429.81 255.01 428.55 254.12 426.83 C 253.91 425.07 253.99 423.30 253.97 421.54 C 251.56 417.53 251.14 412.73 248.76 408.70 C 249.69 407.81 250.61 406.93 251.54 406.05 Z" />
<path fill="#e3f1f4" opacity="1.00" d=" M 484.12 457.66 C 493.50 455.14 503.36 456.68 512.95 456.33 C 519.21 457.98 526.83 457.42 531.35 462.86 C 534.36 462.96 536.86 464.76 539.65 465.67 C 541.10 466.01 541.83 467.34 542.70 468.42 C 544.02 470.54 546.74 470.83 548.62 472.27 C 549.81 473.64 550.39 475.41 551.17 477.03 C 552.60 477.74 554.13 478.30 555.44 479.23 C 556.76 482.82 559.28 486.09 559.14 490.07 C 560.06 490.62 560.99 491.16 561.94 491.70 C 563.62 495.74 564.65 500.07 565.07 504.43 C 566.05 506.43 566.94 508.55 566.84 510.84 C 567.07 520.51 567.07 530.20 566.86 539.88 C 533.25 540.36 499.63 539.91 466.01 540.11 C 464.59 540.19 462.80 540.24 461.90 541.54 C 459.93 544.48 461.28 548.18 461.00 551.47 C 464.54 553.42 464.73 558.09 465.82 561.58 C 468.56 563.74 470.91 566.32 472.73 569.30 C 475.77 571.24 478.33 573.68 480.55 576.53 C 483.70 577.98 488.20 578.07 489.47 582.00 C 490.36 582.02 491.25 582.07 492.15 582.12 C 492.64 582.33 493.61 582.74 494.09 582.95 C 500.25 583.13 506.41 582.92 512.57 583.02 C 514.22 581.93 515.79 580.71 517.55 579.77 C 520.61 578.24 523.90 577.27 527.17 576.30 C 529.50 574.67 530.79 571.79 533.56 570.71 C 537.10 569.31 537.26 564.68 540.71 563.07 C 542.81 563.23 545.26 562.54 547.03 564.05 C 549.51 565.80 550.91 568.86 553.77 570.12 C 556.46 571.30 558.42 573.54 560.28 575.73 C 562.60 575.82 564.44 578.09 563.69 580.36 C 562.67 582.82 559.92 583.45 558.01 584.96 C 556.73 586.68 556.23 589.14 554.12 590.08 C 551.89 591.10 550.18 592.81 548.64 594.67 C 546.75 596.97 543.63 597.38 541.18 598.83 C 540.23 598.86 539.28 598.90 538.35 598.95 C 536.02 601.32 533.86 604.31 530.20 604.39 C 525.72 606.26 520.72 605.16 516.22 606.70 C 512.38 606.76 508.75 608.30 504.90 607.97 C 503.46 606.55 501.43 606.67 499.97 607.96 C 496.37 606.96 492.68 606.74 488.97 606.86 C 484.22 605.31 479.21 604.80 474.38 603.57 C 472.76 602.17 471.83 600.09 469.85 599.10 C 467.62 599.05 465.58 598.22 463.63 597.22 C 459.41 596.78 458.36 591.76 454.59 590.46 C 452.72 589.70 451.71 587.92 450.86 586.21 C 449.89 583.60 446.29 583.45 445.36 580.86 C 444.36 577.78 441.86 575.32 441.80 571.96 C 440.93 571.41 440.05 570.88 439.18 570.36 C 437.16 566.32 436.42 561.75 436.02 557.30 C 435.24 556.19 434.44 555.11 433.48 554.17 C 433.08 553.21 432.67 552.26 432.25 551.32 C 432.17 547.83 430.97 544.48 431.02 541.00 C 431.11 532.37 430.85 523.74 431.39 515.13 C 432.37 511.33 433.46 507.48 436.22 504.54 C 436.71 499.17 437.38 492.92 442.11 489.49 C 442.12 489.04 442.12 488.16 442.12 487.72 C 443.52 485.82 444.51 483.68 445.64 481.63 C 446.88 479.23 449.85 478.42 451.15 476.08 C 452.19 474.50 452.84 472.39 454.88 471.84 C 457.71 470.88 459.69 468.24 462.70 467.79 C 464.23 462.51 471.69 464.38 474.69 460.18 C 475.12 460.13 475.99 460.01 476.43 459.96 C 478.66 458.27 481.43 457.96 484.12 457.66 M 494.50 480.61 C 490.05 482.14 485.91 484.81 481.11 485.15 C 478.59 487.80 476.38 490.91 472.89 492.39 C 472.25 493.58 471.64 494.79 470.98 495.97 C 469.75 498.22 466.80 499.17 466.06 501.75 C 464.97 506.13 462.35 510.22 462.81 514.90 C 466.31 516.58 470.22 516.03 473.96 516.09 C 488.30 516.10 502.64 516.06 516.98 516.11 C 516.99 516.58 517.00 517.53 517.01 518.00 C 521.33 518.00 525.66 517.99 529.99 518.01 C 529.99 517.54 529.99 516.60 529.99 516.13 C 532.34 515.96 535.52 517.22 537.08 514.78 C 537.94 509.95 536.32 505.19 535.97 500.41 C 533.33 497.37 530.34 494.44 529.28 490.43 C 529.34 486.95 525.46 486.00 522.69 485.70 C 519.35 484.05 514.68 484.30 512.43 481.00 C 511.22 480.97 510.03 480.95 508.84 480.92 C 506.85 479.43 504.31 480.11 502.04 479.96 C 499.53 480.11 496.87 479.56 494.50 480.61 Z" />
<path fill="#e3f1f4" opacity="1.00" d=" M 644.04 459.09 C 654.35 455.78 665.31 455.93 676.02 456.19 C 680.67 456.59 685.27 457.52 689.86 458.37 C 691.42 458.65 692.74 459.51 693.50 460.93 C 696.17 460.72 698.38 462.05 700.47 463.53 C 701.47 463.83 702.48 464.11 703.50 464.37 C 705.83 465.03 707.03 466.98 708.25 468.90 C 709.27 469.00 710.30 469.07 711.35 469.12 C 712.89 470.45 714.55 471.64 716.24 472.81 C 715.81 473.93 715.32 475.02 714.88 476.15 C 715.93 475.63 717.00 475.11 718.10 474.66 C 718.99 477.10 721.21 478.40 723.29 479.73 C 722.87 480.89 722.35 482.00 721.87 483.14 C 722.94 482.62 724.03 482.10 725.15 481.64 C 726.65 484.75 730.25 486.85 730.10 490.62 C 733.32 491.26 733.50 494.97 734.22 497.54 C 735.20 499.50 735.93 501.58 736.71 503.64 C 736.78 504.10 736.94 505.02 737.01 505.48 C 738.09 506.12 739.14 506.89 739.37 508.23 C 743.13 520.49 741.70 533.46 741.62 546.09 C 740.06 550.11 740.17 554.58 738.21 558.47 C 737.87 559.63 737.63 560.85 736.98 561.91 C 733.93 566.73 733.10 572.79 728.96 576.95 C 726.82 579.02 726.39 582.42 723.74 583.99 C 720.97 585.51 720.28 588.98 717.68 590.70 C 715.12 592.44 712.80 594.48 710.50 596.54 C 708.17 597.55 705.75 598.36 703.50 599.56 C 700.97 600.41 699.08 602.30 696.96 603.82 C 693.55 605.36 689.68 604.89 686.09 605.72 C 681.36 606.02 676.73 607.29 672.04 607.72 C 667.74 606.68 663.24 606.72 658.92 607.61 C 653.17 605.29 646.75 606.48 641.01 604.17 C 637.82 603.38 635.32 601.15 632.77 599.23 C 628.81 597.86 624.06 597.11 621.52 593.42 C 619.73 590.75 615.84 590.46 614.55 587.38 C 613.47 584.60 610.62 583.54 608.36 581.96 C 607.56 579.59 606.48 577.33 605.13 575.23 C 605.09 574.74 605.01 573.77 604.98 573.28 C 603.05 571.55 600.55 569.93 600.19 567.14 C 599.78 564.09 598.46 561.30 597.37 558.46 C 596.49 555.90 594.98 553.62 594.13 551.07 C 593.95 547.07 594.12 543.06 593.11 539.15 C 593.21 533.47 592.59 527.70 593.85 522.11 C 594.14 518.82 593.85 515.49 594.44 512.23 C 595.09 512.15 596.39 511.98 597.04 511.90 C 596.78 508.96 597.19 506.04 598.88 503.57 C 599.44 500.16 600.11 496.70 601.61 493.58 C 602.84 492.08 604.58 491.11 606.05 489.87 C 606.04 489.22 606.01 487.92 606.00 487.27 C 609.11 482.04 613.70 478.06 617.43 473.34 C 619.86 471.74 622.24 470.03 624.81 468.67 C 629.07 463.83 635.81 463.17 641.50 460.87 C 642.27 460.18 643.12 459.58 644.04 459.09 M 653.97 485.58 C 650.79 485.98 648.99 488.82 646.30 490.15 C 641.74 491.61 639.69 496.39 635.92 499.06 C 633.63 502.04 631.87 505.44 629.53 508.43 C 626.20 513.00 627.91 519.38 624.00 523.61 C 623.77 529.51 623.90 535.41 624.01 541.31 C 624.47 542.16 624.86 543.04 625.18 543.97 L 624.17 545.43 C 626.15 547.85 627.04 550.85 628.18 553.71 C 630.90 557.69 633.82 561.53 636.37 565.63 C 638.23 569.05 642.28 570.37 644.31 573.65 C 645.29 575.24 647.43 575.18 648.85 576.24 C 652.05 578.36 655.95 578.70 659.52 579.87 C 662.58 581.18 665.91 581.18 669.18 581.15 C 673.19 583.33 678.22 580.68 682.21 583.08 C 682.15 581.68 682.10 580.28 682.05 578.89 C 684.70 577.76 687.05 575.74 690.09 575.82 C 691.27 573.52 692.54 571.12 695.01 569.99 C 697.99 568.63 699.08 565.39 701.20 563.13 C 703.73 560.76 704.53 557.25 706.82 554.68 C 706.78 551.14 708.78 548.35 710.91 545.73 C 711.13 544.24 711.33 542.75 711.89 541.35 C 712.29 535.36 712.35 529.35 711.89 523.37 C 710.89 519.65 708.49 516.48 707.31 512.85 C 706.46 505.22 699.76 500.32 695.69 494.37 C 693.97 493.48 692.70 491.93 690.93 491.16 C 689.31 490.35 687.29 489.96 686.52 488.12 C 676.46 482.95 664.71 483.11 653.97 485.58 M 716.18 580.17 L 716.17 580.83 L 716.83 580.83 L 716.83 580.18 L 716.18 580.17 Z" />
</g>
</svg>
