<?xml version="1.0" encoding="UTF-8" ?>
<!DOCTYPE svg PUBLIC "-//W3C//DTD SVG 1.1//EN" "http://www.w3.org/Graphics/SVG/1.1/DTD/svg11.dtd">
<svg width="966pt" height="966pt" viewBox="0 0 966 966" version="1.1" xmlns="http://www.w3.org/2000/svg">
<g id="#e3f1f4ff">
<path fill="#e3f1f4" opacity="1.00" d=" M 275.47 154.90 C 280.01 157.20 283.36 161.11 287.28 164.27 C 289.22 164.45 290.65 165.85 291.15 167.70 C 293.30 169.67 295.43 171.71 297.97 173.20 C 299.02 173.56 299.42 174.60 299.92 175.48 C 302.83 177.91 305.24 181.17 308.88 182.54 C 309.05 182.95 309.37 183.76 309.54 184.16 C 311.59 185.78 313.24 188.11 315.82 188.94 L 314.87 189.54 C 317.01 189.23 318.34 191.12 319.61 192.47 C 321.47 195.06 323.96 197.08 326.30 199.21 C 331.26 201.64 333.67 207.23 338.57 209.89 L 338.43 210.09 C 340.60 211.16 342.25 212.99 344.08 214.54 C 346.93 219.23 352.41 221.49 356.07 225.51 C 359.04 230.16 364.35 232.62 368.08 236.62 C 370.04 239.70 373.29 241.60 375.97 244.00 C 377.53 245.21 378.83 247.09 380.96 247.30 C 381.23 248.10 381.48 248.91 381.74 249.72 C 385.52 252.50 388.53 256.71 392.96 258.38 C 393.20 259.14 393.44 259.90 393.68 260.67 C 396.89 263.45 400.08 266.27 403.33 269.02 C 405.19 269.41 406.39 270.84 406.88 272.63 C 410.01 275.44 413.13 278.26 416.33 280.99 C 418.20 281.42 419.45 282.81 419.98 284.62 C 423.63 287.77 426.88 291.43 431.06 293.90 C 431.29 294.31 431.75 295.14 431.98 295.55 C 435.01 298.47 438.16 301.28 441.35 304.02 C 443.41 304.95 445.27 306.46 446.21 308.55 C 448.81 311.15 451.58 313.59 454.38 315.99 C 455.58 316.54 456.63 317.36 457.59 318.29 C 459.64 321.73 463.14 324.01 466.07 326.65 C 466.47 312.64 466.57 298.62 466.72 284.61 C 465.52 282.13 466.07 279.30 466.11 276.66 C 466.32 276.23 466.76 275.37 466.97 274.94 C 467.35 256.26 467.65 237.56 467.80 218.88 C 466.28 212.92 467.21 206.69 467.09 200.61 C 468.36 199.37 467.96 197.55 468.07 195.98 C 468.18 182.36 468.33 168.74 468.50 155.12 C 478.21 155.11 487.91 155.12 497.62 155.11 C 497.78 195.72 497.40 236.34 497.88 276.95 C 497.93 278.55 497.72 280.30 498.84 281.65 C 499.52 286.45 497.94 291.17 498.57 295.97 C 499.06 299.53 497.94 303.52 499.85 306.73 C 499.48 310.68 499.05 314.94 500.66 318.67 C 500.44 320.95 500.94 323.17 501.94 325.22 C 503.79 324.16 504.60 320.00 507.30 321.89 L 506.12 320.16 C 506.57 320.38 507.45 320.81 507.89 321.03 C 508.18 320.35 508.76 318.99 509.05 318.31 C 510.79 318.48 512.00 317.22 513.24 316.25 C 515.22 313.63 519.75 312.74 520.21 309.23 C 523.45 309.53 525.18 306.09 527.54 304.49 C 530.16 302.81 532.15 300.34 534.83 298.74 C 536.12 297.89 537.41 296.93 538.03 295.45 C 541.57 293.62 543.95 290.33 547.42 288.43 C 548.63 287.77 549.59 286.73 550.02 285.41 C 551.97 283.93 554.19 282.87 556.12 281.34 C 556.37 280.89 556.87 280.00 557.12 279.55 C 560.82 278.63 562.64 275.09 565.22 272.67 C 567.76 272.90 568.21 269.65 570.35 268.97 C 573.50 267.24 575.91 264.51 578.79 262.40 L 577.73 261.22 C 580.04 262.70 581.57 260.02 582.80 258.55 C 585.59 256.78 588.01 254.54 590.55 252.44 C 592.37 250.87 594.73 249.79 595.93 247.61 C 596.99 246.79 598.08 246.00 599.22 245.29 C 601.52 243.57 603.34 241.28 605.80 239.77 C 608.63 238.08 610.10 234.87 613.06 233.35 C 615.00 232.30 616.30 230.49 617.91 229.03 C 619.86 227.74 622.30 226.75 623.13 224.35 C 624.22 223.46 625.37 222.62 626.70 222.12 C 628.41 220.74 630.08 219.27 631.38 217.47 C 635.36 216.35 636.74 211.96 640.42 210.47 C 643.69 207.98 646.76 205.22 649.98 202.65 C 650.34 201.34 650.99 200.08 652.65 200.26 C 656.17 197.46 659.48 194.40 663.12 191.74 C 663.52 190.57 663.88 188.42 665.78 189.34 C 670.89 185.63 675.27 181.03 680.50 177.47 C 681.88 176.36 682.72 174.58 684.54 174.07 L 684.50 173.91 C 685.98 173.03 687.21 171.82 688.37 170.56 C 690.25 169.50 692.99 168.52 693.04 165.95 C 693.49 166.12 694.37 166.47 694.81 166.64 L 693.97 165.50 C 695.72 165.66 696.83 164.34 698.04 163.35 C 698.32 162.90 698.88 162.00 699.16 161.55 C 702.37 160.58 704.69 157.86 707.54 156.17 C 708.39 156.56 709.25 156.94 710.13 157.32 C 709.84 157.75 709.28 158.62 709.00 159.05 C 709.51 161.36 709.25 164.05 711.10 165.84 C 710.85 166.31 710.34 167.26 710.09 167.74 C 710.47 172.47 710.58 177.22 710.97 181.95 C 711.25 182.40 711.81 183.32 712.09 183.78 C 711.79 184.68 711.48 185.57 711.17 186.46 C 711.55 200.65 711.97 214.85 711.94 229.04 C 711.98 230.62 711.74 232.35 712.86 233.66 C 712.65 238.95 713.75 244.46 712.33 249.60 C 712.23 278.05 712.31 306.51 712.29 334.96 C 712.34 340.07 712.11 345.19 712.51 350.29 C 733.57 350.27 754.63 350.28 775.69 350.28 C 775.70 447.84 775.70 545.40 775.69 642.95 C 748.05 643.04 720.40 643.00 692.76 642.97 C 692.81 666.64 692.77 690.30 692.78 713.96 C 692.97 731.99 692.38 750.03 693.01 768.04 C 692.73 774.66 693.27 781.37 692.02 787.91 C 691.71 796.05 691.75 804.20 691.73 812.33 C 690.59 814.09 690.82 816.24 690.48 818.22 C 688.07 816.81 685.11 815.93 683.56 813.47 C 682.76 812.34 681.69 811.41 680.28 811.25 L 680.66 810.92 C 678.83 810.34 677.80 808.68 676.51 807.42 C 674.29 805.10 671.31 803.75 669.00 801.53 C 667.41 798.31 663.70 797.13 661.41 794.55 C 659.77 792.53 657.50 791.23 655.53 789.60 C 651.63 786.05 648.04 781.60 643.04 779.67 C 642.78 778.88 642.54 778.09 642.31 777.31 C 637.09 773.42 632.61 768.69 627.54 764.64 C 627.23 764.65 626.61 764.67 626.30 764.69 C 626.27 764.39 626.22 763.78 626.19 763.48 C 622.98 760.41 619.85 757.15 615.91 755.02 C 614.80 754.52 614.42 753.37 614.01 752.35 C 611.62 750.13 609.12 748.05 606.68 745.91 C 604.92 745.42 603.62 744.17 602.98 742.49 C 600.57 740.34 598.37 737.81 595.34 736.52 C 593.90 734.20 591.75 732.48 589.70 730.75 C 585.46 729.00 583.50 724.57 579.99 721.91 C 578.10 720.32 575.68 719.36 574.17 717.35 C 571.40 713.65 567.62 710.94 563.97 708.20 C 561.62 705.20 558.69 702.74 555.61 700.53 C 552.84 698.58 551.02 695.61 548.23 693.71 C 543.76 690.47 540.26 686.14 535.77 682.93 C 533.98 683.29 533.57 681.59 533.16 680.29 C 530.50 677.97 527.70 675.85 525.05 673.53 C 523.31 671.96 521.51 668.61 518.82 669.76 L 520.16 667.86 L 518.29 669.16 C 518.28 668.75 518.26 667.92 518.26 667.51 C 515.84 665.29 513.53 662.58 510.28 661.61 C 509.36 659.50 507.53 658.42 505.44 657.76 C 505.31 657.27 505.04 656.27 504.91 655.78 L 502.59 657.27 L 503.40 655.05 C 501.85 656.07 500.77 657.54 500.41 659.40 C 499.57 661.31 499.37 663.38 499.62 665.45 C 497.36 670.82 499.21 676.74 498.85 682.33 C 497.73 683.65 497.90 685.38 497.86 686.99 C 497.25 730.95 497.89 774.93 497.60 818.89 C 487.92 818.90 478.25 818.86 468.58 818.91 C 468.15 803.97 468.29 789.02 467.97 774.09 C 467.75 773.66 467.31 772.81 467.09 772.39 C 467.19 766.89 466.31 761.25 467.81 755.90 C 467.66 737.29 467.39 718.67 466.99 700.07 C 466.78 699.64 466.34 698.78 466.13 698.36 C 466.15 695.66 465.44 692.76 466.70 690.25 C 466.68 675.51 466.41 660.76 466.10 646.03 C 462.73 649.65 457.66 652.03 455.67 656.73 C 454.69 657.71 453.59 658.59 452.22 658.96 C 449.17 661.84 445.78 664.33 442.77 667.24 C 442.51 668.05 442.25 668.87 441.97 669.69 C 440.30 669.74 439.21 671.05 438.04 672.05 C 434.29 675.44 429.90 678.29 426.97 682.46 C 421.94 686.94 416.35 690.85 412.08 696.12 C 407.78 700.12 402.76 703.38 399.03 707.99 C 398.15 709.11 397.13 710.13 395.98 710.98 C 391.50 714.11 387.59 717.99 384.10 722.16 C 379.67 725.21 375.76 728.93 371.96 732.72 C 371.09 734.18 370.00 735.53 368.52 736.41 C 364.44 738.87 361.34 742.57 357.79 745.68 C 357.05 747.23 356.07 748.74 354.18 748.85 C 353.06 749.66 352.45 750.74 352.35 752.10 L 351.66 751.14 C 349.80 753.06 347.81 754.86 345.80 756.64 C 345.20 758.27 344.08 759.64 342.31 760.03 C 338.92 762.71 335.99 765.90 332.57 768.54 C 332.40 769.07 332.07 770.12 331.90 770.65 C 329.60 771.02 328.16 772.99 326.47 774.38 C 320.77 779.23 315.67 784.74 309.73 789.31 C 309.47 790.10 309.22 790.90 308.96 791.71 C 306.65 792.01 305.17 793.97 303.40 795.26 C 301.59 796.87 299.25 798.14 298.23 800.45 C 296.76 801.55 295.33 802.73 293.86 803.85 C 290.37 806.08 288.09 809.70 284.59 811.92 L 284.47 812.14 C 281.21 813.83 279.80 818.10 275.65 818.18 C 275.21 813.96 275.95 809.38 274.24 805.45 C 274.53 803.97 274.73 802.48 274.61 800.99 C 274.24 792.35 274.27 783.69 273.95 775.04 C 273.77 774.61 273.40 773.74 273.21 773.30 C 272.95 768.87 272.79 764.41 273.50 760.02 C 273.39 721.01 273.44 682.00 273.45 642.99 C 245.83 642.98 218.21 643.06 190.59 642.94 C 190.48 545.39 190.45 447.84 190.61 350.29 C 199.09 349.80 207.60 350.69 216.07 349.88 C 225.50 348.29 235.11 349.80 244.58 348.74 C 253.04 347.80 261.56 348.26 270.03 347.90 C 271.73 347.31 270.93 345.26 271.15 343.94 C 271.49 328.18 270.65 312.43 271.41 296.67 C 272.20 294.89 272.01 292.91 272.07 291.02 C 272.13 273.66 272.44 256.29 272.38 238.93 C 271.77 233.53 272.06 228.09 272.29 222.67 C 272.88 221.53 273.14 220.33 273.07 219.05 C 273.21 208.25 273.60 197.43 273.22 186.66 C 274.56 184.68 274.05 182.22 274.24 179.99 C 274.23 175.81 274.85 171.63 274.41 167.47 C 275.65 163.46 275.67 159.07 275.47 154.90 M 302.16 222.31 C 302.35 230.23 302.67 238.14 302.80 246.06 C 302.92 247.61 302.57 249.44 303.96 250.58 C 303.95 251.05 303.92 251.99 303.91 252.46 C 303.70 252.84 303.29 253.59 303.09 253.97 C 302.77 267.30 303.67 280.64 303.87 293.97 C 304.12 295.41 303.38 297.39 304.90 298.33 C 304.27 299.13 303.98 300.02 304.02 301.02 C 304.12 314.31 304.71 327.60 304.86 340.89 C 305.08 342.43 304.41 344.45 305.98 345.50 C 305.67 346.23 305.36 346.98 305.06 347.72 C 330.04 348.50 355.07 347.64 380.03 349.05 C 391.70 349.36 403.38 348.99 415.05 349.38 C 423.75 350.58 432.57 350.05 441.34 350.17 C 440.05 348.03 436.41 348.06 436.21 345.27 C 432.41 341.55 428.46 337.97 424.47 334.44 L 423.20 334.81 C 424.15 332.16 420.41 331.34 418.82 330.04 C 415.87 325.06 410.87 321.77 406.70 317.88 C 403.97 316.41 401.29 314.28 400.00 311.40 C 396.82 308.55 394.05 305.02 390.18 303.10 L 391.00 302.54 C 388.47 302.59 387.12 300.09 385.38 298.66 C 383.47 294.87 379.51 292.72 376.63 289.73 C 375.01 289.02 373.64 287.90 372.38 286.68 C 370.59 283.45 367.44 281.08 364.41 279.06 L 364.79 278.70 C 362.95 278.32 361.73 276.87 360.41 275.68 C 358.52 272.50 355.41 270.24 352.45 268.12 L 352.64 267.85 C 351.46 267.32 350.27 266.69 349.54 265.60 C 347.57 262.84 344.88 260.74 342.20 258.72 C 340.44 257.55 338.83 256.16 337.55 254.47 C 334.05 250.24 328.96 247.71 325.49 243.46 C 322.20 239.71 317.93 237.05 314.43 233.54 C 310.77 229.34 306.08 226.25 302.16 222.31 M 670.75 227.30 C 670.59 227.73 670.26 228.58 670.10 229.00 C 667.59 229.91 665.50 231.56 663.73 233.51 C 661.40 236.00 657.81 237.33 656.25 240.46 C 654.84 241.34 653.47 242.27 652.12 243.22 C 649.52 245.46 647.17 247.99 644.29 249.90 C 642.06 251.27 640.90 253.88 638.47 254.95 L 638.56 255.17 C 635.91 256.67 633.89 258.98 631.68 261.03 L 631.41 261.14 C 629.97 262.09 628.51 263.07 627.46 264.45 C 625.66 267.42 621.89 268.15 619.87 270.94 C 617.89 273.85 614.22 274.79 612.01 277.51 C 610.20 281.24 604.40 281.59 603.59 286.06 L 602.08 285.11 L 603.12 286.65 C 600.33 286.08 598.82 289.27 596.62 290.42 C 596.39 291.06 596.17 291.70 595.96 292.34 C 593.03 293.03 591.00 295.42 588.89 297.37 C 588.68 298.87 587.78 299.71 586.24 299.52 C 583.24 301.66 580.92 304.59 577.87 306.66 C 576.63 307.81 574.66 308.59 574.38 310.43 C 573.14 311.09 571.93 311.81 570.74 312.54 C 568.47 314.62 566.50 317.04 563.85 318.67 C 562.53 319.79 560.45 320.61 560.30 322.56 C 559.00 323.29 557.72 324.05 556.42 324.76 L 556.53 325.05 C 553.83 326.40 552.43 329.28 549.84 330.77 C 546.23 332.18 545.03 336.85 541.21 337.58 L 541.33 337.94 C 539.38 339.17 537.57 340.67 536.56 342.79 L 535.41 342.21 L 535.69 343.13 C 533.32 344.05 531.58 345.97 529.86 347.76 C 546.89 348.41 563.98 347.65 580.99 349.02 C 594.00 348.99 607.03 349.62 620.04 349.11 C 638.82 349.39 657.61 349.24 676.39 349.13 C 677.63 345.53 677.23 341.68 677.39 337.95 C 676.87 327.34 676.79 316.67 677.42 306.07 C 677.33 295.73 677.23 285.39 677.11 275.05 C 677.39 267.65 675.47 260.38 676.31 252.97 C 676.12 243.07 676.39 233.13 675.54 223.25 C 673.93 224.59 672.34 225.95 670.75 227.30 M 224.51 379.79 C 224.69 456.11 224.44 532.44 224.65 608.76 C 240.88 608.81 257.11 608.73 273.35 608.80 C 273.67 590.04 273.15 571.23 273.60 552.48 C 276.95 548.87 280.65 545.61 283.94 541.95 C 288.06 538.06 292.05 534.04 295.97 529.95 C 296.63 529.27 297.29 528.60 297.96 527.93 C 305.04 521.03 312.06 514.05 318.94 506.95 C 323.02 503.02 327.10 499.09 330.95 494.94 C 335.04 491.03 339.07 487.04 342.98 482.95 C 343.98 481.96 344.96 480.96 345.94 479.95 C 360.70 465.37 375.39 450.71 389.97 435.96 C 390.64 435.17 391.30 434.38 391.96 433.58 L 392.77 433.54 L 392.46 432.19 L 393.84 432.68 L 393.31 431.16 L 394.37 431.58 C 394.50 430.45 395.07 429.61 396.06 429.07 C 400.16 424.95 403.88 420.29 408.54 416.81 C 412.99 412.07 417.99 407.73 421.87 402.51 L 422.90 402.58 L 422.25 401.18 L 423.05 401.51 C 423.66 400.65 424.30 399.80 424.96 398.97 C 428.22 395.46 432.29 392.71 434.91 388.61 L 435.09 388.35 C 436.44 386.61 438.02 385.06 439.38 383.32 C 436.83 382.84 433.98 381.24 431.49 382.62 C 430.58 382.12 429.61 381.82 428.59 381.74 C 421.69 381.05 414.76 380.95 407.84 380.83 C 382.91 379.48 357.95 380.00 333.00 379.82 C 296.84 379.80 260.68 379.88 224.51 379.79 M 557.95 380.85 C 550.17 381.07 542.27 380.81 534.60 382.32 C 531.97 381.76 529.35 382.59 526.84 383.30 C 528.32 385.39 530.18 387.15 531.78 389.15 C 535.19 394.03 540.03 397.61 544.02 401.98 C 544.77 402.74 545.38 403.65 545.88 404.61 L 546.62 404.34 L 546.39 405.20 C 551.83 410.60 556.92 416.35 562.44 421.69 C 567.32 425.55 571.25 430.40 575.58 434.84 L 575.46 435.63 L 576.71 435.38 L 576.35 436.66 L 577.69 436.27 L 577.25 437.43 L 578.51 437.43 L 578.66 438.72 L 579.90 438.39 L 579.28 439.87 L 580.90 439.23 L 580.20 440.55 L 581.60 440.38 L 581.38 441.70 L 582.51 441.31 L 582.28 442.59 L 583.49 442.44 L 583.44 443.23 C 583.78 443.54 584.47 444.17 584.81 444.48 L 585.50 444.48 L 585.42 445.52 L 586.44 445.55 L 586.44 446.25 C 593.59 453.53 600.69 460.87 608.11 467.88 C 608.76 468.57 609.42 469.27 610.07 469.98 C 610.86 470.62 611.66 471.26 612.47 471.89 L 612.32 472.68 L 613.59 472.45 L 613.34 473.79 L 614.72 473.41 L 614.24 474.78 L 615.73 474.26 L 615.26 475.69 L 616.05 475.52 C 616.64 476.51 617.42 477.33 618.39 477.97 L 618.35 478.70 L 619.50 478.44 L 619.42 479.27 C 620.84 480.63 622.26 482.00 623.70 483.36 C 623.94 483.68 624.42 484.32 624.66 484.63 L 625.01 484.60 C 625.60 485.48 626.32 486.25 627.17 486.91 C 627.41 487.15 627.89 487.64 628.13 487.88 C 628.81 488.62 629.55 489.33 630.33 489.99 L 630.39 490.28 C 631.29 491.13 632.21 491.99 633.13 492.86 C 633.94 493.72 634.75 494.57 635.59 495.43 C 636.43 496.25 637.28 497.08 638.12 497.92 C 638.38 498.15 638.90 498.61 639.16 498.84 C 639.76 499.69 640.51 500.40 641.40 500.98 L 641.33 501.39 C 641.66 501.63 642.33 502.10 642.66 502.33 C 644.02 503.73 645.37 505.15 646.71 506.59 L 647.52 506.53 L 647.39 507.62 L 648.02 507.66 C 648.65 508.63 649.49 509.37 650.54 509.89 L 650.20 510.67 L 651.61 510.32 L 651.32 511.73 L 652.05 511.50 C 652.63 512.36 653.31 513.16 654.08 513.88 C 656.02 515.73 657.88 517.68 659.74 519.63 L 660.02 519.67 C 660.67 520.44 661.36 521.17 662.11 521.87 C 662.35 522.12 662.83 522.62 663.07 522.87 C 663.73 523.55 664.39 524.24 665.07 524.92 C 665.34 525.16 665.90 525.64 666.17 525.88 C 667.65 527.47 669.18 529.01 670.72 530.56 L 671.18 530.54 C 671.38 530.91 671.79 531.66 672.00 532.04 C 672.72 532.62 673.44 533.21 674.17 533.81 C 674.38 534.09 674.81 534.64 675.03 534.91 C 675.76 535.67 676.56 536.35 677.44 536.96 L 677.34 537.33 C 677.66 537.57 678.29 538.04 678.61 538.28 C 681.07 540.83 683.47 543.47 686.13 545.84 C 686.37 546.10 686.87 546.62 687.11 546.87 C 687.74 547.56 688.39 548.24 689.03 548.94 C 689.40 549.15 690.12 549.57 690.49 549.79 L 690.40 550.23 C 691.24 551.08 692.08 551.96 692.89 552.86 C 692.68 571.51 692.78 590.16 692.84 608.81 C 709.08 608.70 725.32 608.86 741.57 608.73 C 741.73 532.41 741.56 456.08 741.65 379.76 C 705.43 379.92 669.21 379.78 632.99 379.83 C 607.98 380.00 582.95 379.47 557.95 380.85 M 450.89 420.94 C 442.37 428.05 434.99 436.36 426.98 444.02 C 426.28 444.62 425.58 445.22 424.89 445.83 C 424.60 446.05 424.02 446.49 423.73 446.72 C 392.48 476.90 362.19 508.07 331.47 538.79 L 331.47 539.53 L 330.76 539.44 C 330.43 539.77 329.77 540.43 329.45 540.76 L 329.52 541.48 L 328.46 541.43 L 328.44 542.12 C 325.51 544.75 322.69 547.50 320.18 550.53 L 319.43 550.49 L 319.51 551.20 C 319.18 551.53 318.52 552.19 318.19 552.52 L 317.84 552.48 C 317.52 552.82 316.88 553.49 316.56 553.82 L 316.52 554.19 C 313.73 556.61 311.32 559.42 308.59 561.90 L 308.60 562.63 L 307.84 562.51 C 307.61 562.86 307.15 563.56 306.91 563.91 C 305.41 565.36 303.90 566.83 302.64 568.51 C 302.99 573.80 302.76 579.12 303.04 584.42 C 305.54 587.85 303.08 592.21 302.99 595.99 C 303.04 623.48 303.47 650.96 304.03 678.44 C 305.27 679.48 305.28 680.57 304.06 681.70 C 304.09 701.48 304.72 721.25 304.89 741.02 C 305.07 742.51 304.49 744.40 305.92 745.49 C 305.31 746.84 304.57 748.27 305.79 749.55 C 306.04 749.04 306.54 748.00 306.79 747.48 L 307.73 747.43 L 307.04 746.52 C 310.79 745.69 313.03 741.84 316.06 739.66 C 316.49 738.10 317.52 736.81 318.94 736.06 C 322.86 733.97 325.90 730.65 329.18 727.72 C 329.52 726.53 329.90 724.88 331.64 725.24 C 334.83 722.35 338.28 719.75 341.29 716.67 C 341.32 716.36 341.39 715.76 341.42 715.45 C 343.56 715.01 344.81 713.00 346.50 711.81 C 350.75 708.64 353.98 704.36 358.17 701.12 C 358.44 700.94 358.99 700.58 359.26 700.40 C 363.27 697.25 366.24 692.97 370.48 690.12 L 370.36 689.32 L 371.58 689.72 L 371.51 688.93 C 375.84 686.41 378.12 681.49 382.62 679.23 L 382.48 678.94 C 387.26 676.19 389.77 670.80 394.62 668.22 L 394.39 667.93 C 399.43 665.47 401.63 659.58 406.69 657.25 L 406.30 656.90 C 408.95 655.74 410.98 653.51 412.57 651.15 C 412.96 650.97 413.72 650.62 414.10 650.44 C 414.89 648.90 415.90 647.39 417.75 647.08 L 417.16 646.58 C 420.95 645.52 423.09 641.65 426.21 639.43 C 426.51 638.05 427.31 637.27 428.61 637.10 L 428.12 635.95 L 429.89 636.70 L 429.10 635.58 C 432.91 634.66 435.04 630.76 438.15 628.60 C 439.03 626.60 440.53 624.32 443.01 624.46 L 442.00 623.82 C 445.87 622.69 448.15 618.87 451.38 616.64 C 451.60 615.93 451.82 615.24 452.05 614.56 C 456.61 612.75 459.58 608.45 463.50 605.62 C 463.67 604.92 463.86 604.22 464.05 603.54 C 465.18 603.08 466.31 602.59 467.43 602.07 C 467.69 600.03 468.08 597.99 468.05 595.94 C 468.04 566.63 468.01 537.32 468.06 508.01 C 467.97 506.43 468.37 504.62 467.09 503.38 C 467.02 501.45 467.02 499.53 467.09 497.61 C 467.31 497.21 467.75 496.40 467.97 496.00 C 468.12 490.01 467.96 484.02 468.05 478.03 C 467.96 476.44 468.35 474.64 467.10 473.39 C 467.26 470.37 466.17 466.99 467.86 464.27 C 467.99 453.54 467.53 442.80 467.22 432.07 C 466.97 430.59 467.57 428.66 466.13 427.65 C 467.59 423.53 466.11 419.06 466.17 414.80 L 465.17 415.11 C 465.74 413.19 465.57 411.21 465.44 409.26 C 459.34 411.35 455.65 416.96 450.89 420.94 M 500.77 409.37 C 500.66 411.03 500.59 412.72 500.54 414.40 C 498.51 419.39 500.52 424.91 498.97 429.93 C 498.57 438.72 497.98 447.56 498.93 456.31 C 498.70 456.73 498.25 457.57 498.02 457.99 C 497.12 504.32 498.03 550.67 497.96 597.02 C 498.05 598.61 497.62 600.47 498.97 601.72 C 498.89 603.24 498.61 604.76 498.17 606.23 C 507.11 613.59 515.35 621.73 524.30 629.10 C 525.94 628.89 526.50 630.39 526.89 631.68 C 529.54 633.63 531.61 636.72 534.95 637.51 C 535.07 637.97 535.30 638.89 535.42 639.35 C 537.57 641.06 539.66 642.85 541.60 644.81 L 542.36 643.93 C 541.71 645.67 543.16 646.72 544.53 646.45 C 545.94 648.87 548.08 650.83 550.64 652.00 L 549.97 652.53 C 552.40 652.47 554.26 654.59 555.21 656.63 C 556.81 658.30 558.55 659.90 560.68 660.87 L 560.35 661.13 C 562.34 662.03 564.13 663.46 565.18 665.43 C 566.84 667.05 568.36 669.10 570.74 669.71 L 570.36 670.06 C 573.74 671.48 575.01 675.62 578.55 676.95 L 578.19 678.05 L 579.85 677.03 L 579.25 678.14 C 583.22 679.76 584.98 684.25 588.78 686.28 C 590.22 687.23 591.57 688.32 592.84 689.51 C 595.24 693.32 599.64 695.17 602.62 698.46 C 603.98 700.06 605.54 701.47 607.19 702.77 C 610.74 705.20 613.45 708.60 616.80 711.29 C 618.28 712.41 619.75 713.54 621.29 714.61 C 623.65 717.94 627.06 721.07 630.95 722.52 C 631.14 723.21 631.34 723.92 631.55 724.64 C 634.69 726.76 637.00 730.23 640.68 731.45 C 641.71 734.01 644.02 736.26 646.77 736.81 L 645.75 738.21 L 648.01 737.02 L 646.83 738.57 C 648.82 737.82 649.99 739.60 650.88 741.00 C 652.18 743.23 654.35 744.73 656.52 746.04 L 656.08 747.06 L 657.80 745.98 L 657.21 747.26 C 659.03 747.12 659.59 748.54 659.98 749.98 L 661.09 749.92 C 661.13 729.59 661.91 709.28 662.05 688.96 C 662.09 662.31 663.03 635.67 663.09 609.03 C 663.34 598.01 662.83 587.01 663.17 576.00 C 663.08 572.76 663.76 569.38 662.45 566.31 L 661.59 566.70 L 661.42 565.56 L 660.24 565.47 L 660.70 564.34 L 659.28 564.74 L 659.62 563.27 L 658.06 563.62 L 658.72 562.14 L 657.29 562.77 L 657.71 561.31 L 656.25 561.62 L 656.80 560.33 L 655.53 560.76 C 655.56 560.40 655.61 559.70 655.63 559.34 L 654.51 559.59 L 654.60 558.46 L 653.55 558.49 L 653.55 557.77 C 652.76 556.98 651.99 556.20 651.23 555.42 L 650.44 555.48 L 650.62 554.34 L 649.41 554.54 L 649.71 553.30 L 648.39 553.59 L 648.79 552.49 L 647.51 552.48 L 647.56 551.17 L 646.92 551.52 C 646.29 550.67 645.64 549.83 644.98 549.02 C 644.29 548.39 643.61 547.76 642.94 547.13 C 612.45 516.27 581.82 485.56 551.00 455.03 C 550.22 454.35 549.44 453.67 548.65 453.01 L 548.57 452.70 C 548.25 452.37 547.61 451.72 547.28 451.39 L 546.56 451.47 L 546.55 450.42 L 545.54 450.43 L 545.52 449.41 L 544.47 449.45 L 544.50 448.32 L 543.75 448.58 C 543.39 448.26 542.68 447.60 542.32 447.27 L 542.54 446.95 C 533.41 439.88 526.67 430.16 517.49 423.10 L 517.63 422.73 C 517.26 422.52 516.52 422.12 516.15 421.92 C 511.95 418.66 509.00 414.05 504.48 411.18 L 504.51 410.77 C 503.26 410.30 502.01 409.83 500.77 409.37 Z" />
</g>
</svg>
